<svg xmlns="http://www.w3.org/2000/svg" xmlns:xlink="http://www.w3.org/1999/xlink" xmlns:inkscape="http://www.inkscape.org/namespaces/inkscape" version="1.1" width="595.276" height="841.89" viewBox="0 0 595.276 841.89">
<defs>
<clipPath id="clip_1">
<path transform="matrix(1.00005,0,0,-1.00005,-.013,841.908)" d="M0 0H595.276V841.89H0Z"/>
</clipPath>
<clipPath id="clip_2">
<path transform="matrix(1.0000999,0,0,-1.0000999,-.026000649,841.926)" d="M0 0H595.276V841.89H0Z"/>
</clipPath>
<clipPath id="clip_3">
<path transform="matrix(1.0001499,0,0,-1.0001499,-.03900195,841.94406)" d="M0 0H595.276V841.89H0Z"/>
</clipPath>
<clipPath id="clip_4">
<path transform="matrix(1.0001998,0,0,-1.0001998,-.052003899,841.96206)" d="M0 0H595.276V841.89H0Z"/>
</clipPath>
<clipPath id="clip_5">
<path transform="matrix(1.0002498,0,0,-1.0002498,-.065006498,841.98007)" d="M0 0H595.276V841.89H0Z"/>
</clipPath>
<clipPath id="clip_6">
<path transform="matrix(1.0002997,0,0,-1.0002997,.060024725,842.05307)" d="M0 0H595V842H0Z"/>
</clipPath>
<clipPath id="clip_7">
<path transform="matrix(1.0002997,0,0,-1.0002997,.060024725,842.05307)" d="M113.52 550.16H119.03999V563.36H113.52Z"/>
</clipPath>
<clipPath id="clip_8">
<path transform="matrix(1.0002997,0,0,-1.0002997,.060024725,842.05307)" d="M361.44 475.28H366.96V488.48H361.44Z"/>
</clipPath>
<clipPath id="clip_9">
<path transform="matrix(1.0002997,0,0,-1.0002997,.060024725,842.05307)" d="M361.44 441.2H366.96V454.40003H361.44Z"/>
</clipPath>
<clipPath id="clip_10">
<path transform="matrix(1.0002997,0,0,-1.0002997,.060024725,842.05307)" d="M361.44 407.12H366.96V420.32H361.44Z"/>
</clipPath>
<clipPath id="clip_11">
<path transform="matrix(1.0002997,0,0,-1.0002997,.060024725,842.05307)" d="M361.44 373.04H366.96V386.24003H361.44Z"/>
</clipPath>
<clipPath id="clip_12">
<path transform="matrix(1.0002997,0,0,-1.0002997,.060024725,842.05307)" d="M361.44 338.96H366.96V352.16H361.44Z"/>
</clipPath>
</defs>
<g clip-path="url(#clip_1)">
<g clip-path="url(#clip_2)">
<g clip-path="url(#clip_3)">
<g clip-path="url(#clip_4)">
<g clip-path="url(#clip_5)">
<g clip-path="url(#clip_6)">
<text xml:space="preserve" transform="matrix(1.0002997 0 -0 1.0002997 .060024725 842.05307)" font-size="12" font-family="MHKDOL+TimesNewRoman"><tspan y="-31.7603" x="72 78 84 88.08 96 103.4424 107.5284 118.086 126.4836 133.926 142.5636 149.28119 152.40119 156.48719 160.57318 294.7332">91-CE-MATHS II 1</tspan><tspan y="-758.72036" x="72 78.4776 84.717609 88.7976 97.68 100.8 106.8">Form 5 </tspan></text>
<text xml:space="preserve" transform="matrix(1.0002997 0 -0 1.0002997 .060024725 842.05307)" font-size="13.92" font-family="MHKGIN+TimesNewRoman,Bold" font-weight="bold"><tspan y="-742.4003" x="256.8 267.62559 278.45118 288.49723 297.85704 307.21684 310.81657 317.77238 324.72819 331.684 338.6398">HKCEE 1991 </tspan><tspan y="-725.8397" x="251.75955 265.2021 272.16209 276.72227 284.1597 290.43067 301.95088 308.91087 313.47105 317.31297 323.5547 329.06007 332.65977 338.16514 343.6705">Mathematics II </tspan></text>
<text xml:space="preserve" transform="matrix(1.0002997 0 -0 1.0002997 .060024725 842.05307)" font-size="12" font-family="MHKDOL+TimesNewRoman"><tspan y="-711.4403" x="72"> </tspan><tspan y="-697.28036" x="68.4 74.4 80.4">91 </tspan><tspan y="-683.12039" x="68.4 74.4 77.520008">1. </tspan><tspan y="-697.28036" x="95.520008">(</tspan></text>
<text xml:space="preserve" transform="matrix(1.0002997 0 -0 1.0002997 .060024725 842.05307)" font-size="12" font-family="MHKGLO+TimesNewRoman,Italic" font-style="italic"><tspan y="-697.28036" x="99.600009">a</tspan></text>
<text xml:space="preserve" transform="matrix(1.0002997 0 -0 1.0002997 .060024725 842.05307)" font-size="7.44" font-family="MHKDOL+TimesNewRoman"><tspan y="-702.8003" x="105.6">2</tspan></text>
<text xml:space="preserve" transform="matrix(1.0002997 0 -0 1.0002997 .060024725 842.05307)" font-size="7.44" font-family="MHKGLO+TimesNewRoman,Italic" font-style="italic"><tspan y="-702.8003" x="109.43978">a</tspan></text>
<text xml:space="preserve" transform="matrix(1.0002997 0 -0 1.0002997 .060024725 842.05307)" font-size="12" font-family="MHKDOL+TimesNewRoman"><tspan y="-697.2803" x="113.28 117.36 121.44">)(3</tspan></text>
<text xml:space="preserve" transform="matrix(1.0002997 0 -0 1.0002997 .060024725 842.05307)" font-size="12" font-family="MHKGLO+TimesNewRoman,Italic" font-style="italic"><tspan y="-697.2803" x="127.44">a</tspan></text>
<text xml:space="preserve" transform="matrix(1.0002997 0 -0 1.0002997 .060024725 842.05307)" font-size="7.44" font-family="MHKDOL+TimesNewRoman"><tspan y="-702.8003" x="133.44">4</tspan></text>
<text xml:space="preserve" transform="matrix(1.0002997 0 -0 1.0002997 .060024725 842.05307)" font-size="7.44" font-family="MHKGLO+TimesNewRoman,Italic" font-style="italic"><tspan y="-702.8003" x="137.27979">a</tspan></text>
<text xml:space="preserve" transform="matrix(1.0002997 0 -0 1.0002997 .060024725 842.05307)" font-size="12" font-family="MHKDOL+TimesNewRoman"><tspan y="-697.2803" x="141.12 145.2">) </tspan><tspan y="-668.96029" x="68.399997 95.51999">  </tspan><tspan y="-654.8003" x="68.399997 95.51999 103.91759 107.03758 121.91757"> A. 3</tspan></text>
<text xml:space="preserve" transform="matrix(1.0002997 0 -0 1.0002997 .060024725 842.05307)" font-size="12" font-family="MHKGLO+TimesNewRoman,Italic" font-style="italic"><tspan y="-654.8003" x="127.92">a</tspan></text>
<text xml:space="preserve" transform="matrix(1.0002997 0 -0 1.0002997 .060024725 842.05307)" font-size="7.44" font-family="MHKDOL+TimesNewRoman"><tspan y="-660.3203" x="133.92">6</tspan></text>
<text xml:space="preserve" transform="matrix(1.0002997 0 -0 1.0002997 .060024725 842.05307)" font-size="7.44" font-family="MHKGLO+TimesNewRoman,Italic" font-style="italic"><tspan y="-660.3203" x="137.75978">a</tspan></text>
<text xml:space="preserve" transform="matrix(1.0002997 0 -0 1.0002997 .060024725 842.05307)" font-size="12" font-family="MHKDOL+TimesNewRoman"><tspan y="-654.8003" x="141.6"> </tspan><tspan y="-640.6403" x="68.40001 95.520008 103.44 106.560009 121.920009 126.00001"> B. (3</tspan></text>
<text xml:space="preserve" transform="matrix(1.0002997 0 -0 1.0002997 .060024725 842.05307)" font-size="12" font-family="MHKGLO+TimesNewRoman,Italic" font-style="italic"><tspan y="-640.6403" x="132.00002">a</tspan></text>
<text xml:space="preserve" transform="matrix(1.0002997 0 -0 1.0002997 .060024725 842.05307)" font-size="12" font-family="MHKDOL+TimesNewRoman"><tspan y="-640.6403" x="138.00002">)</tspan></text>
<text xml:space="preserve" transform="matrix(1.0002997 0 -0 1.0002997 .060024725 842.05307)" font-size="7.44" font-family="MHKDOL+TimesNewRoman"><tspan y="-646.1603" x="142.08">6</tspan></text>
<text xml:space="preserve" transform="matrix(1.0002997 0 -0 1.0002997 .060024725 842.05307)" font-size="7.44" font-family="MHKGLO+TimesNewRoman,Italic" font-style="italic"><tspan y="-646.1603" x="145.91979">a</tspan></text>
<text xml:space="preserve" transform="matrix(1.0002997 0 -0 1.0002997 .060024725 842.05307)" font-size="12" font-family="MHKDOL+TimesNewRoman"><tspan y="-640.6403" x="149.76"> </tspan><tspan y="-626.48037" x="68.399997 95.51999 103.43999 106.55999 121.91999"> C. 3</tspan></text>
<text xml:space="preserve" transform="matrix(1.0002997 0 -0 1.0002997 .060024725 842.05307)" font-size="12" font-family="MHKGLO+TimesNewRoman,Italic" font-style="italic"><tspan y="-626.48037" x="127.92">a</tspan></text>
<text xml:space="preserve" transform="matrix(1.0002997 0 -0 1.0002997 .060024725 842.05307)" font-size="7.44" font-family="MHKDOL+TimesNewRoman"><tspan y="-632.0003" x="133.92">8</tspan></text>
<text xml:space="preserve" transform="matrix(1.0002997 0 -0 1.0002997 .060024725 842.05307)" font-size="7.44" font-family="MHKGLO+TimesNewRoman,Italic" font-style="italic"><tspan y="-632.0003" x="137.75978">a</tspan></text>
<text xml:space="preserve" transform="matrix(1.0002997 0 -0 1.0002997 .060024725 842.05307)" font-size="12" font-family="MHKDOL+TimesNewRoman"><tspan y="-626.4803" x="141.6"> </tspan><tspan y="-612.3203" x="68.40001 95.52001 104.157619 107.27762 121.91761"> D. 4</tspan></text>
<text xml:space="preserve" transform="matrix(1.0002997 0 -0 1.0002997 .060024725 842.05307)" font-size="12" font-family="MHKGLO+TimesNewRoman,Italic" font-style="italic"><tspan y="-612.3203" x="127.92001">a</tspan></text>
<text xml:space="preserve" transform="matrix(1.0002997 0 -0 1.0002997 .060024725 842.05307)" font-size="7.44" font-family="MHKDOL+TimesNewRoman"><tspan y="-617.8403" x="133.92">6</tspan></text>
<text xml:space="preserve" transform="matrix(1.0002997 0 -0 1.0002997 .060024725 842.05307)" font-size="7.44" font-family="MHKGLO+TimesNewRoman,Italic" font-style="italic"><tspan y="-617.8403" x="137.75978">a</tspan></text>
<text xml:space="preserve" transform="matrix(1.0002997 0 -0 1.0002997 .060024725 842.05307)" font-size="12" font-family="MHKDOL+TimesNewRoman"><tspan y="-612.3203" x="141.6"> </tspan><tspan y="-598.16036" x="68.40001 95.52001 102.951618 106.051219 121.89122 125.98682"> E. (3</tspan></text>
<text xml:space="preserve" transform="matrix(1.0002997 0 -0 1.0002997 .060024725 842.05307)" font-size="7.44" font-family="MHKDOL+TimesNewRoman"><tspan y="-603.6803" x="132">4</tspan></text>
<text xml:space="preserve" transform="matrix(1.0002997 0 -0 1.0002997 .060024725 842.05307)" font-size="7.44" font-family="MHKGLO+TimesNewRoman,Italic" font-style="italic"><tspan y="-603.6803" x="135.83979">a</tspan></text>
<text xml:space="preserve" transform="matrix(1.0002997 0 -0 1.0002997 .060024725 842.05307)" font-size="12" font-family="MHKDOL+TimesNewRoman"><tspan y="-598.1603" x="139.68 143.76">)(</tspan></text>
<text xml:space="preserve" transform="matrix(1.0002997 0 -0 1.0002997 .060024725 842.05307)" font-size="12" font-family="MHKGLO+TimesNewRoman,Italic" font-style="italic"><tspan y="-598.1603" x="147.84">a</tspan></text>
<text xml:space="preserve" transform="matrix(1.0002997 0 -0 1.0002997 .060024725 842.05307)" font-size="7.44" font-family="MHKDOL+TimesNewRoman"><tspan y="-603.6803" x="153.84">6</tspan></text>
<text xml:space="preserve" transform="matrix(1.0002997 0 -0 1.0002997 .060024725 842.05307)" font-size="7.44" font-family="MHKGLO+TimesNewRoman,Italic" font-style="italic"><tspan y="-603.6803" x="157.67978">a</tspan></text>
<text xml:space="preserve" transform="matrix(1.0002997 0 -0 1.0002997 .060024725 842.05307)" font-size="12" font-family="MHKDOL+TimesNewRoman"><tspan y="-598.1603" x="161.52 165.6">) </tspan><tspan y="-584.0003" x="68.4 95.520008">  </tspan><tspan y="-569.84036" x="68.4 74.4 80.4">91 </tspan><tspan y="-555.68038" x="68.4 74.4 77.520008">2. </tspan></text>
<path transform="matrix(1.0002997,0,0,-1.0002997,.060024725,842.05307)" stroke-width=".495" stroke-linecap="round" stroke-linejoin="round" fill="none" stroke="#000000" d="M97.44 565.04H125.04"/>
<text xml:space="preserve" transform="matrix(1.0002997 0 -0 1.0002997 .060024725 842.05307)" font-size="6.9909" font-family="MHKDOL+TimesNewRoman"><tspan y="-558.0803" x="119.76">2</tspan></text>
<text xml:space="preserve" transform="matrix(1.0002997 0 -0 1.0002997 .060024725 842.05307)" font-size="11.9841" font-family="MHKDOL+TimesNewRoman"><tspan y="-552.5603" x="96.96">1</tspan><tspan y="-569.84017" x="108.23943">1</tspan></text>
<g clip-path="url(#clip_7)">
<text xml:space="preserve" transform="matrix(1.0002997 0 -0 1.0002997 .060024725 842.05307)" font-size="11.9841" font-family="MHKGLO+TimesNewRoman,Italic" font-style="italic"><tspan y="-552.5603" x="113.76">x</tspan></text>
</g>
<text xml:space="preserve" transform="matrix(1.0002997 0 -0 1.0002997 .060024725 842.05307)" font-size="11.9841" font-family="Standard Symbols PS"><tspan y="-552.5603" x="104.4">&#x2212;</tspan></text>
<text xml:space="preserve" transform="matrix(1.0002997 0 -0 1.0002997 .060024725 842.05307)" font-size="12" font-family="MHKDOL+TimesNewRoman"><tspan y="-562.1603" x="127.44"> </tspan></text>
<text xml:space="preserve" transform="matrix(1.0002997 0 -0 1.0002997 .060024725 842.05307)" font-size="12" font-family="Standard Symbols PS"><tspan y="-562.1603" x="130.56">&#x2212;</tspan></text>
<text xml:space="preserve" transform="matrix(1.0002997 0 -0 1.0002997 .060024725 842.05307)" font-size="12" font-family="MHKDOL+TimesNewRoman"><tspan y="-562.1603" x="137.04"> </tspan></text>
<path transform="matrix(1.0002997,0,0,-1.0002997,.060024725,842.05307)" stroke-width=".495" stroke-linecap="round" stroke-linejoin="round" fill="none" stroke="#000000" d="M142.08 565.04H178.08"/>
<text xml:space="preserve" transform="matrix(1.0002997 0 -0 1.0002997 .060024725 842.05307)" font-size="7.0162" font-family="MHKDOL+TimesNewRoman"><tspan y="-557.8403" x="173.04">2</tspan></text>
<text xml:space="preserve" transform="matrix(1.0002997 0 -0 1.0002997 .060024725 842.05307)" font-size="12.0281" font-family="MHKDOL+TimesNewRoman"><tspan y="-552.5603" x="168.48 145.92009 142.8">)1(</tspan><tspan y="-569.83987" x="157.20005">1</tspan></text>
<text xml:space="preserve" transform="matrix(1.0002997 0 -0 1.0002997 .060024725 842.05307)" font-size="12.0281" font-family="MHKGLO+TimesNewRoman,Italic" font-style="italic"><tspan y="-552.5603" x="162.9603">x</tspan></text>
<text xml:space="preserve" transform="matrix(1.0002997 0 -0 1.0002997 .060024725 842.05307)" font-size="12.0281" font-family="Standard Symbols PS"><tspan y="-552.5603" x="153.1201">+</tspan></text>
<text xml:space="preserve" transform="matrix(1.0002997 0 -0 1.0002997 .060024725 842.05307)" font-size="12.0281" font-family="MHKDOL+TimesNewRoman"><tspan y="-562.1599" x="180.23986 183.35996 190.08005"> = </tspan><tspan y="-535.75949" x="68.40018 95.519939">  </tspan><tspan y="-521.6" x="68.40018 95.519939 103.91795 107.03804"> A. </tspan></text>
<path transform="matrix(1.0002997,0,0,-1.0002997,.060024725,842.05307)" stroke-width=".495" stroke-linecap="round" stroke-linejoin="round" fill="none" stroke="#000000" d="M123.84 516.8H194.4"/>
<text xml:space="preserve" transform="matrix(1.0002997 0 -0 1.0002997 .060024725 842.05307)" font-size="12.0281" font-family="MHKDOL+TimesNewRoman"><tspan y="-504.3203" x="189.84 161.99976 155.27967 159.28502 127.679988 124.5599">)1)(1(</tspan><tspan y="-521.59988" x="156.48007">2</tspan></text>
<text xml:space="preserve" transform="matrix(1.0002997 0 -0 1.0002997 .060024725 842.05307)" font-size="7.0162" font-family="MHKDOL+TimesNewRoman"><tspan y="-509.6003" x="185.28 150.48035">22</tspan></text>
<text xml:space="preserve" transform="matrix(1.0002997 0 -0 1.0002997 .060024725 842.05307)" font-size="12.0281" font-family="MHKGLO+TimesNewRoman,Italic" font-style="italic"><tspan y="-504.3203" x="179.28 144.4803">xx</tspan></text>
<text xml:space="preserve" transform="matrix(1.0002997 0 -0 1.0002997 .060024725 842.05307)" font-size="12.0281" font-family="Standard Symbols PS"><tspan y="-504.3203" x="169.4398 134.87946">+&#x2212;</tspan></text>
<text xml:space="preserve" transform="matrix(1.0002997 0 -0 1.0002997 .060024725 842.05307)" font-size="12.0281" font-family="MHKDOL+TimesNewRoman"><tspan y="-513.9199" x="197.03948"> </tspan><tspan y="-487.51945" x="68.40015 95.519908 103.44041 106.56049"> B. </tspan></text>
<path transform="matrix(1.0002997,0,0,-1.0002997,.060024725,842.05307)" stroke-width=".495" stroke-linecap="round" stroke-linejoin="round" fill="none" stroke="#000000" d="M123.84 480.8H194.4"/>
<text xml:space="preserve" transform="matrix(1.0002997 0 -0 1.0002997 .060024725 842.05307)" font-size="12.0281" font-family="MHKDOL+TimesNewRoman"><tspan y="-468.3203" x="189.84 161.99976 155.27967 159.28502 127.679988 124.5599">)1)(1(</tspan><tspan y="-485.36054" x="150.71982">2</tspan></text>
<text xml:space="preserve" transform="matrix(1.0002997 0 -0 1.0002997 .060024725 842.05307)" font-size="6.9994" font-family="MHKDOL+TimesNewRoman"><tspan y="-473.6003" x="185.28 150.47968">22</tspan><tspan y="-490.88044" x="163.43976">2</tspan></text>
<text xml:space="preserve" transform="matrix(1.0002997 0 -0 1.0002997 .060024725 842.05307)" font-size="12.0281" font-family="MHKGLO+TimesNewRoman,Italic" font-style="italic"><tspan y="-468.3203" x="179.28 144.4803">xx</tspan><tspan y="-485.36054" x="157.44058">x</tspan></text>
<text xml:space="preserve" transform="matrix(1.0002997 0 -0 1.0002997 .060024725 842.05307)" font-size="12.0281" font-family="Standard Symbols PS"><tspan y="-468.3203" x="169.44101 134.88068">+&#x2212;</tspan></text>
<text xml:space="preserve" transform="matrix(1.0002997 0 -0 1.0002997 .060024725 842.05307)" font-size="12.0281" font-family="MHKDOL+TimesNewRoman"><tspan y="-477.91996" x="197.0407"> </tspan><tspan y="-451.51948" x="68.40137 95.521129 103.44163 106.561717"> C. </tspan></text>
<path transform="matrix(1.0002997,0,0,-1.0002997,.060024725,842.05307)" stroke-width=".495" stroke-linecap="round" stroke-linejoin="round" fill="none" stroke="#000000" d="M123.84 444.8H194.4"/>
<text xml:space="preserve" transform="matrix(1.0002997 0 -0 1.0002997 .060024725 842.05307)" font-size="6.9994" font-family="MHKDOL+TimesNewRoman"><tspan y="-437.6003" x="189.36 150.47974">22</tspan><tspan y="-454.88044" x="163.43982">2</tspan></text>
<text xml:space="preserve" transform="matrix(1.0002997 0 -0 1.0002997 .060024725 842.05307)" font-size="12.0281" font-family="MHKDOL+TimesNewRoman"><tspan y="-432.3203" x="184.8 161.99954 155.27945 159.2848 127.67977 124.559688">)1)(1(</tspan><tspan y="-449.36054" x="150.7196">2</tspan></text>
<text xml:space="preserve" transform="matrix(1.0002997 0 -0 1.0002997 .060024725 842.05307)" font-size="12.0281" font-family="MHKGLO+TimesNewRoman,Italic" font-style="italic"><tspan y="-432.3203" x="179.27913 144.47943">xx</tspan><tspan y="-449.36054" x="157.43972">x</tspan></text>
<text xml:space="preserve" transform="matrix(1.0002997 0 -0 1.0002997 .060024725 842.05307)" font-size="12.0281" font-family="Standard Symbols PS"><tspan y="-432.3203" x="169.44016 134.87982">+&#x2212;</tspan></text>
<text xml:space="preserve" transform="matrix(1.0002997 0 -0 1.0002997 .060024725 842.05307)" font-size="12.0281" font-family="MHKDOL+TimesNewRoman"><tspan y="-441.91996" x="197.03984"> </tspan><tspan y="-415.51948" x="68.40051 95.52026 104.157649 107.27773"> D. </tspan></text>
<path transform="matrix(1.0002997,0,0,-1.0002997,.060024725,842.05307)" stroke-width=".495" stroke-linecap="round" stroke-linejoin="round" fill="none" stroke="#000000" d="M123.84 410.72H189.36"/>
<text xml:space="preserve" transform="matrix(1.0002997 0 -0 1.0002997 .060024725 842.05307)" font-size="6.9994" font-family="MHKDOL+TimesNewRoman"><tspan y="-403.5203" x="184.32">2</tspan></text>
<text xml:space="preserve" transform="matrix(1.0002997 0 -0 1.0002997 .060024725 842.05307)" font-size="12.0281" font-family="MHKDOL+TimesNewRoman"><tspan y="-398.2403" x="179.76 156.95954 150.00008 154.00543 127.44017 124.560649">)1)(1(</tspan><tspan y="-415.51988" x="153.84066">2</tspan></text>
<text xml:space="preserve" transform="matrix(1.0002997 0 -0 1.0002997 .060024725 842.05307)" font-size="12.0281" font-family="MHKGLO+TimesNewRoman,Italic" font-style="italic"><tspan y="-398.2403" x="174.00095 144.48159">xx</tspan></text>
<text xml:space="preserve" transform="matrix(1.0002997 0 -0 1.0002997 .060024725 842.05307)" font-size="12.0281" font-family="Standard Symbols PS"><tspan y="-398.2403" x="164.40132 134.88196">+&#x2212;</tspan></text>
<text xml:space="preserve" transform="matrix(1.0002997 0 -0 1.0002997 .060024725 842.05307)" font-size="12.0281" font-family="MHKDOL+TimesNewRoman"><tspan y="-407.83995" x="192.0022"> </tspan><tspan y="-381.43946" x="68.40265 95.52241 102.97502 106.08549"> E. </tspan></text>
<path transform="matrix(1.0002997,0,0,-1.0002997,.060024725,842.05307)" stroke-width=".495" stroke-linecap="round" stroke-linejoin="round" fill="none" stroke="#000000" d="M123.84 376.64H189.36"/>
<text xml:space="preserve" transform="matrix(1.0002997 0 -0 1.0002997 .060024725 842.05307)" font-size="6.9994" font-family="MHKDOL+TimesNewRoman"><tspan y="-369.4403" x="184.32">2</tspan></text>
<text xml:space="preserve" transform="matrix(1.0002997 0 -0 1.0002997 .060024725 842.05307)" font-size="12.0281" font-family="MHKDOL+TimesNewRoman"><tspan y="-364.1603" x="179.76 156.95954 150.00008 154.00543 127.44017 124.560649">)1)(1(</tspan><tspan y="-381.43989" x="150.72057">2</tspan></text>
<text xml:space="preserve" transform="matrix(1.0002997 0 -0 1.0002997 .060024725 842.05307)" font-size="12.0281" font-family="MHKGLO+TimesNewRoman,Italic" font-style="italic"><tspan y="-364.1603" x="174.00095 144.48159">xx</tspan><tspan y="-381.43989" x="157.44187">x</tspan></text>
<text xml:space="preserve" transform="matrix(1.0002997 0 -0 1.0002997 .060024725 842.05307)" font-size="12.0281" font-family="Standard Symbols PS"><tspan y="-364.1603" x="164.40132 134.88196">+&#x2212;</tspan></text>
<text xml:space="preserve" transform="matrix(1.0002997 0 -0 1.0002997 .060024725 842.05307)" font-size="12.0281" font-family="MHKDOL+TimesNewRoman"><tspan y="-373.75996" x="192.0022"> </tspan><tspan y="-347.35948" x="68.40265 95.52241">  </tspan><tspan y="-333.19999" x="68.40265 74.40227 80.401889">91 </tspan><tspan y="-319.0405" x="68.40265 74.40227 77.522357">3. </tspan><tspan y="-333.19999" x="95.52241 106.56421 112.32447 115.2064 120.48794 126.2482 130.80806 137.04824 142.80849 148.09244 152.89286 159.13303 162.73303 167.53345 171.13587 176.89612 182.18007 186.98047 190.58048 196.82065 199.70258 202.5845 208.82468 217.45244 220.33437 226.09462 232.09424 236.89466 239.77658 244.33524 249.13565 254.4196 259.22 262.82 268.10395 273.38789 276.9903 283.23048 287.3104">Which one of the following is a factor </tspan><tspan y="-318.32" x="95.52241 101.76259 105.362598">of </tspan></text>
<text xml:space="preserve" transform="matrix(1.0002997 0 -0 1.0002997 .060024725 842.05307)" font-size="12.0281" font-family="MHKGLO+TimesNewRoman,Italic" font-style="italic"><tspan y="-318.32" x="108.48268">x</tspan></text>
<text xml:space="preserve" transform="matrix(1.0002997 0 -0 1.0002997 .060024725 842.05307)" font-size="7.44" font-family="MHKDOL+TimesNewRoman"><tspan y="-323.8403" x="113.76">3</tspan></text>
<text xml:space="preserve" transform="matrix(1.0002997 0 -0 1.0002997 .060024725 842.05307)" font-size="12.0281" font-family="MHKDOL+TimesNewRoman"><tspan y="-318.3203" x="117.6"> </tspan></text>
<text xml:space="preserve" transform="matrix(1.0002997 0 -0 1.0002997 .060024725 842.05307)" font-size="12.0281" font-family="Standard Symbols PS"><tspan y="-318.3203" x="120.720088">&#x2212;</tspan></text>
<text xml:space="preserve" transform="matrix(1.0002997 0 -0 1.0002997 .060024725 842.05307)" font-size="12.0281" font-family="MHKDOL+TimesNewRoman"><tspan y="-318.3203" x="127.19962 130.31972"> 4</tspan></text>
<text xml:space="preserve" transform="matrix(1.0002997 0 -0 1.0002997 .060024725 842.05307)" font-size="12.0281" font-family="MHKGLO+TimesNewRoman,Italic" font-style="italic"><tspan y="-318.3203" x="136.31934">x</tspan></text>
<text xml:space="preserve" transform="matrix(1.0002997 0 -0 1.0002997 .060024725 842.05307)" font-size="7.44" font-family="MHKDOL+TimesNewRoman"><tspan y="-323.8403" x="141.6">2</tspan></text>
<text xml:space="preserve" transform="matrix(1.0002997 0 -0 1.0002997 .060024725 842.05307)" font-size="12.0281" font-family="MHKDOL+TimesNewRoman"><tspan y="-318.3203" x="145.44 148.5601 155.2802"> + </tspan></text>
<text xml:space="preserve" transform="matrix(1.0002997 0 -0 1.0002997 .060024725 842.05307)" font-size="12.0281" font-family="MHKGLO+TimesNewRoman,Italic" font-style="italic"><tspan y="-318.3203" x="158.40029">x</tspan></text>
<text xml:space="preserve" transform="matrix(1.0002997 0 -0 1.0002997 .060024725 842.05307)" font-size="12.0281" font-family="MHKDOL+TimesNewRoman"><tspan y="-318.3203" x="163.68062 166.8007 173.54486 176.66495 182.6393 187.68148"> + 6? </tspan><tspan y="-304.16084" x="68.40122 95.52098">  </tspan><tspan y="-290.00135" x="68.40122 95.52098 103.919 107.039089"> A. </tspan><tspan y="-289.28086" x="121.92146">(</tspan></text>
<text xml:space="preserve" transform="matrix(1.0002997 0 -0 1.0002997 .060024725 842.05307)" font-size="12.0281" font-family="MHKGLO+TimesNewRoman,Italic" font-style="italic"><tspan y="-289.28086" x="126.001399">x</tspan></text>
<text xml:space="preserve" transform="matrix(1.0002997 0 -0 1.0002997 .060024725 842.05307)" font-size="12.0281" font-family="MHKDOL+TimesNewRoman"><tspan y="-289.28086" x="131.28174 134.40183 141.14598 144.26607 150.24042 154.32036"> + 1)(</tspan></text>
<text xml:space="preserve" transform="matrix(1.0002997 0 -0 1.0002997 .060024725 842.05307)" font-size="12.0281" font-family="MHKGLO+TimesNewRoman,Italic" font-style="italic"><tspan y="-289.28086" x="158.40149">x</tspan></text>
<text xml:space="preserve" transform="matrix(1.0002997 0 -0 1.0002997 .060024725 842.05307)" font-size="12.0281" font-family="MHKDOL+TimesNewRoman"><tspan y="-289.28086" x="163.68183"> </tspan></text>
<text xml:space="preserve" transform="matrix(1.0002997 0 -0 1.0002997 .060024725 842.05307)" font-size="12.0281" font-family="Standard Symbols PS"><tspan y="-289.28086" x="166.80191">&#x2212;</tspan></text>
<text xml:space="preserve" transform="matrix(1.0002997 0 -0 1.0002997 .060024725 842.05307)" font-size="12.0281" font-family="MHKDOL+TimesNewRoman"><tspan y="-289.28086" x="173.28145 176.40154 182.40116 186.48108"> 2) </tspan><tspan y="-275.12138" x="68.40123 95.52099 103.44149 106.56158 121.92146"> B. (</tspan></text>
<text xml:space="preserve" transform="matrix(1.0002997 0 -0 1.0002997 .060024725 842.05307)" font-size="12.0281" font-family="MHKGLO+TimesNewRoman,Italic" font-style="italic"><tspan y="-275.12138" x="126.00139">x</tspan></text>
<text xml:space="preserve" transform="matrix(1.0002997 0 -0 1.0002997 .060024725 842.05307)" font-size="12.0281" font-family="MHKDOL+TimesNewRoman"><tspan y="-275.12138" x="131.28173 134.40181 141.14597 144.26605 150.2404 154.32035"> + 1)(</tspan></text>
<text xml:space="preserve" transform="matrix(1.0002997 0 -0 1.0002997 .060024725 842.05307)" font-size="12.0281" font-family="MHKGLO+TimesNewRoman,Italic" font-style="italic"><tspan y="-275.12138" x="158.40148">x</tspan></text>
<text xml:space="preserve" transform="matrix(1.0002997 0 -0 1.0002997 .060024725 842.05307)" font-size="12.0281" font-family="MHKDOL+TimesNewRoman"><tspan y="-275.12138" x="163.68181 166.8019 173.54605 176.66614 182.64049 186.72043"> + 2) </tspan><tspan y="-260.96189" x="68.40241 95.52217 103.44267 106.56276"> C. </tspan><tspan y="-260.2414" x="121.92265">(</tspan></text>
<text xml:space="preserve" transform="matrix(1.0002997 0 -0 1.0002997 .060024725 842.05307)" font-size="12.0281" font-family="MHKGLO+TimesNewRoman,Italic" font-style="italic"><tspan y="-260.2414" x="126.00259">x</tspan></text>
<text xml:space="preserve" transform="matrix(1.0002997 0 -0 1.0002997 .060024725 842.05307)" font-size="12.0281" font-family="MHKDOL+TimesNewRoman"><tspan y="-260.2414" x="131.28293"> </tspan></text>
<text xml:space="preserve" transform="matrix(1.0002997 0 -0 1.0002997 .060024725 842.05307)" font-size="12.0281" font-family="Standard Symbols PS"><tspan y="-260.2414" x="134.40302">&#x2212;</tspan></text>
<text xml:space="preserve" transform="matrix(1.0002997 0 -0 1.0002997 .060024725 842.05307)" font-size="12.0281" font-family="MHKDOL+TimesNewRoman"><tspan y="-260.2414" x="140.88256 144.00264 150.00226 154.08219"> 1)(</tspan></text>
<text xml:space="preserve" transform="matrix(1.0002997 0 -0 1.0002997 .060024725 842.05307)" font-size="12.0281" font-family="MHKGLO+TimesNewRoman,Italic" font-style="italic"><tspan y="-260.2414" x="158.16213">x</tspan></text>
<text xml:space="preserve" transform="matrix(1.0002997 0 -0 1.0002997 .060024725 842.05307)" font-size="12.0281" font-family="MHKDOL+TimesNewRoman"><tspan y="-260.2414" x="163.44246 166.56255 173.3067 176.42679 182.40114 186.48108"> + 2) </tspan><tspan y="-246.08191" x="68.40243 95.52219 104.15957 107.279659"> D. </tspan><tspan y="-245.36142" x="121.92267">(</tspan></text>
<text xml:space="preserve" transform="matrix(1.0002997 0 -0 1.0002997 .060024725 842.05307)" font-size="12.0281" font-family="MHKGLO+TimesNewRoman,Italic" font-style="italic"><tspan y="-245.36142" x="126.0026">x</tspan></text>
<text xml:space="preserve" transform="matrix(1.0002997 0 -0 1.0002997 .060024725 842.05307)" font-size="12.0281" font-family="MHKDOL+TimesNewRoman"><tspan y="-245.36142" x="131.28295"> </tspan></text>
<text xml:space="preserve" transform="matrix(1.0002997 0 -0 1.0002997 .060024725 842.05307)" font-size="12.0281" font-family="Standard Symbols PS"><tspan y="-245.36142" x="134.40303">&#x2212;</tspan></text>
<text xml:space="preserve" transform="matrix(1.0002997 0 -0 1.0002997 .060024725 842.05307)" font-size="12.0281" font-family="MHKDOL+TimesNewRoman"><tspan y="-245.36142" x="140.88257 144.00266 150.00228 154.0822"> 1)(</tspan></text>
<text xml:space="preserve" transform="matrix(1.0002997 0 -0 1.0002997 .060024725 842.05307)" font-size="12.0281" font-family="MHKGLO+TimesNewRoman,Italic" font-style="italic"><tspan y="-245.36142" x="158.16214">x</tspan></text>
<text xml:space="preserve" transform="matrix(1.0002997 0 -0 1.0002997 .060024725 842.05307)" font-size="12.0281" font-family="MHKDOL+TimesNewRoman"><tspan y="-245.36142" x="163.44248"> </tspan></text>
<text xml:space="preserve" transform="matrix(1.0002997 0 -0 1.0002997 .060024725 842.05307)" font-size="12.0281" font-family="Standard Symbols PS"><tspan y="-245.36142" x="166.56256">&#x2212;</tspan></text>
<text xml:space="preserve" transform="matrix(1.0002997 0 -0 1.0002997 .060024725 842.05307)" font-size="12.0281" font-family="MHKDOL+TimesNewRoman"><tspan y="-245.36142" x="173.0421 176.16219 182.1618 186.24173"> 3) </tspan><tspan y="-231.20194" x="68.402439 95.522197 102.97481 106.08527"> E. </tspan><tspan y="-230.48145" x="121.92267">(</tspan></text>
<text xml:space="preserve" transform="matrix(1.0002997 0 -0 1.0002997 .060024725 842.05307)" font-size="12.0281" font-family="MHKGLO+TimesNewRoman,Italic" font-style="italic"><tspan y="-230.48145" x="126.0026">x</tspan></text>
<text xml:space="preserve" transform="matrix(1.0002997 0 -0 1.0002997 .060024725 842.05307)" font-size="12.0281" font-family="MHKDOL+TimesNewRoman"><tspan y="-230.48145" x="131.28295"> </tspan></text>
<text xml:space="preserve" transform="matrix(1.0002997 0 -0 1.0002997 .060024725 842.05307)" font-size="12.0281" font-family="Standard Symbols PS"><tspan y="-230.48145" x="134.40303">&#x2212;</tspan></text>
<text xml:space="preserve" transform="matrix(1.0002997 0 -0 1.0002997 .060024725 842.05307)" font-size="12.0281" font-family="MHKDOL+TimesNewRoman"><tspan y="-230.48145" x="140.88257 144.00266 150.00228 154.0822"> 1)(</tspan></text>
<text xml:space="preserve" transform="matrix(1.0002997 0 -0 1.0002997 .060024725 842.05307)" font-size="12.0281" font-family="MHKGLO+TimesNewRoman,Italic" font-style="italic"><tspan y="-230.48145" x="158.16214">x</tspan></text>
<text xml:space="preserve" transform="matrix(1.0002997 0 -0 1.0002997 .060024725 842.05307)" font-size="12.0281" font-family="MHKDOL+TimesNewRoman"><tspan y="-230.48145" x="163.44248 166.56256 173.30672 176.4268 182.40116 186.4811"> + 3) </tspan><tspan y="-216.32196" x="68.40244 95.5222">  </tspan><tspan y="-202.16248" x="68.40244 74.40206 80.40168">91 </tspan><tspan y="-188.00299" x="68.40244 74.40206 77.52215">4. </tspan><tspan y="-191.36244" x="95.5222 99.602138 103.20215">If </tspan></text>
<text xml:space="preserve" transform="matrix(1.0002997 0 -0 1.0002997 .060024725 842.05307)" font-size="12.0281" font-family="MHKGLO+TimesNewRoman,Italic" font-style="italic"><tspan y="-191.36244" x="106.322238">y</tspan></text>
<text xml:space="preserve" transform="matrix(1.0002997 0 -0 1.0002997 .060024725 842.05307)" font-size="12.0281" font-family="MHKDOL+TimesNewRoman"><tspan y="-191.36244" x="111.60257 114.72266"> =</tspan></text>
<path transform="matrix(1.0002997,0,0,-1.0002997,.060024725,842.05307)" stroke-width=".495" stroke-linecap="round" stroke-linejoin="round" fill="none" stroke="#000000" d="M131.52 194.48H162.24M123.6 191.36 125.28 192.32"/>
<path transform="matrix(1.0002997,0,0,-1.0002997,.060024725,842.05307)" stroke-width=".99" stroke-linecap="round" stroke-linejoin="round" fill="none" stroke="#000000" d="M125.28 192.08 127.44 181.28"/>
<path transform="matrix(1.0002997,0,0,-1.0002997,.060024725,842.05307)" stroke-width=".495" stroke-linecap="round" stroke-linejoin="round" fill="none" stroke="#000000" d="M127.68 181.28 130.56 210.56H163.2"/>
<text xml:space="preserve" transform="matrix(1.0002997 0 -0 1.0002997 .060024725 842.05307)" font-size="12.0131" font-family="MHKGLO+TimesNewRoman,Italic" font-style="italic"><tspan y="-182.0003" x="147.36 156.03347">mx</tspan><tspan y="-199.03969" x="147.60027 156.27373">mx</tspan></text>
<text xml:space="preserve" transform="matrix(1.0002997 0 -0 1.0002997 .060024725 842.05307)" font-size="12.0131" font-family="Standard Symbols PS"><tspan y="-182.0003" x="138.47992">&#x2212;</tspan><tspan y="-199.03969" x="138.23966">+</tspan></text>
<text xml:space="preserve" transform="matrix(1.0002997 0 -0 1.0002997 .060024725 842.05307)" font-size="12.0131" font-family="MHKDOL+TimesNewRoman"><tspan y="-182.0003" x="131.0402">1</tspan><tspan y="-199.03969" x="131.0402">1</tspan><tspan y="-191.35971" x="165.36043 168.48023 171.60002 175.20154 180.96183 186.24399 192.00428">, then </tspan></text>
<text xml:space="preserve" transform="matrix(1.0002997 0 -0 1.0002997 .060024725 842.05307)" font-size="12.0131" font-family="MHKGLO+TimesNewRoman,Italic" font-style="italic"><tspan y="-191.35971" x="195.12049">x</tspan></text>
<text xml:space="preserve" transform="matrix(1.0002997 0 -0 1.0002997 .060024725 842.05307)" font-size="12.0131" font-family="MHKDOL+TimesNewRoman"><tspan y="-191.35971" x="200.40024 203.52004 210.24016"> = </tspan><tspan y="-167.11968" x="68.4003 95.51987">  </tspan><tspan y="-152.95984" x="68.4003 95.51987 103.91823 107.038028"> A. </tspan></text>
<path transform="matrix(1.0002997,0,0,-1.0002997,.060024725,842.05307)" stroke-width=".495" stroke-linecap="round" stroke-linejoin="round" fill="none" stroke="#000000" d="M123.84 148.16H164.4"/>
<text xml:space="preserve" transform="matrix(1.0002997 0 -0 1.0002997 .060024725 842.05307)" font-size="12.0131" font-family="MHKDOL+TimesNewRoman"><tspan y="-135.6803" x="150.48">1</tspan><tspan y="-152.95995" x="159.8394 154.79991 133.67969">)1(</tspan></text>
<text xml:space="preserve" transform="matrix(1.0002997 0 -0 1.0002997 .060024725 842.05307)" font-size="12.0131" font-family="Standard Symbols PS"><tspan y="-135.6803" x="142.55977">+</tspan><tspan y="-152.95995" x="147.11994">&#x2212;</tspan></text>
<text xml:space="preserve" transform="matrix(1.0002997 0 -0 1.0002997 .060024725 842.05307)" font-size="12.0131" font-family="MHKGLO+TimesNewRoman,Italic" font-style="italic"><tspan y="-135.6803" x="134.40047">y</tspan><tspan y="-152.95995" x="138.96063 124.80079">ym</tspan></text>
<text xml:space="preserve" transform="matrix(1.0002997 0 -0 1.0002997 .060024725 842.05307)" font-size="12.0131" font-family="MHKDOL+TimesNewRoman"><tspan y="-145.27997" x="167.04126 170.16106 173.28086"> . </tspan><tspan y="-118.87998" x="68.401699 95.52127 103.441509 106.56131"> B. </tspan></text>
<path transform="matrix(1.0002997,0,0,-1.0002997,.060024725,842.05307)" stroke-width=".495" stroke-linecap="round" stroke-linejoin="round" fill="none" stroke="#000000" d="M123.84 114.08H164.64"/>
<text xml:space="preserve" transform="matrix(1.0002997 0 -0 1.0002997 .060024725 842.05307)" font-size="12.0131" font-family="MHKDOL+TimesNewRoman"><tspan y="-101.6003" x="160.08 155.04051 133.68003">)1(</tspan><tspan y="-118.879947" x="150.48035">1</tspan></text>
<text xml:space="preserve" transform="matrix(1.0002997 0 -0 1.0002997 .060024725 842.05307)" font-size="12.0131" font-family="Standard Symbols PS"><tspan y="-101.6003" x="147.12029">+</tspan><tspan y="-118.879947" x="142.80037">&#x2212;</tspan></text>
<text xml:space="preserve" transform="matrix(1.0002997 0 -0 1.0002997 .060024725 842.05307)" font-size="12.0131" font-family="MHKGLO+TimesNewRoman,Italic" font-style="italic"><tspan y="-101.6003" x="138.95978 124.799938">ym</tspan><tspan y="-118.879947" x="134.63986">y</tspan></text>
<text xml:space="preserve" transform="matrix(1.0002997 0 -0 1.0002997 .060024725 842.05307)" font-size="12.0131" font-family="MHKDOL+TimesNewRoman"><tspan y="-111.19997" x="167.04039 170.16019 173.27999"> . </tspan><tspan y="-697.2782" x="304.8006 331.92018 339.8404 342.96018"> C. </tspan></text>
<path transform="matrix(1.0002997,0,0,-1.0002997,.060024725,842.05307)" stroke-width=".495" stroke-linecap="round" stroke-linejoin="round" fill="none" stroke="#000000" d="M360.24 690.56H405.84"/>
<text xml:space="preserve" transform="matrix(1.0002997 0 -0 1.0002997 .060024725 842.05307)" font-size="12.0131" font-family="MHKDOL+TimesNewRoman"><tspan y="-678.0803" x="401.28 372.96034 369.8405">)1(</tspan><tspan y="-695.1197" x="396.72105 368.64164 365.52183">)1(</tspan></text>
<text xml:space="preserve" transform="matrix(1.0002997 0 -0 1.0002997 .060024725 842.05307)" font-size="6.9994" font-family="MHKDOL+TimesNewRoman"><tspan y="-683.3603" x="396.72">2</tspan><tspan y="-700.6404" x="392.15989">2</tspan></text>
<text xml:space="preserve" transform="matrix(1.0002997 0 -0 1.0002997 .060024725 842.05307)" font-size="12.0131" font-family="MHKGLO+TimesNewRoman,Italic" font-style="italic"><tspan y="-678.0803" x="390.48 361.20048">ym</tspan><tspan y="-695.1197" x="385.92103">y</tspan></text>
<text xml:space="preserve" transform="matrix(1.0002997 0 -0 1.0002997 .060024725 842.05307)" font-size="12.0131" font-family="Standard Symbols PS"><tspan y="-678.0803" x="380.16075">+</tspan><tspan y="-695.1197" x="375.84083">&#x2212;</tspan></text>
<text xml:space="preserve" transform="matrix(1.0002997 0 -0 1.0002997 .060024725 842.05307)" font-size="12.0131" font-family="MHKDOL+TimesNewRoman"><tspan y="-687.68" x="408.24137 411.36119 414.481"> . </tspan><tspan y="-661.28" x="304.80137 331.92094 340.55836 343.67814"> D. </tspan></text>
<path transform="matrix(1.0002997,0,0,-1.0002997,.060024725,842.05307)" stroke-width=".495" stroke-linecap="round" stroke-linejoin="round" fill="none" stroke="#000000" d="M360.24 654.56H405.6"/>
<text xml:space="preserve" transform="matrix(1.0002997 0 -0 1.0002997 .060024725 842.05307)" font-size="12.0131" font-family="MHKDOL+TimesNewRoman"><tspan y="-642.0803" x="396.72 391.6805 365.28053">)1(</tspan><tspan y="-659.1197" x="401.03993 396.00044 369.8407">)1(</tspan></text>
<text xml:space="preserve" transform="matrix(1.0002997 0 -0 1.0002997 .060024725 842.05307)" font-size="6.9994" font-family="MHKDOL+TimesNewRoman"><tspan y="-647.3604" x="376.8">2</tspan><tspan y="-664.6405" x="381.3601">2</tspan></text>
<text xml:space="preserve" transform="matrix(1.0002997 0 -0 1.0002997 .060024725 842.05307)" font-size="12.0131" font-family="Standard Symbols PS"><tspan y="-642.0803" x="383.76">+</tspan><tspan y="-659.1197" x="388.3202">&#x2212;</tspan></text>
<text xml:space="preserve" transform="matrix(1.0002997 0 -0 1.0002997 .060024725 842.05307)" font-size="12.0131" font-family="MHKGLO+TimesNewRoman,Italic" font-style="italic"><tspan y="-642.0803" x="370.8003">y</tspan><tspan y="-659.1197" x="375.36048 361.20063">ym</tspan></text>
<text xml:space="preserve" transform="matrix(1.0002997 0 -0 1.0002997 .060024725 842.05307)" font-size="12.0131" font-family="MHKDOL+TimesNewRoman"><tspan y="-651.68" x="408.24034 411.36015 414.47996"> . </tspan><tspan y="-625.28" x="304.80033 331.9199 339.3692 342.48179"> E. </tspan></text>
<path transform="matrix(1.0002997,0,0,-1.0002997,.060024725,842.05307)" stroke-width=".495" stroke-linecap="round" stroke-linejoin="round" fill="none" stroke="#000000" d="M360.24 618.56H405.84"/>
<text xml:space="preserve" transform="matrix(1.0002997 0 -0 1.0002997 .060024725 842.05307)" font-size="12.0131" font-family="MHKDOL+TimesNewRoman"><tspan y="-606.0803" x="401.28 396.2405 369.8405">)1(</tspan><tspan y="-623.1197" x="396.72105 391.68156 365.52183">)1(</tspan></text>
<text xml:space="preserve" transform="matrix(1.0002997 0 -0 1.0002997 .060024725 842.05307)" font-size="6.9994" font-family="MHKDOL+TimesNewRoman"><tspan y="-611.3603" x="381.6">2</tspan><tspan y="-628.6404" x="377.0399">2</tspan></text>
<text xml:space="preserve" transform="matrix(1.0002997 0 -0 1.0002997 .060024725 842.05307)" font-size="12.0131" font-family="Standard Symbols PS"><tspan y="-606.0803" x="388.56">+</tspan><tspan y="-623.1197" x="383.99983">&#x2212;</tspan></text>
<text xml:space="preserve" transform="matrix(1.0002997 0 -0 1.0002997 .060024725 842.05307)" font-size="12.0131" font-family="MHKGLO+TimesNewRoman,Italic" font-style="italic"><tspan y="-606.0803" x="375.36 361.20014">ym</tspan><tspan y="-623.1197" x="371.04008">y</tspan></text>
<text xml:space="preserve" transform="matrix(1.0002997 0 -0 1.0002997 .060024725 842.05307)" font-size="12.0131" font-family="MHKDOL+TimesNewRoman"><tspan y="-615.68" x="408.23985 411.35966 414.47947"> . </tspan><tspan y="-589.28" x="304.79985 331.9194">  </tspan><tspan y="-575.1202" x="304.79985 310.80039 316.80094">91 </tspan><tspan y="-560.9603" x="304.79985 310.80039 313.92018">5. </tspan></text>
<path transform="matrix(1.0002997,0,0,-1.0002997,.060024725,842.05307)" stroke-width=".24" stroke-linecap="round" stroke-linejoin="round" fill="none" stroke="#000000" d="M335.04 570.08H347.52M359.52 570.08H372.96M340.08 537.92H347.52M359.52 537.92H367.92"/>
<path transform="matrix(1.0002997,0,0,-1.0002997,.060024725,842.05307)" stroke-width=".495" stroke-linecap="round" stroke-linejoin="round" fill="none" stroke="#000000" d="M333.84 553.28H373.92"/>
<text xml:space="preserve" transform="matrix(1.0002997 0 -0 1.0002997 .060024725 842.05307)" font-size="12.0131" font-family="Standard Symbols PS"><tspan y="-550.4003" x="377.76">=</tspan><tspan y="-535.0404" x="350.1599">+</tspan><tspan y="-566.9604" x="350.1599">+</tspan></text>
<text xml:space="preserve" transform="matrix(1.0002997 0 -0 1.0002997 .060024725 842.05307)" font-size="12.0131" font-family="MHKGLO+TimesNewRoman,Italic" font-style="italic"><tspan y="-525.44076" x="361.44023 341.27986">yx</tspan><tspan y="-557.601" x="361.44023 336.24034">yx</tspan></text>
<text xml:space="preserve" transform="matrix(1.0002997 0 -0 1.0002997 .060024725 842.05307)" font-size="12.0131" font-family="MHKDOL+TimesNewRoman"><tspan y="-542.72158" x="360.7206 340.80049">11</tspan><tspan y="-574.64157" x="363.35987 338.15998">11</tspan></text>
<text xml:space="preserve" transform="matrix(1.0002997 0 -0 1.0002997 .060024725 842.05307)" font-size="6.9994" font-family="MHKDOL+TimesNewRoman"><tspan y="-562.8803" x="367.68 342.23997">22</tspan></text>
<text xml:space="preserve" transform="matrix(1.0002997 0 -0 1.0002997 .060024725 842.05307)" font-size="12.0131" font-family="MHKDOL+TimesNewRoman"><tspan y="-550.4003" x="385.92"> </tspan><tspan y="-509.1209" x="304.80036 331.91993">  </tspan><tspan y="-494.96107" x="304.80036 331.91993 340.31828 343.43809"> A. </tspan></text>
<path transform="matrix(1.0002997,0,0,-1.0002997,.060024725,842.05307)" stroke-width=".495" stroke-linecap="round" stroke-linejoin="round" fill="none" stroke="#000000" d="M360.24 490.16H372.96"/>
<text xml:space="preserve" transform="matrix(1.0002997 0 -0 1.0002997 .060024725 842.05307)" font-size="6.9994" font-family="MHKDOL+TimesNewRoman"><tspan y="-483.2003" x="367.68">2</tspan></text>
<text xml:space="preserve" transform="matrix(1.0002997 0 -0 1.0002997 .060024725 842.05307)" font-size="11.9841" font-family="MHKDOL+TimesNewRoman"><tspan y="-494.9603" x="363.6">1</tspan></text>
<g clip-path="url(#clip_8)">
<text xml:space="preserve" transform="matrix(1.0002997 0 -0 1.0002997 .060024725 842.05307)" font-size="11.9841" font-family="MHKGLO+TimesNewRoman,Italic" font-style="italic"><tspan y="-477.6803" x="361.68">x</tspan></text>
</g>
<text xml:space="preserve" transform="matrix(1.0002997 0 -0 1.0002997 .060024725 842.05307)" font-size="12.0131" font-family="MHKDOL+TimesNewRoman"><tspan y="-487.2803" x="375.36 378.4798 385.19993"> + </tspan></text>
<path transform="matrix(1.0002997,0,0,-1.0002997,.060024725,842.05307)" stroke-width=".495" stroke-linecap="round" stroke-linejoin="round" fill="none" stroke="#000000" d="M390.24 490.16H403.68"/>
<text xml:space="preserve" transform="matrix(1.0002997 0 -0 1.0002997 .060024725 842.05307)" font-size="6.9994" font-family="MHKDOL+TimesNewRoman"><tspan y="-482.9603" x="398.4">2</tspan></text>
<text xml:space="preserve" transform="matrix(1.0002997 0 -0 1.0002997 .060024725 842.05307)" font-size="12.0131" font-family="MHKDOL+TimesNewRoman"><tspan y="-494.9603" x="393.84">1</tspan></text>
<text xml:space="preserve" transform="matrix(1.0002997 0 -0 1.0002997 .060024725 842.05307)" font-size="12.0131" font-family="MHKGLO+TimesNewRoman,Italic" font-style="italic"><tspan y="-477.68067" x="392.16056">y</tspan></text>
<text xml:space="preserve" transform="matrix(1.0002997 0 -0 1.0002997 .060024725 842.05307)" font-size="12.0131" font-family="MHKDOL+TimesNewRoman"><tspan y="-487.28034" x="406.3204"> </tspan><tspan y="-460.88035" x="304.8001 331.91969 339.8399 342.9597"> B. </tspan></text>
<path transform="matrix(1.0002997,0,0,-1.0002997,.060024725,842.05307)" stroke-width=".495" stroke-linecap="round" stroke-linejoin="round" fill="none" stroke="#000000" d="M360.24 456.08H372.96"/>
<text xml:space="preserve" transform="matrix(1.0002997 0 -0 1.0002997 .060024725 842.05307)" font-size="6.9994" font-family="MHKDOL+TimesNewRoman"><tspan y="-449.1203" x="367.68">2</tspan></text>
<text xml:space="preserve" transform="matrix(1.0002997 0 -0 1.0002997 .060024725 842.05307)" font-size="11.9841" font-family="MHKDOL+TimesNewRoman"><tspan y="-460.8803" x="363.6">1</tspan></text>
<g clip-path="url(#clip_9)">
<text xml:space="preserve" transform="matrix(1.0002997 0 -0 1.0002997 .060024725 842.05307)" font-size="11.9841" font-family="MHKGLO+TimesNewRoman,Italic" font-style="italic"><tspan y="-443.6003" x="361.68">x</tspan></text>
</g>
<text xml:space="preserve" transform="matrix(1.0002997 0 -0 1.0002997 .060024725 842.05307)" font-size="12.0131" font-family="MHKDOL+TimesNewRoman"><tspan y="-453.2003" x="375.36 378.4798 385.19993"> + </tspan></text>
<path transform="matrix(1.0002997,0,0,-1.0002997,.060024725,842.05307)" stroke-width=".495" stroke-linecap="round" stroke-linejoin="round" fill="none" stroke="#000000" d="M390.24 456.08H403.2"/>
<text xml:space="preserve" transform="matrix(1.0002997 0 -0 1.0002997 .060024725 842.05307)" font-size="12.0131" font-family="MHKGLO+TimesNewRoman,Italic" font-style="italic"><tspan y="-443.6003" x="391.68 397.0138">xy</tspan></text>
<text xml:space="preserve" transform="matrix(1.0002997 0 -0 1.0002997 .060024725 842.05307)" font-size="12.0131" font-family="MHKDOL+TimesNewRoman"><tspan y="-460.87995" x="393.83995">1</tspan><tspan y="-453.19999" x="405.3605 408.48033 415.20045"> + </tspan></text>
<path transform="matrix(1.0002997,0,0,-1.0002997,.060024725,842.05307)" stroke-width=".495" stroke-linecap="round" stroke-linejoin="round" fill="none" stroke="#000000" d="M420.24 456.08H433.68"/>
<text xml:space="preserve" transform="matrix(1.0002997 0 -0 1.0002997 .060024725 842.05307)" font-size="6.9994" font-family="MHKDOL+TimesNewRoman"><tspan y="-448.8803" x="428.4">2</tspan></text>
<text xml:space="preserve" transform="matrix(1.0002997 0 -0 1.0002997 .060024725 842.05307)" font-size="12.0131" font-family="MHKDOL+TimesNewRoman"><tspan y="-460.8803" x="423.84">1</tspan></text>
<text xml:space="preserve" transform="matrix(1.0002997 0 -0 1.0002997 .060024725 842.05307)" font-size="12.0131" font-family="MHKGLO+TimesNewRoman,Italic" font-style="italic"><tspan y="-443.60069" x="422.16056">y</tspan></text>
<text xml:space="preserve" transform="matrix(1.0002997 0 -0 1.0002997 .060024725 842.05307)" font-size="12.0131" font-family="MHKDOL+TimesNewRoman"><tspan y="-453.20036" x="436.3204"> </tspan><tspan y="-426.80036" x="304.801 331.92057 339.8408 342.96058"> C. </tspan></text>
<path transform="matrix(1.0002997,0,0,-1.0002997,.060024725,842.05307)" stroke-width=".495" stroke-linecap="round" stroke-linejoin="round" fill="none" stroke="#000000" d="M360.24 422H372.96"/>
<text xml:space="preserve" transform="matrix(1.0002997 0 -0 1.0002997 .060024725 842.05307)" font-size="6.9994" font-family="MHKDOL+TimesNewRoman"><tspan y="-415.0403" x="367.68">2</tspan></text>
<text xml:space="preserve" transform="matrix(1.0002997 0 -0 1.0002997 .060024725 842.05307)" font-size="11.9841" font-family="MHKDOL+TimesNewRoman"><tspan y="-426.8003" x="363.6">1</tspan></text>
<g clip-path="url(#clip_10)">
<text xml:space="preserve" transform="matrix(1.0002997 0 -0 1.0002997 .060024725 842.05307)" font-size="11.9841" font-family="MHKGLO+TimesNewRoman,Italic" font-style="italic"><tspan y="-409.5203" x="361.68">x</tspan></text>
</g>
<text xml:space="preserve" transform="matrix(1.0002997 0 -0 1.0002997 .060024725 842.05307)" font-size="12.0131" font-family="MHKDOL+TimesNewRoman"><tspan y="-419.1203" x="375.36 378.4798 385.19993"> + </tspan></text>
<path transform="matrix(1.0002997,0,0,-1.0002997,.060024725,842.05307)" stroke-width=".495" stroke-linecap="round" stroke-linejoin="round" fill="none" stroke="#000000" d="M390.24 422H403.2"/>
<text xml:space="preserve" transform="matrix(1.0002997 0 -0 1.0002997 .060024725 842.05307)" font-size="12.0131" font-family="MHKGLO+TimesNewRoman,Italic" font-style="italic"><tspan y="-409.5203" x="391.68 397.0138">xy</tspan></text>
<text xml:space="preserve" transform="matrix(1.0002997 0 -0 1.0002997 .060024725 842.05307)" font-size="12.0131" font-family="MHKDOL+TimesNewRoman"><tspan y="-426.79994" x="394.0802">2</tspan><tspan y="-419.11997" x="405.3605 408.48033 415.20045"> + </tspan></text>
<path transform="matrix(1.0002997,0,0,-1.0002997,.060024725,842.05307)" stroke-width=".495" stroke-linecap="round" stroke-linejoin="round" fill="none" stroke="#000000" d="M420.24 422H433.68"/>
<text xml:space="preserve" transform="matrix(1.0002997 0 -0 1.0002997 .060024725 842.05307)" font-size="6.9994" font-family="MHKDOL+TimesNewRoman"><tspan y="-414.8003" x="428.4">2</tspan></text>
<text xml:space="preserve" transform="matrix(1.0002997 0 -0 1.0002997 .060024725 842.05307)" font-size="12.0131" font-family="MHKDOL+TimesNewRoman"><tspan y="-426.8003" x="423.84">1</tspan></text>
<text xml:space="preserve" transform="matrix(1.0002997 0 -0 1.0002997 .060024725 842.05307)" font-size="12.0131" font-family="MHKGLO+TimesNewRoman,Italic" font-style="italic"><tspan y="-409.52067" x="422.16056">y</tspan></text>
<text xml:space="preserve" transform="matrix(1.0002997 0 -0 1.0002997 .060024725 842.05307)" font-size="12.0131" font-family="MHKDOL+TimesNewRoman"><tspan y="-419.12034" x="436.3204"> </tspan><tspan y="-392.72035" x="304.801 331.92057 340.55799 343.67778"> D. </tspan></text>
<path transform="matrix(1.0002997,0,0,-1.0002997,.060024725,842.05307)" stroke-width=".495" stroke-linecap="round" stroke-linejoin="round" fill="none" stroke="#000000" d="M360.24 387.92H372.96"/>
<text xml:space="preserve" transform="matrix(1.0002997 0 -0 1.0002997 .060024725 842.05307)" font-size="6.9994" font-family="MHKDOL+TimesNewRoman"><tspan y="-380.9603" x="367.68">2</tspan></text>
<text xml:space="preserve" transform="matrix(1.0002997 0 -0 1.0002997 .060024725 842.05307)" font-size="11.9841" font-family="MHKDOL+TimesNewRoman"><tspan y="-392.7203" x="363.6">1</tspan></text>
<g clip-path="url(#clip_11)">
<text xml:space="preserve" transform="matrix(1.0002997 0 -0 1.0002997 .060024725 842.05307)" font-size="11.9841" font-family="MHKGLO+TimesNewRoman,Italic" font-style="italic"><tspan y="-375.4403" x="361.68">x</tspan></text>
</g>
<text xml:space="preserve" transform="matrix(1.0002997 0 -0 1.0002997 .060024725 842.05307)" font-size="12.0131" font-family="MHKDOL+TimesNewRoman"><tspan y="-385.0403" x="375.36"> </tspan></text>
<text xml:space="preserve" transform="matrix(1.0002997 0 -0 1.0002997 .060024725 842.05307)" font-size="12.0131" font-family="Standard Symbols PS"><tspan y="-385.0403" x="378.4798">&#x2212;</tspan></text>
<text xml:space="preserve" transform="matrix(1.0002997 0 -0 1.0002997 .060024725 842.05307)" font-size="12.0131" font-family="MHKDOL+TimesNewRoman"><tspan y="-385.0403" x="384.95967"> </tspan></text>
<path transform="matrix(1.0002997,0,0,-1.0002997,.060024725,842.05307)" stroke-width=".495" stroke-linecap="round" stroke-linejoin="round" fill="none" stroke="#000000" d="M390 387.92H402.96"/>
<text xml:space="preserve" transform="matrix(1.0002997 0 -0 1.0002997 .060024725 842.05307)" font-size="12.0131" font-family="MHKGLO+TimesNewRoman,Italic" font-style="italic"><tspan y="-375.4403" x="391.44 396.7738">xy</tspan></text>
<text xml:space="preserve" transform="matrix(1.0002997 0 -0 1.0002997 .060024725 842.05307)" font-size="12.0131" font-family="MHKDOL+TimesNewRoman"><tspan y="-392.71995" x="393.8402">2</tspan><tspan y="-385.03999" x="405.1205 408.24034 414.96046"> + </tspan></text>
<path transform="matrix(1.0002997,0,0,-1.0002997,.060024725,842.05307)" stroke-width=".495" stroke-linecap="round" stroke-linejoin="round" fill="none" stroke="#000000" d="M420 387.92H433.44"/>
<text xml:space="preserve" transform="matrix(1.0002997 0 -0 1.0002997 .060024725 842.05307)" font-size="6.9994" font-family="MHKDOL+TimesNewRoman"><tspan y="-380.7203" x="428.16">2</tspan></text>
<text xml:space="preserve" transform="matrix(1.0002997 0 -0 1.0002997 .060024725 842.05307)" font-size="12.0131" font-family="MHKDOL+TimesNewRoman"><tspan y="-392.7203" x="423.6">1</tspan></text>
<text xml:space="preserve" transform="matrix(1.0002997 0 -0 1.0002997 .060024725 842.05307)" font-size="12.0131" font-family="MHKGLO+TimesNewRoman,Italic" font-style="italic"><tspan y="-375.44068" x="421.92057">y</tspan></text>
<text xml:space="preserve" transform="matrix(1.0002997 0 -0 1.0002997 .060024725 842.05307)" font-size="12.0131" font-family="MHKDOL+TimesNewRoman"><tspan y="-385.04035" x="436.0804"> </tspan><tspan y="-358.64036" x="304.80128 331.92085 339.37016 342.48274"> E. </tspan></text>
<path transform="matrix(1.0002997,0,0,-1.0002997,.060024725,842.05307)" stroke-width=".495" stroke-linecap="round" stroke-linejoin="round" fill="none" stroke="#000000" d="M360.24 353.84H372.96"/>
<text xml:space="preserve" transform="matrix(1.0002997 0 -0 1.0002997 .060024725 842.05307)" font-size="6.9994" font-family="MHKDOL+TimesNewRoman"><tspan y="-346.8803" x="367.68">2</tspan></text>
<text xml:space="preserve" transform="matrix(1.0002997 0 -0 1.0002997 .060024725 842.05307)" font-size="11.9841" font-family="MHKDOL+TimesNewRoman"><tspan y="-358.6403" x="363.6">1</tspan></text>
<g clip-path="url(#clip_12)">
<text xml:space="preserve" transform="matrix(1.0002997 0 -0 1.0002997 .060024725 842.05307)" font-size="11.9841" font-family="MHKGLO+TimesNewRoman,Italic" font-style="italic"><tspan y="-341.3604" x="361.68">x</tspan></text>
</g>
<text xml:space="preserve" transform="matrix(1.0002997 0 -0 1.0002997 .060024725 842.05307)" font-size="12.0131" font-family="MHKDOL+TimesNewRoman"><tspan y="-350.9603" x="375.36"> </tspan></text>
<text xml:space="preserve" transform="matrix(1.0002997 0 -0 1.0002997 .060024725 842.05307)" font-size="12.0131" font-family="Standard Symbols PS"><tspan y="-350.9603" x="378.4798">&#x2212;</tspan></text>
<text xml:space="preserve" transform="matrix(1.0002997 0 -0 1.0002997 .060024725 842.05307)" font-size="12.0131" font-family="MHKDOL+TimesNewRoman"><tspan y="-350.9603" x="384.95967"> </tspan></text>
<path transform="matrix(1.0002997,0,0,-1.0002997,.060024725,842.05307)" stroke-width=".495" stroke-linecap="round" stroke-linejoin="round" fill="none" stroke="#000000" d="M390 353.84H402.96"/>
<text xml:space="preserve" transform="matrix(1.0002997 0 -0 1.0002997 .060024725 842.05307)" font-size="12.0131" font-family="MHKGLO+TimesNewRoman,Italic" font-style="italic"><tspan y="-341.3604" x="391.44 396.7738">xy</tspan></text>
<text xml:space="preserve" transform="matrix(1.0002997 0 -0 1.0002997 .060024725 842.05307)" font-size="12.0131" font-family="MHKDOL+TimesNewRoman"><tspan y="-358.64006" x="393.59996">1</tspan><tspan y="-350.96009" x="405.1205 408.24034 414.96046"> + </tspan></text>
<path transform="matrix(1.0002997,0,0,-1.0002997,.060024725,842.05307)" stroke-width=".495" stroke-linecap="round" stroke-linejoin="round" fill="none" stroke="#000000" d="M420 353.84H433.44"/>
<text xml:space="preserve" transform="matrix(1.0002997 0 -0 1.0002997 .060024725 842.05307)" font-size="6.9994" font-family="MHKDOL+TimesNewRoman"><tspan y="-346.6404" x="428.16">2</tspan></text>
<text xml:space="preserve" transform="matrix(1.0002997 0 -0 1.0002997 .060024725 842.05307)" font-size="12.0131" font-family="MHKDOL+TimesNewRoman"><tspan y="-358.6403" x="423.6">1</tspan></text>
<text xml:space="preserve" transform="matrix(1.0002997 0 -0 1.0002997 .060024725 842.05307)" font-size="12.0131" font-family="MHKGLO+TimesNewRoman,Italic" font-style="italic"><tspan y="-341.36067" x="421.92057">y</tspan></text>
<text xml:space="preserve" transform="matrix(1.0002997 0 -0 1.0002997 .060024725 842.05307)" font-size="12.0131" font-family="MHKDOL+TimesNewRoman"><tspan y="-350.96034" x="436.0804"> </tspan><tspan y="-324.56034" x="304.80128 331.92085">  </tspan><tspan y="-310.40049" x="304.80128 310.80183 316.80238">91 </tspan><tspan y="-296.24064" x="304.80128 310.80183 313.9216">6. </tspan><tspan y="-310.40049" x="331.92085 339.37138 345.13166 350.41383 353.53364 360.7355 363.85533 371.77555 374.89537 385.45368 388.5735 391.6933 397.9329 401.5332 404.653 410.4133 413.5331 416.65293">The L.C.M. of x, 2</tspan></text>
<text xml:space="preserve" transform="matrix(1.0002997 0 -0 1.0002997 .060024725 842.05307)" font-size="12.0131" font-family="MHKGLO+TimesNewRoman,Italic" font-style="italic"><tspan y="-310.40049" x="422.64018">x</tspan></text>
<text xml:space="preserve" transform="matrix(1.0002997 0 -0 1.0002997 .060024725 842.05307)" font-size="7.44" font-family="MHKDOL+TimesNewRoman"><tspan y="-315.9203" x="427.92">2</tspan></text>
<text xml:space="preserve" transform="matrix(1.0002997 0 -0 1.0002997 .060024725 842.05307)" font-size="12.0131" font-family="MHKDOL+TimesNewRoman"><tspan y="-310.4003" x="431.76 434.87983 437.99964">, 3</tspan></text>
<text xml:space="preserve" transform="matrix(1.0002997 0 -0 1.0002997 .060024725 842.05307)" font-size="12.0131" font-family="MHKGLO+TimesNewRoman,Italic" font-style="italic"><tspan y="-310.4003" x="444.00016">x</tspan></text>
<text xml:space="preserve" transform="matrix(1.0002997 0 -0 1.0002997 .060024725 842.05307)" font-size="7.44" font-family="MHKDOL+TimesNewRoman"><tspan y="-315.9203" x="449.28">3</tspan></text>
<text xml:space="preserve" transform="matrix(1.0002997 0 -0 1.0002997 .060024725 842.05307)" font-size="12.0131" font-family="MHKDOL+TimesNewRoman"><tspan y="-310.4003" x="453.12 456.2398 459.35963">, 4</tspan></text>
<text xml:space="preserve" transform="matrix(1.0002997 0 -0 1.0002997 .060024725 842.05307)" font-size="12.0131" font-family="MHKGLO+TimesNewRoman,Italic" font-style="italic"><tspan y="-310.4003" x="465.36015">x</tspan></text>
<text xml:space="preserve" transform="matrix(1.0002997 0 -0 1.0002997 .060024725 842.05307)" font-size="7.44" font-family="MHKDOL+TimesNewRoman"><tspan y="-315.9203" x="470.64">4</tspan></text>
<text xml:space="preserve" transform="matrix(1.0002997 0 -0 1.0002997 .060024725 842.05307)" font-size="12.0131" font-family="MHKDOL+TimesNewRoman"><tspan y="-310.4003" x="474.48 477.59983 480.71965">, 5</tspan></text>
<text xml:space="preserve" transform="matrix(1.0002997 0 -0 1.0002997 .060024725 842.05307)" font-size="12.0131" font-family="MHKGLO+TimesNewRoman,Italic" font-style="italic"><tspan y="-310.4003" x="486.72016">x</tspan></text>
<text xml:space="preserve" transform="matrix(1.0002997 0 -0 1.0002997 .060024725 842.05307)" font-size="7.44" font-family="MHKDOL+TimesNewRoman"><tspan y="-315.9203" x="491.9999">5</tspan></text>
<text xml:space="preserve" transform="matrix(1.0002997 0 -0 1.0002997 .060024725 842.05307)" font-size="12.0131" font-family="MHKDOL+TimesNewRoman"><tspan y="-310.4003" x="495.84 498.95979 501.84175 506.3995"> is </tspan><tspan y="-282.08064" x="304.80049 331.92005">  </tspan><tspan y="-267.92079" x="304.80049 331.92005 340.3184 343.4382"> A. </tspan></text>
<text xml:space="preserve" transform="matrix(1.0002997 0 -0 1.0002997 .060024725 842.05307)" font-size="12.0131" font-family="MHKGLO+TimesNewRoman,Italic" font-style="italic"><tspan y="-267.92079" x="358.32005">x</tspan></text>
<text xml:space="preserve" transform="matrix(1.0002997 0 -0 1.0002997 .060024725 842.05307)" font-size="12.0131" font-family="MHKDOL+TimesNewRoman"><tspan y="-267.92079" x="363.5998 366.7196 369.83943"> . </tspan><tspan y="-253.76094" x="304.80049 331.92005 339.84028 342.96006 358.32"> B. 5</tspan></text>
<text xml:space="preserve" transform="matrix(1.0002997 0 -0 1.0002997 .060024725 842.05307)" font-size="12.0131" font-family="MHKGLO+TimesNewRoman,Italic" font-style="italic"><tspan y="-253.76094" x="364.3206">x</tspan></text>
<text xml:space="preserve" transform="matrix(1.0002997 0 -0 1.0002997 .060024725 842.05307)" font-size="7.44" font-family="MHKDOL+TimesNewRoman"><tspan y="-259.2803" x="369.6">5</tspan></text>
<text xml:space="preserve" transform="matrix(1.0002997 0 -0 1.0002997 .060024725 842.05307)" font-size="12.0131" font-family="MHKDOL+TimesNewRoman"><tspan y="-253.7603" x="373.44 376.5598 379.67964"> . </tspan><tspan y="-239.60047" x="304.79957 331.91914 339.83937 342.95915 358.3191 364.31965"> C. 60</tspan></text>
<text xml:space="preserve" transform="matrix(1.0002997 0 -0 1.0002997 .060024725 842.05307)" font-size="12.0131" font-family="MHKGLO+TimesNewRoman,Italic" font-style="italic"><tspan y="-239.60047" x="370.319">x</tspan></text>
<text xml:space="preserve" transform="matrix(1.0002997 0 -0 1.0002997 .060024725 842.05307)" font-size="7.44" font-family="MHKDOL+TimesNewRoman"><tspan y="-245.1203" x="375.6">5</tspan></text>
<text xml:space="preserve" transform="matrix(1.0002997 0 -0 1.0002997 .060024725 842.05307)" font-size="12.0131" font-family="MHKDOL+TimesNewRoman"><tspan y="-239.6003" x="379.44 382.5598 385.67964"> . </tspan><tspan y="-225.44046" x="304.8002 331.91978 340.5752 343.695 358.33537 364.32389 370.3124"> D. 120</tspan></text>
<text xml:space="preserve" transform="matrix(1.0002997 0 -0 1.0002997 .060024725 842.05307)" font-size="12.0131" font-family="MHKGLO+TimesNewRoman,Italic" font-style="italic"><tspan y="-225.44046" x="376.3202">x</tspan></text>
<text xml:space="preserve" transform="matrix(1.0002997 0 -0 1.0002997 .060024725 842.05307)" font-size="7.44" font-family="MHKDOL+TimesNewRoman"><tspan y="-230.9603" x="381.6">5</tspan></text>
<text xml:space="preserve" transform="matrix(1.0002997 0 -0 1.0002997 .060024725 842.05307)" font-size="12.0131" font-family="MHKDOL+TimesNewRoman"><tspan y="-225.4403" x="385.44 388.5598 391.67964"> . </tspan><tspan y="-211.28047" x="304.79969 331.91926 339.36137 342.48115 358.3216 364.32215 370.3227"> E. 120</tspan></text>
<text xml:space="preserve" transform="matrix(1.0002997 0 -0 1.0002997 .060024725 842.05307)" font-size="12.0131" font-family="MHKGLO+TimesNewRoman,Italic" font-style="italic"><tspan y="-211.28047" x="376.31968">x</tspan></text>
<text xml:space="preserve" transform="matrix(1.0002997 0 -0 1.0002997 .060024725 842.05307)" font-size="7.44" font-family="MHKDOL+TimesNewRoman"><tspan y="-216.8003" x="381.6 385.4398">15</tspan></text>
<text xml:space="preserve" transform="matrix(1.0002997 0 -0 1.0002997 .060024725 842.05307)" font-size="12.0131" font-family="MHKDOL+TimesNewRoman"><tspan y="-211.2803" x="389.28 392.3998 395.51963"> . </tspan><tspan y="-197.12047" x="304.8003 331.91987">  </tspan><tspan y="-182.96063" x="304.8003 310.80085 316.8014">91 </tspan><tspan y="-168.8008" x="304.8003 310.80085 313.92063">7. </tspan><tspan y="-182.96063" x="331.91987 335.9995 341.75978 349.19947 357.82609 363.58634 366.46827 371.75044 377.51069 384.95039 391.18998 394.7903 402.23 405.83155 411.5918 416.87876 424.31846 427.9188 434.1584 437.0403 439.92225 446.16184 454.78846 457.67039 463.43064 469.43116 476.87086 482.1578 487.44477 492.00254 497.2895 501.84727 509.0467 512.6482 518.4085 523.6955">In which of the following cases the </tspan><tspan y="-168.56053" x="331.91987 337.22486 343.20259 349.1803 354.4853 358.08683 360.96879 367.20838 372.96867 377.52885 381.12916">equation f(</tspan></text>
<text xml:space="preserve" transform="matrix(1.0002997 0 -0 1.0002997 .060024725 842.05307)" font-size="12.0131" font-family="MHKGLO+TimesNewRoman,Italic" font-style="italic"><tspan y="-168.56053" x="385.19917">x</tspan></text>
<text xml:space="preserve" transform="matrix(1.0002997 0 -0 1.0002997 .060024725 842.05307)" font-size="12.0131" font-family="MHKDOL+TimesNewRoman"><tspan y="-168.56053" x="390.4789 394.55857 399.1187 405.83885 410.63926 416.6398">) = 0 </tspan></text>
<text xml:space="preserve" transform="matrix(1.0002997 0 -0 1.0002997 .060024725 842.05307)" font-size="12" font-family="MHKGIN+TimesNewRoman,Bold" font-weight="bold"><tspan y="-168.5603" x="421.44 426.756 432.74403 439.46284 446.18043 452.16844">cannot</tspan></text>
<text xml:space="preserve" transform="matrix(1.0002997 0 -0 1.0002997 .060024725 842.05307)" font-size="12.0131" font-family="MHKDOL+TimesNewRoman"><tspan y="-168.5603" x="456.24 461.04045 466.80073 472.0829 476.88334 481.4411 487.6807 490.56266 496.32295 501.6051 507.60566 512.4061 518.1664 523.6864"> be solved by </tspan><tspan y="-154.40047" x="331.92005 335.52159 341.28187 346.56404 349.68385 358.5663 363.84849 367.45 373.2103 379.4499 385.45045 388.57026 394.80986 398.41017 401.52998 407.29026 410.1722 414.72999 420.01216 425.2943 428.89585 431.7778 438.0174 443.77769 448.81959">the method of bisection? </tspan><tspan y="-140.24063" x="304.80049 331.92005">  </tspan></text>
</g>
</g>
</g>
</g>
</g>
</g>
</svg>
