<?xml version="1.0" encoding="UTF-8"?>
<svg xmlns="http://www.w3.org/2000/svg" xmlns:xlink="http://www.w3.org/1999/xlink" width="327.700012" height="307.679993" viewBox="0 0 327.700012 307.679993">
<defs>
<clipPath id="clip-0">
<path clip-rule="nonzero" d="M 231.320312 105 L 243 105 L 243 118 L 231.320312 118 Z M 231.320312 105 "/>
</clipPath>
</defs>
<g clip-path="url(#clip-0)">
<path fill-rule="nonzero" fill="rgb(0%, 0%, 0%)" fill-opacity="1" d="M 231.160156 118 L 236.730469 118 C 239.832031 118 241.964844 116.375 241.964844 114.042969 C 241.964844 113.308594 241.730469 112.617188 241.292969 112.183594 C 240.898438 111.726562 240.503906 111.492188 239.476562 111.054688 C 240.878906 110.71875 241.453125 110.480469 242.085938 109.929688 C 242.636719 109.453125 242.933594 108.78125 242.933594 107.992188 C 242.933594 106.113281 241.53125 105.085938 238.984375 105.085938 L 233.886719 105.085938 L 233.886719 105.402344 C 235.113281 105.5 235.40625 105.660156 235.40625 106.210938 C 235.40625 106.507812 235.328125 107.003906 235.191406 107.476562 L 232.761719 116.21875 C 232.40625 117.367188 232.265625 117.484375 231.160156 117.683594 L 231.160156 118 M 236.019531 111.449219 C 237.304688 111.449219 238.132812 111.53125 238.53125 111.6875 C 239.339844 112.023438 239.832031 112.894531 239.832031 113.964844 C 239.832031 116.101562 238.371094 117.40625 235.960938 117.40625 C 235.132812 117.40625 234.695312 117.109375 234.695312 116.574219 C 234.695312 116.335938 234.933594 115.386719 235.386719 113.804688 C 235.644531 112.914062 235.765625 112.460938 236.019531 111.449219 M 237.503906 106.230469 C 237.621094 105.796875 237.859375 105.679688 238.628906 105.679688 C 240.207031 105.679688 240.9375 106.351562 240.9375 107.8125 C 240.9375 108.941406 240.464844 109.808594 239.617188 110.285156 C 238.945312 110.679688 237.996094 110.816406 236.21875 110.816406 Z M 237.503906 106.230469 "/>
</g>
<path fill-rule="nonzero" fill="rgb(0%, 0%, 0%)" fill-opacity="1" d="M 54.117188 26.726562 L 54.847656 22.792969 L 54.433594 22.792969 C 54.277344 23.109375 54.078125 23.226562 53.683594 23.226562 C 53.527344 23.226562 53.289062 23.1875 52.875 23.089844 C 51.984375 22.875 51.195312 22.753906 50.5625 22.753906 C 46.355469 22.753906 42.542969 26.726562 42.542969 31.109375 C 42.542969 34.132812 44.675781 36.265625 47.699219 36.265625 C 49.734375 36.265625 51.3125 35.394531 53.089844 33.320312 L 52.753906 33.046875 C 50.976562 34.785156 49.832031 35.375 48.210938 35.375 C 46.019531 35.375 44.753906 33.875 44.753906 31.328125 C 44.753906 28.976562 45.703125 26.585938 47.242188 24.988281 C 48.191406 24.019531 49.4375 23.464844 50.742188 23.464844 C 52.558594 23.464844 53.566406 24.53125 53.761719 26.664062 Z M 54.117188 26.726562 "/>
<path fill-rule="nonzero" fill="rgb(0%, 0%, 0%)" fill-opacity="1" d="M 293.097656 283.523438 C 291.972656 283.421875 291.855469 283.265625 291.597656 281.824219 L 289.742188 270.636719 L 289.226562 270.636719 L 283.5 280.523438 C 281.9375 283.148438 281.742188 283.363281 280.949219 283.523438 L 280.949219 283.839844 L 284.644531 283.839844 L 284.644531 283.523438 C 283.636719 283.421875 283.480469 283.324219 283.480469 282.832031 C 283.480469 282.457031 283.539062 282.277344 283.875 281.605469 L 285 279.378906 L 289.347656 279.378906 L 289.742188 281.964844 C 289.761719 282.140625 289.78125 282.316406 289.78125 282.476562 C 289.78125 283.226562 289.503906 283.402344 288.238281 283.523438 L 288.238281 283.839844 L 293.097656 283.839844 L 293.097656 283.523438 M 285.414062 278.664062 L 288.378906 273.523438 L 289.246094 278.664062 Z M 285.414062 278.664062 "/>
<path fill-rule="nonzero" fill="rgb(0%, 0%, 0%)" fill-opacity="1" d="M 40.519531 265.875 C 38.863281 265.875 37.082031 266.664062 35.503906 268.105469 C 33.507812 269.945312 32.34375 272.355469 32.34375 274.664062 C 32.34375 277.429688 34.140625 279.386719 36.648438 279.386719 C 40.757812 279.386719 44.746094 275.238281 44.964844 270.773438 C 45.105469 267.988281 43.167969 265.875 40.519531 265.875 M 40.34375 266.527344 C 41.902344 266.527344 42.890625 267.671875 42.890625 269.527344 C 42.890625 271.664062 41.964844 274.546875 40.679688 276.402344 C 39.59375 277.964844 38.367188 278.734375 36.984375 278.734375 C 35.324219 278.734375 34.417969 277.527344 34.417969 275.394531 C 34.417969 273.539062 35.40625 270.597656 36.589844 268.878906 C 37.695312 267.277344 38.902344 266.527344 40.34375 266.527344 Z M 40.34375 266.527344 "/>
<path fill="none" stroke-width="4" stroke-linecap="round" stroke-linejoin="round" stroke="rgb(0%, 0%, 0%)" stroke-opacity="1" stroke-miterlimit="4" d="M 3348.007277 776.675941 L 3421.998164 776.675941 L 3421.998164 702.668778 " transform="matrix(0.24, 0, 0, -0.24, -750.76001, 436.160034)"/>
<path fill="none" stroke-width="6" stroke-linecap="round" stroke-linejoin="round" stroke="rgb(0%, 0%, 0%)" stroke-opacity="1" stroke-miterlimit="4" d="M 3346.005324 1647.672054 L 4290.992324 702.668778 " transform="matrix(0.24, 0, 0, -0.24, -750.76001, 436.160034)"/>
<path fill="none" stroke-width="6" stroke-linecap="round" stroke-linejoin="round" stroke="rgb(0%, 0%, 0%)" stroke-opacity="1" stroke-miterlimit="4" d="M 3346.005324 1644.677263 L 3346.005324 699.673986 " transform="matrix(0.24, 0, 0, -0.24, -750.76001, 436.160034)"/>
<path fill="none" stroke-width="6" stroke-linecap="round" stroke-linejoin="round" stroke="rgb(0%, 0%, 0%)" stroke-opacity="1" stroke-miterlimit="4" d="M 4290.992324 698.664872 L 3346.005324 698.664872 " transform="matrix(0.24, 0, 0, -0.24, -750.76001, 436.160034)"/>
<path fill="none" stroke-width="6" stroke-linecap="round" stroke-linejoin="round" stroke="rgb(0%, 0%, 0%)" stroke-opacity="1" stroke-miterlimit="4" d="M 4289.999486 701.675939 C 4289.999486 1223.664883 3867.001429 1646.66294 3344.996209 1646.66294 " transform="matrix(0.24, 0, 0, -0.24, -750.76001, 436.160034)"/>
</svg>
