<?xml version="1.0" encoding="UTF-8"?>
<svg xmlns="http://www.w3.org/2000/svg" xmlns:xlink="http://www.w3.org/1999/xlink" width="376.940002" height="295.380005" viewBox="0 0 376.940002 295.380005">
<defs>
<clipPath id="clip-0">
<path clip-rule="nonzero" d="M 292.660156 27 L 305.140625 27 L 305.140625 41 L 292.660156 41 Z M 292.660156 27 "/>
</clipPath>
</defs>
<path fill="none" stroke-width="6" stroke-linecap="round" stroke-linejoin="round" stroke="rgb(0%, 0%, 0%)" stroke-opacity="1" stroke-miterlimit="4" d="M 4283.997441 5189.667436 L 3392.005233 6084.670711 L 3020.992855 5191.669389 Z M 4283.997441 5189.667436 " transform="matrix(0.24, 0, 0, -0.24, -692.299988, 1503.860001)"/>
<path fill-rule="nonzero" fill="rgb(0%, 0%, 0%)" fill-opacity="1" d="M 121.21875 32.90625 L 121.949219 28.972656 L 121.535156 28.972656 C 121.375 29.289062 121.179688 29.410156 120.785156 29.410156 C 120.625 29.410156 120.390625 29.371094 119.972656 29.269531 C 119.085938 29.054688 118.296875 28.933594 117.664062 28.933594 C 113.457031 28.933594 109.644531 32.90625 109.644531 37.289062 C 109.644531 40.3125 111.777344 42.445312 114.800781 42.445312 C 116.832031 42.445312 118.414062 41.578125 120.191406 39.503906 L 119.855469 39.226562 C 118.078125 40.964844 116.933594 41.558594 115.3125 41.558594 C 113.121094 41.558594 111.855469 40.054688 111.855469 37.507812 C 111.855469 35.15625 112.804688 32.765625 114.34375 31.167969 C 115.292969 30.199219 116.539062 29.648438 117.839844 29.648438 C 119.660156 29.648438 120.664062 30.714844 120.863281 32.847656 Z M 121.21875 32.90625 "/>
<path fill="none" stroke-width="6" stroke-linecap="round" stroke-linejoin="round" stroke="rgb(0%, 0%, 0%)" stroke-opacity="1" stroke-miterlimit="4" d="M 3663.001333 5814.66745 C 3701.005891 5842.662243 3751.005892 5847.675263 3794.007195 5827.672008 C 3803.007847 5822.675263 3813.001336 5817.662242 3820.992873 5810.663544 " transform="matrix(0.24, 0, 0, -0.24, -692.299988, 1503.860001)"/>
<path fill-rule="nonzero" fill="rgb(0%, 0%, 0%)" fill-opacity="1" d="M 192.988281 135.34375 C 194.210938 135.460938 194.507812 135.621094 194.507812 136.152344 C 194.507812 136.449219 194.429688 136.925781 194.292969 137.417969 L 191.863281 146.160156 C 191.507812 147.304688 191.367188 147.425781 190.261719 147.621094 L 190.261719 147.9375 L 195.257812 147.9375 C 197.570312 147.9375 199.683594 147.324219 201.203125 146.21875 C 203.121094 144.816406 204.246094 142.640625 204.246094 140.34375 C 204.246094 137.101562 201.996094 135.027344 198.480469 135.027344 L 192.988281 135.027344 L 192.988281 135.34375 M 196.601562 136.191406 C 196.722656 135.757812 197.015625 135.621094 197.808594 135.621094 C 198.933594 135.621094 199.921875 135.875 200.554688 136.351562 C 201.519531 137.0625 202.054688 138.308594 202.054688 139.871094 C 202.054688 142.007812 201.226562 144.222656 199.882812 145.566406 C 198.714844 146.753906 197.117188 147.347656 195.0625 147.347656 C 194.152344 147.347656 193.777344 147.128906 193.777344 146.613281 C 193.777344 146.355469 193.875 145.921875 194.210938 144.734375 Z M 196.601562 136.191406 "/>
<path fill="none" stroke-width="6" stroke-linecap="round" stroke-linejoin="round" stroke="rgb(0%, 0%, 0%)" stroke-opacity="1" stroke-miterlimit="4" d="M 3070.000018 5306.675902 C 3120.000019 5289.667438 3154.000671 5244.664182 3154.000671 5194.664181 " transform="matrix(0.24, 0, 0, -0.24, -692.299988, 1503.860001)"/>
<path fill-rule="nonzero" fill="rgb(0%, 0%, 0%)" fill-opacity="1" d="M 72.269531 228.964844 C 70.015625 229.164062 68.871094 229.539062 67.429688 230.546875 C 65.296875 232.070312 64.132812 234.320312 64.132812 236.972656 C 64.132812 238.695312 64.664062 240.433594 65.515625 241.425781 C 66.265625 242.292969 67.332031 242.769531 68.554688 242.769531 C 71.003906 242.769531 72.703125 240.890625 72.703125 238.160156 C 72.703125 235.625 71.261719 234.023438 68.992188 234.023438 C 68.121094 234.023438 67.707031 234.164062 66.460938 234.914062 C 66.996094 231.929688 69.207031 229.796875 72.308594 229.28125 L 72.269531 228.964844 M 68.238281 234.933594 C 69.9375 234.933594 70.925781 236.359375 70.925781 238.832031 C 70.925781 241.007812 70.15625 242.214844 68.773438 242.214844 C 67.035156 242.214844 65.96875 240.355469 65.96875 237.289062 C 65.96875 236.28125 66.125 235.726562 66.519531 235.429688 C 66.9375 235.113281 67.546875 234.933594 68.238281 234.933594 Z M 68.238281 234.933594 "/>
<path fill-rule="nonzero" fill="rgb(0%, 0%, 0%)" fill-opacity="1" d="M 82.863281 237.933594 L 80.847656 237.933594 L 80.847656 229.140625 L 79.980469 229.140625 L 73.777344 237.933594 L 73.777344 239.199219 L 79.328125 239.199219 L 79.328125 242.5 L 80.847656 242.5 L 80.847656 239.199219 L 82.863281 239.199219 L 82.863281 237.933594 M 79.308594 237.933594 L 74.566406 237.933594 L 79.308594 231.15625 Z M 79.308594 237.933594 "/>
<path fill-rule="nonzero" fill="rgb(0%, 0%, 0%)" fill-opacity="1" d="M 87.570312 229.140625 C 85.988281 229.140625 84.746094 230.386719 84.746094 231.96875 C 84.746094 233.527344 85.988281 234.792969 87.53125 234.792969 C 89.128906 234.792969 90.394531 233.570312 90.394531 231.988281 C 90.394531 230.386719 89.152344 229.140625 87.570312 229.140625 M 87.570312 229.8125 C 88.675781 229.8125 89.625 230.800781 89.625 231.96875 C 89.625 233.152344 88.695312 234.121094 87.550781 234.121094 C 86.445312 234.121094 85.515625 233.132812 85.515625 231.96875 C 85.515625 230.800781 86.445312 229.8125 87.570312 229.8125 Z M 87.570312 229.8125 "/>
<g clip-path="url(#clip-0)">
<path fill-rule="nonzero" fill="rgb(0%, 0%, 0%)" fill-opacity="1" d="M 305.183594 27.746094 L 295.367188 27.746094 L 295.367188 28.0625 C 296.589844 28.179688 296.886719 28.339844 296.886719 28.875 C 296.886719 29.089844 296.769531 29.78125 296.667969 30.140625 L 294.238281 38.878906 C 293.902344 40.007812 293.746094 40.144531 292.640625 40.34375 L 292.640625 40.660156 L 302.65625 40.660156 L 303.878906 37.457031 L 303.5625 37.296875 C 302.632812 38.5625 302.121094 39.078125 301.273438 39.472656 C 300.539062 39.808594 299.199219 40.007812 297.714844 40.007812 C 296.609375 40.007812 296.136719 39.808594 296.136719 39.335938 C 296.136719 39.117188 296.351562 38.1875 296.847656 36.445312 C 297.105469 35.578125 297.28125 34.921875 297.480469 34.171875 C 298.171875 34.210938 298.78125 34.230469 299.019531 34.230469 C 299.789062 34.210938 300.34375 34.332031 300.5625 34.527344 C 300.660156 34.625 300.699219 34.804688 300.699219 35.140625 C 300.699219 35.476562 300.660156 35.734375 300.5625 36.167969 L 300.957031 36.269531 L 302.300781 31.679688 L 301.941406 31.601562 C 301.191406 33.28125 301.015625 33.402344 299.21875 33.480469 C 298.980469 33.480469 298.347656 33.5 297.65625 33.519531 L 298.960938 28.914062 C 299.078125 28.476562 299.296875 28.398438 300.402344 28.398438 C 303.503906 28.398438 304.195312 28.65625 304.195312 29.84375 C 304.195312 30.097656 304.175781 30.394531 304.15625 30.730469 L 304.570312 30.769531 Z M 305.183594 27.746094 "/>
</g>
<path fill-rule="nonzero" fill="rgb(0%, 0%, 0%)" fill-opacity="1" d="M 27.558594 271.703125 C 26.433594 271.605469 26.316406 271.445312 26.058594 270.003906 L 24.203125 258.816406 L 23.6875 258.816406 L 17.960938 268.703125 C 16.398438 271.328125 16.203125 271.542969 15.410156 271.703125 L 15.410156 272.019531 L 19.105469 272.019531 L 19.105469 271.703125 C 18.097656 271.605469 17.941406 271.503906 17.941406 271.011719 C 17.941406 270.636719 18 270.457031 18.335938 269.789062 L 19.460938 267.558594 L 23.808594 267.558594 L 24.203125 270.144531 C 24.222656 270.320312 24.242188 270.5 24.242188 270.65625 C 24.242188 271.40625 23.964844 271.582031 22.699219 271.703125 L 22.699219 272.019531 L 27.558594 272.019531 L 27.558594 271.703125 M 19.875 266.847656 L 22.839844 261.703125 L 23.707031 266.847656 Z M 19.875 266.847656 "/>
<path fill-rule="nonzero" fill="rgb(0%, 0%, 0%)" fill-opacity="1" d="M 338.101562 271.539062 L 343.671875 271.539062 C 346.773438 271.539062 348.90625 269.917969 348.90625 267.582031 C 348.90625 266.851562 348.667969 266.160156 348.234375 265.722656 C 347.839844 265.269531 347.445312 265.03125 346.417969 264.597656 C 347.820312 264.261719 348.394531 264.023438 349.023438 263.46875 C 349.578125 262.996094 349.875 262.324219 349.875 261.53125 C 349.875 259.652344 348.472656 258.625 345.925781 258.625 L 340.828125 258.625 L 340.828125 258.941406 C 342.050781 259.042969 342.347656 259.199219 342.347656 259.753906 C 342.347656 260.050781 342.269531 260.542969 342.132812 261.019531 L 339.703125 269.757812 C 339.347656 270.90625 339.207031 271.023438 338.101562 271.222656 L 338.101562 271.539062 M 342.960938 264.992188 C 344.246094 264.992188 345.074219 265.070312 345.46875 265.226562 C 346.277344 265.566406 346.773438 266.433594 346.773438 267.503906 C 346.773438 269.640625 345.3125 270.945312 342.902344 270.945312 C 342.070312 270.945312 341.636719 270.648438 341.636719 270.113281 C 341.636719 269.878906 341.875 268.925781 342.328125 267.34375 C 342.585938 266.453125 342.703125 266 342.960938 264.992188 M 344.441406 259.773438 C 344.5625 259.335938 344.796875 259.21875 345.566406 259.21875 C 347.148438 259.21875 347.878906 259.890625 347.878906 261.355469 C 347.878906 262.480469 347.40625 263.351562 346.554688 263.824219 C 345.882812 264.21875 344.9375 264.359375 343.15625 264.359375 Z M 344.441406 259.773438 "/>
<path fill="none" stroke-width="6" stroke-linecap="round" stroke-linejoin="round" stroke="rgb(0%, 0%, 0%)" stroke-opacity="1" stroke-miterlimit="4" d="M 3392.998072 6084.670711 L 4097.994832 6086.672665 L 3747.001986 5735.663542 " transform="matrix(0.24, 0, 0, -0.24, -692.299988, 1503.860001)"/>
</svg>
