<?xml version="1.0" encoding="UTF-8"?>
<svg xmlns="http://www.w3.org/2000/svg" xmlns:xlink="http://www.w3.org/1999/xlink" width="458.459991" height="269.220001" viewBox="0 0 458.459991 269.220001">
<defs>
<clipPath id="clip-0">
<path clip-rule="nonzero" d="M 295 28 L 307.421875 28 L 307.421875 43 L 295 43 Z M 295 28 "/>
</clipPath>
<clipPath id="clip-1">
<path clip-rule="nonzero" d="M 60.941406 77 L 75 77 L 75 91 L 60.941406 91 Z M 60.941406 77 "/>
</clipPath>
</defs>
<path fill="none" stroke-width="6" stroke-linecap="round" stroke-linejoin="round" stroke="rgb(0.392157%, 0.392157%, 0.392157%)" stroke-opacity="1" stroke-miterlimit="4" d="M 2664.002033 3429.675115 C 2664.002033 3880.667964 3030.00139 4246.667321 3482.003353 4246.667321 C 3934.005317 4246.667321 4300.004674 3880.667964 4300.004674 3429.675115 " transform="matrix(0.24, 0, 0, -0.24, -615.380005, 1051.539978)"/>
<path fill="none" stroke-width="6" stroke-linecap="round" stroke-linejoin="round" stroke="rgb(0.392157%, 0.392157%, 0.392157%)" stroke-opacity="1" stroke-miterlimit="4" d="M 2664.002033 3429.675115 L 4300.004674 3428.666001 " transform="matrix(0.24, 0, 0, -0.24, -615.380005, 1051.539978)"/>
<g clip-path="url(#clip-0)">
<path fill-rule="nonzero" fill="rgb(0%, 0%, 0%)" fill-opacity="1" d="M 306.859375 32.503906 L 307.589844 28.574219 L 307.175781 28.574219 C 307.015625 28.890625 306.820312 29.007812 306.425781 29.007812 C 306.265625 29.007812 306.027344 28.96875 305.613281 28.871094 C 304.726562 28.652344 303.933594 28.535156 303.304688 28.535156 C 299.09375 28.535156 295.285156 32.503906 295.285156 36.890625 C 295.285156 39.914062 297.417969 42.046875 300.4375 42.046875 C 302.472656 42.046875 304.054688 41.175781 305.832031 39.101562 L 305.496094 38.824219 C 303.71875 40.5625 302.570312 41.15625 300.953125 41.15625 C 298.757812 41.15625 297.496094 39.65625 297.496094 37.109375 C 297.496094 34.757812 298.445312 32.367188 299.984375 30.765625 C 300.933594 29.800781 302.175781 29.246094 303.480469 29.246094 C 305.296875 29.246094 306.304688 30.3125 306.503906 32.445312 Z M 306.859375 32.503906 "/>
</g>
<path fill="none" stroke-width="6" stroke-linecap="round" stroke-linejoin="round" stroke="rgb(0%, 0%, 0%)" stroke-opacity="1" stroke-miterlimit="4" d="M 3182.996185 3773.669264 C 3157.996185 3810.664707 3155.001393 3852.673172 3175.997487 3880.667964 " transform="matrix(0.24, 0, 0, -0.24, -615.380005, 1051.539978)"/>
<path fill-rule="nonzero" fill="rgb(0%, 0%, 0%)" fill-opacity="1" d="M 17.121094 238.183594 C 15.996094 238.082031 15.875 237.925781 15.617188 236.484375 L 13.761719 225.296875 L 13.25 225.296875 L 7.519531 235.183594 C 5.960938 237.808594 5.761719 238.023438 4.972656 238.183594 L 4.972656 238.5 L 8.664062 238.5 L 8.664062 238.183594 C 7.660156 238.082031 7.5 237.984375 7.5 237.492188 C 7.5 237.117188 7.558594 236.9375 7.894531 236.265625 L 9.023438 234.039062 L 13.367188 234.039062 L 13.761719 236.625 C 13.78125 236.800781 13.800781 236.976562 13.800781 237.136719 C 13.800781 237.886719 13.523438 238.0625 12.261719 238.183594 L 12.261719 238.5 L 17.121094 238.5 L 17.121094 238.183594 M 9.4375 233.324219 L 12.398438 228.183594 L 13.269531 233.324219 Z M 9.4375 233.324219 "/>
<g clip-path="url(#clip-1)">
<path fill-rule="nonzero" fill="rgb(0%, 0%, 0%)" fill-opacity="1" d="M 63.507812 78.300781 C 64.730469 78.421875 65.027344 78.578125 65.027344 79.113281 C 65.027344 79.410156 64.949219 79.882812 64.8125 80.378906 L 62.382812 89.117188 C 62.027344 90.265625 61.886719 90.386719 60.78125 90.582031 L 60.78125 90.898438 L 65.777344 90.898438 C 68.089844 90.898438 70.203125 90.285156 71.726562 89.179688 C 73.640625 87.773438 74.765625 85.597656 74.765625 83.304688 C 74.765625 80.0625 72.515625 77.984375 69 77.984375 L 63.507812 77.984375 L 63.507812 78.300781 M 67.121094 79.152344 C 67.242188 78.71875 67.539062 78.578125 68.328125 78.578125 C 69.453125 78.578125 70.441406 78.835938 71.074219 79.3125 C 72.039062 80.023438 72.574219 81.269531 72.574219 82.832031 C 72.574219 84.964844 71.746094 87.179688 70.402344 88.527344 C 69.234375 89.710938 67.636719 90.304688 65.582031 90.304688 C 64.671875 90.304688 64.296875 90.089844 64.296875 89.574219 C 64.296875 89.316406 64.394531 88.882812 64.730469 87.695312 Z M 67.121094 79.152344 "/>
</g>
<path fill-rule="nonzero" fill="rgb(0%, 0%, 0%)" fill-opacity="1" d="M 420.78125 239.699219 L 426.351562 239.699219 C 429.453125 239.699219 431.585938 238.078125 431.585938 235.742188 C 431.585938 235.011719 431.351562 234.316406 430.914062 233.882812 C 430.519531 233.429688 430.125 233.191406 429.097656 232.753906 C 430.5 232.417969 431.074219 232.183594 431.707031 231.628906 C 432.257812 231.15625 432.554688 230.480469 432.554688 229.691406 C 432.554688 227.8125 431.152344 226.785156 428.605469 226.785156 L 423.507812 226.785156 L 423.507812 227.101562 C 424.730469 227.199219 425.027344 227.359375 425.027344 227.914062 C 425.027344 228.210938 424.949219 228.703125 424.8125 229.175781 L 422.382812 237.917969 C 422.027344 239.066406 421.886719 239.183594 420.78125 239.382812 L 420.78125 239.699219 M 425.640625 233.152344 C 426.925781 233.152344 427.753906 233.230469 428.148438 233.386719 C 428.960938 233.722656 429.453125 234.59375 429.453125 235.664062 C 429.453125 237.800781 427.992188 239.105469 425.582031 239.105469 C 424.753906 239.105469 424.316406 238.808594 424.316406 238.273438 C 424.316406 238.039062 424.554688 237.085938 425.007812 235.503906 C 425.265625 234.613281 425.382812 234.160156 425.640625 233.152344 M 427.121094 227.933594 C 427.242188 227.496094 427.476562 227.378906 428.25 227.378906 C 429.828125 227.378906 430.558594 228.050781 430.558594 229.515625 C 430.558594 230.640625 430.085938 231.511719 429.238281 231.984375 C 428.566406 232.378906 427.617188 232.519531 425.839844 232.519531 Z M 427.121094 227.933594 "/>
<path fill="none" stroke-width="6" stroke-linecap="round" stroke-linejoin="round" stroke="rgb(0%, 0%, 0%)" stroke-opacity="1" stroke-miterlimit="4" d="M 2668.005939 3431.677068 L 3802.006616 4178.666017 L 3484.998145 3428.666001 " transform="matrix(0.24, 0, 0, -0.24, -615.380005, 1051.539978)"/>
<path fill-rule="nonzero" fill="rgb(0%, 0%, 0%)" fill-opacity="1" d="M 329.523438 218.269531 L 329.265625 218.171875 C 328.535156 219.296875 328.277344 219.476562 327.390625 219.476562 L 322.667969 219.476562 L 325.988281 216 C 327.746094 214.160156 328.515625 212.660156 328.515625 211.121094 C 328.515625 209.144531 326.914062 207.621094 324.859375 207.621094 C 323.773438 207.621094 322.746094 208.058594 322.015625 208.847656 C 321.382812 209.519531 321.085938 210.152344 320.75 211.554688 L 321.167969 211.652344 C 321.957031 209.714844 322.667969 209.085938 324.03125 209.085938 C 325.691406 209.085938 326.816406 210.210938 326.816406 211.871094 C 326.816406 213.410156 325.90625 215.25 324.25 217.007812 L 320.730469 220.742188 L 320.730469 220.976562 L 328.4375 220.976562 Z M 329.523438 218.269531 "/>
<path fill-rule="nonzero" fill="rgb(0%, 0%, 0%)" fill-opacity="1" d="M 339.542969 216.414062 L 337.527344 216.414062 L 337.527344 207.621094 L 336.660156 207.621094 L 330.457031 216.414062 L 330.457031 217.679688 L 336.007812 217.679688 L 336.007812 220.976562 L 337.527344 220.976562 L 337.527344 217.679688 L 339.542969 217.679688 L 339.542969 216.414062 M 335.988281 216.414062 L 331.246094 216.414062 L 335.988281 209.636719 Z M 335.988281 216.414062 "/>
<path fill-rule="nonzero" fill="rgb(0%, 0%, 0%)" fill-opacity="1" d="M 344.25 207.621094 C 342.667969 207.621094 341.425781 208.867188 341.425781 210.449219 C 341.425781 212.007812 342.667969 213.273438 344.210938 213.273438 C 345.808594 213.273438 347.074219 212.046875 347.074219 210.46875 C 347.074219 208.867188 345.832031 207.621094 344.25 207.621094 M 344.25 208.292969 C 345.355469 208.292969 346.304688 209.28125 346.304688 210.449219 C 346.304688 211.632812 345.375 212.601562 344.230469 212.601562 C 343.125 212.601562 342.195312 211.613281 342.195312 210.449219 C 342.195312 209.28125 343.125 208.292969 344.25 208.292969 Z M 344.25 208.292969 "/>
<path fill-rule="nonzero" fill="rgb(0%, 0%, 0%)" fill-opacity="1" d="M 180.023438 110.386719 L 170.207031 110.386719 L 170.207031 110.703125 C 171.429688 110.820312 171.726562 110.980469 171.726562 111.511719 C 171.726562 111.730469 171.609375 112.421875 171.507812 112.777344 L 169.078125 121.519531 C 168.742188 122.644531 168.585938 122.785156 167.480469 122.980469 L 167.480469 123.296875 L 177.496094 123.296875 L 178.71875 120.09375 L 178.402344 119.9375 C 177.476562 121.203125 176.960938 121.71875 176.113281 122.113281 C 175.382812 122.449219 174.039062 122.644531 172.554688 122.644531 C 171.449219 122.644531 170.976562 122.449219 170.976562 121.972656 C 170.976562 121.757812 171.195312 120.828125 171.6875 119.085938 C 171.945312 118.214844 172.121094 117.5625 172.320312 116.8125 C 173.011719 116.851562 173.625 116.871094 173.859375 116.871094 C 174.628906 116.851562 175.183594 116.96875 175.402344 117.167969 C 175.5 117.265625 175.539062 117.445312 175.539062 117.78125 C 175.539062 118.117188 175.5 118.375 175.402344 118.808594 L 175.796875 118.910156 L 177.140625 114.320312 L 176.785156 114.242188 C 176.03125 115.921875 175.855469 116.042969 174.058594 116.121094 C 173.820312 116.121094 173.1875 116.140625 172.496094 116.160156 L 173.800781 111.550781 C 173.917969 111.117188 174.136719 111.039062 175.242188 111.039062 C 178.34375 111.039062 179.035156 111.296875 179.035156 112.480469 C 179.035156 112.738281 179.015625 113.035156 178.996094 113.371094 L 179.410156 113.410156 Z M 180.023438 110.386719 "/>
<path fill-rule="nonzero" fill="rgb(0%, 0%, 0%)" fill-opacity="1" d="M 221.742188 237.09375 C 220.082031 237.09375 218.304688 237.886719 216.726562 239.328125 C 214.730469 241.164062 213.566406 243.574219 213.566406 245.882812 C 213.566406 248.648438 215.363281 250.605469 217.871094 250.605469 C 221.980469 250.605469 225.96875 246.457031 226.1875 241.992188 C 226.324219 239.207031 224.390625 237.09375 221.742188 237.09375 M 221.566406 237.746094 C 223.125 237.746094 224.113281 238.894531 224.113281 240.75 C 224.113281 242.882812 223.183594 245.765625 221.902344 247.625 C 220.8125 249.183594 219.589844 249.953125 218.207031 249.953125 C 216.546875 249.953125 215.640625 248.75 215.640625 246.617188 C 215.640625 244.757812 216.625 241.816406 217.8125 240.097656 C 218.917969 238.496094 220.121094 237.746094 221.566406 237.746094 Z M 221.566406 237.746094 "/>
<path fill="none" stroke-width="6" stroke-linecap="round" stroke-linejoin="round" stroke="rgb(0%, 0%, 0%)" stroke-opacity="1" stroke-miterlimit="4" d="M 4041.996855 3430.667954 C 4028.992298 3468.672512 4037.000111 3505.667956 4062.000111 3524.662097 " transform="matrix(0.24, 0, 0, -0.24, -615.380005, 1051.539978)"/>
<path fill="none" stroke-width="6" stroke-linecap="round" stroke-linejoin="round" stroke="rgb(0%, 0%, 0%)" stroke-opacity="1" stroke-miterlimit="4" d="M 2664.994872 3431.677068 L 2900.004642 3997.67643 L 4298.002721 3431.677068 " transform="matrix(0.24, 0, 0, -0.24, -615.380005, 1051.539978)"/>
</svg>
