<?xml version="1.0" encoding="UTF-8"?>
<svg xmlns="http://www.w3.org/2000/svg" xmlns:xlink="http://www.w3.org/1999/xlink" width="343.079987" height="344.600006" viewBox="0 0 343.079987 344.600006">
<path fill-rule="nonzero" fill="rgb(0%, 0%, 0%)" fill-opacity="1" d="M 240.605469 307.363281 C 241.832031 307.480469 242.128906 307.640625 242.128906 308.171875 C 242.128906 308.46875 242.050781 308.945312 241.910156 309.4375 L 239.480469 318.179688 C 239.125 319.324219 238.988281 319.445312 237.882812 319.640625 L 237.882812 319.957031 L 242.878906 319.957031 C 245.191406 319.957031 247.304688 319.34375 248.824219 318.238281 C 250.742188 316.835938 251.867188 314.660156 251.867188 312.363281 C 251.867188 309.121094 249.613281 307.046875 246.097656 307.046875 L 240.605469 307.046875 L 240.605469 307.363281 M 244.222656 308.210938 C 244.339844 307.777344 244.636719 307.640625 245.425781 307.640625 C 246.554688 307.640625 247.539062 307.894531 248.171875 308.371094 C 249.140625 309.082031 249.675781 310.328125 249.675781 311.890625 C 249.675781 314.027344 248.84375 316.242188 247.5 317.585938 C 246.335938 318.773438 244.734375 319.363281 242.679688 319.363281 C 241.773438 319.363281 241.398438 319.148438 241.398438 318.632812 C 241.398438 318.375 241.496094 317.941406 241.832031 316.753906 Z M 244.222656 308.210938 "/>
<path fill-rule="nonzero" fill="rgb(0%, 0%, 0%)" fill-opacity="1" d="M 326.757812 161.726562 L 327.488281 157.792969 L 327.074219 157.792969 C 326.917969 158.109375 326.71875 158.226562 326.324219 158.226562 C 326.164062 158.226562 325.929688 158.1875 325.515625 158.089844 C 324.625 157.875 323.835938 157.753906 323.203125 157.753906 C 318.996094 157.753906 315.183594 161.726562 315.183594 166.109375 C 315.183594 169.132812 317.316406 171.265625 320.339844 171.265625 C 322.375 171.265625 323.953125 170.394531 325.730469 168.320312 L 325.394531 168.046875 C 323.617188 169.785156 322.472656 170.375 320.851562 170.375 C 318.660156 170.375 317.394531 168.875 317.394531 166.328125 C 317.394531 163.976562 318.34375 161.585938 319.882812 159.988281 C 320.832031 159.019531 322.078125 158.464844 323.378906 158.464844 C 325.199219 158.464844 326.207031 159.53125 326.402344 161.664062 Z M 326.757812 161.726562 "/>
<path fill="none" stroke-width="6" stroke-linecap="round" stroke-linejoin="round" stroke="rgb(0%, 0%, 0%)" stroke-opacity="1" stroke-miterlimit="4" d="M 4276.994165 1652.676937 C 4276.994165 1990.665226 4001.994159 2263.663279 3664.00587 2263.663279 C 3326.001305 2263.663279 3051.994138 1990.665226 3051.994138 1652.676937 C 3051.994138 1315.665211 3326.001305 1041.674319 3664.00587 1041.674319 C 4001.994159 1041.674319 4276.994165 1315.665211 4276.994165 1652.676937 Z M 4276.994165 1652.676937 " transform="matrix(0.24, 0, 0, -0.24, -716.919983, 573.079956)"/>
<path fill="none" stroke-width="6" stroke-linecap="round" stroke-linejoin="round" stroke="rgb(0%, 0%, 0%)" stroke-opacity="1" stroke-miterlimit="4" d="M 3107.00716 1402.676932 L 3546.004565 2253.669789 L 4273.999373 1709.675636 L 3978.996111 1129.662603 L 3666.007823 1647.663916 Z M 3107.00716 1402.676932 " transform="matrix(0.24, 0, 0, -0.24, -716.919983, 573.079956)"/>
<path fill="none" stroke-width="6" stroke-linecap="round" stroke-linejoin="round" stroke="rgb(0%, 0%, 0%)" stroke-opacity="1" stroke-miterlimit="4" d="M 4214.005882 1603.669775 C 4183.992861 1623.67303 4166.007834 1652.676937 4160.994813 1684.675636 C 4157.007183 1713.663267 4164.99872 1743.676288 4183.992861 1769.669127 " transform="matrix(0.24, 0, 0, -0.24, -716.919983, 573.079956)"/>
<path fill-rule="nonzero" fill="rgb(0%, 0%, 0%)" fill-opacity="1" d="M 167.484375 159.675781 C 165.824219 159.675781 164.046875 160.464844 162.464844 161.90625 C 160.46875 163.742188 159.304688 166.152344 159.304688 168.464844 C 159.304688 171.230469 161.101562 173.1875 163.609375 173.1875 C 167.71875 173.1875 171.710938 169.039062 171.925781 164.574219 C 172.066406 161.789062 170.128906 159.675781 167.484375 159.675781 M 167.304688 160.328125 C 168.863281 160.328125 169.851562 161.472656 169.851562 163.328125 C 169.851562 165.460938 168.925781 168.347656 167.640625 170.203125 C 166.554688 171.761719 165.328125 172.535156 163.945312 172.535156 C 162.289062 172.535156 161.378906 171.328125 161.378906 169.195312 C 161.378906 167.339844 162.367188 164.394531 163.550781 162.675781 C 164.65625 161.078125 165.863281 160.328125 167.304688 160.328125 Z M 167.304688 160.328125 "/>
<path fill-rule="nonzero" fill="rgb(0%, 0%, 0%)" fill-opacity="1" d="M 145.628906 208.953125 L 138.320312 208.953125 L 137.15625 211.855469 L 137.492188 212.015625 C 138.339844 210.671875 138.695312 210.414062 139.78125 210.414062 L 144.066406 210.414062 L 140.15625 222.191406 L 141.441406 222.191406 L 145.628906 209.269531 Z M 145.628906 208.953125 "/>
<path fill-rule="nonzero" fill="rgb(0%, 0%, 0%)" fill-opacity="1" d="M 151.855469 208.679688 C 150.769531 208.679688 149.941406 209.019531 149.210938 209.710938 C 148.0625 210.816406 147.3125 213.085938 147.3125 215.394531 C 147.3125 217.546875 147.964844 219.859375 148.894531 220.964844 C 149.625 221.835938 150.632812 222.308594 151.777344 222.308594 C 152.785156 222.308594 153.632812 221.972656 154.34375 221.28125 C 155.492188 220.195312 156.242188 217.90625 156.242188 215.515625 C 156.242188 211.464844 154.445312 208.679688 151.855469 208.679688 M 151.796875 209.195312 C 153.457031 209.195312 154.34375 211.425781 154.34375 215.554688 C 154.34375 219.679688 153.476562 221.792969 151.777344 221.792969 C 150.078125 221.792969 149.210938 219.679688 149.210938 215.574219 C 149.210938 211.386719 150.097656 209.195312 151.796875 209.195312 Z M 151.796875 209.195312 "/>
<path fill-rule="nonzero" fill="rgb(0%, 0%, 0%)" fill-opacity="1" d="M 160.871094 208.679688 C 159.289062 208.679688 158.046875 209.925781 158.046875 211.507812 C 158.046875 213.070312 159.289062 214.332031 160.832031 214.332031 C 162.429688 214.332031 163.695312 213.109375 163.695312 211.527344 C 163.695312 209.925781 162.449219 208.679688 160.871094 208.679688 M 160.871094 209.355469 C 161.976562 209.355469 162.925781 210.34375 162.925781 211.507812 C 162.925781 212.691406 161.996094 213.660156 160.851562 213.660156 C 159.742188 213.660156 158.816406 212.671875 158.816406 211.507812 C 158.816406 210.34375 159.742188 209.355469 160.871094 209.355469 Z M 160.871094 209.355469 "/>
<path fill-rule="nonzero" fill="rgb(0%, 0%, 0%)" fill-opacity="1" d="M 21.660156 250.523438 C 20.535156 250.421875 20.417969 250.265625 20.160156 248.824219 L 18.300781 237.636719 L 17.789062 237.636719 L 12.058594 247.523438 C 10.5 250.148438 10.300781 250.363281 9.511719 250.523438 L 9.511719 250.839844 L 13.207031 250.839844 L 13.207031 250.523438 C 12.199219 250.421875 12.039062 250.324219 12.039062 249.832031 C 12.039062 249.457031 12.101562 249.277344 12.4375 248.605469 L 13.5625 246.378906 L 17.90625 246.378906 L 18.300781 248.960938 C 18.320312 249.140625 18.34375 249.316406 18.34375 249.476562 C 18.34375 250.226562 18.066406 250.402344 16.800781 250.523438 L 16.800781 250.839844 L 21.660156 250.839844 L 21.660156 250.523438 M 13.976562 245.664062 L 16.941406 240.523438 L 17.808594 245.664062 Z M 13.976562 245.664062 "/>
<path fill-rule="nonzero" fill="rgb(0%, 0%, 0%)" fill-opacity="1" d="M 129.402344 25.957031 L 134.972656 25.957031 C 138.074219 25.957031 140.207031 24.335938 140.207031 22.003906 C 140.207031 21.269531 139.96875 20.578125 139.535156 20.144531 C 139.140625 19.6875 138.746094 19.449219 137.71875 19.015625 C 139.121094 18.679688 139.691406 18.441406 140.324219 17.890625 C 140.878906 17.414062 141.175781 16.742188 141.175781 15.953125 C 141.175781 14.074219 139.773438 13.046875 137.222656 13.046875 L 132.128906 13.046875 L 132.128906 13.363281 C 133.351562 13.460938 133.648438 13.617188 133.648438 14.171875 C 133.648438 14.46875 133.570312 14.964844 133.429688 15.4375 L 131 24.179688 C 130.644531 25.324219 130.507812 25.445312 129.402344 25.640625 L 129.402344 25.957031 M 134.261719 19.410156 C 135.542969 19.410156 136.375 19.488281 136.769531 19.648438 C 137.578125 19.984375 138.074219 20.855469 138.074219 21.921875 C 138.074219 24.058594 136.613281 25.363281 134.203125 25.363281 C 133.371094 25.363281 132.9375 25.070312 132.9375 24.535156 C 132.9375 24.296875 133.175781 23.347656 133.628906 21.765625 C 133.886719 20.875 134.003906 20.417969 134.261719 19.410156 M 135.742188 14.191406 C 135.859375 13.757812 136.097656 13.640625 136.867188 13.640625 C 138.449219 13.640625 139.179688 14.3125 139.179688 15.773438 C 139.179688 16.902344 138.707031 17.769531 137.855469 18.246094 C 137.183594 18.640625 136.234375 18.777344 134.457031 18.777344 Z M 135.742188 14.191406 "/>
<path fill="none" stroke-width="6" stroke-linecap="round" stroke-linejoin="round" stroke="rgb(0%, 0%, 0%)" stroke-opacity="1" stroke-miterlimit="4" d="M 3719.995455 1550.674982 C 3694.995454 1542.667169 3669.995454 1541.674331 3646.004568 1547.663914 C 3614.005869 1555.671727 3585.994801 1574.665868 3567.00066 1602.676936 " transform="matrix(0.24, 0, 0, -0.24, -716.919983, 573.079956)"/>
</svg>
