<?xml version="1.0" encoding="UTF-8"?>
<svg xmlns="http://www.w3.org/2000/svg" xmlns:xlink="http://www.w3.org/1999/xlink" width="733.859985" height="166.139999" viewBox="0 0 733.859985 166.139999">
<path fill-rule="nonzero" fill="rgb(0%, 0%, 0%)" fill-opacity="1" d="M 18.570312 39.125 C 18.570312 40.605469 18.3125 40.84375 16.65625 40.902344 L 16.65625 41.277344 L 22.523438 41.277344 L 22.523438 40.902344 C 20.902344 40.84375 20.585938 40.566406 20.585938 39.125 L 20.585938 30.347656 C 20.585938 28.902344 20.863281 28.648438 22.523438 28.566406 L 22.523438 28.191406 L 16.65625 28.191406 L 16.65625 28.566406 C 18.335938 28.667969 18.570312 28.882812 18.570312 30.347656 Z M 18.570312 39.125 "/>
<path fill-rule="nonzero" fill="rgb(0%, 0%, 0%)" fill-opacity="1" d="M 25.488281 39.300781 C 24.894531 39.300781 24.402344 39.816406 24.402344 40.429688 C 24.402344 41.003906 24.894531 41.496094 25.46875 41.496094 C 26.082031 41.496094 26.59375 41.003906 26.59375 40.429688 C 26.59375 39.816406 26.082031 39.300781 25.488281 39.300781 Z M 25.488281 39.300781 "/>
<path fill-rule="nonzero" fill="rgb(0%, 0%, 0%)" fill-opacity="1" d="M 282.089844 39.125 C 282.089844 40.605469 281.832031 40.84375 280.175781 40.902344 L 280.175781 41.277344 L 286.042969 41.277344 L 286.042969 40.902344 C 284.421875 40.84375 284.105469 40.566406 284.105469 39.125 L 284.105469 30.347656 C 284.105469 28.902344 284.382812 28.648438 286.042969 28.566406 L 286.042969 28.191406 L 280.175781 28.191406 L 280.175781 28.566406 C 281.855469 28.667969 282.089844 28.882812 282.089844 30.347656 Z M 282.089844 39.125 "/>
<path fill-rule="nonzero" fill="rgb(0%, 0%, 0%)" fill-opacity="1" d="M 288.808594 39.125 C 288.808594 40.605469 288.554688 40.84375 286.894531 40.902344 L 286.894531 41.277344 L 292.761719 41.277344 L 292.761719 40.902344 C 291.140625 40.84375 290.824219 40.566406 290.824219 39.125 L 290.824219 30.347656 C 290.824219 28.902344 291.101562 28.648438 292.761719 28.566406 L 292.761719 28.191406 L 286.894531 28.191406 L 286.894531 28.566406 C 288.574219 28.667969 288.808594 28.882812 288.808594 30.347656 Z M 288.808594 39.125 "/>
<path fill-rule="nonzero" fill="rgb(0%, 0%, 0%)" fill-opacity="1" d="M 295.726562 39.300781 C 295.136719 39.300781 294.640625 39.816406 294.640625 40.429688 C 294.640625 41.003906 295.136719 41.496094 295.707031 41.496094 C 296.320312 41.496094 296.835938 41.003906 296.835938 40.429688 C 296.835938 39.816406 296.320312 39.300781 295.726562 39.300781 Z M 295.726562 39.300781 "/>
<path fill-rule="nonzero" fill="rgb(0%, 0%, 0%)" fill-opacity="1" d="M 512.488281 39.125 C 512.488281 40.605469 512.234375 40.84375 510.574219 40.902344 L 510.574219 41.277344 L 516.441406 41.277344 L 516.441406 40.902344 C 514.820312 40.84375 514.503906 40.566406 514.503906 39.125 L 514.503906 30.347656 C 514.503906 28.902344 514.78125 28.648438 516.441406 28.566406 L 516.441406 28.191406 L 510.574219 28.191406 L 510.574219 28.566406 C 512.253906 28.667969 512.488281 28.882812 512.488281 30.347656 Z M 512.488281 39.125 "/>
<path fill-rule="nonzero" fill="rgb(0%, 0%, 0%)" fill-opacity="1" d="M 519.210938 39.125 C 519.210938 40.605469 518.953125 40.84375 517.292969 40.902344 L 517.292969 41.277344 L 523.160156 41.277344 L 523.160156 40.902344 C 521.539062 40.84375 521.226562 40.566406 521.226562 39.125 L 521.226562 30.347656 C 521.226562 28.902344 521.5 28.648438 523.160156 28.566406 L 523.160156 28.191406 L 517.292969 28.191406 L 517.292969 28.566406 C 518.972656 28.667969 519.210938 28.882812 519.210938 30.347656 Z M 519.210938 39.125 "/>
<path fill-rule="nonzero" fill="rgb(0%, 0%, 0%)" fill-opacity="1" d="M 525.929688 39.125 C 525.929688 40.605469 525.671875 40.84375 524.015625 40.902344 L 524.015625 41.277344 L 529.878906 41.277344 L 529.878906 40.902344 C 528.261719 40.84375 527.945312 40.566406 527.945312 39.125 L 527.945312 30.347656 C 527.945312 28.902344 528.222656 28.648438 529.878906 28.566406 L 529.878906 28.191406 L 524.015625 28.191406 L 524.015625 28.566406 C 525.691406 28.667969 525.929688 28.882812 525.929688 30.347656 Z M 525.929688 39.125 "/>
<path fill-rule="nonzero" fill="rgb(0%, 0%, 0%)" fill-opacity="1" d="M 532.847656 39.300781 C 532.253906 39.300781 531.761719 39.816406 531.761719 40.429688 C 531.761719 41.003906 532.253906 41.496094 532.828125 41.496094 C 533.441406 41.496094 533.953125 41.003906 533.953125 40.429688 C 533.953125 39.816406 533.441406 39.300781 532.847656 39.300781 Z M 532.847656 39.300781 "/>
<path fill-rule="nonzero" fill="rgb(0%, 0%, 0%)" fill-opacity="1" d="M 47.191406 76.226562 C 44.9375 76.421875 43.792969 76.796875 42.351562 77.804688 C 40.214844 79.328125 39.050781 81.582031 39.050781 84.230469 C 39.050781 85.953125 39.585938 87.695312 40.433594 88.683594 C 41.183594 89.554688 42.25 90.027344 43.476562 90.027344 C 45.925781 90.027344 47.625 88.148438 47.625 85.417969 C 47.625 82.886719 46.183594 81.285156 43.910156 81.285156 C 43.042969 81.285156 42.625 81.421875 41.382812 82.175781 C 41.914062 79.191406 44.128906 77.054688 47.230469 76.542969 L 47.191406 76.226562 M 43.160156 82.195312 C 44.859375 82.195312 45.847656 83.617188 45.847656 86.09375 C 45.847656 88.269531 45.074219 89.476562 43.695312 89.476562 C 41.957031 89.476562 40.886719 87.617188 40.886719 84.546875 C 40.886719 83.539062 41.046875 82.984375 41.441406 82.6875 C 41.855469 82.371094 42.46875 82.195312 43.160156 82.195312 Z M 43.160156 82.195312 "/>
<path fill="none" stroke-width="6" stroke-linecap="round" stroke-linejoin="miter" stroke="rgb(0%, 0%, 0%)" stroke-opacity="1" stroke-miterlimit="10" d="M 1057.003299 1994.677779 L 1623.995499 1994.677779 L 1623.995499 2419.677788 L 1057.003299 2419.677788 Z M 1057.003299 1994.677779 " transform="matrix(0.24, 0, 0, -0.24, -195.380005, 610)"/>
<path fill="none" stroke-width="4" stroke-linecap="round" stroke-linejoin="round" stroke="rgb(0%, 0%, 0%)" stroke-opacity="1" stroke-miterlimit="4" d="M 1137.992884 1995.670618 L 1137.992884 2071.663458 L 1057.996138 2071.663458 " transform="matrix(0.24, 0, 0, -0.24, -195.380005, 610)"/>
<path fill-rule="nonzero" fill="rgb(0%, 0%, 0%)" fill-opacity="1" d="M 126.1875 147.707031 C 128.144531 146.660156 128.835938 145.828125 128.835938 144.488281 C 128.835938 142.867188 127.414062 141.683594 125.4375 141.683594 C 123.285156 141.683594 121.683594 143.003906 121.683594 144.800781 C 121.683594 146.085938 122.058594 146.660156 124.132812 148.476562 C 122 150.09375 121.566406 150.707031 121.566406 152.050781 C 121.566406 153.964844 123.125 155.308594 125.359375 155.308594 C 127.730469 155.308594 129.25 154.003906 129.25 151.972656 C 129.25 150.449219 128.578125 149.484375 126.1875 147.707031 M 125.832031 149.738281 C 127.273438 150.765625 127.75 151.476562 127.75 152.582031 C 127.75 153.867188 126.859375 154.753906 125.574219 154.753906 C 124.074219 154.753906 123.066406 153.609375 123.066406 151.890625 C 123.066406 150.628906 123.5 149.796875 124.648438 148.871094 L 125.832031 149.738281 M 125.613281 147.351562 C 123.855469 146.203125 123.144531 145.296875 123.144531 144.191406 C 123.144531 143.042969 124.035156 142.234375 125.28125 142.234375 C 126.621094 142.234375 127.472656 143.105469 127.472656 144.46875 C 127.472656 145.59375 126.917969 146.480469 125.792969 147.230469 C 125.695312 147.289062 125.695312 147.289062 125.613281 147.351562 Z M 125.613281 147.351562 "/>
<path fill="none" stroke-width="6" stroke-linecap="round" stroke-linejoin="miter" stroke="rgb(0%, 0%, 0%)" stroke-opacity="1" stroke-miterlimit="10" d="M 2189.994861 1994.677779 L 2614.99487 1994.677779 L 2614.99487 2419.677788 L 2189.994861 2419.677788 Z M 2189.994861 1994.677779 " transform="matrix(0.24, 0, 0, -0.24, -195.380005, 610)"/>
<path fill="none" stroke-width="4" stroke-linecap="round" stroke-linejoin="round" stroke="rgb(0%, 0%, 0%)" stroke-opacity="1" stroke-miterlimit="4" d="M 2271.000722 1995.670618 L 2271.000722 2071.663458 L 2191.003976 2071.663458 " transform="matrix(0.24, 0, 0, -0.24, -195.380005, 610)"/>
<path fill-rule="nonzero" fill="rgb(0%, 0%, 0%)" fill-opacity="1" d="M 318.148438 76.464844 C 315.898438 76.664062 314.75 77.039062 313.308594 78.046875 C 311.175781 79.570312 310.011719 81.820312 310.011719 84.472656 C 310.011719 86.195312 310.542969 87.933594 311.394531 88.921875 C 312.144531 89.792969 313.210938 90.269531 314.4375 90.269531 C 316.886719 90.269531 318.585938 88.390625 318.585938 85.660156 C 318.585938 83.125 317.140625 81.523438 314.871094 81.523438 C 314 81.523438 313.585938 81.664062 312.34375 82.414062 C 312.875 79.429688 315.089844 77.296875 318.1875 76.78125 L 318.148438 76.464844 M 314.121094 82.433594 C 315.820312 82.433594 316.804688 83.859375 316.804688 86.332031 C 316.804688 88.507812 316.035156 89.714844 314.652344 89.714844 C 312.914062 89.714844 311.847656 87.855469 311.847656 84.789062 C 311.847656 83.78125 312.007812 83.226562 312.402344 82.929688 C 312.816406 82.613281 313.429688 82.433594 314.121094 82.433594 Z M 314.121094 82.433594 "/>
<path fill-rule="nonzero" fill="rgb(0%, 0%, 0%)" fill-opacity="1" d="M 385.351562 141.503906 C 383.097656 141.703125 381.953125 142.078125 380.511719 143.085938 C 378.375 144.609375 377.210938 146.863281 377.210938 149.511719 C 377.210938 151.234375 377.746094 152.972656 378.59375 153.964844 C 379.34375 154.835938 380.410156 155.308594 381.636719 155.308594 C 384.085938 155.308594 385.785156 153.429688 385.785156 150.699219 C 385.785156 148.167969 384.34375 146.566406 382.070312 146.566406 C 381.203125 146.566406 380.785156 146.703125 379.542969 147.453125 C 380.074219 144.46875 382.289062 142.335938 385.390625 141.820312 L 385.351562 141.503906 M 381.320312 147.472656 C 383.019531 147.472656 384.007812 148.898438 384.007812 151.371094 C 384.007812 153.546875 383.234375 154.753906 381.851562 154.753906 C 380.113281 154.753906 379.046875 152.894531 379.046875 149.828125 C 379.046875 148.820312 379.207031 148.265625 379.601562 147.96875 C 380.015625 147.652344 380.628906 147.472656 381.320312 147.472656 Z M 381.320312 147.472656 "/>
<path fill-rule="nonzero" fill="rgb(0%, 0%, 0%)" fill-opacity="1" d="M 576.148438 76.464844 C 573.898438 76.664062 572.75 77.039062 571.308594 78.046875 C 569.175781 79.570312 568.011719 81.820312 568.011719 84.472656 C 568.011719 86.195312 568.542969 87.933594 569.394531 88.921875 C 570.144531 89.792969 571.210938 90.269531 572.4375 90.269531 C 574.886719 90.269531 576.582031 88.390625 576.582031 85.660156 C 576.582031 83.125 575.140625 81.523438 572.871094 81.523438 C 572 81.523438 571.585938 81.664062 570.34375 82.414062 C 570.875 79.429688 573.089844 77.296875 576.1875 76.78125 L 576.148438 76.464844 M 572.121094 82.433594 C 573.820312 82.433594 574.804688 83.859375 574.804688 86.332031 C 574.804688 88.507812 574.035156 89.714844 572.652344 89.714844 C 570.914062 89.714844 569.847656 87.855469 569.847656 84.789062 C 569.847656 83.78125 570.007812 83.226562 570.402344 82.929688 C 570.816406 82.613281 571.429688 82.433594 572.121094 82.433594 Z M 572.121094 82.433594 "/>
<path fill-rule="nonzero" fill="rgb(0%, 0%, 0%)" fill-opacity="1" d="M 627.03125 141.503906 C 624.777344 141.703125 623.632812 142.078125 622.191406 143.085938 C 620.054688 144.609375 618.890625 146.863281 618.890625 149.511719 C 618.890625 151.234375 619.425781 152.972656 620.273438 153.964844 C 621.023438 154.835938 622.089844 155.308594 623.316406 155.308594 C 625.765625 155.308594 627.464844 153.429688 627.464844 150.699219 C 627.464844 148.167969 626.023438 146.566406 623.75 146.566406 C 622.882812 146.566406 622.464844 146.703125 621.222656 147.453125 C 621.753906 144.46875 623.96875 142.335938 627.070312 141.820312 L 627.03125 141.503906 M 623 147.472656 C 624.699219 147.472656 625.6875 148.898438 625.6875 151.371094 C 625.6875 153.546875 624.914062 154.753906 623.53125 154.753906 C 621.796875 154.753906 620.726562 152.894531 620.726562 149.828125 C 620.726562 148.820312 620.886719 148.265625 621.28125 147.96875 C 621.695312 147.652344 622.308594 147.472656 623 147.472656 Z M 623 147.472656 "/>
<path fill="none" stroke-width="6" stroke-linecap="round" stroke-linejoin="round" stroke="rgb(0%, 0%, 0%)" stroke-opacity="1" stroke-miterlimit="4" d="M 3320.007907 2410.677137 L 3180.994232 1990.673873 L 3600.004658 1990.673873 L 3739.002057 2410.677137 Z M 3320.007907 2410.677137 " transform="matrix(0.24, 0, 0, -0.24, -195.380005, 610)"/>
</svg>
