<?xml version="1.0" encoding="UTF-8"?>
<svg xmlns="http://www.w3.org/2000/svg" xmlns:xlink="http://www.w3.org/1999/xlink" width="427.700012" height="349.23999" viewBox="0 0 427.700012 349.23999">
<path fill-rule="nonzero" fill="rgb(0%, 0%, 0%)" fill-opacity="1" d="M 331.953125 319.449219 L 331.953125 329.359375 C 331.953125 331.046875 331.734375 331.261719 330.089844 331.363281 L 330.089844 331.738281 L 335.875 331.738281 L 335.875 331.363281 C 334.25 331.28125 333.972656 331.027344 333.972656 329.578125 L 333.972656 319.449219 L 335.042969 319.449219 C 337.300781 319.449219 337.734375 319.804688 338.191406 321.984375 L 338.667969 321.984375 L 338.546875 318.613281 L 327.375 318.613281 L 327.257812 321.984375 L 327.730469 321.984375 C 328.207031 319.824219 328.664062 319.449219 330.882812 319.449219 Z M 331.953125 319.449219 "/>
<path fill-rule="nonzero" fill="rgb(0%, 0%, 0%)" fill-opacity="1" d="M 347.480469 328.484375 C 346.53125 329.988281 345.679688 330.566406 344.410156 330.566406 C 343.28125 330.566406 342.429688 329.988281 341.855469 328.859375 C 341.5 328.105469 341.359375 327.453125 341.320312 326.242188 L 347.421875 326.242188 C 347.265625 324.957031 347.066406 324.382812 346.570312 323.75 C 345.976562 323.039062 345.066406 322.621094 344.035156 322.621094 C 343.042969 322.621094 342.113281 322.980469 341.359375 323.652344 C 340.429688 324.460938 339.894531 325.863281 339.894531 327.492188 C 339.894531 330.226562 341.320312 331.933594 343.597656 331.933594 C 345.480469 331.933594 346.96875 330.761719 347.800781 328.621094 L 347.480469 328.484375 M 341.359375 325.605469 C 341.578125 324.066406 342.253906 323.335938 343.460938 323.335938 C 344.667969 323.335938 345.144531 323.890625 345.402344 325.605469 Z M 341.359375 325.605469 "/>
<path fill-rule="nonzero" fill="rgb(0%, 0%, 0%)" fill-opacity="1" d="M 354.519531 325.515625 L 354.441406 322.816406 L 354.222656 322.816406 L 354.183594 322.855469 C 354.003906 322.992188 353.984375 323.015625 353.90625 323.015625 C 353.785156 323.015625 353.589844 322.972656 353.371094 322.875 C 352.933594 322.71875 352.5 322.640625 351.984375 322.640625 C 350.417969 322.640625 349.289062 323.652344 349.289062 325.078125 C 349.289062 326.1875 349.921875 326.980469 351.609375 327.929688 L 352.757812 328.585938 C 353.449219 328.980469 353.785156 329.457031 353.785156 330.070312 C 353.785156 330.941406 353.152344 331.496094 352.140625 331.496094 C 351.46875 331.496094 350.855469 331.238281 350.476562 330.804688 C 350.0625 330.308594 349.882812 329.851562 349.625 328.722656 L 349.308594 328.722656 L 349.308594 331.816406 L 349.566406 331.816406 C 349.707031 331.617188 349.785156 331.578125 350.023438 331.578125 C 350.199219 331.578125 350.476562 331.617188 350.933594 331.738281 C 351.488281 331.851562 352.023438 331.933594 352.378906 331.933594 C 353.90625 331.933594 355.171875 330.785156 355.171875 329.398438 C 355.171875 328.40625 354.699219 327.753906 353.507812 327.039062 L 351.371094 325.769531 C 350.816406 325.453125 350.519531 324.960938 350.519531 324.425781 C 350.519531 323.632812 351.132812 323.078125 352.042969 323.078125 C 353.171875 323.078125 353.765625 323.75 354.222656 325.515625 Z M 354.519531 325.515625 "/>
<path fill-rule="nonzero" fill="rgb(0%, 0%, 0%)" fill-opacity="1" d="M 361.011719 322.816406 L 359.011719 322.816406 L 359.011719 320.515625 C 359.011719 320.316406 358.992188 320.257812 358.871094 320.257812 C 358.734375 320.4375 358.613281 320.617188 358.476562 320.8125 C 357.722656 321.902344 356.871094 322.855469 356.554688 322.933594 C 356.335938 323.074219 356.21875 323.210938 356.21875 323.3125 C 356.21875 323.371094 356.238281 323.410156 356.296875 323.449219 L 357.347656 323.449219 L 357.347656 329.414062 C 357.347656 331.082031 357.941406 331.933594 359.109375 331.933594 C 360.078125 331.933594 360.832031 331.457031 361.488281 330.425781 L 361.230469 330.207031 C 360.8125 330.703125 360.476562 330.902344 360.039062 330.902344 C 359.308594 330.902344 359.011719 330.367188 359.011719 329.117188 L 359.011719 323.449219 L 361.011719 323.449219 Z M 361.011719 322.816406 "/>
<path fill-rule="nonzero" fill="rgb(0%, 0%, 0%)" fill-opacity="1" d="M 372.757812 325.515625 L 372.679688 322.816406 L 372.460938 322.816406 L 372.421875 322.855469 C 372.246094 322.992188 372.226562 323.015625 372.144531 323.015625 C 372.027344 323.015625 371.828125 322.972656 371.609375 322.875 C 371.175781 322.71875 370.738281 322.640625 370.222656 322.640625 C 368.660156 322.640625 367.53125 323.652344 367.53125 325.078125 C 367.53125 326.1875 368.164062 326.980469 369.847656 327.929688 L 370.996094 328.585938 C 371.691406 328.980469 372.027344 329.457031 372.027344 330.070312 C 372.027344 330.941406 371.394531 331.496094 370.382812 331.496094 C 369.707031 331.496094 369.09375 331.238281 368.71875 330.804688 C 368.300781 330.308594 368.125 329.851562 367.867188 328.722656 L 367.550781 328.722656 L 367.550781 331.816406 L 367.808594 331.816406 C 367.945312 331.617188 368.023438 331.578125 368.261719 331.578125 C 368.441406 331.578125 368.71875 331.617188 369.175781 331.738281 C 369.730469 331.851562 370.261719 331.933594 370.621094 331.933594 C 372.144531 331.933594 373.414062 330.785156 373.414062 329.398438 C 373.414062 328.40625 372.9375 327.753906 371.75 327.039062 L 369.609375 325.769531 C 369.054688 325.453125 368.757812 324.960938 368.757812 324.425781 C 368.757812 323.632812 369.371094 323.078125 370.285156 323.078125 C 371.414062 323.078125 372.007812 323.75 372.460938 325.515625 Z M 372.757812 325.515625 "/>
<path fill-rule="nonzero" fill="rgb(0%, 0%, 0%)" fill-opacity="1" d="M 382.082031 328.644531 C 381.132812 330.03125 380.417969 330.503906 379.289062 330.503906 C 377.488281 330.503906 376.21875 328.921875 376.21875 326.644531 C 376.21875 324.601562 377.308594 323.195312 378.914062 323.195312 C 379.628906 323.195312 379.886719 323.414062 380.082031 324.148438 L 380.203125 324.582031 C 380.359375 325.136719 380.71875 325.496094 381.132812 325.496094 C 381.648438 325.496094 382.082031 325.117188 382.082031 324.664062 C 382.082031 323.554688 380.695312 322.621094 379.03125 322.621094 C 378.0625 322.621094 377.050781 323.019531 376.238281 323.730469 C 375.25 324.601562 374.695312 325.949219 374.695312 327.515625 C 374.695312 330.089844 376.257812 331.933594 378.457031 331.933594 C 379.351562 331.933594 380.140625 331.617188 380.855469 331 C 381.390625 330.523438 381.765625 329.992188 382.359375 328.820312 Z M 382.082031 328.644531 "/>
<path fill-rule="nonzero" fill="rgb(0%, 0%, 0%)" fill-opacity="1" d="M 388.03125 322.621094 C 385.457031 322.621094 383.652344 324.523438 383.652344 327.257812 C 383.652344 329.929688 385.496094 331.933594 387.992188 331.933594 C 390.488281 331.933594 392.390625 329.832031 392.390625 327.097656 C 392.390625 324.503906 390.566406 322.621094 388.03125 322.621094 M 387.773438 323.175781 C 389.4375 323.175781 390.605469 325.078125 390.605469 327.792969 C 390.605469 330.03125 389.714844 331.378906 388.230469 331.378906 C 387.457031 331.378906 386.722656 330.902344 386.308594 330.109375 C 385.753906 329.078125 385.4375 327.691406 385.4375 326.285156 C 385.4375 324.40625 386.367188 323.175781 387.773438 323.175781 Z M 387.773438 323.175781 "/>
<path fill-rule="nonzero" fill="rgb(0%, 0%, 0%)" fill-opacity="1" d="M 393.296875 324.007812 C 393.574219 323.949219 393.753906 323.929688 393.992188 323.929688 C 394.488281 323.929688 394.664062 324.246094 394.664062 325.121094 L 394.664062 330.074219 C 394.664062 331.066406 394.527344 331.203125 393.257812 331.441406 L 393.257812 331.738281 L 398.011719 331.738281 L 398.011719 331.441406 C 396.664062 331.382812 396.328125 331.085938 396.328125 329.957031 L 396.328125 325.496094 C 396.328125 324.863281 397.179688 323.871094 397.714844 323.871094 C 397.835938 323.871094 398.011719 323.96875 398.230469 324.167969 C 398.546875 324.445312 398.765625 324.5625 399.023438 324.5625 C 399.5 324.5625 399.796875 324.226562 399.796875 323.671875 C 399.796875 323.019531 399.378906 322.621094 398.707031 322.621094 C 397.875 322.621094 397.300781 323.078125 396.328125 324.484375 L 396.328125 322.660156 L 396.230469 322.621094 C 395.179688 323.058594 394.46875 323.316406 393.296875 323.691406 Z M 393.296875 324.007812 "/>
<path fill-rule="nonzero" fill="rgb(0%, 0%, 0%)" fill-opacity="1" d="M 407.960938 328.484375 C 407.011719 329.988281 406.160156 330.566406 404.890625 330.566406 C 403.761719 330.566406 402.910156 329.988281 402.335938 328.859375 C 401.980469 328.105469 401.839844 327.453125 401.800781 326.242188 L 407.902344 326.242188 C 407.742188 324.957031 407.546875 324.382812 407.050781 323.75 C 406.457031 323.039062 405.546875 322.621094 404.515625 322.621094 C 403.523438 322.621094 402.59375 322.980469 401.839844 323.652344 C 400.910156 324.460938 400.375 325.863281 400.375 327.492188 C 400.375 330.226562 401.800781 331.933594 404.078125 331.933594 C 405.960938 331.933594 407.445312 330.761719 408.277344 328.621094 L 407.960938 328.484375 M 401.839844 325.605469 C 402.058594 324.066406 402.730469 323.335938 403.941406 323.335938 C 405.148438 323.335938 405.625 323.890625 405.882812 325.605469 Z M 401.839844 325.605469 "/>
<path fill="none" stroke-width="6" stroke-linecap="round" stroke-linejoin="round" stroke="rgb(0%, 0%, 0%)" stroke-opacity="1" stroke-miterlimit="4" d="M 2773.007264 661.66485 L 2773.007264 1824.669434 " transform="matrix(0.24, 0, 0, -0.24, -610.76001, 460.780029)"/>
<path fill="none" stroke-width="6" stroke-linecap="round" stroke-linejoin="round" stroke="rgb(0%, 0%, 0%)" stroke-opacity="1" stroke-miterlimit="4" d="M 2805.998801 1758.670083 L 2774.000103 1824.669434 L 2740.992289 1758.670083 " transform="matrix(0.24, 0, 0, -0.24, -610.76001, 460.780029)"/>
<path fill="none" stroke-width="6" stroke-linecap="round" stroke-linejoin="round" stroke="rgb(0%, 0%, 0%)" stroke-opacity="1" stroke-miterlimit="4" d="M 2773.007264 659.679173 L 4223.007297 659.679173 " transform="matrix(0.24, 0, 0, -0.24, -610.76001, 460.780029)"/>
<path fill="none" stroke-width="6" stroke-linecap="round" stroke-linejoin="round" stroke="rgb(0%, 0%, 0%)" stroke-opacity="1" stroke-miterlimit="4" d="M 4158.000785 626.67136 L 4224.000135 658.670059 L 4158.000785 691.677872 " transform="matrix(0.24, 0, 0, -0.24, -610.76001, 460.780029)"/>
<path fill="none" stroke-width="6" stroke-linecap="round" stroke-linejoin="round" stroke="rgb(0%, 0%, 0%)" stroke-opacity="1" stroke-miterlimit="4" d="M 2964.999456 662.673965 L 3173.007273 805.67527 L 3264.999463 1019.672671 L 3332.007928 1280.675281 L 3432.00793 1470.66552 L 3632.007934 1596.674637 L 3923.00729 1660.672034 " transform="matrix(0.24, 0, 0, -0.24, -610.76001, 460.780029)"/>
<path fill="none" stroke-width="6" stroke-linecap="round" stroke-linejoin="round" stroke="rgb(0%, 0%, 0%)" stroke-opacity="1" stroke-miterlimit="4" d="M 3164.99946 662.673965 L 3298.007276 868.679829 L 3364.999465 1129.666163 L 3489.999468 1343.663564 L 3598.007283 1509.662916 L 3823.007288 1668.663571 " transform="matrix(0.24, 0, 0, -0.24, -610.76001, 460.780029)"/>
<path fill-rule="nonzero" fill="rgb(0%, 0%, 0%)" fill-opacity="1" d="M 216.636719 179.222656 C 217.742188 179.378906 217.800781 179.441406 218.136719 180.527344 L 219.660156 185.847656 L 218.453125 190.039062 C 218.117188 191.105469 217.683594 191.421875 216.378906 191.503906 L 216.378906 191.816406 L 222.089844 191.816406 L 222.089844 191.503906 C 221.773438 191.480469 221.496094 191.460938 221.378906 191.441406 C 220.609375 191.402344 220.332031 191.207031 220.332031 190.710938 C 220.332031 190.296875 220.46875 189.703125 220.941406 188.160156 C 221.003906 187.980469 221.042969 187.84375 221.0625 187.765625 L 221.632812 185.765625 L 225.960938 180.429688 C 226.59375 179.636719 226.75 179.5 227.34375 179.222656 L 227.34375 178.90625 L 223.609375 178.90625 L 223.609375 179.222656 C 223.847656 179.242188 224.0625 179.261719 224.144531 179.28125 C 224.714844 179.339844 224.972656 179.5 224.972656 179.835938 C 224.972656 180.367188 224.0625 181.652344 222.011719 184.046875 L 221.257812 184.957031 C 221.023438 184.085938 220.964844 183.828125 220.648438 182.78125 C 220.152344 181.082031 219.9375 180.230469 219.9375 179.933594 C 219.9375 179.460938 220.171875 179.339844 221.359375 179.222656 L 221.359375 178.90625 L 216.636719 178.90625 Z M 216.636719 179.222656 "/>
<path fill-rule="nonzero" fill="rgb(0%, 0%, 0%)" fill-opacity="1" d="M 174.738281 156.105469 L 170.628906 156.105469 L 170.628906 156.421875 C 171.597656 156.539062 171.835938 156.679688 171.835938 157.132812 C 171.835938 157.390625 171.714844 157.628906 171.4375 157.945312 L 168.574219 161.246094 L 167.410156 158.339844 C 167.191406 157.828125 167.113281 157.488281 167.113281 157.234375 C 167.113281 156.738281 167.429688 156.558594 168.515625 156.421875 L 168.515625 156.105469 L 163.300781 156.105469 L 163.300781 156.421875 C 164.445312 156.519531 164.742188 156.71875 165.117188 157.628906 L 167.210938 162.828125 C 166.480469 163.660156 165.828125 164.429688 165.574219 164.746094 C 162.828125 167.988281 162.273438 168.484375 161.226562 168.703125 L 161.226562 169.019531 L 165.453125 169.019531 L 165.453125 168.703125 C 164.503906 168.703125 164.171875 168.523438 164.171875 168.03125 C 164.171875 167.734375 164.328125 167.398438 164.585938 167.101562 L 167.566406 163.699219 L 168.890625 166.960938 C 169.03125 167.316406 169.109375 167.632812 169.109375 167.929688 C 169.109375 168.503906 168.910156 168.601562 167.605469 168.703125 L 167.605469 169.019531 L 173 169.019531 L 173 168.703125 C 171.617188 168.542969 171.4375 168.425781 170.945312 167.238281 L 168.929688 162.136719 L 172.269531 158.300781 C 173.296875 157.152344 173.890625 156.699219 174.738281 156.421875 Z M 174.738281 156.105469 "/>
<path fill-rule="nonzero" fill="rgb(0%, 0%, 0%)" fill-opacity="1" d="M 44.910156 306.101562 C 43.820312 306.101562 42.988281 306.441406 42.257812 307.132812 C 41.109375 308.242188 40.355469 310.519531 40.355469 312.835938 C 40.355469 314.996094 41.007812 317.3125 41.941406 318.421875 C 42.671875 319.292969 43.683594 319.769531 44.832031 319.769531 C 45.84375 319.769531 46.695312 319.433594 47.40625 318.738281 C 48.554688 317.648438 49.308594 315.351562 49.308594 312.957031 C 49.308594 308.894531 47.507812 306.101562 44.910156 306.101562 M 44.851562 306.617188 C 46.515625 306.617188 47.40625 308.855469 47.40625 312.996094 C 47.40625 317.132812 46.535156 319.253906 44.832031 319.253906 C 43.128906 319.253906 42.257812 317.132812 42.257812 313.015625 C 42.257812 308.816406 43.148438 306.617188 44.851562 306.617188 Z M 44.851562 306.617188 "/>
<path fill-rule="nonzero" fill="rgb(0%, 0%, 0%)" fill-opacity="1" d="M 27.082031 188.835938 L 22.578125 189.015625 L 22.578125 189.433594 C 22.996094 189.550781 23.234375 189.871094 23.234375 190.269531 C 23.234375 190.449219 23.175781 190.746094 23.054688 191.046875 C 22.738281 192.019531 22.578125 193.015625 22.578125 193.953125 C 22.578125 195.585938 23.195312 197.238281 24.292969 198.472656 C 25.527344 199.863281 27.378906 200.621094 29.566406 200.621094 C 31.417969 200.621094 33.128906 200.023438 34.261719 199.007812 C 35.554688 197.8125 36.3125 195.984375 36.3125 194.011719 C 36.3125 191.761719 35.394531 189.792969 33.785156 188.578125 L 33.425781 188.933594 C 34.839844 190.40625 35.4375 191.722656 35.4375 193.375 C 35.4375 194.628906 35.039062 195.742188 34.28125 196.597656 C 33.308594 197.695312 31.515625 198.3125 29.308594 198.3125 C 25.707031 198.3125 23.375 196.460938 23.375 193.574219 C 23.375 192.4375 23.792969 191.402344 24.589844 190.605469 C 25.230469 189.96875 25.785156 189.671875 27.082031 189.292969 Z M 27.082031 188.835938 "/>
<path fill-rule="nonzero" fill="rgb(0%, 0%, 0%)" fill-opacity="1" d="M 35.039062 178.441406 L 35.039062 178.542969 C 35.039062 179.457031 34.820312 179.675781 33.902344 179.675781 L 27.070312 179.675781 L 27.070312 182.824219 L 27.410156 182.824219 C 27.46875 181.585938 27.667969 181.347656 28.664062 181.347656 L 33.347656 181.347656 C 33.902344 181.347656 34.183594 181.449219 34.402344 181.726562 C 34.839844 182.265625 35.078125 182.882812 35.078125 183.480469 C 35.078125 184.253906 34.402344 184.890625 33.566406 184.890625 L 27.070312 184.890625 L 27.070312 187.800781 L 27.351562 187.800781 C 27.410156 186.84375 27.710938 186.566406 28.625 186.566406 L 33.644531 186.566406 C 35.21875 186.566406 36.234375 185.609375 36.234375 184.15625 C 36.234375 183.417969 35.914062 182.644531 35.378906 182.105469 L 34.519531 181.25 L 36.175781 181.25 L 36.214844 181.167969 C 35.816406 180.175781 35.597656 179.457031 35.316406 178.441406 Z M 35.039062 178.441406 "/>
<path fill-rule="nonzero" fill="rgb(0%, 0%, 0%)" fill-opacity="1" d="M 28.113281 177.519531 C 28.050781 177.261719 28.03125 177.101562 28.03125 176.882812 C 28.03125 176.367188 28.351562 176.1875 29.308594 176.1875 L 34.347656 176.1875 C 35.421875 176.1875 35.722656 176.464844 35.742188 177.578125 L 36.039062 177.578125 L 36.039062 173.160156 L 35.742188 173.160156 C 35.699219 174.214844 35.480469 174.515625 34.707031 174.515625 L 29.089844 174.515625 C 29.046875 174.515625 28.847656 174.355469 28.710938 174.214844 C 28.25 173.71875 27.914062 172.863281 27.914062 172.164062 C 27.914062 171.289062 28.609375 170.851562 30.003906 170.851562 L 34.328125 170.851562 C 35.441406 170.851562 35.660156 171.070312 35.742188 172.203125 L 36.039062 172.203125 L 36.039062 167.746094 L 35.742188 167.746094 C 35.722656 168.878906 35.382812 169.179688 34.148438 169.179688 L 29.128906 169.179688 C 28.273438 168.582031 27.914062 167.925781 27.914062 167.007812 C 27.914062 165.875 28.453125 165.515625 30.105469 165.515625 L 34.308594 165.515625 C 35.441406 165.515625 35.601562 165.675781 35.742188 166.828125 L 36.039062 166.828125 L 36.039062 162.46875 L 35.742188 162.46875 L 35.699219 162.988281 C 35.660156 163.585938 35.304688 163.84375 34.527344 163.84375 L 30.421875 163.84375 C 28.074219 163.84375 26.878906 164.621094 26.878906 166.152344 C 26.878906 167.308594 27.394531 168.324219 28.550781 169.398438 C 27.414062 169.757812 26.878906 170.433594 26.878906 171.507812 C 26.878906 172.382812 27.15625 172.941406 28.410156 174.59375 L 26.917969 174.59375 L 26.878906 174.734375 C 27.257812 175.75 27.476562 176.425781 27.773438 177.519531 Z M 28.113281 177.519531 "/>
<path fill-rule="nonzero" fill="rgb(0%, 0%, 0%)" fill-opacity="1" d="M 35.039062 152.761719 L 35.039062 152.863281 C 35.039062 153.777344 34.820312 153.996094 33.902344 153.996094 L 27.070312 153.996094 L 27.070312 157.140625 L 27.410156 157.140625 C 27.46875 155.90625 27.667969 155.667969 28.664062 155.667969 L 33.347656 155.667969 C 33.902344 155.667969 34.183594 155.769531 34.402344 156.046875 C 34.839844 156.585938 35.078125 157.203125 35.078125 157.800781 C 35.078125 158.574219 34.402344 159.210938 33.566406 159.210938 L 27.070312 159.210938 L 27.070312 162.121094 L 27.351562 162.121094 C 27.410156 161.164062 27.710938 160.882812 28.625 160.882812 L 33.644531 160.882812 C 35.21875 160.882812 36.234375 159.929688 36.234375 158.476562 C 36.234375 157.738281 35.914062 156.964844 35.378906 156.425781 L 34.519531 155.570312 L 36.175781 155.570312 L 36.214844 155.488281 C 35.816406 154.496094 35.597656 153.777344 35.316406 152.761719 Z M 35.039062 152.761719 "/>
<path fill-rule="nonzero" fill="rgb(0%, 0%, 0%)" fill-opacity="1" d="M 23.628906 151.839844 L 23.628906 151.71875 C 23.609375 151.5 23.589844 151.261719 23.589844 151.101562 C 23.589844 150.464844 23.867188 150.265625 24.804688 150.265625 L 34.308594 150.265625 C 35.382812 150.265625 35.640625 150.546875 35.742188 151.800781 L 36.039062 151.800781 L 36.039062 147.101562 L 35.742188 147.101562 C 35.660156 148.355469 35.460938 148.59375 34.367188 148.59375 L 22.472656 148.59375 L 22.433594 148.675781 C 22.773438 149.710938 22.972656 150.464844 23.3125 151.839844 Z M 23.628906 151.839844 "/>
<path fill-rule="nonzero" fill="rgb(0%, 0%, 0%)" fill-opacity="1" d="M 34.722656 137.898438 C 35 138.238281 35.097656 138.476562 35.097656 138.773438 C 35.097656 139.234375 34.820312 139.371094 33.945312 139.371094 L 30.0625 139.371094 C 29.027344 139.371094 28.449219 139.472656 27.972656 139.769531 C 27.257812 140.207031 26.878906 141.0625 26.878906 142.238281 C 26.878906 144.109375 27.851562 145.582031 29.105469 145.582031 C 29.566406 145.582031 29.964844 145.183594 29.964844 144.726562 C 29.964844 144.25 29.566406 143.832031 29.128906 143.832031 C 29.046875 143.832031 28.949219 143.851562 28.808594 143.871094 C 28.628906 143.910156 28.46875 143.929688 28.332031 143.929688 C 27.792969 143.929688 27.355469 143.292969 27.355469 142.496094 C 27.355469 141.523438 27.933594 140.984375 29.007812 140.984375 L 30.222656 140.984375 C 31.457031 144.050781 31.617188 144.390625 32.371094 145.246094 C 32.769531 145.683594 33.445312 145.960938 34.105469 145.960938 C 35.359375 145.960938 36.234375 145.085938 36.234375 143.871094 C 36.234375 142.996094 35.816406 142.179688 34.78125 140.964844 C 35.816406 140.863281 36.234375 140.507812 36.234375 139.691406 C 36.234375 139.015625 35.996094 138.597656 35.238281 137.898438 L 34.722656 137.898438 M 33.585938 140.984375 C 34.203125 140.984375 34.382812 141.085938 34.621094 141.503906 C 34.898438 141.980469 35.078125 142.539062 35.078125 142.957031 C 35.078125 143.652344 34.402344 144.210938 33.546875 144.210938 L 33.464844 144.210938 C 32.292969 144.210938 31.574219 143.394531 30.699219 140.984375 Z M 33.585938 140.984375 "/>
<path fill-rule="nonzero" fill="rgb(0%, 0%, 0%)" fill-opacity="1" d="M 27.070312 132.742188 L 27.070312 134.753906 L 24.761719 134.753906 C 24.5625 134.753906 24.503906 134.773438 24.503906 134.890625 C 24.679688 135.03125 24.859375 135.152344 25.058594 135.289062 C 26.15625 136.046875 27.113281 136.902344 27.191406 137.222656 C 27.332031 137.441406 27.46875 137.558594 27.570312 137.558594 C 27.628906 137.558594 27.667969 137.539062 27.710938 137.480469 L 27.710938 136.425781 L 33.703125 136.425781 C 35.378906 136.425781 36.234375 135.828125 36.234375 134.652344 C 36.234375 133.675781 35.757812 132.921875 34.71875 132.265625 L 34.5 132.523438 C 35 132.941406 35.199219 133.277344 35.199219 133.71875 C 35.199219 134.453125 34.660156 134.753906 33.40625 134.753906 L 27.710938 134.753906 L 27.710938 132.742188 Z M 27.070312 132.742188 "/>
<path fill-rule="nonzero" fill="rgb(0%, 0%, 0%)" fill-opacity="1" d="M 26.882812 128.816406 L 27.976562 131.898438 L 28.277344 131.898438 L 28.257812 131.742188 C 28.214844 131.5 28.195312 131.242188 28.195312 131.0625 C 28.195312 130.585938 28.515625 130.40625 29.390625 130.40625 L 34.007812 130.40625 C 35.441406 130.40625 35.660156 130.605469 35.742188 131.980469 L 36.039062 131.980469 L 36.039062 127.261719 L 35.742188 127.261719 C 35.640625 128.574219 35.441406 128.734375 34.007812 128.734375 L 26.941406 128.734375 L 26.882812 128.816406 M 22.441406 129.75 C 22.441406 130.289062 22.898438 130.746094 23.457031 130.746094 C 24.015625 130.746094 24.472656 130.308594 24.472656 129.75 C 24.472656 129.171875 24.035156 128.714844 23.457031 128.714844 C 22.898438 128.714844 22.441406 129.171875 22.441406 129.75 Z M 22.441406 129.75 "/>
<path fill-rule="nonzero" fill="rgb(0%, 0%, 0%)" fill-opacity="1" d="M 27.070312 117.28125 L 27.070312 120.050781 L 27.371094 120.050781 C 27.429688 119.414062 27.628906 119.113281 28.007812 119.113281 C 28.207031 119.113281 28.40625 119.152344 28.605469 119.234375 L 33.765625 121.203125 L 28.664062 123.234375 C 28.386719 123.355469 28.109375 123.414062 27.929688 123.414062 C 27.570312 123.414062 27.429688 123.195312 27.371094 122.496094 L 27.070312 122.496094 L 27.070312 126.398438 L 27.371094 126.398438 C 27.410156 125.644531 27.609375 125.503906 29.660156 124.589844 L 35.378906 122.199219 C 35.5 122.160156 35.636719 122.101562 35.796875 122.039062 C 36.15625 121.921875 36.316406 121.800781 36.316406 121.683594 C 36.316406 121.5625 36.054688 121.421875 35.320312 121.125 L 28.925781 118.578125 C 27.570312 118 27.429688 117.878906 27.371094 117.28125 Z M 27.070312 117.28125 "/>
<path fill-rule="nonzero" fill="rgb(0%, 0%, 0%)" fill-opacity="1" d="M 32.765625 108.574219 C 34.28125 109.53125 34.859375 110.386719 34.859375 111.660156 C 34.859375 112.796875 34.28125 113.652344 33.144531 114.230469 C 32.386719 114.589844 31.730469 114.726562 30.515625 114.765625 L 30.515625 108.636719 C 29.222656 108.796875 28.648438 108.992188 28.011719 109.492188 C 27.296875 110.089844 26.878906 111.003906 26.878906 112.039062 C 26.878906 113.035156 27.234375 113.972656 27.914062 114.726562 C 28.726562 115.664062 30.136719 116.199219 31.769531 116.199219 C 34.519531 116.199219 36.234375 114.765625 36.234375 112.476562 C 36.234375 110.585938 35.058594 109.09375 32.90625 108.257812 L 32.765625 108.574219 M 29.878906 114.726562 C 28.328125 114.507812 27.59375 113.832031 27.59375 112.617188 C 27.59375 111.402344 28.152344 110.925781 29.878906 110.667969 Z M 29.878906 114.726562 "/>
<path fill-rule="nonzero" fill="rgb(0%, 0%, 0%)" fill-opacity="1" d="M 27.070312 96.625 L 27.070312 99.074219 L 24.761719 99.074219 C 23.605469 99.074219 22.988281 98.695312 22.988281 97.941406 C 22.988281 97.523438 23.1875 97.242188 23.765625 96.886719 C 24.28125 96.566406 24.484375 96.328125 24.484375 95.988281 C 24.484375 95.53125 24.125 95.152344 23.664062 95.152344 C 22.949219 95.152344 22.429688 96.03125 22.429688 97.222656 C 22.429688 98.457031 22.96875 99.511719 23.886719 100.03125 C 24.761719 100.546875 25.476562 100.707031 27.070312 100.726562 L 27.070312 102.359375 L 27.710938 102.359375 L 27.710938 100.726562 L 33.96875 100.726562 C 35.421875 100.726562 35.660156 100.945312 35.742188 102.378906 L 36.039062 102.378906 L 36.039062 97.203125 L 35.742188 97.203125 C 35.679688 98.835938 35.460938 99.054688 33.96875 99.054688 L 27.710938 99.054688 L 27.710938 96.625 Z M 27.070312 96.625 "/>
<path fill-rule="nonzero" fill="rgb(0%, 0%, 0%)" fill-opacity="1" d="M 28.273438 95.917969 C 28.210938 95.640625 28.191406 95.460938 28.191406 95.222656 C 28.191406 94.722656 28.511719 94.546875 29.386719 94.546875 L 34.367188 94.546875 C 35.363281 94.546875 35.503906 94.683594 35.742188 95.957031 L 36.039062 95.957031 L 36.039062 91.179688 L 35.742188 91.179688 C 35.679688 92.535156 35.382812 92.875 34.246094 92.875 L 29.765625 92.875 C 29.128906 92.875 28.132812 92.015625 28.132812 91.480469 C 28.132812 91.359375 28.230469 91.179688 28.429688 90.960938 C 28.710938 90.644531 28.828125 90.425781 28.828125 90.164062 C 28.828125 89.6875 28.492188 89.390625 27.933594 89.390625 C 27.277344 89.390625 26.878906 89.808594 26.878906 90.484375 C 26.878906 91.320312 27.335938 91.898438 28.75 92.875 L 26.917969 92.875 L 26.878906 92.972656 C 27.316406 94.027344 27.574219 94.746094 27.953125 95.917969 Z M 28.273438 95.917969 "/>
<path fill-rule="nonzero" fill="rgb(0%, 0%, 0%)" fill-opacity="1" d="M 32.765625 81.214844 C 34.28125 82.171875 34.859375 83.027344 34.859375 84.300781 C 34.859375 85.4375 34.28125 86.292969 33.144531 86.871094 C 32.386719 87.226562 31.730469 87.367188 30.515625 87.40625 L 30.515625 81.277344 C 29.222656 81.433594 28.648438 81.632812 28.011719 82.132812 C 27.296875 82.730469 26.878906 83.644531 26.878906 84.679688 C 26.878906 85.675781 27.234375 86.609375 27.914062 87.367188 C 28.726562 88.304688 30.136719 88.839844 31.769531 88.839844 C 34.519531 88.839844 36.234375 87.40625 36.234375 85.117188 C 36.234375 83.226562 35.058594 81.734375 32.90625 80.898438 L 32.765625 81.214844 M 29.878906 87.367188 C 28.328125 87.148438 27.59375 86.472656 27.59375 85.257812 C 27.59375 84.042969 28.152344 83.566406 29.878906 83.304688 Z M 29.878906 87.367188 "/>
<path fill-rule="nonzero" fill="rgb(0%, 0%, 0%)" fill-opacity="1" d="M 27.574219 73.292969 C 27.039062 74.207031 26.859375 74.804688 26.859375 75.582031 C 26.859375 78.070312 29.085938 79.980469 31.953125 79.980469 C 34.460938 79.980469 36.234375 78.667969 36.234375 76.796875 C 36.234375 75.640625 35.714844 74.546875 34.761719 73.667969 L 38.503906 73.667969 C 39.621094 73.667969 39.921875 74.027344 40.019531 75.441406 L 40.359375 75.441406 L 40.359375 70.742188 L 40.078125 70.742188 C 39.839844 71.839844 39.679688 71.996094 38.84375 71.996094 L 26.9375 71.996094 L 26.9375 72.214844 L 27.574219 73.292969 M 33.507812 73.667969 C 33.984375 73.667969 34.242188 73.75 34.402344 73.949219 C 34.78125 74.386719 35.019531 75.042969 35.019531 75.660156 C 35.019531 76.277344 34.820312 76.816406 34.421875 77.214844 C 33.84375 77.851562 32.550781 78.269531 31.238281 78.269531 C 28.886719 78.269531 27.414062 77.214844 27.414062 75.519531 C 27.414062 74.285156 28.074219 73.667969 29.40625 73.667969 Z M 33.507812 73.667969 "/>
<path fill-rule="nonzero" fill="rgb(0%, 0%, 0%)" fill-opacity="1" d="M 35.039062 60.84375 L 35.039062 60.941406 C 35.039062 61.859375 34.820312 62.078125 33.902344 62.078125 L 27.070312 62.078125 L 27.070312 65.222656 L 27.410156 65.222656 C 27.46875 63.988281 27.667969 63.75 28.664062 63.75 L 33.347656 63.75 C 33.902344 63.75 34.183594 63.847656 34.402344 64.128906 C 34.839844 64.664062 35.078125 65.28125 35.078125 65.878906 C 35.078125 66.65625 34.402344 67.292969 33.566406 67.292969 L 27.070312 67.292969 L 27.070312 70.199219 L 27.351562 70.199219 C 27.410156 69.242188 27.710938 68.964844 28.625 68.964844 L 33.644531 68.964844 C 35.21875 68.964844 36.234375 68.007812 36.234375 66.554688 C 36.234375 65.820312 35.914062 65.042969 35.378906 64.503906 L 34.519531 63.648438 L 36.175781 63.648438 L 36.214844 63.570312 C 35.816406 62.574219 35.597656 61.859375 35.316406 60.84375 Z M 35.039062 60.84375 "/>
<path fill-rule="nonzero" fill="rgb(0%, 0%, 0%)" fill-opacity="1" d="M 32.765625 52.175781 C 34.28125 53.132812 34.859375 53.988281 34.859375 55.261719 C 34.859375 56.394531 34.28125 57.253906 33.144531 57.828125 C 32.386719 58.1875 31.730469 58.328125 30.515625 58.367188 L 30.515625 52.234375 C 29.222656 52.394531 28.648438 52.59375 28.011719 53.089844 C 27.296875 53.6875 26.878906 54.605469 26.878906 55.640625 C 26.878906 56.636719 27.234375 57.570312 27.914062 58.328125 C 28.726562 59.261719 30.136719 59.800781 31.769531 59.800781 C 34.519531 59.800781 36.234375 58.367188 36.234375 56.078125 C 36.234375 54.1875 35.058594 52.695312 32.90625 51.855469 L 32.765625 52.175781 M 29.878906 58.328125 C 28.328125 58.109375 27.59375 57.429688 27.59375 56.21875 C 27.59375 55.003906 28.152344 54.523438 29.878906 54.265625 Z M 29.878906 58.328125 "/>
<path fill-rule="nonzero" fill="rgb(0%, 0%, 0%)" fill-opacity="1" d="M 28.113281 51.101562 C 28.050781 50.980469 28.03125 50.78125 28.03125 50.5625 C 28.03125 50.003906 28.332031 49.824219 29.308594 49.824219 L 34.246094 49.824219 C 35.382812 49.824219 35.660156 50.042969 35.742188 51.058594 L 36.039062 51.058594 L 36.039062 46.839844 L 35.742188 46.839844 C 35.660156 47.855469 35.421875 48.152344 34.707031 48.152344 L 29.109375 48.152344 C 28.210938 47.199219 27.972656 46.761719 27.972656 46.101562 C 27.972656 45.128906 28.589844 44.648438 29.90625 44.648438 L 34.066406 44.648438 C 35.324219 44.648438 35.660156 44.910156 35.742188 45.902344 L 36.039062 45.902344 L 36.039062 41.761719 L 35.742188 41.761719 C 35.640625 42.738281 35.402344 42.976562 34.425781 42.976562 L 29.863281 42.976562 C 27.992188 42.976562 26.878906 43.851562 26.878906 45.328125 C 26.878906 46.242188 27.214844 46.859375 28.492188 48.214844 L 26.917969 48.214844 L 26.878906 48.351562 C 27.234375 49.328125 27.457031 50.003906 27.773438 51.101562 Z M 28.113281 51.101562 "/>
<path fill-rule="nonzero" fill="rgb(0%, 0%, 0%)" fill-opacity="1" d="M 32.929688 33.414062 C 34.324219 34.371094 34.800781 35.085938 34.800781 36.222656 C 34.800781 38.035156 33.207031 39.308594 30.917969 39.308594 C 28.867188 39.308594 27.457031 38.210938 27.457031 36.601562 C 27.457031 35.882812 27.675781 35.625 28.410156 35.425781 L 28.847656 35.304688 C 29.40625 35.148438 29.765625 34.789062 29.765625 34.371094 C 29.765625 33.851562 29.386719 33.414062 28.929688 33.414062 C 27.8125 33.414062 26.878906 34.808594 26.878906 36.480469 C 26.878906 37.457031 27.277344 38.472656 27.992188 39.289062 C 28.867188 40.28125 30.222656 40.839844 31.792969 40.839844 C 34.382812 40.839844 36.234375 39.269531 36.234375 37.058594 C 36.234375 36.164062 35.914062 35.367188 35.296875 34.648438 C 34.820312 34.113281 34.28125 33.734375 33.109375 33.136719 Z M 32.929688 33.414062 "/>
<path fill-rule="nonzero" fill="rgb(0%, 0%, 0%)" fill-opacity="1" d="M 27.070312 23.003906 L 27.070312 25.691406 L 27.371094 25.691406 C 27.371094 25.050781 27.550781 24.734375 27.867188 24.734375 C 27.949219 24.734375 28.070312 24.753906 28.207031 24.8125 L 33.710938 26.746094 L 28.667969 29.035156 C 28.386719 29.152344 28.128906 29.234375 27.910156 29.234375 C 27.550781 29.234375 27.410156 28.933594 27.371094 28.078125 L 27.070312 28.078125 L 27.070312 32.179688 L 27.351562 32.179688 C 27.429688 31.660156 27.648438 31.324219 27.988281 31.164062 L 32.894531 28.894531 L 33.050781 28.835938 L 33.648438 28.535156 C 34.648438 27.980469 35.363281 27.660156 35.664062 27.660156 C 35.960938 27.660156 37.21875 28.117188 37.816406 28.457031 C 38.335938 28.734375 38.714844 29.171875 38.714844 29.453125 C 38.714844 29.570312 38.671875 29.75 38.574219 29.949219 C 38.433594 30.328125 38.355469 30.667969 38.355469 31.003906 C 38.355469 31.464844 38.753906 31.859375 39.230469 31.859375 C 39.890625 31.859375 40.386719 31.222656 40.386719 30.386719 C 40.386719 29.054688 39.269531 28.097656 36.402344 27.023438 L 28.269531 23.957031 C 27.628906 23.699219 27.429688 23.480469 27.371094 23.003906 Z M 27.070312 23.003906 "/>
</svg>
