<?xml version="1.0" encoding="UTF-8"?>
<svg xmlns="http://www.w3.org/2000/svg" xmlns:xlink="http://www.w3.org/1999/xlink" width="409.220001" height="295.380005" viewBox="0 0 409.220001 295.380005">
<defs>
<clipPath id="clip-0">
<path clip-rule="nonzero" d="M 109 111 L 118.78125 111 L 118.78125 125 L 109 125 Z M 109 111 "/>
</clipPath>
<clipPath id="clip-1">
<path clip-rule="nonzero" d="M 97.660156 118 L 108.699219 118 L 108.699219 121 L 97.660156 121 Z M 97.660156 118 "/>
</clipPath>
</defs>
<path fill="none" stroke-width="6" stroke-linecap="round" stroke-linejoin="round" stroke="rgb(0%, 0%, 0%)" stroke-opacity="1" stroke-miterlimit="4" d="M 2214.001387 5114.66807 L 2212.992273 6236.673304 " transform="matrix(0.24, 0, 0, -0.24, -401.540009, 1517.699997)"/>
<path fill="none" stroke-width="6" stroke-linecap="round" stroke-linejoin="round" stroke="rgb(0%, 0%, 0%)" stroke-opacity="1" stroke-miterlimit="4" d="M 2246.000086 6170.673953 L 2214.001387 6236.673304 L 2180.993574 6170.673953 " transform="matrix(0.24, 0, 0, -0.24, -401.540009, 1517.699997)"/>
<path fill="none" stroke-width="6" stroke-linecap="round" stroke-linejoin="round" stroke="rgb(0%, 0%, 0%)" stroke-opacity="1" stroke-miterlimit="4" d="M 1764.994216 6041.670044 L 3041.003359 6041.670044 " transform="matrix(0.24, 0, 0, -0.24, -401.540009, 1517.699997)"/>
<path fill="none" stroke-width="6" stroke-linecap="round" stroke-linejoin="round" stroke="rgb(0%, 0%, 0%)" stroke-opacity="1" stroke-miterlimit="4" d="M 2975.996847 6008.662231 L 3041.996197 6040.677206 L 2975.996847 6073.668743 " transform="matrix(0.24, 0, 0, -0.24, -401.540009, 1517.699997)"/>
<path fill-rule="nonzero" fill="rgb(0%, 0%, 0%)" fill-opacity="1" d="M 332.449219 85.167969 C 332.289062 85.34375 332.191406 85.464844 332.011719 85.703125 C 331.554688 86.300781 331.316406 86.5 331.097656 86.5 C 330.800781 86.5 330.621094 86.238281 330.480469 85.683594 C 330.441406 85.523438 330.421875 85.40625 330.402344 85.34375 C 329.90625 83.335938 329.6875 82.421875 329.6875 82.121094 C 330.5625 80.589844 331.277344 79.714844 331.632812 79.714844 C 331.753906 79.714844 331.914062 79.773438 332.109375 79.875 C 332.347656 80.011719 332.488281 80.054688 332.648438 80.054688 C 333.066406 80.054688 333.34375 79.753906 333.34375 79.335938 C 333.34375 78.917969 333.003906 78.601562 332.527344 78.601562 C 331.652344 78.601562 330.898438 79.316406 329.527344 81.445312 L 329.308594 80.351562 C 329.03125 79 328.8125 78.601562 328.273438 78.601562 C 327.839844 78.601562 327.164062 78.78125 325.949219 79.179688 L 325.730469 79.257812 L 325.8125 79.554688 C 326.566406 79.375 326.746094 79.335938 326.925781 79.335938 C 327.421875 79.335938 327.539062 79.515625 327.816406 80.710938 L 328.394531 83.15625 L 326.765625 85.484375 C 326.367188 86.082031 325.96875 86.4375 325.75 86.4375 C 325.632812 86.4375 325.433594 86.378906 325.234375 86.261719 C 324.976562 86.121094 324.757812 86.0625 324.597656 86.0625 C 324.222656 86.0625 323.921875 86.359375 323.921875 86.757812 C 323.921875 87.273438 324.320312 87.59375 324.917969 87.59375 C 325.53125 87.59375 325.769531 87.414062 326.765625 86.199219 C 327.300781 85.5625 327.71875 85.027344 328.554688 83.871094 L 329.148438 86.261719 C 329.410156 87.273438 329.667969 87.59375 330.300781 87.59375 C 331.058594 87.59375 331.574219 87.113281 332.726562 85.324219 Z M 332.449219 85.167969 "/>
<path fill-rule="nonzero" fill="rgb(0%, 0%, 0%)" fill-opacity="1" d="M 119.082031 75.574219 C 117.410156 75.574219 115.621094 76.371094 114.03125 77.820312 C 112.023438 79.667969 110.851562 82.09375 110.851562 84.417969 C 110.851562 87.199219 112.660156 89.167969 115.183594 89.167969 C 119.320312 89.167969 123.332031 84.996094 123.550781 80.503906 C 123.691406 77.703125 121.742188 75.574219 119.082031 75.574219 M 118.902344 76.230469 C 120.472656 76.230469 121.464844 77.382812 121.464844 79.25 C 121.464844 81.398438 120.53125 84.300781 119.238281 86.167969 C 118.144531 87.738281 116.914062 88.511719 115.523438 88.511719 C 113.851562 88.511719 112.9375 87.300781 112.9375 85.152344 C 112.9375 83.285156 113.933594 80.324219 115.125 78.597656 C 116.238281 76.984375 117.449219 76.230469 118.902344 76.230469 Z M 118.902344 76.230469 "/>
<path fill="none" stroke-width="6" stroke-linecap="round" stroke-linejoin="round" stroke="rgb(0%, 0%, 0%)" stroke-opacity="1" stroke-miterlimit="4" d="M 1961.999428 5188.675233 C 1980.993569 5245.673933 2039.994222 5429.674588 2080.000733 5530.667429 C 2118.99813 5632.669384 2157.995527 5719.664829 2198.002038 5795.673945 C 2236.999435 5871.666785 2275.996831 5934.671344 2316.003343 5985.664184 C 2355.993578 6036.673299 2398.002042 6076.663535 2436.999439 6101.663535 C 2475.996836 6127.67265 2512.992279 6136.673302 2552.005952 6137.66614 C 2591.003349 6137.66614 2632.002699 6128.665489 2671.000095 6103.665488 C 2711.006607 6078.665488 2748.994889 6036.673299 2787.992285 5985.664184 C 2827.005958 5934.671344 2866.996193 5871.666785 2905.99359 5795.673945 C 2945.007263 5720.673943 2984.997498 5633.662223 3023.994895 5532.669382 C 3062.992292 5431.676541 3116.996199 5260.664167 3141.9962 5188.675233 " transform="matrix(0.24, 0, 0, -0.24, -401.540009, 1517.699997)"/>
<g clip-path="url(#clip-0)">
<path fill-rule="nonzero" fill="rgb(0%, 0%, 0%)" fill-opacity="1" d="M 118.226562 122.070312 L 117.96875 121.96875 C 117.226562 123.113281 116.964844 123.292969 116.0625 123.292969 L 111.265625 123.292969 L 114.636719 119.761719 C 116.421875 117.894531 117.207031 116.371094 117.207031 114.804688 C 117.207031 112.800781 115.582031 111.253906 113.496094 111.253906 C 112.390625 111.253906 111.347656 111.695312 110.605469 112.5 C 109.964844 113.179688 109.664062 113.824219 109.320312 115.246094 L 109.742188 115.347656 C 110.546875 113.382812 111.265625 112.738281 112.652344 112.738281 C 114.335938 112.738281 115.480469 113.882812 115.480469 115.570312 C 115.480469 117.132812 114.558594 119 112.871094 120.785156 L 109.300781 124.578125 L 109.300781 124.820312 L 117.125 124.820312 Z M 118.226562 122.070312 "/>
</g>
<g clip-path="url(#clip-1)">
<path fill-rule="nonzero" fill="rgb(0%, 0%, 0%)" fill-opacity="1" d="M 97.878906 118.917969 L 97.878906 120.023438 L 108.390625 120.023438 L 108.390625 118.917969 Z M 97.878906 118.917969 "/>
</g>
<path fill-rule="nonzero" fill="rgb(0%, 0%, 0%)" fill-opacity="1" d="M 170.941406 94.015625 L 170.679688 93.914062 C 169.945312 95.046875 169.6875 95.226562 168.792969 95.226562 L 164.042969 95.226562 L 167.382812 91.730469 C 169.152344 89.878906 169.925781 88.371094 169.925781 86.820312 C 169.925781 84.832031 168.316406 83.300781 166.25 83.300781 C 165.15625 83.300781 164.121094 83.738281 163.386719 84.535156 C 162.75 85.210938 162.453125 85.84375 162.117188 87.257812 L 162.53125 87.355469 C 163.328125 85.40625 164.042969 84.773438 165.414062 84.773438 C 167.085938 84.773438 168.21875 85.90625 168.21875 87.574219 C 168.21875 89.125 167.304688 90.972656 165.632812 92.742188 L 162.097656 96.5 L 162.097656 96.738281 L 169.847656 96.738281 Z M 170.941406 94.015625 "/>
<path fill-rule="nonzero" fill="rgb(0%, 0%, 0%)" fill-opacity="1" d="M 259.882812 82.644531 C 257.617188 82.84375 256.464844 83.21875 255.015625 84.234375 C 252.867188 85.765625 251.695312 88.03125 251.695312 90.699219 C 251.695312 92.429688 252.230469 94.183594 253.085938 95.175781 C 253.84375 96.054688 254.914062 96.53125 256.148438 96.53125 C 258.613281 96.53125 260.320312 94.640625 260.320312 91.894531 C 260.320312 89.34375 258.871094 87.734375 256.585938 87.734375 C 255.710938 87.734375 255.292969 87.871094 254.039062 88.628906 C 254.578125 85.625 256.804688 83.476562 259.921875 82.960938 L 259.882812 82.644531 M 255.828125 88.648438 C 257.539062 88.648438 258.53125 90.082031 258.53125 92.570312 C 258.53125 94.757812 257.757812 95.972656 256.367188 95.972656 C 254.617188 95.972656 253.542969 94.101562 253.542969 91.015625 C 253.542969 90.003906 253.703125 89.445312 254.101562 89.144531 C 254.515625 88.828125 255.132812 88.648438 255.828125 88.648438 Z M 255.828125 88.648438 "/>
<path fill="none" stroke-width="6" stroke-linecap="round" stroke-linejoin="round" stroke="rgb(0%, 0%, 0%)" stroke-opacity="1" stroke-miterlimit="4" d="M 2364.994229 6063.675253 L 2364.994229 6015.677205 " transform="matrix(0.24, 0, 0, -0.24, -401.540009, 1517.699997)"/>
<path fill="none" stroke-width="6" stroke-linecap="round" stroke-linejoin="round" stroke="rgb(0%, 0%, 0%)" stroke-opacity="1" stroke-miterlimit="4" d="M 2741.003352 6062.666138 L 2741.003352 6014.66809 " transform="matrix(0.24, 0, 0, -0.24, -401.540009, 1517.699997)"/>
<path fill="none" stroke-width="6" stroke-linecap="round" stroke-linejoin="round" stroke="rgb(0%, 0%, 0%)" stroke-opacity="1" stroke-miterlimit="4" d="M 2189.001387 5831.67655 L 2241.996179 5831.67655 " transform="matrix(0.24, 0, 0, -0.24, -401.540009, 1517.699997)"/>
<path fill-rule="nonzero" fill="rgb(0%, 0%, 0%)" fill-opacity="1" d="M 303.621094 203.492188 C 305.105469 202.527344 305.707031 202.007812 306.449219 201.082031 C 307.875 199.335938 308.578125 197.328125 308.578125 194.980469 C 308.578125 192.410156 307.835938 190.464844 306.070312 188.417969 C 305.246094 187.453125 304.726562 187.011719 303.683594 186.371094 L 303.441406 186.691406 C 305.046875 187.957031 305.585938 188.660156 306.148438 190.164062 C 306.632812 191.507812 306.851562 193.035156 306.851562 195.042969 C 306.851562 197.128906 306.589844 198.792969 306.050781 200.019531 C 305.488281 201.285156 304.886719 202.007812 303.441406 203.171875 Z M 303.621094 203.492188 "/>
<path fill-rule="nonzero" fill="rgb(0%, 0%, 0%)" fill-opacity="1" d="M 291.257812 186.371094 C 289.773438 187.332031 289.171875 187.855469 288.429688 188.777344 C 287.003906 190.523438 286.300781 192.53125 286.300781 194.878906 C 286.300781 197.429688 287.042969 199.398438 288.808594 201.445312 C 289.632812 202.40625 290.152344 202.847656 291.195312 203.492188 L 291.4375 203.171875 C 289.832031 201.90625 289.273438 201.203125 288.730469 199.699219 C 288.25 198.351562 288.027344 196.828125 288.027344 194.820312 C 288.027344 192.710938 288.289062 191.066406 288.832031 189.824219 C 289.390625 188.578125 289.992188 187.855469 291.4375 186.691406 Z M 291.257812 186.371094 "/>
<path fill-rule="nonzero" fill="rgb(0%, 0%, 0%)" fill-opacity="1" d="M 281.9375 190.902344 L 279.472656 190.902344 L 279.472656 188.574219 C 279.472656 187.410156 279.851562 186.789062 280.613281 186.789062 C 281.035156 186.789062 281.316406 186.988281 281.675781 187.570312 C 282 188.09375 282.238281 188.292969 282.582031 188.292969 C 283.042969 188.292969 283.421875 187.933594 283.421875 187.46875 C 283.421875 186.746094 282.539062 186.226562 281.335938 186.226562 C 280.09375 186.226562 279.03125 186.769531 278.507812 187.691406 C 277.988281 188.574219 277.824219 189.296875 277.804688 190.902344 L 276.160156 190.902344 L 276.160156 191.542969 L 277.804688 191.542969 L 277.804688 197.851562 C 277.804688 199.316406 277.585938 199.558594 276.140625 199.636719 L 276.140625 199.9375 L 281.355469 199.9375 L 281.355469 199.636719 C 279.710938 199.578125 279.492188 199.355469 279.492188 197.851562 L 279.492188 191.542969 L 281.9375 191.542969 Z M 281.9375 190.902344 "/>
<path fill-rule="nonzero" fill="rgb(0%, 0%, 0%)" fill-opacity="1" d="M 301.535156 197.714844 C 301.375 197.894531 301.273438 198.011719 301.09375 198.253906 C 300.636719 198.855469 300.394531 199.054688 300.175781 199.054688 C 299.875 199.054688 299.695312 198.792969 299.554688 198.234375 C 299.515625 198.074219 299.496094 197.953125 299.476562 197.894531 C 298.976562 195.871094 298.757812 194.953125 298.757812 194.652344 C 299.636719 193.109375 300.355469 192.230469 300.714844 192.230469 C 300.835938 192.230469 300.996094 192.289062 301.195312 192.390625 C 301.433594 192.53125 301.574219 192.570312 301.734375 192.570312 C 302.15625 192.570312 302.433594 192.269531 302.433594 191.851562 C 302.433594 191.429688 302.09375 191.109375 301.613281 191.109375 C 300.734375 191.109375 299.976562 191.832031 298.597656 193.972656 L 298.375 192.871094 C 298.097656 191.511719 297.878906 191.109375 297.335938 191.109375 C 296.898438 191.109375 296.21875 191.289062 295 191.691406 L 294.777344 191.769531 L 294.859375 192.070312 C 295.617188 191.890625 295.796875 191.851562 295.976562 191.851562 C 296.476562 191.851562 296.597656 192.03125 296.878906 193.230469 L 297.457031 195.691406 L 295.816406 198.035156 C 295.417969 198.632812 295.019531 198.992188 294.796875 198.992188 C 294.679688 198.992188 294.480469 198.933594 294.277344 198.8125 C 294.019531 198.671875 293.800781 198.613281 293.640625 198.613281 C 293.257812 198.613281 292.960938 198.914062 292.960938 199.3125 C 292.960938 199.832031 293.359375 200.152344 293.960938 200.152344 C 294.578125 200.152344 294.820312 199.972656 295.816406 198.753906 C 296.359375 198.113281 296.777344 197.574219 297.617188 196.414062 L 298.214844 198.8125 C 298.476562 199.832031 298.738281 200.152344 299.375 200.152344 C 300.136719 200.152344 300.65625 199.671875 301.816406 197.875 Z M 301.535156 197.714844 "/>
<path fill-rule="nonzero" fill="rgb(0%, 0%, 0%)" fill-opacity="1" d="M 245.800781 191.929688 C 246.058594 191.871094 246.199219 191.851562 246.417969 191.851562 C 247.558594 191.851562 247.859375 192.351562 248.777344 195.792969 C 249.117188 197.09375 249.597656 199.4375 249.597656 199.777344 C 249.597656 200.097656 249.476562 200.417969 249.175781 200.777344 C 248.558594 201.597656 248.15625 202.121094 247.9375 202.359375 C 247.519531 202.800781 247.277344 202.960938 247.019531 202.960938 C 246.898438 202.960938 246.757812 202.898438 246.539062 202.738281 C 246.238281 202.5 246.019531 202.398438 245.800781 202.398438 C 245.359375 202.398438 245.019531 202.738281 245.019531 203.179688 C 245.019531 203.679688 245.460938 204.058594 246.039062 204.058594 C 247.320312 204.058594 249.9375 201.058594 252.09375 197.09375 C 253.453125 194.632812 254.015625 193.191406 254.015625 192.210938 C 254.015625 191.609375 253.515625 191.109375 252.914062 191.109375 C 252.457031 191.109375 252.136719 191.410156 252.136719 191.851562 C 252.136719 192.152344 252.296875 192.371094 252.695312 192.632812 C 253.074219 192.851562 253.214844 193.03125 253.214844 193.3125 C 253.214844 194.113281 252.476562 195.675781 250.777344 198.496094 L 250.375 196.175781 C 250.078125 194.414062 248.957031 191.109375 248.65625 191.109375 L 248.578125 191.109375 C 248.558594 191.128906 248.476562 191.128906 248.398438 191.128906 C 248.21875 191.152344 247.5 191.269531 246.4375 191.472656 C 246.339844 191.492188 246.078125 191.550781 245.800781 191.589844 Z M 245.800781 191.929688 "/>
<path fill-rule="nonzero" fill="rgb(0%, 0%, 0%)" fill-opacity="1" d="M 270.671875 192.09375 L 260.121094 192.09375 L 260.121094 193.195312 L 270.671875 193.195312 L 270.671875 192.09375 M 270.671875 195.980469 L 260.121094 195.980469 L 260.121094 197.082031 L 270.671875 197.082031 Z M 270.671875 195.980469 "/>
<path fill-rule="nonzero" fill="rgb(0%, 0%, 0%)" fill-opacity="1" d="M 112.359375 17.738281 C 112.617188 17.675781 112.753906 17.65625 112.972656 17.65625 C 114.105469 17.65625 114.40625 18.15625 115.320312 21.578125 C 115.65625 22.871094 116.132812 25.199219 116.132812 25.539062 C 116.132812 25.855469 116.015625 26.175781 115.714844 26.535156 C 115.101562 27.347656 114.703125 27.867188 114.484375 28.105469 C 114.066406 28.542969 113.828125 28.703125 113.570312 28.703125 C 113.449219 28.703125 113.3125 28.644531 113.09375 28.484375 C 112.792969 28.246094 112.574219 28.144531 112.359375 28.144531 C 111.921875 28.144531 111.582031 28.484375 111.582031 28.921875 C 111.582031 29.417969 112.019531 29.796875 112.597656 29.796875 C 113.867188 29.796875 116.472656 26.8125 118.617188 22.871094 C 119.96875 20.421875 120.527344 18.992188 120.527344 18.015625 C 120.527344 17.417969 120.027344 16.921875 119.433594 16.921875 C 118.976562 16.921875 118.65625 17.21875 118.65625 17.65625 C 118.65625 17.957031 118.816406 18.175781 119.214844 18.433594 C 119.59375 18.652344 119.730469 18.832031 119.730469 19.109375 C 119.730469 19.90625 118.996094 21.457031 117.304688 24.265625 L 116.910156 21.957031 C 116.609375 20.203125 115.496094 16.921875 115.199219 16.921875 L 115.121094 16.921875 C 115.101562 16.941406 115.019531 16.941406 114.941406 16.941406 C 114.761719 16.960938 114.046875 17.082031 112.992188 17.277344 C 112.894531 17.300781 112.636719 17.359375 112.359375 17.398438 Z M 112.359375 17.738281 "/>
</svg>
