<?xml version="1.0" encoding="UTF-8"?>
<svg xmlns="http://www.w3.org/2000/svg" xmlns:xlink="http://www.w3.org/1999/xlink" width="378.459991" height="300" viewBox="0 0 378.459991 300">
<defs>
<clipPath id="clip-0">
<path clip-rule="nonzero" d="M 87.738281 118 L 98.78125 118 L 98.78125 120 L 87.738281 120 Z M 87.738281 118 "/>
</clipPath>
<clipPath id="clip-1">
<path clip-rule="nonzero" d="M 248.058594 189 L 259 189 L 259 195 L 248.058594 195 Z M 248.058594 189 "/>
</clipPath>
</defs>
<path fill="none" stroke-width="6" stroke-linecap="round" stroke-linejoin="round" stroke="rgb(0%, 0%, 0%)" stroke-opacity="1" stroke-miterlimit="4" d="M 1389.002005 3436.665421 L 1387.99289 4559.663493 " transform="matrix(0.24, 0, 0, -0.24, -215.380005, 1114.619995)"/>
<path fill="none" stroke-width="6" stroke-linecap="round" stroke-linejoin="round" stroke="rgb(0%, 0%, 0%)" stroke-opacity="1" stroke-miterlimit="4" d="M 1421.000703 4493.664143 L 1387.99289 4558.670654 L 1355.994191 4493.664143 " transform="matrix(0.24, 0, 0, -0.24, -215.380005, 1114.619995)"/>
<path fill="none" stroke-width="6" stroke-linecap="round" stroke-linejoin="round" stroke="rgb(0%, 0%, 0%)" stroke-opacity="1" stroke-miterlimit="4" d="M 939.994833 4363.667395 L 2216.003976 4363.667395 " transform="matrix(0.24, 0, 0, -0.24, -215.380005, 1114.619995)"/>
<path fill="none" stroke-width="6" stroke-linecap="round" stroke-linejoin="round" stroke="rgb(0%, 0%, 0%)" stroke-opacity="1" stroke-miterlimit="4" d="M 2150.997464 4330.675858 L 2216.003976 4362.674556 L 2150.997464 4395.666094 " transform="matrix(0.24, 0, 0, -0.24, -215.380005, 1114.619995)"/>
<path fill-rule="nonzero" fill="rgb(0%, 0%, 0%)" fill-opacity="1" d="M 320.621094 84.800781 C 320.464844 84.980469 320.363281 85.101562 320.183594 85.339844 C 319.726562 85.9375 319.488281 86.136719 319.269531 86.136719 C 318.96875 86.136719 318.792969 85.878906 318.652344 85.320312 C 318.613281 85.160156 318.59375 85.039062 318.570312 84.980469 C 318.074219 82.96875 317.855469 82.050781 317.855469 81.753906 C 318.730469 80.21875 319.449219 79.339844 319.804688 79.339844 C 319.925781 79.339844 320.085938 79.402344 320.285156 79.5 C 320.523438 79.640625 320.664062 79.679688 320.820312 79.679688 C 321.238281 79.679688 321.519531 79.382812 321.519531 78.960938 C 321.519531 78.542969 321.179688 78.226562 320.703125 78.226562 C 319.828125 78.226562 319.070312 78.941406 317.695312 81.074219 L 317.476562 79.980469 C 317.199219 78.625 316.980469 78.226562 316.441406 78.226562 C 316.003906 78.226562 315.328125 78.40625 314.113281 78.804688 L 313.894531 78.882812 L 313.972656 79.183594 C 314.730469 79.003906 314.910156 78.960938 315.089844 78.960938 C 315.585938 78.960938 315.707031 79.140625 315.984375 80.335938 L 316.5625 82.789062 L 314.929688 85.121094 C 314.53125 85.71875 314.132812 86.078125 313.914062 86.078125 C 313.792969 86.078125 313.59375 86.015625 313.394531 85.898438 C 313.136719 85.757812 312.917969 85.699219 312.757812 85.699219 C 312.378906 85.699219 312.082031 85.996094 312.082031 86.394531 C 312.082031 86.914062 312.480469 87.230469 313.078125 87.230469 C 313.695312 87.230469 313.933594 87.054688 314.929688 85.839844 C 315.464844 85.199219 315.882812 84.664062 316.71875 83.507812 L 317.316406 85.898438 C 317.578125 86.914062 317.835938 87.230469 318.472656 87.230469 C 319.230469 87.230469 319.746094 86.753906 320.902344 84.960938 Z M 320.621094 84.800781 "/>
<path fill-rule="nonzero" fill="rgb(0%, 0%, 0%)" fill-opacity="1" d="M 107.253906 75.191406 C 105.582031 75.191406 103.792969 75.988281 102.199219 77.441406 C 100.1875 79.292969 99.015625 81.722656 99.015625 84.050781 C 99.015625 86.835938 100.824219 88.808594 103.355469 88.808594 C 107.496094 88.808594 111.515625 84.628906 111.734375 80.128906 C 111.875 77.320312 109.921875 75.191406 107.253906 75.191406 M 107.078125 75.847656 C 108.648438 75.847656 109.644531 77.003906 109.644531 78.875 C 109.644531 81.023438 108.707031 83.929688 107.414062 85.800781 C 106.320312 87.375 105.085938 88.152344 103.691406 88.152344 C 102.019531 88.152344 101.105469 86.9375 101.105469 84.785156 C 101.105469 82.914062 102.097656 79.949219 103.292969 78.21875 C 104.410156 76.605469 105.625 75.847656 107.078125 75.847656 Z M 107.078125 75.847656 "/>
<path fill="none" stroke-width="6" stroke-linecap="round" stroke-linejoin="round" stroke="rgb(0%, 0%, 0%)" stroke-opacity="1" stroke-miterlimit="4" d="M 1137.000046 3510.672584 C 1155.994187 3567.671283 1214.994839 3751.671939 1255.00135 3853.673894 C 1293.998747 3954.666735 1332.996144 4041.662179 1373.002655 4117.671296 C 1412.000052 4193.664136 1450.997449 4256.668695 1491.00396 4307.67781 C 1530.994195 4358.67065 1573.00266 4398.677161 1612.000056 4424.67 C 1650.997453 4449.670001 1687.992897 4458.670652 1727.006569 4459.663491 C 1766.003966 4459.663491 1807.003316 4450.66284 1846.000713 4425.662839 C 1886.007224 4400.662838 1923.995506 4359.663489 1962.992903 4307.67781 C 2002.006576 4256.668695 2041.996811 4193.664136 2080.994207 4117.671296 C 2120.00788 4042.671294 2159.998115 3956.668688 2198.995512 3854.666732 C 2237.992909 3753.673892 2291.996816 3582.677794 2316.996817 3510.672584 " transform="matrix(0.24, 0, 0, -0.24, -215.380005, 1114.619995)"/>
<path fill-rule="nonzero" fill="rgb(0%, 0%, 0%)" fill-opacity="1" d="M 104.617188 111.128906 L 101.007812 112.957031 L 101.007812 113.238281 C 101.246094 113.136719 101.46875 113.058594 101.546875 113.015625 C 101.910156 112.875 102.25 112.796875 102.449219 112.796875 C 102.871094 112.796875 103.054688 113.097656 103.054688 113.738281 L 103.054688 122.832031 C 103.054688 123.496094 102.890625 123.957031 102.570312 124.136719 C 102.269531 124.316406 101.988281 124.378906 101.148438 124.398438 L 101.148438 124.699219 L 106.683594 124.699219 L 106.683594 124.398438 C 105.097656 124.378906 104.777344 124.175781 104.777344 123.214844 L 104.777344 111.171875 Z M 104.617188 111.128906 "/>
<g clip-path="url(#clip-0)">
<path fill-rule="nonzero" fill="rgb(0%, 0%, 0%)" fill-opacity="1" d="M 87.960938 118.796875 L 87.960938 119.902344 L 98.472656 119.902344 L 98.472656 118.796875 Z M 87.960938 118.796875 "/>
</g>
<path fill-rule="nonzero" fill="rgb(0%, 0%, 0%)" fill-opacity="1" d="M 155.453125 82.914062 L 151.871094 84.726562 L 151.871094 85.003906 C 152.109375 84.90625 152.328125 84.824219 152.40625 84.785156 C 152.765625 84.644531 153.105469 84.566406 153.304688 84.566406 C 153.722656 84.566406 153.898438 84.863281 153.898438 85.503906 L 153.898438 94.527344 C 153.898438 95.183594 153.742188 95.640625 153.421875 95.820312 C 153.125 96 152.84375 96.058594 152.007812 96.078125 L 152.007812 96.378906 L 157.503906 96.378906 L 157.503906 96.078125 C 155.929688 96.058594 155.613281 95.859375 155.613281 94.90625 L 155.613281 82.953125 Z M 155.453125 82.914062 "/>
<path fill-rule="nonzero" fill="rgb(0%, 0%, 0%)" fill-opacity="1" d="M 243.425781 90.289062 C 244.601562 90.289062 245.058594 90.328125 245.535156 90.507812 C 246.769531 90.945312 247.546875 92.082031 247.546875 93.457031 C 247.546875 95.128906 246.410156 96.425781 244.9375 96.425781 C 244.402344 96.425781 244.003906 96.285156 243.265625 95.808594 C 242.667969 95.449219 242.332031 95.308594 241.992188 95.308594 C 241.535156 95.308594 241.234375 95.589844 241.234375 96.007812 C 241.234375 96.703125 242.09375 97.140625 243.484375 97.140625 C 245.019531 97.140625 246.589844 96.625 247.527344 95.808594 C 248.460938 94.992188 248.980469 93.835938 248.980469 92.5 C 248.980469 91.484375 248.660156 90.546875 248.085938 89.929688 C 247.6875 89.492188 247.308594 89.253906 246.429688 88.875 C 247.804688 87.9375 248.304688 87.203125 248.304688 86.125 C 248.304688 84.511719 247.027344 83.398438 245.199219 83.398438 C 244.203125 83.398438 243.324219 83.734375 242.609375 84.375 C 242.011719 84.910156 241.714844 85.429688 241.277344 86.625 L 241.574219 86.703125 C 242.390625 85.25 243.285156 84.59375 244.539062 84.59375 C 245.835938 84.59375 246.730469 85.46875 246.730469 86.722656 C 246.730469 87.441406 246.429688 88.15625 245.933594 88.65625 C 245.335938 89.253906 244.78125 89.550781 243.425781 90.03125 Z M 243.425781 90.289062 "/>
<path fill="none" stroke-width="6" stroke-linecap="round" stroke-linejoin="round" stroke="rgb(0%, 0%, 0%)" stroke-opacity="1" stroke-miterlimit="4" d="M 1539.994846 4385.672604 L 1539.994846 4337.674556 " transform="matrix(0.24, 0, 0, -0.24, -215.380005, 1114.619995)"/>
<path fill="none" stroke-width="6" stroke-linecap="round" stroke-linejoin="round" stroke="rgb(0%, 0%, 0%)" stroke-opacity="1" stroke-miterlimit="4" d="M 1916.003969 4384.663489 L 1916.003969 4336.665441 " transform="matrix(0.24, 0, 0, -0.24, -215.380005, 1114.619995)"/>
<path fill="none" stroke-width="6" stroke-linecap="round" stroke-linejoin="round" stroke="rgb(0%, 0%, 0%)" stroke-opacity="1" stroke-miterlimit="4" d="M 1364.002004 4153.673901 L 1416.996797 4153.673901 " transform="matrix(0.24, 0, 0, -0.24, -215.380005, 1114.619995)"/>
<path fill-rule="nonzero" fill="rgb(0%, 0%, 0%)" fill-opacity="1" d="M 292.496094 201.179688 C 293.964844 200.222656 294.5625 199.707031 295.296875 198.792969 C 296.707031 197.0625 297.402344 195.074219 297.402344 192.746094 C 297.402344 190.203125 296.667969 188.273438 294.917969 186.246094 C 294.105469 185.289062 293.585938 184.851562 292.554688 184.214844 L 292.316406 184.535156 C 293.90625 185.785156 294.441406 186.484375 295 187.972656 C 295.476562 189.308594 295.695312 190.816406 295.695312 192.804688 C 295.695312 194.875 295.4375 196.523438 294.898438 197.738281 C 294.34375 198.992188 293.746094 199.707031 292.316406 200.859375 Z M 292.496094 201.179688 "/>
<path fill-rule="nonzero" fill="rgb(0%, 0%, 0%)" fill-opacity="1" d="M 280.324219 184.214844 C 278.851562 185.171875 278.253906 185.6875 277.519531 186.601562 C 276.109375 188.332031 275.414062 190.320312 275.414062 192.648438 C 275.414062 195.171875 276.148438 197.121094 277.898438 199.148438 C 278.710938 200.105469 279.230469 200.542969 280.261719 201.179688 L 280.5 200.859375 C 278.910156 199.605469 278.355469 198.910156 277.816406 197.417969 C 277.339844 196.085938 277.121094 194.578125 277.121094 192.585938 C 277.121094 190.5 277.382812 188.871094 277.917969 187.636719 C 278.472656 186.402344 279.070312 185.6875 280.5 184.535156 Z M 280.324219 184.214844 "/>
<path fill-rule="nonzero" fill="rgb(0%, 0%, 0%)" fill-opacity="1" d="M 273 189.949219 L 273 189.171875 L 271.46875 189.171875 C 271.074219 189.171875 270.773438 189.109375 270.378906 188.96875 L 269.941406 188.808594 C 269.402344 188.613281 268.867188 188.511719 268.351562 188.511719 C 266.5 188.511719 265.03125 189.949219 265.03125 191.757812 C 265.03125 193.007812 265.566406 193.765625 266.878906 194.421875 C 266.5 194.777344 266.144531 195.117188 266.023438 195.214844 C 265.367188 195.792969 265.109375 196.191406 265.109375 196.589844 C 265.109375 197.003906 265.347656 197.246094 266.164062 197.640625 C 264.753906 198.675781 264.214844 199.332031 264.214844 200.066406 C 264.214844 201.121094 265.765625 201.996094 267.652344 201.996094 C 269.144531 201.996094 270.695312 201.480469 271.726562 200.644531 C 272.484375 200.027344 272.820312 199.390625 272.820312 198.636719 C 272.820312 197.402344 271.886719 196.566406 270.417969 196.507812 L 267.851562 196.390625 C 266.800781 196.347656 266.304688 196.171875 266.304688 195.851562 C 266.304688 195.453125 266.957031 194.757812 267.496094 194.597656 C 267.675781 194.621094 267.8125 194.640625 267.871094 194.640625 C 268.25 194.679688 268.507812 194.699219 268.628906 194.699219 C 269.363281 194.699219 270.160156 194.402344 270.773438 193.863281 C 271.429688 193.308594 271.726562 192.613281 271.726562 191.617188 C 271.726562 191.042969 271.628906 190.585938 271.351562 189.949219 L 273 189.949219 M 266.582031 197.703125 C 267.238281 197.839844 268.828125 197.960938 269.800781 197.960938 C 271.609375 197.960938 272.265625 198.21875 272.265625 198.933594 C 272.265625 200.085938 270.753906 200.863281 268.507812 200.863281 C 266.761719 200.863281 265.605469 200.285156 265.605469 199.410156 C 265.605469 198.953125 265.746094 198.695312 266.582031 197.703125 M 266.679688 190.941406 C 266.679688 189.769531 267.238281 189.070312 268.152344 189.070312 C 268.765625 189.070312 269.285156 189.410156 269.601562 190.007812 C 269.960938 190.703125 270.199219 191.617188 270.199219 192.394531 C 270.199219 193.507812 269.621094 194.203125 268.707031 194.203125 C 267.515625 194.203125 266.679688 192.910156 266.679688 191 Z M 266.679688 190.941406 "/>
<path fill-rule="nonzero" fill="rgb(0%, 0%, 0%)" fill-opacity="1" d="M 290.367188 195.445312 C 290.210938 195.625 290.109375 195.742188 289.933594 195.984375 C 289.476562 196.578125 289.234375 196.777344 289.019531 196.777344 C 288.71875 196.777344 288.539062 196.519531 288.402344 195.960938 C 288.363281 195.804688 288.339844 195.683594 288.320312 195.625 C 287.824219 193.617188 287.605469 192.699219 287.605469 192.402344 C 288.480469 190.871094 289.195312 189.996094 289.554688 189.996094 C 289.671875 189.996094 289.832031 190.054688 290.03125 190.152344 C 290.269531 190.292969 290.410156 190.332031 290.566406 190.332031 C 290.984375 190.332031 291.261719 190.035156 291.261719 189.617188 C 291.261719 189.199219 290.925781 188.882812 290.449219 188.882812 C 289.574219 188.882812 288.820312 189.597656 287.449219 191.726562 L 287.230469 190.632812 C 286.949219 189.277344 286.730469 188.882812 286.195312 188.882812 C 285.757812 188.882812 285.082031 189.058594 283.871094 189.457031 L 283.652344 189.539062 L 283.730469 189.835938 C 284.484375 189.65625 284.664062 189.617188 284.84375 189.617188 C 285.339844 189.617188 285.460938 189.796875 285.738281 190.988281 L 286.316406 193.4375 L 284.683594 195.765625 C 284.289062 196.359375 283.890625 196.71875 283.671875 196.71875 C 283.550781 196.71875 283.355469 196.660156 283.15625 196.539062 C 282.894531 196.402344 282.679688 196.339844 282.519531 196.339844 C 282.140625 196.339844 281.84375 196.640625 281.84375 197.035156 C 281.84375 197.554688 282.242188 197.871094 282.835938 197.871094 C 283.453125 197.871094 283.691406 197.691406 284.683594 196.480469 C 285.222656 195.84375 285.640625 195.304688 286.472656 194.152344 L 287.070312 196.539062 C 287.328125 197.554688 287.585938 197.871094 288.222656 197.871094 C 288.976562 197.871094 289.496094 197.394531 290.648438 195.605469 Z M 290.367188 195.445312 "/>
<path fill-rule="nonzero" fill="rgb(0%, 0%, 0%)" fill-opacity="1" d="M 233.957031 189.695312 C 234.214844 189.636719 234.355469 189.617188 234.574219 189.617188 C 235.707031 189.617188 236.003906 190.113281 236.917969 193.539062 C 237.257812 194.832031 237.734375 197.160156 237.734375 197.5 C 237.734375 197.816406 237.613281 198.136719 237.316406 198.492188 C 236.699219 199.308594 236.304688 199.828125 236.085938 200.066406 C 235.667969 200.503906 235.429688 200.664062 235.171875 200.664062 C 235.050781 200.664062 234.910156 200.601562 234.691406 200.445312 C 234.394531 200.203125 234.175781 200.105469 233.957031 200.105469 C 233.519531 200.105469 233.183594 200.445312 233.183594 200.878906 C 233.183594 201.378906 233.621094 201.753906 234.195312 201.753906 C 235.46875 201.753906 238.070312 198.773438 240.21875 194.832031 C 241.570312 192.382812 242.125 190.949219 242.125 189.976562 C 242.125 189.378906 241.628906 188.882812 241.03125 188.882812 C 240.574219 188.882812 240.257812 189.179688 240.257812 189.617188 C 240.257812 189.914062 240.417969 190.132812 240.816406 190.394531 C 241.191406 190.613281 241.332031 190.792969 241.332031 191.070312 C 241.332031 191.867188 240.597656 193.417969 238.90625 196.222656 L 238.507812 193.914062 C 238.210938 192.164062 237.097656 188.882812 236.800781 188.882812 L 236.71875 188.882812 C 236.699219 188.902344 236.621094 188.902344 236.542969 188.902344 C 236.363281 188.921875 235.648438 189.039062 234.59375 189.238281 C 234.496094 189.257812 234.234375 189.320312 233.957031 189.359375 Z M 233.957031 189.695312 "/>
<g clip-path="url(#clip-1)">
<path fill-rule="nonzero" fill="rgb(0%, 0%, 0%)" fill-opacity="1" d="M 258.730469 189.882812 L 248.277344 189.882812 L 248.277344 190.976562 L 258.730469 190.976562 L 258.730469 189.882812 M 258.730469 193.734375 L 248.277344 193.734375 L 248.277344 194.828125 L 258.730469 194.828125 Z M 258.730469 193.734375 "/>
</g>
<path fill-rule="nonzero" fill="rgb(0%, 0%, 0%)" fill-opacity="1" d="M 100.519531 17.378906 C 100.777344 17.316406 100.914062 17.296875 101.132812 17.296875 C 102.265625 17.296875 102.566406 17.792969 103.480469 21.21875 C 103.816406 22.511719 104.292969 24.839844 104.292969 25.179688 C 104.292969 25.496094 104.175781 25.816406 103.875 26.171875 C 103.261719 26.988281 102.863281 27.507812 102.644531 27.746094 C 102.226562 28.183594 101.988281 28.34375 101.730469 28.34375 C 101.609375 28.34375 101.472656 28.28125 101.253906 28.125 C 100.953125 27.886719 100.734375 27.785156 100.519531 27.785156 C 100.082031 27.785156 99.742188 28.125 99.742188 28.5625 C 99.742188 29.058594 100.179688 29.4375 100.757812 29.4375 C 102.027344 29.4375 104.632812 26.453125 106.777344 22.511719 C 108.128906 20.0625 108.6875 18.628906 108.6875 17.65625 C 108.6875 17.058594 108.1875 16.5625 107.59375 16.5625 C 107.136719 16.5625 106.816406 16.859375 106.816406 17.296875 C 106.816406 17.597656 106.976562 17.816406 107.375 18.074219 C 107.753906 18.292969 107.890625 18.472656 107.890625 18.75 C 107.890625 19.546875 107.15625 21.097656 105.464844 23.90625 L 105.070312 21.597656 C 104.769531 19.84375 103.65625 16.5625 103.359375 16.5625 L 103.28125 16.5625 C 103.261719 16.582031 103.179688 16.582031 103.101562 16.582031 C 102.921875 16.601562 102.207031 16.71875 101.152344 16.917969 C 101.054688 16.9375 100.796875 17 100.519531 17.039062 Z M 100.519531 17.378906 "/>
</svg>
