<?xml version="1.0" encoding="UTF-8"?>
<svg xmlns="http://www.w3.org/2000/svg" xmlns:xlink="http://www.w3.org/1999/xlink" width="396.940002" height="298.459991" viewBox="0 0 396.940002 298.459991">
<defs>
<clipPath id="clip-0">
<path clip-rule="nonzero" d="M 93.21875 121 L 104 121 L 104 123 L 93.21875 123 Z M 93.21875 121 "/>
</clipPath>
<clipPath id="clip-1">
<path clip-rule="nonzero" d="M 155.378906 85 L 165 85 L 165 100 L 155.378906 100 Z M 155.378906 85 "/>
</clipPath>
<clipPath id="clip-2">
<path clip-rule="nonzero" d="M 253.539062 192 L 264.578125 192 L 264.578125 198 L 253.539062 198 Z M 253.539062 192 "/>
</clipPath>
</defs>
<path fill="none" stroke-width="6" stroke-linecap="round" stroke-linejoin="round" stroke="rgb(0%, 0%, 0%)" stroke-opacity="1" stroke-miterlimit="4" d="M 3399.99677 3437.666143 L 3399.003931 4559.671377 " transform="matrix(0.24, 0, 0, -0.24, -692.299988, 1117.700012)"/>
<path fill="none" stroke-width="6" stroke-linecap="round" stroke-linejoin="round" stroke="rgb(0%, 0%, 0%)" stroke-opacity="1" stroke-miterlimit="4" d="M 3431.995469 4493.672026 L 3399.99677 4558.662262 L 3367.005233 4493.672026 " transform="matrix(0.24, 0, 0, -0.24, -692.299988, 1117.700012)"/>
<path fill="none" stroke-width="6" stroke-linecap="round" stroke-linejoin="round" stroke="rgb(0%, 0%, 0%)" stroke-opacity="1" stroke-miterlimit="4" d="M 2951.005874 4364.668117 L 4226.998742 4364.668117 " transform="matrix(0.24, 0, 0, -0.24, -692.299988, 1117.700012)"/>
<path fill="none" stroke-width="6" stroke-linecap="round" stroke-linejoin="round" stroke="rgb(0%, 0%, 0%)" stroke-opacity="1" stroke-miterlimit="4" d="M 4161.99223 4331.67658 L 4228.007856 4364.668117 L 4161.99223 4396.666816 " transform="matrix(0.24, 0, 0, -0.24, -692.299988, 1117.700012)"/>
<path fill-rule="nonzero" fill="rgb(0%, 0%, 0%)" fill-opacity="1" d="M 326.328125 87.644531 C 326.171875 87.824219 326.070312 87.945312 325.890625 88.183594 C 325.433594 88.78125 325.195312 88.980469 324.976562 88.980469 C 324.679688 88.980469 324.5 88.71875 324.363281 88.164062 C 324.320312 88.003906 324.300781 87.882812 324.28125 87.824219 C 323.785156 85.816406 323.566406 84.898438 323.566406 84.601562 C 324.441406 83.070312 325.15625 82.195312 325.515625 82.195312 C 325.632812 82.195312 325.792969 82.253906 325.992188 82.355469 C 326.230469 82.492188 326.367188 82.53125 326.527344 82.53125 C 326.945312 82.53125 327.222656 82.234375 327.222656 81.816406 C 327.222656 81.398438 326.886719 81.082031 326.410156 81.082031 C 325.535156 81.082031 324.777344 81.796875 323.40625 83.925781 L 323.1875 82.832031 C 322.910156 81.480469 322.691406 81.082031 322.15625 81.082031 C 321.71875 81.082031 321.042969 81.261719 319.832031 81.65625 L 319.613281 81.738281 L 319.691406 82.035156 C 320.445312 81.855469 320.625 81.816406 320.804688 81.816406 C 321.300781 81.816406 321.421875 81.996094 321.699219 83.1875 L 322.273438 85.636719 L 320.644531 87.964844 C 320.246094 88.5625 319.851562 88.917969 319.632812 88.917969 C 319.511719 88.917969 319.3125 88.859375 319.113281 88.738281 C 318.855469 88.601562 318.636719 88.539062 318.476562 88.539062 C 318.101562 88.539062 317.804688 88.839844 317.804688 89.238281 C 317.804688 89.753906 318.199219 90.070312 318.796875 90.070312 C 319.414062 90.070312 319.652344 89.894531 320.644531 88.679688 C 321.179688 88.042969 321.597656 87.507812 322.433594 86.351562 L 323.03125 88.738281 C 323.289062 89.753906 323.546875 90.070312 324.183594 90.070312 C 324.9375 90.070312 325.453125 89.59375 326.605469 87.804688 Z M 326.328125 87.644531 "/>
<path fill-rule="nonzero" fill="rgb(0%, 0%, 0%)" fill-opacity="1" d="M 112.960938 78.292969 C 111.289062 78.292969 109.5 79.089844 107.910156 80.539062 C 105.90625 82.390625 104.730469 84.8125 104.730469 87.136719 C 104.730469 89.921875 106.539062 91.886719 109.066406 91.886719 C 113.199219 91.886719 117.214844 87.714844 117.433594 83.222656 C 117.570312 80.421875 115.625 78.292969 112.960938 78.292969 M 112.78125 78.949219 C 114.351562 78.949219 115.34375 80.105469 115.34375 81.972656 C 115.34375 84.117188 114.410156 87.019531 113.117188 88.886719 C 112.027344 90.457031 110.792969 91.230469 109.402344 91.230469 C 107.734375 91.230469 106.820312 90.019531 106.820312 87.875 C 106.820312 86.003906 107.8125 83.042969 109.003906 81.316406 C 110.117188 79.707031 111.332031 78.949219 112.78125 78.949219 Z M 112.78125 78.949219 "/>
<path fill="none" stroke-width="6" stroke-linecap="round" stroke-linejoin="round" stroke="rgb(0%, 0%, 0%)" stroke-opacity="1" stroke-miterlimit="4" d="M 3147.001973 3511.673306 C 3167.005228 3568.672006 3226.005881 3752.672661 3265.996116 3853.665502 C 3304.993513 3955.667457 3344.007185 4042.662902 3383.997421 4118.672018 C 3422.994817 4194.664858 3461.992214 4257.669417 3501.998725 4308.662257 C 3540.996122 4359.671372 3583.997425 4399.677884 3622.994822 4424.677884 C 3661.992218 4449.677885 3699.003938 4459.671375 3738.001335 4459.671375 C 3776.998731 4460.664213 3817.998081 4451.663562 3856.995478 4426.663561 C 3895.992875 4401.663561 3935.006548 4359.671372 3974.003944 4308.662257 C 4013.001341 4257.669417 4051.998738 4194.664858 4092.005249 4118.672018 C 4131.002646 4042.662902 4170.992881 3956.676572 4210.006554 3855.667455 C 4249.00395 3754.674614 4303.007858 3582.669402 4328.007858 3511.673306 " transform="matrix(0.24, 0, 0, -0.24, -692.299988, 1117.700012)"/>
<path fill-rule="nonzero" fill="rgb(0%, 0%, 0%)" fill-opacity="1" d="M 110.097656 113.96875 L 106.484375 115.796875 L 106.484375 116.078125 C 106.726562 115.976562 106.949219 115.898438 107.027344 115.855469 C 107.390625 115.714844 107.730469 115.636719 107.929688 115.636719 C 108.351562 115.636719 108.53125 115.9375 108.53125 116.578125 L 108.53125 125.671875 C 108.53125 126.335938 108.371094 126.796875 108.050781 126.976562 C 107.75 127.15625 107.46875 127.21875 106.625 127.238281 L 106.625 127.539062 L 112.164062 127.539062 L 112.164062 127.238281 C 110.578125 127.21875 110.257812 127.015625 110.257812 126.054688 L 110.257812 114.011719 Z M 110.097656 113.96875 "/>
<g clip-path="url(#clip-0)">
<path fill-rule="nonzero" fill="rgb(0%, 0%, 0%)" fill-opacity="1" d="M 93.441406 121.636719 L 93.441406 122.742188 L 103.953125 122.742188 L 103.953125 121.636719 Z M 93.441406 121.636719 "/>
</g>
<g clip-path="url(#clip-1)">
<path fill-rule="nonzero" fill="rgb(0%, 0%, 0%)" fill-opacity="1" d="M 164.820312 96.496094 L 164.5625 96.394531 C 163.824219 97.527344 163.566406 97.707031 162.671875 97.707031 L 157.921875 97.707031 L 161.261719 94.207031 C 163.03125 92.359375 163.804688 90.851562 163.804688 89.300781 C 163.804688 87.3125 162.195312 85.78125 160.128906 85.78125 C 159.035156 85.78125 158.003906 86.21875 157.265625 87.011719 C 156.632812 87.6875 156.332031 88.324219 155.996094 89.738281 L 156.414062 89.835938 C 157.207031 87.886719 157.921875 87.253906 159.292969 87.253906 C 160.964844 87.253906 162.097656 88.386719 162.097656 90.054688 C 162.097656 91.605469 161.183594 93.453125 159.511719 95.222656 L 155.976562 98.980469 L 155.976562 99.21875 L 163.726562 99.21875 Z M 164.820312 96.496094 "/>
</g>
<path fill-rule="nonzero" fill="rgb(0%, 0%, 0%)" fill-opacity="1" d="M 253.761719 85.121094 C 251.496094 85.320312 250.34375 85.699219 248.894531 86.714844 C 246.746094 88.246094 245.574219 90.511719 245.574219 93.179688 C 245.574219 94.910156 246.113281 96.664062 246.964844 97.65625 C 247.722656 98.535156 248.796875 99.011719 250.027344 99.011719 C 252.492188 99.011719 254.199219 97.121094 254.199219 94.375 C 254.199219 91.824219 252.75 90.214844 250.464844 90.214844 C 249.589844 90.214844 249.171875 90.351562 247.921875 91.109375 C 248.457031 88.105469 250.683594 85.957031 253.804688 85.441406 L 253.761719 85.121094 M 249.710938 91.128906 C 251.417969 91.128906 252.410156 92.5625 252.410156 95.050781 C 252.410156 97.238281 251.636719 98.453125 250.246094 98.453125 C 248.496094 98.453125 247.421875 96.582031 247.421875 93.496094 C 247.421875 92.480469 247.582031 91.925781 247.980469 91.625 C 248.398438 91.308594 249.011719 91.128906 249.710938 91.128906 Z M 249.710938 91.128906 "/>
<path fill="none" stroke-width="6" stroke-linecap="round" stroke-linejoin="round" stroke="rgb(0%, 0%, 0%)" stroke-opacity="1" stroke-miterlimit="4" d="M 3551.005888 4386.673326 L 3551.005888 4338.675278 " transform="matrix(0.24, 0, 0, -0.24, -692.299988, 1117.700012)"/>
<path fill="none" stroke-width="6" stroke-linecap="round" stroke-linejoin="round" stroke="rgb(0%, 0%, 0%)" stroke-opacity="1" stroke-miterlimit="4" d="M 3926.998735 4385.664211 L 3926.998735 4337.666163 " transform="matrix(0.24, 0, 0, -0.24, -692.299988, 1117.700012)"/>
<path fill="none" stroke-width="6" stroke-linecap="round" stroke-linejoin="round" stroke="rgb(0%, 0%, 0%)" stroke-opacity="1" stroke-miterlimit="4" d="M 3374.996769 4154.674623 L 3428.007838 4154.674623 " transform="matrix(0.24, 0, 0, -0.24, -692.299988, 1117.700012)"/>
<path fill-rule="nonzero" fill="rgb(0%, 0%, 0%)" fill-opacity="1" d="M 297.976562 204.019531 C 299.445312 203.0625 300.042969 202.546875 300.777344 201.632812 C 302.1875 199.902344 302.882812 197.914062 302.882812 195.585938 C 302.882812 193.042969 302.148438 191.113281 300.398438 189.085938 C 299.585938 188.128906 299.066406 187.691406 298.035156 187.054688 L 297.796875 187.375 C 299.386719 188.625 299.921875 189.324219 300.480469 190.8125 C 300.957031 192.148438 301.175781 193.65625 301.175781 195.648438 C 301.175781 197.714844 300.914062 199.363281 300.378906 200.578125 C 299.824219 201.832031 299.226562 202.546875 297.796875 203.699219 Z M 297.976562 204.019531 "/>
<path fill-rule="nonzero" fill="rgb(0%, 0%, 0%)" fill-opacity="1" d="M 285.800781 187.054688 C 284.332031 188.011719 283.734375 188.527344 283 189.441406 C 281.589844 191.171875 280.894531 193.160156 280.894531 195.488281 C 280.894531 198.011719 281.628906 199.960938 283.378906 201.988281 C 284.191406 202.945312 284.710938 203.382812 285.742188 204.019531 L 285.980469 203.699219 C 284.390625 202.445312 283.835938 201.75 283.296875 200.261719 C 282.820312 198.925781 282.601562 197.417969 282.601562 195.429688 C 282.601562 193.339844 282.859375 191.710938 283.398438 190.476562 C 283.953125 189.242188 284.550781 188.527344 285.980469 187.375 Z M 285.800781 187.054688 "/>
<path fill-rule="nonzero" fill="rgb(0%, 0%, 0%)" fill-opacity="1" d="M 278.480469 192.789062 L 278.480469 192.011719 L 276.949219 192.011719 C 276.550781 192.011719 276.253906 191.949219 275.855469 191.808594 L 275.417969 191.652344 C 274.882812 191.453125 274.347656 191.351562 273.828125 191.351562 C 271.980469 191.351562 270.511719 192.789062 270.511719 194.597656 C 270.511719 195.847656 271.046875 196.605469 272.359375 197.261719 C 271.980469 197.617188 271.625 197.957031 271.503906 198.054688 C 270.847656 198.632812 270.589844 199.03125 270.589844 199.429688 C 270.589844 199.84375 270.828125 200.085938 271.644531 200.480469 C 270.234375 201.515625 269.695312 202.171875 269.695312 202.90625 C 269.695312 203.960938 271.246094 204.835938 273.132812 204.835938 C 274.625 204.835938 276.175781 204.320312 277.207031 203.484375 C 277.964844 202.867188 278.300781 202.230469 278.300781 201.476562 C 278.300781 200.242188 277.367188 199.40625 275.898438 199.347656 L 273.332031 199.230469 C 272.28125 199.1875 271.78125 199.011719 271.78125 198.691406 C 271.78125 198.292969 272.4375 197.597656 272.976562 197.441406 C 273.152344 197.460938 273.292969 197.480469 273.351562 197.480469 C 273.730469 197.519531 273.988281 197.539062 274.109375 197.539062 C 274.84375 197.539062 275.636719 197.242188 276.253906 196.703125 C 276.910156 196.148438 277.207031 195.453125 277.207031 194.457031 C 277.207031 193.882812 277.109375 193.425781 276.832031 192.789062 L 278.480469 192.789062 M 272.0625 200.542969 C 272.714844 200.679688 274.308594 200.800781 275.28125 200.800781 C 277.089844 200.800781 277.746094 201.058594 277.746094 201.773438 C 277.746094 202.925781 276.234375 203.703125 273.988281 203.703125 C 272.238281 203.703125 271.085938 203.125 271.085938 202.25 C 271.085938 201.792969 271.226562 201.535156 272.0625 200.542969 M 272.160156 193.78125 C 272.160156 192.609375 272.714844 191.910156 273.632812 191.910156 C 274.246094 191.910156 274.765625 192.25 275.082031 192.847656 C 275.4375 193.542969 275.679688 194.457031 275.679688 195.234375 C 275.679688 196.347656 275.101562 197.042969 274.1875 197.042969 C 272.996094 197.042969 272.160156 195.75 272.160156 193.839844 Z M 272.160156 193.78125 "/>
<path fill-rule="nonzero" fill="rgb(0%, 0%, 0%)" fill-opacity="1" d="M 295.847656 198.285156 C 295.691406 198.464844 295.589844 198.585938 295.410156 198.824219 C 294.953125 199.417969 294.714844 199.617188 294.496094 199.617188 C 294.199219 199.617188 294.019531 199.359375 293.882812 198.804688 C 293.839844 198.644531 293.820312 198.523438 293.800781 198.464844 C 293.304688 196.457031 293.085938 195.539062 293.085938 195.242188 C 293.960938 193.710938 294.675781 192.835938 295.035156 192.835938 C 295.152344 192.835938 295.3125 192.894531 295.511719 192.992188 C 295.75 193.132812 295.886719 193.171875 296.046875 193.171875 C 296.464844 193.171875 296.742188 192.875 296.742188 192.457031 C 296.742188 192.039062 296.40625 191.722656 295.929688 191.722656 C 295.054688 191.722656 294.296875 192.4375 292.925781 194.566406 L 292.707031 193.472656 C 292.429688 192.117188 292.210938 191.722656 291.675781 191.722656 C 291.238281 191.722656 290.5625 191.898438 289.351562 192.296875 L 289.132812 192.378906 L 289.210938 192.675781 C 289.964844 192.496094 290.144531 192.457031 290.324219 192.457031 C 290.820312 192.457031 290.941406 192.636719 291.21875 193.828125 L 291.792969 196.277344 L 290.164062 198.605469 C 289.765625 199.199219 289.371094 199.558594 289.152344 199.558594 C 289.03125 199.558594 288.832031 199.5 288.632812 199.378906 C 288.375 199.242188 288.15625 199.179688 288 199.179688 C 287.621094 199.179688 287.324219 199.480469 287.324219 199.875 C 287.324219 200.394531 287.71875 200.710938 288.316406 200.710938 C 288.933594 200.710938 289.171875 200.535156 290.164062 199.320312 C 290.703125 198.683594 291.117188 198.148438 291.953125 196.992188 L 292.550781 199.378906 C 292.808594 200.394531 293.066406 200.710938 293.703125 200.710938 C 294.457031 200.710938 294.972656 200.234375 296.128906 198.445312 Z M 295.847656 198.285156 "/>
<path fill-rule="nonzero" fill="rgb(0%, 0%, 0%)" fill-opacity="1" d="M 239.4375 192.535156 C 239.695312 192.476562 239.835938 192.457031 240.054688 192.457031 C 241.1875 192.457031 241.484375 192.953125 242.398438 196.378906 C 242.738281 197.671875 243.214844 200 243.214844 200.339844 C 243.214844 200.65625 243.09375 200.976562 242.796875 201.332031 C 242.179688 202.148438 241.78125 202.667969 241.5625 202.90625 C 241.148438 203.34375 240.910156 203.503906 240.648438 203.503906 C 240.53125 203.503906 240.390625 203.441406 240.171875 203.285156 C 239.875 203.042969 239.65625 202.945312 239.4375 202.945312 C 239 202.945312 238.664062 203.285156 238.664062 203.722656 C 238.664062 204.21875 239.101562 204.597656 239.675781 204.597656 C 240.949219 204.597656 243.550781 201.613281 245.699219 197.671875 C 247.050781 195.222656 247.605469 193.789062 247.605469 192.816406 C 247.605469 192.21875 247.109375 191.722656 246.511719 191.722656 C 246.054688 191.722656 245.738281 192.019531 245.738281 192.457031 C 245.738281 192.753906 245.898438 192.972656 246.292969 193.234375 C 246.671875 193.453125 246.8125 193.632812 246.8125 193.910156 C 246.8125 194.707031 246.074219 196.257812 244.386719 199.0625 L 243.988281 196.757812 C 243.691406 195.003906 242.578125 191.722656 242.28125 191.722656 L 242.199219 191.722656 C 242.179688 191.742188 242.101562 191.742188 242.019531 191.742188 C 241.84375 191.761719 241.125 191.878906 240.074219 192.078125 C 239.972656 192.097656 239.714844 192.160156 239.4375 192.199219 Z M 239.4375 192.535156 "/>
<g clip-path="url(#clip-2)">
<path fill-rule="nonzero" fill="rgb(0%, 0%, 0%)" fill-opacity="1" d="M 264.210938 192.726562 L 253.757812 192.726562 L 253.757812 193.816406 L 264.210938 193.816406 L 264.210938 192.726562 M 264.210938 196.574219 L 253.757812 196.574219 L 253.757812 197.667969 L 264.210938 197.667969 Z M 264.210938 196.574219 "/>
</g>
<path fill-rule="nonzero" fill="rgb(0%, 0%, 0%)" fill-opacity="1" d="M 106.238281 20.21875 C 106.496094 20.15625 106.636719 20.136719 106.855469 20.136719 C 107.988281 20.136719 108.285156 20.636719 109.199219 24.058594 C 109.535156 25.351562 110.011719 27.679688 110.011719 28.019531 C 110.011719 28.335938 109.894531 28.65625 109.597656 29.011719 C 108.980469 29.828125 108.582031 30.347656 108.363281 30.585938 C 107.945312 31.023438 107.707031 31.183594 107.449219 31.183594 C 107.332031 31.183594 107.191406 31.121094 106.972656 30.964844 C 106.675781 30.726562 106.457031 30.625 106.238281 30.625 C 105.800781 30.625 105.460938 30.964844 105.460938 31.402344 C 105.460938 31.898438 105.898438 32.277344 106.476562 32.277344 C 107.746094 32.277344 110.351562 29.292969 112.496094 25.351562 C 113.847656 22.902344 114.40625 21.472656 114.40625 20.496094 C 114.40625 19.898438 113.910156 19.402344 113.3125 19.402344 C 112.855469 19.402344 112.539062 19.699219 112.539062 20.136719 C 112.539062 20.4375 112.695312 20.65625 113.09375 20.914062 C 113.472656 21.132812 113.609375 21.3125 113.609375 21.589844 C 113.609375 22.386719 112.875 23.9375 111.1875 26.746094 L 110.789062 24.4375 C 110.492188 22.683594 109.378906 19.402344 109.078125 19.402344 L 109 19.402344 C 108.980469 19.421875 108.902344 19.421875 108.820312 19.421875 C 108.640625 19.441406 107.925781 19.558594 106.875 19.757812 C 106.773438 19.777344 106.515625 19.839844 106.238281 19.878906 Z M 106.238281 20.21875 "/>
</svg>
