<?xml version="1.0" encoding="UTF-8"?>
<svg xmlns="http://www.w3.org/2000/svg" xmlns:xlink="http://www.w3.org/1999/xlink" width="366.160004" height="284.619995" viewBox="0 0 366.160004 284.619995">
<defs>
<clipPath id="clip-0">
<path clip-rule="nonzero" d="M 112 13 L 114 13 L 114 284.621094 L 112 284.621094 Z M 112 13 "/>
</clipPath>
<clipPath id="clip-1">
<path clip-rule="nonzero" d="M 82.640625 111 L 93.679688 111 L 93.679688 113 L 82.640625 113 Z M 82.640625 111 "/>
</clipPath>
</defs>
<g clip-path="url(#clip-0)">
<path fill="none" stroke-width="6" stroke-linecap="round" stroke-linejoin="round" stroke="rgb(0%, 0%, 0%)" stroke-opacity="1" stroke-miterlimit="4" d="M 1386.995474 2052.668554 L 1386.995474 3174.673787 " transform="matrix(0.24, 0, 0, -0.24, -220, 776.159973)"/>
</g>
<path fill="none" stroke-width="6" stroke-linecap="round" stroke-linejoin="round" stroke="rgb(0%, 0%, 0%)" stroke-opacity="1" stroke-miterlimit="4" d="M 1420.003287 3108.674437 L 1388.004588 3174.673787 L 1354.996775 3108.674437 " transform="matrix(0.24, 0, 0, -0.24, -220, 776.159973)"/>
<path fill="none" stroke-width="6" stroke-linecap="round" stroke-linejoin="round" stroke="rgb(0%, 0%, 0%)" stroke-opacity="1" stroke-miterlimit="4" d="M 937.988302 2978.677689 L 2215.00656 2978.677689 " transform="matrix(0.24, 0, 0, -0.24, -220, 776.159973)"/>
<path fill="none" stroke-width="6" stroke-linecap="round" stroke-linejoin="round" stroke="rgb(0%, 0%, 0%)" stroke-opacity="1" stroke-miterlimit="4" d="M 2150.000048 2945.669876 L 2215.999398 2978.677689 L 2150.000048 3010.676388 " transform="matrix(0.24, 0, 0, -0.24, -220, 776.159973)"/>
<path fill-rule="nonzero" fill="rgb(0%, 0%, 0%)" fill-opacity="1" d="M 315.507812 78.503906 C 315.351562 78.683594 315.25 78.804688 315.070312 79.042969 C 314.613281 79.640625 314.375 79.839844 314.15625 79.839844 C 313.859375 79.839844 313.679688 79.578125 313.542969 79.023438 C 313.5 78.863281 313.480469 78.746094 313.460938 78.683594 C 312.964844 76.675781 312.746094 75.761719 312.746094 75.460938 C 313.621094 73.929688 314.335938 73.054688 314.695312 73.054688 C 314.8125 73.054688 314.972656 73.113281 315.171875 73.214844 C 315.410156 73.351562 315.546875 73.394531 315.707031 73.394531 C 316.125 73.394531 316.402344 73.09375 316.402344 72.675781 C 316.402344 72.257812 316.066406 71.941406 315.589844 71.941406 C 314.714844 71.941406 313.957031 72.65625 312.585938 74.785156 L 312.367188 73.691406 C 312.089844 72.339844 311.871094 71.941406 311.335938 71.941406 C 310.898438 71.941406 310.222656 72.121094 309.011719 72.519531 L 308.792969 72.597656 L 308.871094 72.894531 C 309.625 72.714844 309.804688 72.675781 309.984375 72.675781 C 310.480469 72.675781 310.601562 72.855469 310.878906 74.050781 L 311.453125 76.496094 L 309.824219 78.824219 C 309.425781 79.421875 309.03125 79.777344 308.8125 79.777344 C 308.691406 79.777344 308.492188 79.71875 308.292969 79.601562 C 308.035156 79.460938 307.816406 79.402344 307.660156 79.402344 C 307.28125 79.402344 306.984375 79.699219 306.984375 80.097656 C 306.984375 80.613281 307.378906 80.933594 307.976562 80.933594 C 308.59375 80.933594 308.832031 80.753906 309.824219 79.539062 C 310.363281 78.902344 310.777344 78.367188 311.613281 77.210938 L 312.210938 79.601562 C 312.46875 80.613281 312.726562 80.933594 313.363281 80.933594 C 314.117188 80.933594 314.632812 80.453125 315.789062 78.664062 Z M 315.507812 78.503906 "/>
<path fill-rule="nonzero" fill="rgb(0%, 0%, 0%)" fill-opacity="1" d="M 102.140625 69.15625 C 100.472656 69.15625 98.683594 69.949219 97.09375 71.398438 C 95.085938 73.25 93.914062 75.671875 93.914062 77.996094 C 93.914062 80.78125 95.722656 82.746094 98.246094 82.746094 C 102.378906 82.746094 106.394531 78.574219 106.613281 74.082031 C 106.75 71.28125 104.804688 69.15625 102.140625 69.15625 M 101.960938 69.8125 C 103.53125 69.8125 104.523438 70.964844 104.523438 72.832031 C 104.523438 74.976562 103.589844 77.878906 102.300781 79.746094 C 101.207031 81.316406 99.972656 82.089844 98.582031 82.089844 C 96.914062 82.089844 96 80.878906 96 78.734375 C 96 76.867188 96.992188 73.90625 98.183594 72.175781 C 99.296875 70.566406 100.511719 69.8125 101.960938 69.8125 Z M 101.960938 69.8125 "/>
<path fill="none" stroke-width="6" stroke-linecap="round" stroke-linejoin="round" stroke="rgb(0%, 0%, 0%)" stroke-opacity="1" stroke-miterlimit="4" d="M 1134.993515 2125.666602 C 1154.996771 2182.665301 1213.997423 2367.675071 1252.99482 2468.667912 C 1291.992216 2569.677029 1331.998728 2657.665312 1370.996124 2733.674428 C 1409.993521 2808.67443 1449.007194 2872.671827 1488.997429 2923.664667 C 1529.00394 2974.673783 1570.996129 3014.664018 1609.993526 3039.664019 C 1650.000037 3064.664019 1686.002642 3074.673785 1725.000039 3074.673785 C 1763.997435 3074.673785 1804.996785 3065.673134 1845.003296 3040.673133 C 1884.000693 3015.673133 1922.005251 2974.673783 1961.002648 2923.664667 C 2000.000045 2872.671827 2040.006556 2808.67443 2079.003953 2733.674428 C 2118.994188 2657.665312 2158.007861 2571.662706 2197.005257 2470.669865 C 2236.995493 2369.677024 2290.9994 2197.671812 2315.006562 2125.666602 " transform="matrix(0.24, 0, 0, -0.24, -220, 776.159973)"/>
<path fill-rule="nonzero" fill="rgb(0%, 0%, 0%)" fill-opacity="1" d="M 104.019531 112.84375 L 101.992188 112.84375 L 101.992188 104 L 101.117188 104 L 94.878906 112.84375 L 94.878906 114.117188 L 100.464844 114.117188 L 100.464844 117.4375 L 101.992188 117.4375 L 101.992188 114.117188 L 104.019531 114.117188 L 104.019531 112.84375 M 100.441406 112.84375 L 95.671875 112.84375 L 100.441406 106.027344 Z M 100.441406 112.84375 "/>
<g clip-path="url(#clip-1)">
<path fill-rule="nonzero" fill="rgb(0%, 0%, 0%)" fill-opacity="1" d="M 82.859375 111.59375 L 82.859375 112.6875 L 93.273438 112.6875 L 93.273438 111.59375 Z M 82.859375 111.59375 "/>
</g>
<path fill-rule="nonzero" fill="rgb(0%, 0%, 0%)" fill-opacity="1" d="M 150.34375 76.875 L 146.765625 78.6875 L 146.765625 78.964844 C 147.003906 78.863281 147.222656 78.785156 147.300781 78.746094 C 147.660156 78.605469 147.996094 78.527344 148.195312 78.527344 C 148.613281 78.527344 148.792969 78.824219 148.792969 79.460938 L 148.792969 88.46875 C 148.792969 89.125 148.632812 89.582031 148.316406 89.761719 C 148.019531 89.941406 147.738281 90 146.90625 90.019531 L 146.90625 90.316406 L 152.390625 90.316406 L 152.390625 90.019531 C 150.820312 90 150.503906 89.800781 150.503906 88.847656 L 150.503906 76.914062 Z M 150.34375 76.875 "/>
<path fill-rule="nonzero" fill="rgb(0%, 0%, 0%)" fill-opacity="1" d="M 238.320312 84.242188 C 239.492188 84.242188 239.949219 84.28125 240.425781 84.460938 C 241.660156 84.898438 242.433594 86.03125 242.433594 87.402344 C 242.433594 89.074219 241.300781 90.367188 239.832031 90.367188 C 239.292969 90.367188 238.898438 90.226562 238.160156 89.75 C 237.566406 89.390625 237.226562 89.25 236.890625 89.25 C 236.433594 89.25 236.132812 89.53125 236.132812 89.949219 C 236.132812 90.644531 236.988281 91.082031 238.378906 91.082031 C 239.910156 91.082031 241.480469 90.5625 242.414062 89.75 C 243.347656 88.933594 243.867188 87.78125 243.867188 86.449219 C 243.867188 85.433594 243.546875 84.5 242.972656 83.882812 C 242.574219 83.445312 242.195312 83.207031 241.320312 82.828125 C 242.691406 81.894531 243.191406 81.160156 243.191406 80.085938 C 243.191406 78.472656 241.917969 77.359375 240.089844 77.359375 C 239.09375 77.359375 238.222656 77.699219 237.503906 78.335938 C 236.910156 78.871094 236.609375 79.386719 236.175781 80.582031 L 236.472656 80.660156 C 237.285156 79.210938 238.179688 78.554688 239.433594 78.554688 C 240.726562 78.554688 241.621094 79.429688 241.621094 80.679688 C 241.621094 81.398438 241.320312 82.113281 240.824219 82.609375 C 240.226562 83.207031 239.671875 83.503906 238.320312 83.980469 Z M 238.320312 84.242188 "/>
<path fill="none" stroke-width="6" stroke-linecap="round" stroke-linejoin="round" stroke="rgb(0%, 0%, 0%)" stroke-opacity="1" stroke-miterlimit="4" d="M 1538.004592 3001.675736 L 1538.004592 2953.677688 " transform="matrix(0.24, 0, 0, -0.24, -220, 776.159973)"/>
<path fill="none" stroke-width="6" stroke-linecap="round" stroke-linejoin="round" stroke="rgb(0%, 0%, 0%)" stroke-opacity="1" stroke-miterlimit="4" d="M 1915.006553 2999.673783 L 1915.006553 2951.675735 " transform="matrix(0.24, 0, 0, -0.24, -220, 776.159973)"/>
<path fill="none" stroke-width="6" stroke-linecap="round" stroke-linejoin="round" stroke="rgb(0%, 0%, 0%)" stroke-opacity="1" stroke-miterlimit="4" d="M 1361.995473 2768.667919 L 1415.999381 2768.667919 " transform="matrix(0.24, 0, 0, -0.24, -220, 776.159973)"/>
<path fill-rule="nonzero" fill="rgb(0%, 0%, 0%)" fill-opacity="1" d="M 287.394531 194.878906 C 288.867188 193.921875 289.460938 193.40625 290.195312 192.492188 C 291.609375 190.761719 292.304688 188.773438 292.304688 186.445312 C 292.304688 183.902344 291.566406 181.972656 289.820312 179.945312 C 289.003906 178.988281 288.488281 178.550781 287.453125 177.914062 L 287.214844 178.234375 C 288.804688 179.488281 289.34375 180.183594 289.898438 181.675781 C 290.375 183.007812 290.59375 184.519531 290.59375 186.507812 C 290.59375 188.574219 290.335938 190.226562 289.800781 191.4375 C 289.242188 192.691406 288.648438 193.40625 287.214844 194.558594 Z M 287.394531 194.878906 "/>
<path fill-rule="nonzero" fill="rgb(0%, 0%, 0%)" fill-opacity="1" d="M 275.222656 177.914062 C 273.75 178.871094 273.15625 179.386719 272.421875 180.300781 C 271.007812 182.03125 270.3125 184.019531 270.3125 186.347656 C 270.3125 188.871094 271.050781 190.820312 272.796875 192.851562 C 273.613281 193.804688 274.128906 194.242188 275.164062 194.878906 L 275.402344 194.558594 C 273.8125 193.308594 273.253906 192.609375 272.71875 191.121094 C 272.242188 189.789062 272.023438 188.277344 272.023438 186.289062 C 272.023438 184.199219 272.28125 182.570312 272.816406 181.335938 C 273.375 180.101562 273.96875 179.386719 275.402344 178.234375 Z M 275.222656 177.914062 "/>
<path fill-rule="nonzero" fill="rgb(0%, 0%, 0%)" fill-opacity="1" d="M 267.898438 183.648438 L 267.898438 182.871094 L 266.371094 182.871094 C 265.972656 182.871094 265.675781 182.808594 265.277344 182.667969 L 264.839844 182.511719 C 264.304688 182.3125 263.765625 182.210938 263.25 182.210938 C 261.402344 182.210938 259.929688 183.648438 259.929688 185.457031 C 259.929688 186.710938 260.46875 187.464844 261.777344 188.121094 C 261.402344 188.476562 261.042969 188.816406 260.925781 188.914062 C 260.269531 189.492188 260.011719 189.890625 260.011719 190.289062 C 260.011719 190.707031 260.25 190.945312 261.0625 191.339844 C 259.652344 192.375 259.117188 193.03125 259.117188 193.765625 C 259.117188 194.820312 260.667969 195.695312 262.554688 195.695312 C 264.042969 195.695312 265.59375 195.179688 266.628906 194.34375 C 267.382812 193.726562 267.722656 193.089844 267.722656 192.335938 C 267.722656 191.101562 266.789062 190.269531 265.316406 190.207031 L 262.753906 190.089844 C 261.699219 190.050781 261.203125 189.871094 261.203125 189.550781 C 261.203125 189.15625 261.859375 188.457031 262.394531 188.300781 C 262.574219 188.320312 262.714844 188.339844 262.773438 188.339844 C 263.152344 188.378906 263.410156 188.398438 263.527344 188.398438 C 264.261719 188.398438 265.058594 188.101562 265.675781 187.5625 C 266.332031 187.007812 266.628906 186.3125 266.628906 185.316406 C 266.628906 184.742188 266.527344 184.285156 266.25 183.648438 L 267.898438 183.648438 M 261.480469 191.402344 C 262.136719 191.539062 263.726562 191.660156 264.699219 191.660156 C 266.507812 191.660156 267.164062 191.917969 267.164062 192.632812 C 267.164062 193.789062 265.65625 194.5625 263.410156 194.5625 C 261.660156 194.5625 260.507812 193.984375 260.507812 193.109375 C 260.507812 192.652344 260.648438 192.394531 261.480469 191.402344 M 261.582031 184.640625 C 261.582031 183.46875 262.136719 182.769531 263.050781 182.769531 C 263.667969 182.769531 264.183594 183.109375 264.503906 183.707031 C 264.859375 184.402344 265.097656 185.316406 265.097656 186.09375 C 265.097656 187.207031 264.523438 187.902344 263.609375 187.902344 C 262.414062 187.902344 261.582031 186.609375 261.582031 184.703125 Z M 261.582031 184.640625 "/>
<path fill-rule="nonzero" fill="rgb(0%, 0%, 0%)" fill-opacity="1" d="M 285.269531 189.144531 C 285.109375 189.324219 285.011719 189.445312 284.832031 189.683594 C 284.375 190.28125 284.136719 190.476562 283.917969 190.476562 C 283.621094 190.476562 283.441406 190.21875 283.300781 189.664062 C 283.261719 189.503906 283.242188 189.382812 283.222656 189.324219 C 282.726562 187.316406 282.507812 186.398438 282.507812 186.101562 C 283.382812 184.570312 284.097656 183.695312 284.453125 183.695312 C 284.574219 183.695312 284.734375 183.753906 284.929688 183.855469 C 285.167969 183.992188 285.308594 184.03125 285.46875 184.03125 C 285.886719 184.03125 286.164062 183.734375 286.164062 183.316406 C 286.164062 182.898438 285.824219 182.582031 285.347656 182.582031 C 284.472656 182.582031 283.71875 183.296875 282.347656 185.425781 L 282.128906 184.332031 C 281.851562 182.980469 281.632812 182.582031 281.09375 182.582031 C 280.660156 182.582031 279.984375 182.761719 278.769531 183.15625 L 278.550781 183.238281 L 278.632812 183.535156 C 279.386719 183.355469 279.566406 183.316406 279.742188 183.316406 C 280.242188 183.316406 280.359375 183.496094 280.636719 184.6875 L 281.214844 187.136719 L 279.585938 189.464844 C 279.1875 190.0625 278.789062 190.417969 278.570312 190.417969 C 278.453125 190.417969 278.253906 190.359375 278.054688 190.238281 C 277.796875 190.101562 277.578125 190.039062 277.417969 190.039062 C 277.042969 190.039062 276.742188 190.339844 276.742188 190.738281 C 276.742188 191.253906 277.140625 191.570312 277.738281 191.570312 C 278.351562 191.570312 278.589844 191.394531 279.585938 190.179688 C 280.121094 189.542969 280.539062 189.007812 281.375 187.851562 L 281.96875 190.238281 C 282.226562 191.253906 282.488281 191.570312 283.121094 191.570312 C 283.878906 191.570312 284.394531 191.09375 285.546875 189.304688 Z M 285.269531 189.144531 "/>
<path fill-rule="nonzero" fill="rgb(0%, 0%, 0%)" fill-opacity="1" d="M 228.859375 183.398438 C 229.117188 183.335938 229.253906 183.316406 229.472656 183.316406 C 230.605469 183.316406 230.90625 183.816406 231.820312 187.238281 C 232.15625 188.53125 232.632812 190.859375 232.632812 191.199219 C 232.632812 191.515625 232.515625 191.835938 232.214844 192.191406 C 231.601562 193.007812 231.203125 193.527344 230.984375 193.765625 C 230.566406 194.203125 230.328125 194.363281 230.070312 194.363281 C 229.949219 194.363281 229.8125 194.300781 229.59375 194.144531 C 229.296875 193.90625 229.078125 193.804688 228.859375 193.804688 C 228.421875 193.804688 228.082031 194.144531 228.082031 194.582031 C 228.082031 195.078125 228.519531 195.457031 229.097656 195.457031 C 230.367188 195.457031 232.972656 192.472656 235.117188 188.53125 C 236.46875 186.082031 237.027344 184.652344 237.027344 183.675781 C 237.027344 183.078125 236.527344 182.582031 235.933594 182.582031 C 235.476562 182.582031 235.15625 182.878906 235.15625 183.316406 C 235.15625 183.617188 235.316406 183.835938 235.714844 184.09375 C 236.09375 184.3125 236.230469 184.492188 236.230469 184.769531 C 236.230469 185.566406 235.496094 187.117188 233.804688 189.925781 L 233.410156 187.617188 C 233.109375 185.863281 231.996094 182.582031 231.699219 182.582031 L 231.621094 182.582031 C 231.601562 182.601562 231.519531 182.601562 231.441406 182.601562 C 231.261719 182.621094 230.546875 182.738281 229.492188 182.9375 C 229.394531 182.957031 229.136719 183.019531 228.859375 183.058594 Z M 228.859375 183.398438 "/>
<path fill-rule="nonzero" fill="rgb(0%, 0%, 0%)" fill-opacity="1" d="M 253.632812 183.585938 L 243.179688 183.585938 L 243.179688 184.679688 L 253.632812 184.679688 L 253.632812 183.585938 M 253.632812 187.4375 L 243.179688 187.4375 L 243.179688 188.53125 L 253.632812 188.53125 Z M 253.632812 187.4375 "/>
<path fill-rule="nonzero" fill="rgb(0%, 0%, 0%)" fill-opacity="1" d="M 95.417969 11.316406 C 95.675781 11.257812 95.816406 11.238281 96.035156 11.238281 C 97.167969 11.238281 97.464844 11.734375 98.378906 15.15625 C 98.71875 16.453125 99.195312 18.78125 99.195312 19.117188 C 99.195312 19.4375 99.074219 19.753906 98.777344 20.113281 C 98.160156 20.929688 97.761719 21.445312 97.542969 21.683594 C 97.128906 22.121094 96.886719 22.28125 96.628906 22.28125 C 96.511719 22.28125 96.371094 22.222656 96.152344 22.0625 C 95.855469 21.824219 95.636719 21.726562 95.417969 21.726562 C 94.980469 21.726562 94.644531 22.0625 94.644531 22.5 C 94.644531 22.996094 95.078125 23.375 95.65625 23.375 C 96.929688 23.375 99.53125 20.390625 101.679688 16.453125 C 103.03125 14.003906 103.585938 12.570312 103.585938 11.59375 C 103.585938 11 103.089844 10.5 102.492188 10.5 C 102.035156 10.5 101.71875 10.800781 101.71875 11.238281 C 101.71875 11.535156 101.878906 11.753906 102.273438 12.011719 C 102.652344 12.230469 102.792969 12.410156 102.792969 12.691406 C 102.792969 13.484375 102.054688 15.039062 100.367188 17.84375 L 99.96875 15.535156 C 99.671875 13.785156 98.558594 10.5 98.261719 10.5 L 98.179688 10.5 C 98.160156 10.519531 98.082031 10.519531 98 10.519531 C 97.824219 10.539062 97.105469 10.660156 96.054688 10.859375 C 95.953125 10.878906 95.695312 10.9375 95.417969 10.976562 Z M 95.417969 11.316406 "/>
</svg>
