<?xml version="1.0" encoding="UTF-8"?>
<svg xmlns="http://www.w3.org/2000/svg" xmlns:xlink="http://www.w3.org/1999/xlink" width="375.380005" height="258.459991" viewBox="0 0 375.380005 258.459991">
<path fill="none" stroke-width="6" stroke-linecap="round" stroke-linejoin="round" stroke="rgb(0%, 0%, 0%)" stroke-opacity="1" stroke-miterlimit="4" d="M 3127.006601 4059.667297 L 3127.006601 3115.673135 " transform="matrix(0.24, 0, 0, -0.24, -675.380005, 996.159973)"/>
<path fill="none" stroke-width="6" stroke-linecap="round" stroke-linejoin="round" stroke="rgb(0%, 0%, 0%)" stroke-opacity="1" stroke-miterlimit="4" d="M 3159.998138 3993.667946 L 3127.999439 4058.674458 L 3095.007902 3993.667946 " transform="matrix(0.24, 0, 0, -0.24, -675.380005, 996.159973)"/>
<path fill="none" stroke-width="6" stroke-linecap="round" stroke-linejoin="round" stroke="rgb(0%, 0%, 0%)" stroke-opacity="1" stroke-miterlimit="4" d="M 2911.007247 3531.672493 L 4252.006626 3531.672493 " transform="matrix(0.24, 0, 0, -0.24, -675.380005, 996.159973)"/>
<path fill="none" stroke-width="6" stroke-linecap="round" stroke-linejoin="round" stroke="rgb(0%, 0%, 0%)" stroke-opacity="1" stroke-miterlimit="4" d="M 4187.000114 3498.66468 L 4252.006626 3530.663378 L 4187.000114 3563.671192 " transform="matrix(0.24, 0, 0, -0.24, -675.380005, 996.159973)"/>
<path fill-rule="nonzero" fill="rgb(0%, 0%, 0%)" fill-opacity="1" d="M 59.078125 19.398438 C 59.335938 19.335938 59.476562 19.316406 59.695312 19.316406 C 60.828125 19.316406 61.125 19.816406 62.039062 23.238281 C 62.375 24.53125 62.855469 26.859375 62.855469 27.199219 C 62.855469 27.515625 62.734375 27.835938 62.4375 28.195312 C 61.820312 29.007812 61.421875 29.527344 61.203125 29.765625 C 60.785156 30.203125 60.546875 30.363281 60.289062 30.363281 C 60.171875 30.363281 60.03125 30.300781 59.8125 30.144531 C 59.515625 29.90625 59.296875 29.804688 59.078125 29.804688 C 58.640625 29.804688 58.300781 30.144531 58.300781 30.582031 C 58.300781 31.078125 58.738281 31.457031 59.316406 31.457031 C 60.589844 31.457031 63.191406 28.472656 65.335938 24.53125 C 66.691406 22.082031 67.246094 20.652344 67.246094 19.675781 C 67.246094 19.078125 66.75 18.582031 66.152344 18.582031 C 65.695312 18.582031 65.378906 18.878906 65.378906 19.316406 C 65.378906 19.617188 65.535156 19.835938 65.933594 20.09375 C 66.3125 20.3125 66.449219 20.492188 66.449219 20.769531 C 66.449219 21.566406 65.714844 23.117188 64.027344 25.925781 L 63.628906 23.617188 C 63.332031 21.863281 62.21875 18.582031 61.917969 18.582031 L 61.839844 18.582031 C 61.820312 18.601562 61.742188 18.601562 61.660156 18.601562 C 61.480469 18.621094 60.765625 18.742188 59.714844 18.9375 C 59.613281 18.960938 59.355469 19.019531 59.078125 19.058594 Z M 59.078125 19.398438 "/>
<path fill-rule="nonzero" fill="rgb(0%, 0%, 0%)" fill-opacity="1" d="M 349.96875 164.824219 C 349.808594 165.003906 349.710938 165.125 349.53125 165.363281 C 349.074219 165.960938 348.835938 166.160156 348.617188 166.160156 C 348.320312 166.160156 348.140625 165.898438 348 165.34375 C 347.960938 165.183594 347.941406 165.0625 347.921875 165.003906 C 347.425781 162.996094 347.207031 162.082031 347.207031 161.78125 C 348.082031 160.25 348.796875 159.375 349.152344 159.375 C 349.273438 159.375 349.433594 159.433594 349.628906 159.535156 C 349.867188 159.671875 350.007812 159.710938 350.167969 159.710938 C 350.585938 159.710938 350.863281 159.414062 350.863281 158.996094 C 350.863281 158.578125 350.523438 158.261719 350.046875 158.261719 C 349.171875 158.261719 348.417969 158.976562 347.046875 161.105469 L 346.828125 160.011719 C 346.550781 158.660156 346.332031 158.261719 345.792969 158.261719 C 345.359375 158.261719 344.683594 158.441406 343.46875 158.835938 L 343.25 158.917969 L 343.332031 159.214844 C 344.085938 159.035156 344.265625 158.996094 344.441406 158.996094 C 344.941406 158.996094 345.058594 159.175781 345.335938 160.367188 L 345.914062 162.816406 L 344.285156 165.144531 C 343.886719 165.742188 343.488281 166.097656 343.269531 166.097656 C 343.152344 166.097656 342.953125 166.039062 342.753906 165.917969 C 342.496094 165.78125 342.277344 165.722656 342.117188 165.722656 C 341.742188 165.722656 341.441406 166.019531 341.441406 166.417969 C 341.441406 166.933594 341.839844 167.25 342.4375 167.25 C 343.050781 167.25 343.289062 167.074219 344.285156 165.859375 C 344.820312 165.222656 345.238281 164.6875 346.074219 163.53125 L 346.667969 165.917969 C 346.925781 166.933594 347.1875 167.25 347.820312 167.25 C 348.578125 167.25 349.09375 166.773438 350.246094 164.984375 Z M 349.96875 164.824219 "/>
<path fill-rule="nonzero" fill="rgb(0%, 0%, 0%)" fill-opacity="1" d="M 65.800781 153.792969 C 64.128906 153.792969 62.339844 154.589844 60.75 156.039062 C 58.742188 157.886719 57.570312 160.3125 57.570312 162.636719 C 57.570312 165.421875 59.378906 167.386719 61.902344 167.386719 C 66.039062 167.386719 70.050781 163.214844 70.269531 158.722656 C 70.410156 155.921875 68.460938 153.792969 65.800781 153.792969 M 65.621094 154.449219 C 67.191406 154.449219 68.183594 155.601562 68.183594 157.472656 C 68.183594 159.617188 67.25 162.519531 65.957031 164.386719 C 64.863281 165.957031 63.632812 166.730469 62.242188 166.730469 C 60.570312 166.730469 59.65625 165.519531 59.65625 163.375 C 59.65625 161.503906 60.652344 158.542969 61.84375 156.816406 C 62.957031 155.207031 64.167969 154.449219 65.621094 154.449219 Z M 65.621094 154.449219 "/>
<path fill-rule="nonzero" fill="rgb(0%, 0%, 0%)" fill-opacity="1" d="M 163.921875 157.917969 L 160.34375 159.726562 L 160.34375 160.003906 C 160.582031 159.90625 160.800781 159.824219 160.882812 159.785156 C 161.238281 159.644531 161.578125 159.566406 161.777344 159.566406 C 162.195312 159.566406 162.371094 159.863281 162.371094 160.5 L 162.371094 169.507812 C 162.371094 170.164062 162.214844 170.621094 161.894531 170.800781 C 161.597656 170.980469 161.320312 171.039062 160.484375 171.058594 L 160.484375 171.359375 L 165.96875 171.359375 L 165.96875 171.058594 C 164.398438 171.039062 164.082031 170.839844 164.082031 169.886719 L 164.082031 157.957031 Z M 163.921875 157.917969 "/>
<path fill-rule="nonzero" fill="rgb(0%, 0%, 0%)" fill-opacity="1" d="M 171.261719 164.800781 C 172.433594 164.800781 172.890625 164.839844 173.367188 165.019531 C 174.597656 165.457031 175.375 166.589844 175.375 167.960938 C 175.375 169.632812 174.242188 170.925781 172.769531 170.925781 C 172.234375 170.925781 171.835938 170.785156 171.101562 170.308594 C 170.503906 169.949219 170.167969 169.8125 169.828125 169.8125 C 169.371094 169.8125 169.074219 170.089844 169.074219 170.507812 C 169.074219 171.203125 169.929688 171.640625 171.320312 171.640625 C 172.851562 171.640625 174.421875 171.125 175.355469 170.308594 C 176.289062 169.492188 176.804688 168.339844 176.804688 167.007812 C 176.804688 165.992188 176.488281 165.058594 175.910156 164.441406 C 175.511719 164.003906 175.136719 163.765625 174.261719 163.390625 C 175.632812 162.453125 176.128906 161.71875 176.128906 160.644531 C 176.128906 159.035156 174.859375 157.921875 173.027344 157.921875 C 172.035156 157.921875 171.160156 158.257812 170.445312 158.894531 C 169.847656 159.433594 169.550781 159.949219 169.113281 161.140625 L 169.410156 161.222656 C 170.226562 159.769531 171.121094 159.113281 172.375 159.113281 C 173.664062 159.113281 174.558594 159.988281 174.558594 161.242188 C 174.558594 161.957031 174.261719 162.671875 173.765625 163.171875 C 173.167969 163.765625 172.613281 164.066406 171.261719 164.542969 Z M 171.261719 164.800781 "/>
<path fill-rule="nonzero" fill="rgb(0%, 0%, 0%)" fill-opacity="1" d="M 181.898438 159.761719 L 185.792969 159.761719 C 186.109375 159.761719 186.1875 159.722656 186.25 159.585938 L 187.003906 157.8125 L 186.824219 157.675781 C 186.527344 158.09375 186.328125 158.191406 185.910156 158.191406 L 181.757812 158.191406 L 179.589844 162.90625 C 179.570312 162.945312 179.570312 162.964844 179.570312 163.003906 C 179.570312 163.105469 179.652344 163.164062 179.808594 163.164062 C 180.445312 163.164062 181.242188 163.304688 182.054688 163.5625 C 184.339844 164.296875 185.394531 165.53125 185.394531 167.5 C 185.394531 169.40625 184.183594 170.898438 182.632812 170.898438 C 182.234375 170.898438 181.898438 170.757812 181.300781 170.324219 C 180.664062 169.863281 180.207031 169.667969 179.789062 169.667969 C 179.214844 169.667969 178.933594 169.90625 178.933594 170.402344 C 178.933594 171.15625 179.871094 171.632812 181.359375 171.632812 C 183.03125 171.632812 184.460938 171.097656 185.453125 170.082031 C 186.367188 169.1875 186.785156 168.054688 186.785156 166.542969 C 186.785156 165.113281 186.40625 164.199219 185.414062 163.203125 C 184.539062 162.328125 183.40625 161.871094 181.0625 161.453125 Z M 181.898438 159.761719 "/>
<path fill-rule="nonzero" fill="rgb(0%, 0%, 0%)" fill-opacity="1" d="M 70.859375 63.273438 L 70.601562 63.175781 C 69.867188 64.308594 69.609375 64.488281 68.714844 64.488281 L 63.964844 64.488281 L 67.300781 60.988281 C 69.070312 59.140625 69.847656 57.628906 69.847656 56.078125 C 69.847656 54.089844 68.234375 52.558594 66.167969 52.558594 C 65.078125 52.558594 64.042969 52.996094 63.308594 53.792969 C 62.671875 54.46875 62.375 55.105469 62.035156 56.515625 L 62.453125 56.617188 C 63.246094 54.667969 63.964844 54.03125 65.335938 54.03125 C 67.003906 54.03125 68.136719 55.164062 68.136719 56.835938 C 68.136719 58.386719 67.222656 60.234375 65.554688 62.003906 L 62.015625 65.761719 L 62.015625 66 L 69.765625 66 Z M 70.859375 63.273438 "/>
<path fill="none" stroke-width="8" stroke-linecap="butt" stroke-linejoin="round" stroke="rgb(0%, 0%, 0%)" stroke-opacity="1" stroke-miterlimit="4" d="M 3262.992932 3534.667285 L 3293.998792 3597.671844 " transform="matrix(0.24, 0, 0, -0.24, -675.380005, 996.159973)"/>
<path fill="none" stroke-width="8" stroke-linecap="butt" stroke-linejoin="round" stroke="rgb(0%, 0%, 0%)" stroke-opacity="1" stroke-miterlimit="4" d="M 3293.005953 3597.671844 L 3323.995537 3658.674449 " transform="matrix(0.24, 0, 0, -0.24, -675.380005, 996.159973)"/>
<path fill="none" stroke-width="8" stroke-linecap="butt" stroke-linejoin="round" stroke="rgb(0%, 0%, 0%)" stroke-opacity="1" stroke-miterlimit="4" d="M 3323.002699 3657.665334 L 3353.992283 3715.673148 " transform="matrix(0.24, 0, 0, -0.24, -675.380005, 996.159973)"/>
<path fill="none" stroke-width="8" stroke-linecap="butt" stroke-linejoin="round" stroke="rgb(0%, 0%, 0%)" stroke-opacity="1" stroke-miterlimit="4" d="M 3352.999444 3714.664034 L 3384.005304 3766.665988 " transform="matrix(0.24, 0, 0, -0.24, -675.380005, 996.159973)"/>
<path fill="none" stroke-width="8" stroke-linecap="butt" stroke-linejoin="round" stroke="rgb(0%, 0%, 0%)" stroke-opacity="1" stroke-miterlimit="4" d="M 3382.99619 3766.665988 L 3414.00205 3811.669244 " transform="matrix(0.24, 0, 0, -0.24, -675.380005, 996.159973)"/>
<path fill="none" stroke-width="8" stroke-linecap="butt" stroke-linejoin="round" stroke="rgb(0%, 0%, 0%)" stroke-opacity="1" stroke-miterlimit="4" d="M 3412.992935 3811.669244 L 3443.998795 3848.664688 " transform="matrix(0.24, 0, 0, -0.24, -675.380005, 996.159973)"/>
<path fill="none" stroke-width="8" stroke-linecap="butt" stroke-linejoin="round" stroke="rgb(0%, 0%, 0%)" stroke-opacity="1" stroke-miterlimit="4" d="M 3443.005957 3847.671849 L 3473.995541 3874.673803 " transform="matrix(0.24, 0, 0, -0.24, -675.380005, 996.159973)"/>
<path fill="none" stroke-width="8" stroke-linecap="butt" stroke-linejoin="round" stroke="rgb(0%, 0%, 0%)" stroke-opacity="1" stroke-miterlimit="4" d="M 3473.002702 3874.673803 L 3503.992286 3891.665991 " transform="matrix(0.24, 0, 0, -0.24, -675.380005, 996.159973)"/>
<path fill="none" stroke-width="8" stroke-linecap="butt" stroke-linejoin="round" stroke="rgb(0%, 0%, 0%)" stroke-opacity="1" stroke-miterlimit="4" d="M 3502.999448 3889.664038 L 3534.005308 3896.662736 " transform="matrix(0.24, 0, 0, -0.24, -675.380005, 996.159973)"/>
<path fill="none" stroke-width="8" stroke-linecap="butt" stroke-linejoin="round" stroke="rgb(0%, 0%, 0%)" stroke-opacity="1" stroke-miterlimit="4" d="M 3803.992293 3534.667285 L 3773.002709 3597.671844 " transform="matrix(0.24, 0, 0, -0.24, -675.380005, 996.159973)"/>
<path fill="none" stroke-width="8" stroke-linecap="butt" stroke-linejoin="round" stroke="rgb(0%, 0%, 0%)" stroke-opacity="1" stroke-miterlimit="4" d="M 3773.995547 3597.671844 L 3743.005963 3658.674449 " transform="matrix(0.24, 0, 0, -0.24, -675.380005, 996.159973)"/>
<path fill="none" stroke-width="8" stroke-linecap="butt" stroke-linejoin="round" stroke="rgb(0%, 0%, 0%)" stroke-opacity="1" stroke-miterlimit="4" d="M 3743.998802 3657.665334 L 3712.992942 3715.673148 " transform="matrix(0.24, 0, 0, -0.24, -675.380005, 996.159973)"/>
<path fill="none" stroke-width="8" stroke-linecap="butt" stroke-linejoin="round" stroke="rgb(0%, 0%, 0%)" stroke-opacity="1" stroke-miterlimit="4" d="M 3714.002056 3714.664034 L 3682.996196 3766.665988 " transform="matrix(0.24, 0, 0, -0.24, -675.380005, 996.159973)"/>
<path fill="none" stroke-width="8" stroke-linecap="butt" stroke-linejoin="round" stroke="rgb(0%, 0%, 0%)" stroke-opacity="1" stroke-miterlimit="4" d="M 3684.005311 3766.665988 L 3652.999451 3811.669244 " transform="matrix(0.24, 0, 0, -0.24, -675.380005, 996.159973)"/>
<path fill="none" stroke-width="8" stroke-linecap="butt" stroke-linejoin="round" stroke="rgb(0%, 0%, 0%)" stroke-opacity="1" stroke-miterlimit="4" d="M 3653.99229 3811.669244 L 3623.002705 3848.664688 " transform="matrix(0.24, 0, 0, -0.24, -675.380005, 996.159973)"/>
<path fill="none" stroke-width="8" stroke-linecap="butt" stroke-linejoin="round" stroke="rgb(0%, 0%, 0%)" stroke-opacity="1" stroke-miterlimit="4" d="M 3623.995544 3847.671849 L 3593.00596 3874.673803 " transform="matrix(0.24, 0, 0, -0.24, -675.380005, 996.159973)"/>
<path fill="none" stroke-width="8" stroke-linecap="butt" stroke-linejoin="round" stroke="rgb(0%, 0%, 0%)" stroke-opacity="1" stroke-miterlimit="4" d="M 3593.998799 3874.673803 L 3562.992939 3891.665991 " transform="matrix(0.24, 0, 0, -0.24, -675.380005, 996.159973)"/>
<path fill="none" stroke-width="8" stroke-linecap="butt" stroke-linejoin="round" stroke="rgb(0%, 0%, 0%)" stroke-opacity="1" stroke-miterlimit="4" d="M 3564.002053 3889.664038 L 3532.996193 3896.662736 " transform="matrix(0.24, 0, 0, -0.24, -675.380005, 996.159973)"/>
<path fill="none" stroke-width="8" stroke-linecap="butt" stroke-linejoin="round" stroke="rgb(0%, 0%, 0%)" stroke-opacity="1" stroke-miterlimit="4" d="M 3802.999454 3534.667285 L 3834.005314 3471.662726 " transform="matrix(0.24, 0, 0, -0.24, -675.380005, 996.159973)"/>
<path fill="none" stroke-width="8" stroke-linecap="butt" stroke-linejoin="round" stroke="rgb(0%, 0%, 0%)" stroke-opacity="1" stroke-miterlimit="4" d="M 3832.9962 3471.662726 L 3864.00206 3410.676397 " transform="matrix(0.24, 0, 0, -0.24, -675.380005, 996.159973)"/>
<path fill="none" stroke-width="8" stroke-linecap="butt" stroke-linejoin="round" stroke="rgb(0%, 0%, 0%)" stroke-opacity="1" stroke-miterlimit="4" d="M 3862.992945 3411.669235 L 3893.998805 3353.677697 " transform="matrix(0.24, 0, 0, -0.24, -675.380005, 996.159973)"/>
<path fill="none" stroke-width="8" stroke-linecap="butt" stroke-linejoin="round" stroke="rgb(0%, 0%, 0%)" stroke-opacity="1" stroke-miterlimit="4" d="M 3893.005967 3354.670536 L 3923.995551 3301.675743 " transform="matrix(0.24, 0, 0, -0.24, -675.380005, 996.159973)"/>
<path fill="none" stroke-width="8" stroke-linecap="butt" stroke-linejoin="round" stroke="rgb(0%, 0%, 0%)" stroke-opacity="1" stroke-miterlimit="4" d="M 3923.002712 3302.668582 L 3953.992296 3256.672487 " transform="matrix(0.24, 0, 0, -0.24, -675.380005, 996.159973)"/>
<path fill="none" stroke-width="8" stroke-linecap="butt" stroke-linejoin="round" stroke="rgb(0%, 0%, 0%)" stroke-opacity="1" stroke-miterlimit="4" d="M 3952.999458 3257.665326 L 3984.005318 3221.662721 " transform="matrix(0.24, 0, 0, -0.24, -675.380005, 996.159973)"/>
<path fill="none" stroke-width="8" stroke-linecap="butt" stroke-linejoin="round" stroke="rgb(0%, 0%, 0%)" stroke-opacity="1" stroke-miterlimit="4" d="M 3982.996203 3221.662721 L 4014.002063 3194.677043 " transform="matrix(0.24, 0, 0, -0.24, -675.380005, 996.159973)"/>
<path fill="none" stroke-width="8" stroke-linecap="butt" stroke-linejoin="round" stroke="rgb(0%, 0%, 0%)" stroke-opacity="1" stroke-miterlimit="4" d="M 4012.992949 3194.677043 L 4043.998809 3177.668579 " transform="matrix(0.24, 0, 0, -0.24, -675.380005, 996.159973)"/>
<path fill="none" stroke-width="8" stroke-linecap="butt" stroke-linejoin="round" stroke="rgb(0%, 0%, 0%)" stroke-opacity="1" stroke-miterlimit="4" d="M 4043.00597 3179.670532 L 4073.995554 3172.671834 " transform="matrix(0.24, 0, 0, -0.24, -675.380005, 996.159973)"/>
<path fill="none" stroke-width="8" stroke-linecap="butt" stroke-linejoin="round" stroke="rgb(0%, 0%, 0%)" stroke-opacity="1" stroke-miterlimit="4" d="M 3264.002046 3534.667285 L 3232.996186 3471.662726 " transform="matrix(0.24, 0, 0, -0.24, -675.380005, 996.159973)"/>
<path fill="none" stroke-width="8" stroke-linecap="butt" stroke-linejoin="round" stroke="rgb(0%, 0%, 0%)" stroke-opacity="1" stroke-miterlimit="4" d="M 3234.005301 3471.662726 L 3202.999441 3410.676397 " transform="matrix(0.24, 0, 0, -0.24, -675.380005, 996.159973)"/>
<path fill="none" stroke-width="8" stroke-linecap="butt" stroke-linejoin="round" stroke="rgb(0%, 0%, 0%)" stroke-opacity="1" stroke-miterlimit="4" d="M 3203.992279 3411.669235 L 3173.002695 3353.677697 " transform="matrix(0.24, 0, 0, -0.24, -675.380005, 996.159973)"/>
<path fill="none" stroke-width="8" stroke-linecap="butt" stroke-linejoin="round" stroke="rgb(0%, 0%, 0%)" stroke-opacity="1" stroke-miterlimit="4" d="M 3173.995534 3354.670536 L 3143.00595 3301.675743 " transform="matrix(0.24, 0, 0, -0.24, -675.380005, 996.159973)"/>
<path fill="none" stroke-width="8" stroke-linecap="butt" stroke-linejoin="round" stroke="rgb(0%, 0%, 0%)" stroke-opacity="1" stroke-miterlimit="4" d="M 3143.998789 3302.668582 L 3112.992928 3256.672487 " transform="matrix(0.24, 0, 0, -0.24, -675.380005, 996.159973)"/>
<path fill="none" stroke-width="8" stroke-linecap="butt" stroke-linejoin="round" stroke="rgb(0%, 0%, 0%)" stroke-opacity="1" stroke-miterlimit="4" d="M 3114.002043 3257.665326 L 3082.996183 3221.662721 " transform="matrix(0.24, 0, 0, -0.24, -675.380005, 996.159973)"/>
<path fill="none" stroke-width="8" stroke-linecap="butt" stroke-linejoin="round" stroke="rgb(0%, 0%, 0%)" stroke-opacity="1" stroke-miterlimit="4" d="M 3084.005298 3221.662721 L 3052.999438 3194.677043 " transform="matrix(0.24, 0, 0, -0.24, -675.380005, 996.159973)"/>
<path fill="none" stroke-width="8" stroke-linecap="butt" stroke-linejoin="round" stroke="rgb(0%, 0%, 0%)" stroke-opacity="1" stroke-miterlimit="4" d="M 3053.992276 3194.677043 L 3023.002692 3177.668579 " transform="matrix(0.24, 0, 0, -0.24, -675.380005, 996.159973)"/>
<path fill="none" stroke-width="8" stroke-linecap="butt" stroke-linejoin="round" stroke="rgb(0%, 0%, 0%)" stroke-opacity="1" stroke-miterlimit="4" d="M 3023.995531 3179.670532 L 2993.005947 3172.671834 " transform="matrix(0.24, 0, 0, -0.24, -675.380005, 996.159973)"/>
<path fill="none" stroke-width="6" stroke-linecap="round" stroke-linejoin="round" stroke="rgb(0%, 0%, 0%)" stroke-opacity="1" stroke-dasharray="24 18" stroke-miterlimit="4" d="M 3536.007261 3895.669897 L 3536.007261 3533.674446 " transform="matrix(0.24, 0, 0, -0.24, -675.380005, 996.159973)"/>
<path fill="none" stroke-width="6" stroke-linecap="round" stroke-linejoin="round" stroke="rgb(0%, 0%, 0%)" stroke-opacity="1" stroke-dasharray="24 18" stroke-miterlimit="4" d="M 3128.992278 3896.662736 L 3532.003354 3896.662736 " transform="matrix(0.24, 0, 0, -0.24, -675.380005, 996.159973)"/>
</svg>
