<?xml version="1.0" encoding="UTF-8"?>
<svg xmlns="http://www.w3.org/2000/svg" xmlns:xlink="http://www.w3.org/1999/xlink" width="547.679993" height="246.139999" viewBox="0 0 547.679993 246.139999">
<path fill-rule="nonzero" fill="rgb(0%, 0%, 0%)" fill-opacity="1" d="M 421.027344 170.902344 C 422.199219 170.945312 422.316406 171.003906 422.316406 171.441406 C 422.316406 171.621094 422.257812 171.859375 422.136719 172.296875 C 422.097656 172.433594 422.058594 172.574219 422.039062 172.675781 L 422 172.8125 L 419.296875 182.777344 L 419.296875 182.859375 C 419.296875 183.316406 420.828125 183.910156 421.941406 183.910156 C 424.941406 183.910156 428.238281 180.429688 428.238281 177.308594 C 428.238281 175.914062 427.265625 174.921875 425.933594 174.921875 C 424.542969 174.921875 423.507812 175.734375 422.097656 177.925781 L 424.164062 170.207031 L 424.066406 170.109375 C 423.074219 170.289062 422.355469 170.40625 421.027344 170.566406 L 421.027344 170.902344 M 425.160156 175.894531 C 426.015625 175.894531 426.550781 176.550781 426.550781 177.605469 C 426.550781 178.917969 425.535156 181.046875 424.363281 182.28125 C 423.628906 183.035156 422.773438 183.453125 421.921875 183.453125 C 421.304688 183.453125 421.003906 183.234375 421.003906 182.777344 C 421.003906 181.585938 421.601562 179.65625 422.4375 178.183594 C 423.3125 176.652344 424.207031 175.894531 425.160156 175.894531 Z M 425.160156 175.894531 "/>
<path fill-rule="nonzero" fill="rgb(0%, 0%, 0%)" fill-opacity="1" d="M 339.636719 181.585938 C 338.542969 182.757812 337.765625 183.195312 336.792969 183.195312 C 335.660156 183.195312 334.984375 182.339844 334.984375 180.929688 C 334.984375 179.238281 335.679688 177.46875 336.792969 176.292969 C 337.371094 175.695312 338.164062 175.339844 338.941406 175.339844 C 339.398438 175.339844 339.695312 175.496094 339.695312 175.734375 C 339.695312 175.835938 339.65625 175.933594 339.574219 176.113281 C 339.4375 176.371094 339.398438 176.511719 339.398438 176.691406 C 339.398438 177.167969 339.695312 177.445312 340.171875 177.445312 C 340.707031 177.445312 341.125 177.050781 341.125 176.53125 C 341.125 175.617188 340.230469 174.921875 339.039062 174.921875 C 336.058594 174.921875 333.277344 177.824219 333.277344 180.929688 C 333.277344 182.816406 334.347656 183.910156 336.195312 183.910156 C 337.667969 183.910156 338.761719 183.296875 339.953125 181.785156 Z M 339.636719 181.585938 "/>
<path fill="none" stroke-width="6" stroke-linecap="round" stroke-linejoin="round" stroke="rgb(0%, 0%, 0%)" stroke-opacity="1" stroke-dasharray="24 18" stroke-miterlimit="4" d="M 2737.995463 1911.674034 L 2739.004578 1480.668165 " transform="matrix(0.24, 0, 0, -0.24, -509.23999, 491.540039)"/>
<path fill="none" stroke-width="6" stroke-linecap="round" stroke-linejoin="round" stroke="rgb(0%, 0%, 0%)" stroke-opacity="1" stroke-dasharray="24 18" stroke-miterlimit="4" d="M 4221.003309 1479.675326 L 2741.99937 1480.668165 " transform="matrix(0.24, 0, 0, -0.24, -509.23999, 491.540039)"/>
<path fill-rule="nonzero" fill="rgb(0%, 0%, 0%)" fill-opacity="1" d="M 27.328125 234.261719 C 26.195312 234.160156 26.078125 234 25.816406 232.550781 L 23.949219 221.296875 L 23.433594 221.296875 L 17.667969 231.242188 C 16.101562 233.882812 15.902344 234.101562 15.105469 234.261719 L 15.105469 234.578125 L 18.824219 234.578125 L 18.824219 234.261719 C 17.808594 234.160156 17.648438 234.0625 17.648438 233.566406 C 17.648438 233.1875 17.710938 233.007812 18.046875 232.332031 L 19.179688 230.089844 L 23.550781 230.089844 L 23.949219 232.691406 C 23.96875 232.871094 23.988281 233.050781 23.988281 233.207031 C 23.988281 233.960938 23.710938 234.140625 22.441406 234.261719 L 22.441406 234.578125 L 27.328125 234.578125 L 27.328125 234.261719 M 19.597656 229.375 L 22.578125 224.199219 L 23.453125 229.375 Z M 19.597656 229.375 "/>
<path fill-rule="nonzero" fill="rgb(0%, 0%, 0%)" fill-opacity="1" d="M 380.761719 234.097656 L 386.363281 234.097656 C 389.484375 234.097656 391.632812 232.464844 391.632812 230.117188 C 391.632812 229.382812 391.394531 228.683594 390.957031 228.246094 C 390.558594 227.789062 390.160156 227.550781 389.128906 227.113281 C 390.539062 226.773438 391.113281 226.535156 391.75 225.980469 C 392.308594 225.503906 392.605469 224.824219 392.605469 224.03125 C 392.605469 222.140625 391.195312 221.105469 388.628906 221.105469 L 383.503906 221.105469 L 383.503906 221.425781 C 384.734375 221.523438 385.035156 221.683594 385.035156 222.242188 C 385.035156 222.539062 384.953125 223.035156 384.816406 223.511719 L 382.371094 232.308594 C 382.011719 233.460938 381.875 233.582031 380.761719 233.78125 L 380.761719 234.097656 M 385.648438 227.511719 C 386.941406 227.511719 387.777344 227.589844 388.171875 227.75 C 388.988281 228.089844 389.484375 228.964844 389.484375 230.039062 C 389.484375 232.1875 388.015625 233.5 385.589844 233.5 C 384.753906 233.5 384.316406 233.203125 384.316406 232.664062 C 384.316406 232.425781 384.554688 231.472656 385.011719 229.878906 C 385.273438 228.984375 385.390625 228.527344 385.648438 227.511719 M 387.140625 222.261719 C 387.257812 221.824219 387.496094 221.703125 388.273438 221.703125 C 389.863281 221.703125 390.597656 222.378906 390.597656 223.851562 C 390.597656 224.984375 390.121094 225.859375 389.265625 226.335938 C 388.589844 226.734375 387.636719 226.875 385.847656 226.875 Z M 387.140625 222.261719 "/>
<path fill-rule="nonzero" fill="rgb(0%, 0%, 0%)" fill-opacity="1" d="M 516.515625 17.007812 L 517.253906 13.054688 L 516.835938 13.054688 C 516.675781 13.371094 516.476562 13.492188 516.082031 13.492188 C 515.921875 13.492188 515.683594 13.449219 515.265625 13.351562 C 514.371094 13.132812 513.574219 13.015625 512.941406 13.015625 C 508.707031 13.015625 504.871094 17.007812 504.871094 21.421875 C 504.871094 24.460938 507.019531 26.609375 510.058594 26.609375 C 512.105469 26.609375 513.695312 25.734375 515.484375 23.644531 L 515.144531 23.367188 C 513.359375 25.117188 512.203125 25.714844 510.574219 25.714844 C 508.367188 25.714844 507.097656 24.203125 507.097656 21.640625 C 507.097656 19.273438 508.050781 16.871094 509.601562 15.261719 C 510.554688 14.285156 511.808594 13.730469 513.117188 13.730469 C 514.949219 13.730469 515.960938 14.804688 516.160156 16.949219 Z M 516.515625 17.007812 "/>
<path fill-rule="nonzero" fill="rgb(0%, 0%, 0%)" fill-opacity="1" d="M 143.503906 12.386719 C 144.734375 12.503906 145.035156 12.664062 145.035156 13.199219 C 145.035156 13.5 144.953125 13.976562 144.816406 14.472656 L 142.371094 23.269531 C 142.011719 24.421875 141.875 24.542969 140.761719 24.742188 L 140.761719 25.058594 L 145.789062 25.058594 C 148.113281 25.058594 150.242188 24.441406 151.769531 23.328125 C 153.699219 21.914062 154.832031 19.726562 154.832031 17.417969 C 154.832031 14.15625 152.566406 12.066406 149.027344 12.066406 L 143.503906 12.066406 L 143.503906 12.386719 M 147.140625 13.242188 C 147.261719 12.804688 147.558594 12.664062 148.351562 12.664062 C 149.484375 12.664062 150.480469 12.921875 151.117188 13.398438 C 152.089844 14.117188 152.625 15.371094 152.625 16.941406 C 152.625 19.089844 151.792969 21.316406 150.441406 22.671875 C 149.265625 23.863281 147.65625 24.460938 145.589844 24.460938 C 144.675781 24.460938 144.296875 24.242188 144.296875 23.726562 C 144.296875 23.46875 144.398438 23.027344 144.734375 21.835938 Z M 147.140625 13.242188 "/>
<path fill-rule="nonzero" fill="rgb(0%, 0%, 0%)" fill-opacity="1" d="M 151.839844 143.828125 L 141.960938 143.828125 L 141.960938 144.144531 C 143.195312 144.265625 143.492188 144.421875 143.492188 144.960938 C 143.492188 145.179688 143.375 145.875 143.273438 146.234375 L 140.828125 155.027344 C 140.492188 156.164062 140.332031 156.300781 139.21875 156.5 L 139.21875 156.816406 L 149.296875 156.816406 L 150.527344 153.59375 L 150.210938 153.4375 C 149.277344 154.710938 148.757812 155.226562 147.90625 155.625 C 147.167969 155.964844 145.816406 156.164062 144.328125 156.164062 C 143.214844 156.164062 142.738281 155.964844 142.738281 155.484375 C 142.738281 155.265625 142.957031 154.332031 143.453125 152.582031 C 143.710938 151.703125 143.890625 151.046875 144.089844 150.292969 C 144.785156 150.332031 145.402344 150.351562 145.640625 150.351562 C 146.414062 150.332031 146.96875 150.453125 147.1875 150.648438 C 147.289062 150.75 147.328125 150.929688 147.328125 151.265625 C 147.328125 151.605469 147.289062 151.863281 147.1875 152.300781 L 147.585938 152.402344 L 148.9375 147.785156 L 148.582031 147.707031 C 147.824219 149.398438 147.644531 149.515625 145.835938 149.597656 C 145.597656 149.597656 144.964844 149.617188 144.269531 149.636719 L 145.578125 145 C 145.699219 144.5625 145.917969 144.484375 147.03125 144.484375 C 150.152344 144.484375 150.847656 144.742188 150.847656 145.9375 C 150.847656 146.195312 150.828125 146.492188 150.804688 146.832031 L 151.222656 146.871094 Z M 151.839844 143.828125 "/>
<path fill-rule="nonzero" fill="rgb(0%, 0%, 0%)" fill-opacity="1" d="M 518.058594 142.867188 L 508.160156 142.867188 L 508.160156 143.183594 C 509.453125 143.304688 509.691406 143.425781 509.691406 144 C 509.691406 144.300781 509.613281 144.796875 509.472656 145.273438 L 507.027344 154.066406 C 506.671875 155.261719 506.53125 155.382812 505.398438 155.539062 L 505.398438 155.859375 L 510.40625 155.859375 L 510.40625 155.539062 C 509.253906 155.480469 508.894531 155.261719 508.894531 154.664062 C 508.894531 154.503906 508.957031 154.207031 509.074219 153.769531 L 510.308594 149.332031 C 511.042969 149.371094 511.480469 149.390625 511.917969 149.390625 C 512.691406 149.390625 512.832031 149.414062 513.011719 149.492188 C 513.308594 149.652344 513.449219 149.910156 513.449219 150.308594 C 513.449219 150.625 513.40625 150.863281 513.289062 151.480469 L 513.625 151.582031 L 515.136719 146.925781 L 514.777344 146.824219 C 513.886719 148.617188 513.824219 148.636719 510.484375 148.675781 L 511.796875 144.039062 C 511.917969 143.644531 512.195312 143.523438 513.011719 143.523438 C 516.347656 143.523438 517.066406 143.78125 517.066406 145.015625 C 517.066406 145.136719 517.066406 145.234375 517.042969 145.492188 C 517.023438 145.613281 517.023438 145.632812 517.003906 145.871094 L 517.421875 145.910156 Z M 518.058594 142.867188 "/>
<path fill="none" stroke-width="6" stroke-linecap="round" stroke-linejoin="round" stroke="rgb(0%, 0%, 0%)" stroke-opacity="1" stroke-miterlimit="4" d="M 2735.000671 1920.674685 L 2239.997405 1161.674017 L 3725.007204 1161.674017 L 4219.994194 1920.674685 Z M 2735.000671 1920.674685 " transform="matrix(0.24, 0, 0, -0.24, -509.23999, 491.540039)"/>
<path fill="none" stroke-width="6" stroke-linecap="round" stroke-linejoin="round" stroke="rgb(0%, 0%, 0%)" stroke-opacity="1" stroke-dasharray="0 12" stroke-miterlimit="4" d="M 4217.992241 1919.66557 L 3253.994824 1161.674017 " transform="matrix(0.24, 0, 0, -0.24, -509.23999, 491.540039)"/>
<path fill="none" stroke-width="6" stroke-linecap="round" stroke-linejoin="round" stroke="rgb(0%, 0%, 0%)" stroke-opacity="1" stroke-miterlimit="4" d="M 4219.994194 1920.674685 L 4219.994194 1477.673373 " transform="matrix(0.24, 0, 0, -0.24, -509.23999, 491.540039)"/>
<path fill="none" stroke-width="6" stroke-linecap="round" stroke-linejoin="round" stroke="rgb(0%, 0%, 0%)" stroke-opacity="1" stroke-dasharray="0 12" stroke-miterlimit="4" d="M 4219.994194 1478.666211 L 3255.003938 1161.674017 " transform="matrix(0.24, 0, 0, -0.24, -509.23999, 491.540039)"/>
<path fill="none" stroke-width="6" stroke-linecap="round" stroke-linejoin="round" stroke="rgb(0%, 0%, 0%)" stroke-opacity="1" stroke-dasharray="24 18" stroke-miterlimit="4" d="M 2737.002625 1480.668165 L 2239.997405 1161.674017 " transform="matrix(0.24, 0, 0, -0.24, -509.23999, 491.540039)"/>
<path fill="none" stroke-width="6" stroke-linecap="round" stroke-linejoin="round" stroke="rgb(0%, 0%, 0%)" stroke-opacity="1" stroke-miterlimit="4" d="M 4219.001356 1477.673373 L 3726.000043 1161.674017 " transform="matrix(0.24, 0, 0, -0.24, -509.23999, 491.540039)"/>
<path fill="none" stroke-width="6" stroke-linecap="round" stroke-linejoin="round" stroke="rgb(0%, 0%, 0%)" stroke-opacity="1" stroke-miterlimit="4" d="M 3817.992232 1294.665556 C 3839.997441 1294.665556 3857.005905 1273.669462 3857.005905 1246.667508 " transform="matrix(0.24, 0, 0, -0.24, -509.23999, 491.540039)"/>
<path fill="none" stroke-width="6" stroke-linecap="round" stroke-linejoin="round" stroke="rgb(0%, 0%, 0%)" stroke-opacity="1" stroke-miterlimit="4" d="M 3453.00199 1316.670765 C 3480.996782 1313.675973 3498.998084 1279.675322 3494.001339 1240.677925 " transform="matrix(0.24, 0, 0, -0.24, -509.23999, 491.540039)"/>
<path fill="none" stroke-width="6" stroke-linecap="round" stroke-linejoin="round" stroke="rgb(0%, 0%, 0%)" stroke-opacity="1" stroke-miterlimit="4" d="M 2335.993501 1306.677275 C 2357.99871 1303.666208 2375.007174 1280.66816 2376.992851 1250.671415 " transform="matrix(0.24, 0, 0, -0.24, -509.23999, 491.540039)"/>
<path fill-rule="nonzero" fill="rgb(0%, 0%, 0%)" fill-opacity="1" d="M 69.261719 179.585938 C 68.964844 179.882812 68.84375 179.984375 68.703125 180.140625 C 68.109375 180.757812 67.851562 180.957031 67.671875 180.957031 C 67.511719 180.957031 67.394531 180.839844 67.394531 180.699219 C 67.394531 180.300781 68.226562 176.898438 69.160156 173.476562 C 69.222656 173.277344 69.242188 173.238281 69.28125 173.058594 L 69.140625 173 L 67.929688 173.140625 L 67.871094 173.199219 L 67.652344 174.15625 C 67.492188 173.417969 66.917969 173 66.0625 173 C 63.4375 173 60.378906 176.640625 60.378906 179.785156 C 60.378906 181.175781 61.132812 181.992188 62.40625 181.992188 C 63.796875 181.992188 64.652344 181.335938 66.398438 178.871094 C 66 180.421875 65.941406 180.679688 65.941406 181.15625 C 65.941406 181.734375 66.179688 181.972656 66.738281 181.972656 C 67.53125 181.972656 68.027344 181.59375 69.5 179.785156 L 69.261719 179.585938 M 66.179688 173.4375 C 66.855469 173.476562 67.292969 173.957031 67.292969 174.652344 C 67.292969 176.324219 66.300781 178.671875 64.929688 180.140625 C 64.453125 180.679688 63.777344 181.015625 63.199219 181.015625 C 62.503906 181.015625 62.046875 180.441406 62.046875 179.527344 C 62.046875 178.453125 62.800781 176.402344 63.65625 175.167969 C 64.453125 174.015625 65.386719 173.378906 66.179688 173.4375 Z M 66.179688 173.4375 "/>
<path fill="none" stroke-width="6" stroke-linecap="round" stroke-linejoin="round" stroke="rgb(0%, 0%, 0%)" stroke-opacity="1" stroke-dasharray="24 18" stroke-miterlimit="4" d="M 2735.000671 1626.664262 L 2630.996763 1567.663609 L 2630.996763 1416.670767 " transform="matrix(0.24, 0, 0, -0.24, -509.23999, 491.540039)"/>
<path fill="none" stroke-width="6" stroke-linecap="round" stroke-linejoin="round" stroke="rgb(0%, 0%, 0%)" stroke-opacity="1" stroke-dasharray="0 12" stroke-miterlimit="4" d="M 4214.004611 1625.671423 L 4067.992238 1586.674026 L 4067.992238 1431.677278 " transform="matrix(0.24, 0, 0, -0.24, -509.23999, 491.540039)"/>
<path fill="none" stroke-width="6" stroke-linecap="round" stroke-linejoin="round" stroke="rgb(0%, 0%, 0%)" stroke-opacity="1" stroke-miterlimit="4" d="M 4212.995496 1621.667517 L 4116.9994 1566.670771 L 4116.006562 1415.677929 " transform="matrix(0.24, 0, 0, -0.24, -509.23999, 491.540039)"/>
<path fill-rule="nonzero" fill="rgb(0%, 0%, 0%)" fill-opacity="1" d="M 274.75 219.972656 L 274.453125 219.894531 C 274.113281 220.371094 273.777344 220.570312 273.261719 220.570312 C 273.0625 220.570312 272.824219 220.511719 272.386719 220.371094 C 271.390625 220.054688 270.535156 219.894531 269.722656 219.894531 C 265.527344 219.894531 261.710938 223.867188 261.710938 228.238281 C 261.710938 229.589844 262.289062 230.984375 263.222656 231.9375 C 264.238281 232.949219 265.6875 233.488281 267.417969 233.488281 C 269.164062 233.488281 270.597656 233.109375 272.128906 232.253906 L 273.101562 228.539062 C 273.417969 227.425781 273.738281 227.1875 275.027344 227.105469 L 275.027344 226.789062 L 269.742188 226.789062 L 269.742188 227.105469 C 269.980469 227.125 270.238281 227.164062 270.320312 227.164062 C 270.972656 227.226562 271.292969 227.425781 271.292969 227.78125 C 271.292969 228.21875 271.171875 228.777344 270.734375 230.246094 C 270.296875 231.679688 270.238281 231.835938 270 232.078125 C 269.5625 232.511719 268.808594 232.753906 267.914062 232.753906 C 265.351562 232.753906 263.898438 231.28125 263.898438 228.675781 C 263.898438 226.230469 264.875 223.710938 266.441406 222.039062 C 267.335938 221.105469 268.570312 220.570312 269.882812 220.570312 C 271.171875 220.570312 272.265625 221.105469 272.863281 222.019531 C 273.179688 222.539062 273.320312 222.953125 273.417969 223.828125 L 273.777344 223.886719 Z M 274.75 219.972656 "/>
<path fill="none" stroke-width="6" stroke-linecap="round" stroke-linejoin="round" stroke="rgb(0%, 0%, 0%)" stroke-opacity="1" stroke-dasharray="0 12" stroke-miterlimit="4" d="M 2739.997416 1916.670779 L 3257.99873 1161.674017 " transform="matrix(0.24, 0, 0, -0.24, -509.23999, 491.540039)"/>
<path fill="none" stroke-width="6" stroke-linecap="round" stroke-linejoin="round" stroke="rgb(0%, 0%, 0%)" stroke-opacity="1" stroke-dasharray="0 12" stroke-miterlimit="4" d="M 2739.997416 1481.677279 L 3251.000032 1162.666855 " transform="matrix(0.24, 0, 0, -0.24, -509.23999, 491.540039)"/>
<path fill="none" stroke-width="6" stroke-linecap="round" stroke-linejoin="round" stroke="rgb(0%, 0%, 0%)" stroke-opacity="1" stroke-miterlimit="4" d="M 3142.992217 1328.666208 C 3112.002633 1321.66751 3092.992216 1291.670765 3098.005237 1260.664904 " transform="matrix(0.24, 0, 0, -0.24, -509.23999, 491.540039)"/>
<path fill-rule="nonzero" fill="rgb(0%, 0%, 0%)" fill-opacity="1" d="M 231.480469 177.164062 C 230.40625 178.398438 230.191406 178.578125 229.851562 178.578125 C 229.652344 178.578125 229.492188 178.398438 229.492188 178.179688 C 229.492188 177.902344 230.128906 175.472656 230.785156 173.285156 C 231.320312 171.457031 231.738281 169.863281 232.753906 165.886719 L 232.652344 165.789062 C 231.601562 166.007812 230.886719 166.125 229.613281 166.246094 L 229.613281 166.585938 C 230.707031 166.625 230.84375 166.683594 230.84375 167.101562 C 230.84375 167.359375 230.824219 167.480469 230.546875 168.492188 L 229.671875 171.753906 C 229.515625 170.917969 229.15625 170.601562 228.382812 170.601562 C 225.796875 170.601562 222.578125 174.339844 222.578125 177.324219 C 222.578125 178.738281 223.371094 179.589844 224.664062 179.589844 C 226.015625 179.589844 226.890625 178.957031 228.242188 176.964844 C 228.023438 177.980469 227.984375 178.28125 227.984375 178.738281 C 227.984375 179.273438 228.320312 179.632812 228.816406 179.632812 C 229.652344 179.632812 230.6875 178.816406 231.71875 177.363281 L 231.480469 177.164062 M 228.460938 171.058594 C 229.054688 171.097656 229.355469 171.476562 229.355469 172.191406 C 229.355469 175.214844 227.289062 178.636719 225.460938 178.636719 C 224.785156 178.636719 224.308594 178.101562 224.308594 177.324219 C 224.308594 175.671875 225.300781 173.367188 226.613281 171.972656 C 227.167969 171.394531 227.902344 171.019531 228.460938 171.058594 Z M 228.460938 171.058594 "/>
<path fill="none" stroke-width="6" stroke-linecap="round" stroke-linejoin="round" stroke="rgb(0%, 0%, 0%)" stroke-opacity="1" stroke-dasharray="0 12" stroke-miterlimit="4" d="M 2737.002625 1629.675329 L 2844.001325 1561.674026 L 2841.999372 1418.672721 " transform="matrix(0.24, 0, 0, -0.24, -509.23999, 491.540039)"/>
</svg>
