<?xml version="1.0" encoding="UTF-8"?>
<svg xmlns="http://www.w3.org/2000/svg" xmlns:xlink="http://www.w3.org/1999/xlink" width="483.079987" height="343.079987" viewBox="0 0 483.079987 343.079987">
<path fill="none" stroke-width="6" stroke-linecap="round" stroke-linejoin="round" stroke="rgb(0%, 0%, 0%)" stroke-opacity="1" stroke-miterlimit="4" d="M 2588.005378 5915.668111 L 4282.992395 5914.675273 " transform="matrix(0.24, 0, 0, -0.24, -593.840027, 1506.940002)"/>
<path fill="none" stroke-width="6" stroke-linecap="round" stroke-linejoin="round" stroke="rgb(0%, 0%, 0%)" stroke-opacity="1" stroke-miterlimit="4" d="M 4218.002159 5881.667459 L 4284.00151 5914.675273 L 4218.002159 5946.673971 " transform="matrix(0.24, 0, 0, -0.24, -593.840027, 1506.940002)"/>
<path fill="none" stroke-width="6" stroke-linecap="round" stroke-linejoin="round" stroke="rgb(0%, 0%, 0%)" stroke-opacity="1" stroke-miterlimit="4" d="M 3770.004102 4893.66288 L 3772.006056 6180.674627 " transform="matrix(0.24, 0, 0, -0.24, -593.840027, 1506.940002)"/>
<path fill="none" stroke-width="6" stroke-linecap="round" stroke-linejoin="round" stroke="rgb(0%, 0%, 0%)" stroke-opacity="1" stroke-miterlimit="4" d="M 3804.997593 6114.675277 L 3772.006056 6180.674627 L 3740.007357 6114.675277 " transform="matrix(0.24, 0, 0, -0.24, -593.840027, 1506.940002)"/>
<path fill-rule="nonzero" fill="rgb(0%, 0%, 0%)" fill-opacity="1" d="M 436.082031 105.121094 C 435.921875 105.300781 435.824219 105.421875 435.644531 105.660156 C 435.1875 106.257812 434.949219 106.457031 434.730469 106.457031 C 434.429688 106.457031 434.25 106.199219 434.113281 105.640625 C 434.070312 105.480469 434.050781 105.359375 434.03125 105.300781 C 433.535156 103.289062 433.316406 102.371094 433.316406 102.074219 C 434.191406 100.539062 434.90625 99.660156 435.265625 99.660156 C 435.386719 99.660156 435.546875 99.722656 435.742188 99.820312 C 435.984375 99.960938 436.121094 100 436.28125 100 C 436.699219 100 436.976562 99.703125 436.976562 99.28125 C 436.976562 98.863281 436.640625 98.546875 436.160156 98.546875 C 435.285156 98.546875 434.53125 99.261719 433.15625 101.394531 L 432.9375 100.300781 C 432.660156 98.945312 432.4375 98.546875 431.902344 98.546875 C 431.464844 98.546875 430.785156 98.726562 429.574219 99.125 L 429.355469 99.203125 L 429.433594 99.503906 C 430.191406 99.324219 430.367188 99.28125 430.546875 99.28125 C 431.046875 99.28125 431.164062 99.460938 431.445312 100.65625 L 432.019531 103.109375 L 430.390625 105.441406 C 429.992188 106.039062 429.59375 106.398438 429.375 106.398438 C 429.253906 106.398438 429.054688 106.335938 428.855469 106.21875 C 428.597656 106.078125 428.378906 106.019531 428.21875 106.019531 C 427.839844 106.019531 427.542969 106.316406 427.542969 106.714844 C 427.542969 107.234375 427.941406 107.550781 428.539062 107.550781 C 429.152344 107.550781 429.394531 107.375 430.390625 106.160156 C 430.925781 105.519531 431.34375 104.984375 432.179688 103.828125 L 432.777344 106.21875 C 433.035156 107.234375 433.296875 107.550781 433.933594 107.550781 C 434.6875 107.550781 435.207031 107.074219 436.359375 105.28125 Z M 436.082031 105.121094 "/>
<path fill-rule="nonzero" fill="rgb(0%, 0%, 0%)" fill-opacity="1" d="M 293.019531 24.484375 C 293.277344 24.421875 293.417969 24.402344 293.636719 24.402344 C 294.769531 24.402344 295.070312 24.902344 295.984375 28.332031 C 296.324219 29.625 296.800781 31.960938 296.800781 32.296875 C 296.800781 32.617188 296.679688 32.9375 296.382812 33.296875 C 295.765625 34.113281 295.367188 34.628906 295.148438 34.871094 C 294.730469 35.308594 294.492188 35.46875 294.230469 35.46875 C 294.113281 35.46875 293.972656 35.40625 293.753906 35.25 C 293.457031 35.007812 293.238281 34.910156 293.019531 34.910156 C 292.582031 34.910156 292.242188 35.25 292.242188 35.6875 C 292.242188 36.183594 292.679688 36.5625 293.257812 36.5625 C 294.53125 36.5625 297.140625 33.574219 299.289062 29.625 C 300.644531 27.175781 301.199219 25.738281 301.199219 24.761719 C 301.199219 24.164062 300.703125 23.664062 300.105469 23.664062 C 299.648438 23.664062 299.328125 23.964844 299.328125 24.402344 C 299.328125 24.703125 299.488281 24.921875 299.886719 25.179688 C 300.265625 25.398438 300.402344 25.578125 300.402344 25.859375 C 300.402344 26.65625 299.667969 28.210938 297.976562 31.023438 L 297.578125 28.710938 C 297.277344 26.957031 296.164062 23.664062 295.863281 23.664062 L 295.785156 23.664062 C 295.765625 23.6875 295.6875 23.6875 295.605469 23.6875 C 295.425781 23.707031 294.710938 23.824219 293.65625 24.023438 C 293.554688 24.042969 293.296875 24.105469 293.019531 24.144531 Z M 293.019531 24.484375 "/>
<path fill-rule="nonzero" fill="rgb(0%, 0%, 0%)" fill-opacity="1" d="M 303.117188 93.113281 C 301.445312 93.113281 299.652344 93.910156 298.058594 95.363281 C 296.046875 97.210938 294.875 99.640625 294.875 101.96875 C 294.875 104.757812 296.683594 106.730469 299.214844 106.730469 C 303.355469 106.730469 307.375 102.546875 307.59375 98.050781 C 307.734375 95.242188 305.785156 93.113281 303.117188 93.113281 M 302.9375 93.769531 C 304.507812 93.769531 305.503906 94.921875 305.503906 96.792969 C 305.503906 98.945312 304.570312 101.851562 303.273438 103.722656 C 302.179688 105.296875 300.945312 106.070312 299.550781 106.070312 C 297.878906 106.070312 296.964844 104.855469 296.964844 102.707031 C 296.964844 100.835938 297.960938 97.871094 299.152344 96.136719 C 300.269531 94.527344 301.484375 93.769531 302.9375 93.769531 Z M 302.9375 93.769531 "/>
<path fill="none" stroke-width="6" stroke-linecap="round" stroke-linejoin="round" stroke="rgb(0%, 0%, 0%)" stroke-opacity="1" stroke-miterlimit="4" d="M 2966.993017 5035.671347 C 2984.001481 5092.670046 3034.99432 5277.66354 3070.004087 5379.665495 C 3104.004739 5480.674612 3138.00539 5568.662895 3172.998881 5644.672011 C 3206.999533 5720.664852 3241.000184 5784.662249 3275.993675 5835.671365 C 3309.994327 5886.664204 3347.006046 5926.670716 3381.999536 5951.670716 C 3416.000188 5977.663555 3447.998887 5986.664206 3481.999539 5987.673321 C 3516.00019 5987.673321 3550.993681 5978.67267 3586.003447 5953.672669 C 3620.004099 5927.663554 3652.995636 5886.664204 3688.005403 5835.671365 C 3722.006054 5783.66941 3756.006706 5720.664852 3791.000197 5644.672011 C 3825.000848 5568.662895 3859.0015 5482.676565 3893.994991 5380.67461 C 3927.995642 5279.665493 3975.000852 5107.676557 3997.006061 5035.671347 " transform="matrix(0.24, 0, 0, -0.24, -593.840027, 1506.940002)"/>
<path fill-rule="nonzero" fill="rgb(0%, 0%, 0%)" fill-opacity="1" d="M 161.933594 123.183594 C 163.097656 123.222656 163.214844 123.28125 163.214844 123.714844 C 163.214844 123.894531 163.15625 124.132812 163.039062 124.566406 C 163 124.703125 162.960938 124.84375 162.941406 124.941406 L 162.898438 125.078125 L 160.214844 134.984375 L 160.214844 135.0625 C 160.214844 135.519531 161.734375 136.109375 162.839844 136.109375 C 165.824219 136.109375 169.101562 132.652344 169.101562 129.546875 C 169.101562 128.164062 168.136719 127.175781 166.8125 127.175781 C 165.429688 127.175781 164.402344 127.984375 163 130.160156 L 165.054688 122.492188 L 164.953125 122.390625 C 163.96875 122.570312 163.253906 122.6875 161.933594 122.847656 L 161.933594 123.183594 M 166.042969 128.144531 C 166.890625 128.144531 167.425781 128.796875 167.425781 129.84375 C 167.425781 131.148438 166.417969 133.265625 165.25 134.488281 C 164.519531 135.242188 163.671875 135.65625 162.820312 135.65625 C 162.207031 135.65625 161.914062 135.4375 161.914062 134.984375 C 161.914062 133.796875 162.503906 131.878906 163.335938 130.417969 C 164.203125 128.894531 165.09375 128.144531 166.042969 128.144531 Z M 166.042969 128.144531 "/>
<path fill-rule="nonzero" fill="rgb(0%, 0%, 0%)" fill-opacity="1" d="M 139.621094 133.699219 C 139.460938 133.878906 139.363281 133.996094 139.1875 134.234375 C 138.730469 134.828125 138.496094 135.023438 138.277344 135.023438 C 137.980469 135.023438 137.804688 134.765625 137.664062 134.214844 C 137.625 134.054688 137.605469 133.9375 137.585938 133.878906 C 137.09375 131.878906 136.875 130.96875 136.875 130.675781 C 137.742188 129.152344 138.453125 128.28125 138.808594 128.28125 C 138.929688 128.28125 139.085938 128.339844 139.285156 128.441406 C 139.519531 128.578125 139.660156 128.617188 139.816406 128.617188 C 140.234375 128.617188 140.507812 128.320312 140.507812 127.90625 C 140.507812 127.492188 140.171875 127.175781 139.699219 127.175781 C 138.832031 127.175781 138.078125 127.886719 136.714844 130 L 136.5 128.914062 C 136.222656 127.570312 136.003906 127.175781 135.472656 127.175781 C 135.039062 127.175781 134.367188 127.351562 133.160156 127.746094 L 132.945312 127.828125 L 133.023438 128.125 C 133.773438 127.945312 133.949219 127.90625 134.128906 127.90625 C 134.621094 127.90625 134.742188 128.082031 135.019531 129.269531 L 135.589844 131.703125 L 133.972656 134.015625 C 133.574219 134.609375 133.179688 134.964844 132.964844 134.964844 C 132.84375 134.964844 132.648438 134.90625 132.449219 134.785156 C 132.191406 134.648438 131.976562 134.589844 131.816406 134.589844 C 131.441406 134.589844 131.144531 134.886719 131.144531 135.28125 C 131.144531 135.792969 131.542969 136.109375 132.132812 136.109375 C 132.746094 136.109375 132.984375 135.933594 133.972656 134.726562 C 134.503906 134.09375 134.917969 133.5625 135.75 132.414062 L 136.339844 134.785156 C 136.597656 135.792969 136.855469 136.109375 137.488281 136.109375 C 138.238281 136.109375 138.75 135.636719 139.898438 133.859375 Z M 139.621094 133.699219 "/>
<path fill-rule="nonzero" fill="rgb(0%, 0%, 0%)" fill-opacity="1" d="M 89.941406 133.699219 C 89.78125 133.878906 89.683594 133.996094 89.503906 134.234375 C 89.050781 134.828125 88.8125 135.023438 88.597656 135.023438 C 88.300781 135.023438 88.125 134.765625 87.984375 134.214844 C 87.945312 134.054688 87.925781 133.9375 87.90625 133.878906 C 87.410156 131.878906 87.195312 130.96875 87.195312 130.675781 C 88.0625 129.152344 88.773438 128.28125 89.128906 128.28125 C 89.25 128.28125 89.40625 128.339844 89.605469 128.441406 C 89.839844 128.578125 89.980469 128.617188 90.136719 128.617188 C 90.554688 128.617188 90.828125 128.320312 90.828125 127.90625 C 90.828125 127.492188 90.492188 127.175781 90.019531 127.175781 C 89.148438 127.175781 88.398438 127.886719 87.035156 130 L 86.820312 128.914062 C 86.542969 127.570312 86.324219 127.175781 85.792969 127.175781 C 85.359375 127.175781 84.6875 127.351562 83.480469 127.746094 L 83.265625 127.828125 L 83.34375 128.125 C 84.09375 127.945312 84.269531 127.90625 84.449219 127.90625 C 84.941406 127.90625 85.0625 128.082031 85.335938 129.269531 L 85.910156 131.703125 L 84.289062 134.015625 C 83.894531 134.609375 83.5 134.964844 83.285156 134.964844 C 83.164062 134.964844 82.96875 134.90625 82.769531 134.785156 C 82.511719 134.648438 82.296875 134.589844 82.136719 134.589844 C 81.761719 134.589844 81.464844 134.886719 81.464844 135.28125 C 81.464844 135.792969 81.863281 136.109375 82.453125 136.109375 C 83.066406 136.109375 83.304688 135.933594 84.289062 134.726562 C 84.824219 134.09375 85.238281 133.5625 86.070312 132.414062 L 86.660156 134.785156 C 86.917969 135.792969 87.175781 136.109375 87.808594 136.109375 C 88.558594 136.109375 89.070312 135.636719 90.21875 133.859375 Z M 89.941406 133.699219 "/>
<path fill-rule="nonzero" fill="rgb(0%, 0%, 0%)" fill-opacity="1" d="M 79.164062 133.71875 C 78.867188 134.015625 78.75 134.113281 78.613281 134.273438 C 78.019531 134.886719 77.761719 135.082031 77.585938 135.082031 C 77.425781 135.082031 77.308594 134.964844 77.308594 134.828125 C 77.308594 134.429688 78.136719 131.050781 79.066406 127.648438 C 79.125 127.453125 79.144531 127.410156 79.183594 127.234375 L 79.046875 127.175781 L 77.839844 127.3125 L 77.78125 127.371094 L 77.566406 128.320312 C 77.40625 127.589844 76.835938 127.175781 75.984375 127.175781 C 73.378906 127.175781 70.335938 130.792969 70.335938 133.917969 C 70.335938 135.300781 71.085938 136.109375 72.351562 136.109375 C 73.734375 136.109375 74.582031 135.457031 76.320312 133.007812 C 75.925781 134.550781 75.867188 134.804688 75.867188 135.28125 C 75.867188 135.855469 76.101562 136.089844 76.65625 136.089844 C 77.445312 136.089844 77.941406 135.714844 79.402344 133.917969 L 79.164062 133.71875 M 76.101562 127.609375 C 76.773438 127.648438 77.210938 128.125 77.210938 128.816406 C 77.210938 130.476562 76.222656 132.808594 74.859375 134.273438 C 74.386719 134.804688 73.714844 135.140625 73.140625 135.140625 C 72.449219 135.140625 71.996094 134.570312 71.996094 133.660156 C 71.996094 132.59375 72.746094 130.554688 73.59375 129.328125 C 74.386719 128.183594 75.3125 127.550781 76.101562 127.609375 Z M 76.101562 127.609375 "/>
<path fill-rule="nonzero" fill="rgb(0%, 0%, 0%)" fill-opacity="1" d="M 39.574219 127.984375 C 39.832031 127.925781 39.972656 127.90625 40.1875 127.90625 C 41.3125 127.90625 41.609375 128.402344 42.519531 131.804688 C 42.855469 133.089844 43.328125 135.402344 43.328125 135.738281 C 43.328125 136.054688 43.210938 136.371094 42.914062 136.730469 C 42.300781 137.539062 41.90625 138.054688 41.691406 138.292969 C 41.273438 138.726562 41.039062 138.882812 40.78125 138.882812 C 40.664062 138.882812 40.523438 138.824219 40.304688 138.667969 C 40.011719 138.429688 39.792969 138.332031 39.574219 138.332031 C 39.140625 138.332031 38.804688 138.667969 38.804688 139.101562 C 38.804688 139.597656 39.238281 139.972656 39.8125 139.972656 C 41.078125 139.972656 43.664062 137.003906 45.796875 133.089844 C 47.140625 130.65625 47.695312 129.230469 47.695312 128.261719 C 47.695312 127.667969 47.199219 127.175781 46.609375 127.175781 C 46.152344 127.175781 45.835938 127.472656 45.835938 127.90625 C 45.835938 128.203125 45.996094 128.421875 46.390625 128.675781 C 46.765625 128.894531 46.902344 129.074219 46.902344 129.351562 C 46.902344 130.140625 46.171875 131.683594 44.496094 134.472656 L 44.097656 132.179688 C 43.804688 130.4375 42.695312 127.175781 42.402344 127.175781 L 42.320312 127.175781 C 42.300781 127.195312 42.222656 127.195312 42.144531 127.195312 C 41.964844 127.214844 41.253906 127.332031 40.207031 127.53125 C 40.109375 127.550781 39.851562 127.609375 39.574219 127.648438 Z M 39.574219 127.984375 "/>
<path fill-rule="nonzero" fill="rgb(0%, 0%, 0%)" fill-opacity="1" d="M 150.84375 125.367188 L 149.757812 125.367188 L 149.757812 130.089844 L 145.078125 130.089844 L 145.078125 131.175781 L 149.757812 131.175781 L 149.757812 135.898438 L 150.84375 135.898438 L 150.84375 131.175781 L 155.527344 131.175781 L 155.527344 130.089844 L 150.84375 130.089844 Z M 150.84375 125.367188 "/>
<path fill-rule="nonzero" fill="rgb(0%, 0%, 0%)" fill-opacity="1" d="M 105.738281 130.089844 L 105.738281 131.175781 L 116.085938 131.175781 L 116.085938 130.089844 Z M 105.738281 130.089844 "/>
<path fill-rule="nonzero" fill="rgb(0%, 0%, 0%)" fill-opacity="1" d="M 64.527344 128.171875 L 54.136719 128.171875 L 54.136719 129.257812 L 64.527344 129.257812 L 64.527344 128.171875 M 64.527344 132 L 54.136719 132 L 54.136719 133.085938 L 64.527344 133.085938 Z M 64.527344 132 "/>
<path fill-rule="nonzero" fill="rgb(0%, 0%, 0%)" fill-opacity="1" d="M 130.023438 133.191406 L 129.765625 133.09375 C 129.035156 134.21875 128.777344 134.398438 127.890625 134.398438 L 123.167969 134.398438 L 126.488281 130.917969 C 128.246094 129.082031 129.015625 127.582031 129.015625 126.039062 C 129.015625 124.0625 127.414062 122.542969 125.359375 122.542969 C 124.273438 122.542969 123.246094 122.976562 122.515625 123.769531 C 121.882812 124.4375 121.585938 125.070312 121.25 126.472656 L 121.667969 126.574219 C 122.457031 124.636719 123.167969 124.003906 124.53125 124.003906 C 126.191406 124.003906 127.316406 125.132812 127.316406 126.789062 C 127.316406 128.332031 126.40625 130.167969 124.75 131.925781 L 121.230469 135.660156 L 121.230469 135.898438 L 128.9375 135.898438 Z M 130.023438 133.191406 "/>
<path fill-rule="nonzero" fill="rgb(0%, 0%, 0%)" fill-opacity="1" d="M 98.886719 125.125 L 98.707031 125.054688 C 98.195312 125.84375 98.015625 125.96875 97.394531 125.96875 L 94.089844 125.96875 L 96.414062 123.535156 C 97.644531 122.246094 98.183594 121.195312 98.183594 120.117188 C 98.183594 118.734375 97.0625 117.667969 95.625 117.667969 C 94.863281 117.667969 94.144531 117.972656 93.632812 118.527344 C 93.191406 118.996094 92.984375 119.441406 92.75 120.421875 L 93.039062 120.492188 C 93.589844 119.136719 94.089844 118.691406 95.042969 118.691406 C 96.203125 118.691406 96.992188 119.480469 96.992188 120.644531 C 96.992188 121.722656 96.355469 123.007812 95.195312 124.238281 L 92.734375 126.851562 L 92.734375 127.019531 L 98.128906 127.019531 Z M 98.886719 125.125 "/>
</svg>
