<?xml version="1.0" encoding="UTF-8" standalone="no"?>
<svg xmlns="http://www.w3.org/2000/svg" xmlns:xlink="http://www.w3.org/1999/xlink" width="114.13652991534006pt" height="104.37277489295373pt" viewBox="0 0 114.13652991534006 104.37277489295373">
  <defs>
    <clipPath id="crop-clip">
      <rect x="211.93444209994865" y="92.03225031926081" width="114.13652991534006" height="104.37277489295373" />
    </clipPath>
  </defs>
  <g transform="scale(1.5)">
  <g clip-path="url(#crop-clip)" transform="translate(-211.93444209994865, -92.03225031926081)">
<defs>
<clipPath id="clip_1">
<path transform="matrix(1.00005,0,0,-1.00005,-.013,841.908)" d="M0 0H595.276V841.89H0Z"/>
</clipPath>
<clipPath id="clip_2">
<path transform="matrix(1.0000999,0,0,-1.0000999,.11200625,841.981)" d="M0 0H595V842H0Z"/>
</clipPath>
<path id="font_3_28" d="M.052734376-.013671875V.0048828127C.095052089 .005533854 .13444011 .015355428 .17089844 .034347536 .20735677 .05334981 .2425944 .08655294 .27661134 .13395691 .31062828 .18137105 .3343099 .23371887 .34765626 .29100038 .29654948 .2578074 .25032554 .24121094 .20898438 .24121094 .16243489 .24121094 .122558597 .25919596 .08935547 .29516603 .056152345 .33113609 .03955078 .37890626 .03955078 .43847657 .03955078 .49641929 .056152345 .54801437 .08935547 .5932617 .12939453 .6482747 .18164063 .67578127 .24609375 .67578127 .30045573 .67578127 .34700523 .6533203 .3857422 .60839846 .43326823 .5527344 .45703126 .48404948 .45703126 .40234376 .45703126 .32877604 .43896485 .26017253 .40283204 .1965332 .36669923 .13289388 .31640626 .080078128 .25195313 .038085939 .19954427 .0035807293 .14241536-.013671875 .080566409-.013671875H.052734376M.35546876 .32704164C.36132813 .36924745 .3642578 .40301005 .3642578 .42832948 .3642578 .45981346 .35888673 .4938151 .34814454 .5303345 .33740235 .566864 .32218424 .5948639 .30249024 .6143341 .28279624 .6338145 .26041667 .6435547 .23535156 .6435547 .2063802 .6435547 .18098958 .63056948 .15917969 .604599 .1373698 .57862856 .12646485 .53999838 .12646485 .4887085 .12646485 .4202067 .14095052 .36664329 .16992188 .3280182 .19108074 .3000946 .21712239 .2861328 .24804688 .2861328 .26302085 .2861328 .28076173 .28970338 .30126954 .29684449 .32177735 .3039856 .33984376 .3140513 .35546876 .32704164Z"/>
<path id="font_3_20" d="M.1171875 .59765627 .2783203 .67578127H.2944336V.1171875C.2944336 .080078128 .29597984 .056966146 .29907228 .047851564 .3021647 .03873698 .30859376 .03173828 .31835938 .026855469 .328125 .021972657 .34798179 .019205729 .3779297 .018554688V0H.12890625V.018554688C.16015625 .019205729 .18033855 .021891276 .18945313 .026611329 .1985677 .03133138 .20491536 .037679037 .2084961 .045654298 .21207683 .05362956 .21386719 .07747396 .21386719 .1171875V.47460938C.21386719 .5225728 .21223958 .5533549 .20898438 .56695559 .20670574 .57733157 .20255535 .58496096 .1965332 .58984377 .19051107 .59472659 .18326824 .59716799 .17480469 .59716799 .16276042 .59716799 .1459961 .5921224 .12451172 .58203127L.1171875 .59765627Z"/>
<path id="font_3_16" d="M.040527345 .26171876H.29296876V.1875H.040527345V.26171876Z"/>
<path id="font_3_38" d="M.6020508 .6767578 .6171875 .45117188H.6020508C.58186849 .5187276 .5530599 .5673523 .515625 .5970459 .4781901 .6267497 .43326823 .64160159 .38085938 .64160159 .33691407 .64160159 .29720054 .6304677 .26171876 .6082001 .22623699 .58594259 .19832357 .55043539 .17797852 .50167849 .15763347 .45293174 .14746094 .39232383 .14746094 .31985475 .14746094 .26005046 .1570638 .20821126 .17626953 .16433716 .19547527 .12046305 .22436524 .08682251 .26293946 .06341553 .30151368 .04001872 .34554038 .028320313 .39501954 .028320313 .43798829 .028320313 .47591148 .037546796 .50878909 .055999757 .5416667 .07446289 .5777995 .11113485 .6171875 .16601563L.6323242 .15625C.5991211 .0971578 .5603841 .053899129 .5161133 .026473999 .47184245-.0009409587 .41927085-.0146484379 .35839845-.0146484379 .24869792-.0146484379 .16373699 .025985718 .103515628 .10725403 .05859375 .16770935 .036132814 .23889669 .036132814 .32081605 .036132814 .3868052 .05094401 .44742839 .080566409 .50268557 .110188808 .5579427 .15096028 .60076907 .20288086 .63116458 .25480143 .66156008 .31152345 .6767578 .37304688 .6767578 .42089845 .6767578 .46809898 .66503909 .51464846 .64160159 .5283203 .6344401 .53808596 .6308594 .5439453 .6308594 .5527344 .6308594 .5603841 .63395187 .56689456 .6401367 .5753581 .6489258 .5813802 .6611328 .58496096 .6767578H.6020508Z"/>
<path id="font_3_40" d="M.20898438 .62597659V.36523438H.3544922C.3922526 .36523438 .41748048 .37096153 .43017579 .38241578 .44710288 .39746095 .45654298 .42396037 .4584961 .46191407H.4765625V.23046875H.4584961C.4539388 .2626953 .4493815 .28336589 .44482423 .29248048 .43896485 .3038737 .42936198 .31282554 .41601563 .31933595 .40266929 .32584635 .38216148 .32910157 .3544922 .32910157H.20898438V.11047363C.20898438 .08112589 .21028646 .06327311 .21289063 .056915285 .2154948 .050557455 .22005208 .04550171 .2265625 .041748048 .23307292 .03800456 .2454427 .036132814 .26367188 .036132814H.37597657C.41341148 .036132814 .44059245 .03873698 .45751954 .043945314 .47444663 .049153646 .49072267 .05940755 .50634768 .07470703 .52652999 .09488932 .5472005 .12532552 .5683594 .16601563H.5878906L.5307617 0H.020507813V.018554688H.043945314C.059570314 .018554688 .07438151 .022298178 .088378909 .029785157 .09879557 .03499349 .10587565 .04280599 .10961914 .053222658 .11336263 .06363932 .115234378 .08496094 .115234378 .1171875V.546875C.115234378 .58865359 .1110026 .6144002 .10253906 .624115 .09082031 .63707479 .07128906 .6435547 .043945314 .6435547H.020507813V.6621094H.5307617L.53808596 .51660159H.51904299C.51220706 .5515849 .5046387 .5756175 .4963379 .58869937 .4880371 .6017812 .4757487 .6117554 .45947267 .6186218 .4464518 .62352499 .4235026 .62597659 .390625 .62597659H.20898438Z"/>
<path id="font_3_48" d="M.4091797 0 .15332031 .5571289V.115234378C.15332031 .07454427 .15771485 .049153646 .1665039 .0390625 .17854817 .025390625 .19759114 .018554688 .22363281 .018554688H.24707031V0H.016601563V.018554688H.040039064C.06803385 .018554688 .087890628 .027018229 .099609378 .043945314 .106770839 .05436198 .11035156 .078125 .11035156 .115234378V.546875C.11035156 .5761719 .10709635 .59733077 .10058594 .61035159 .09602865 .6197917 .087646488 .62768557 .07543945 .6340332 .06323242 .64038088 .043619794 .6435547 .016601563 .6435547V.6621094H.20410156L.44433595 .14414978 .68066409 .6621094H.86816409V.6435547H.84521487C.81689456 .6435547 .796875 .6350911 .78515627 .61816409 .7779948 .6077474 .77441409 .5839844 .77441409 .546875V.115234378C.77441409 .07454427 .7789714 .049153646 .78808596 .0390625 .8001302 .025390625 .81917318 .018554688 .84521487 .018554688H.86816409V0H.58691409V.018554688H.61035159C.6386719 .018554688 .6585286 .027018229 .6699219 .043945314 .6770833 .05436198 .68066409 .078125 .68066409 .115234378V.5571289L.42529298 0H.4091797Z"/>
<path id="font_3_36" d="M.45751954 .22167969H.20117188L.15625 .1171875C.1451823 .09159342 .13964844 .07248434 .13964844 .05986023 .13964844 .049809774 .14444988 .040980024 .15405274 .03337097 .1636556 .025761923 .18440755 .02082316 .2163086 .018554688V0H.0078125V.018554688C.03548177 .023427329 .053385419 .029759726 .061523439 .03755188 .078125 .053146364 .09651693 .08481344 .11669922 .1325531L.34960938 .6767578H.36669923L.59716799 .12646485C.61572268 .08239746 .63256838 .053797407 .6477051 .040664674 .6628418 .027542115 .68391928 .02017212 .7109375 .018554688V0H.44970704V.018554688C.47607423 .019846598 .49389649 .024220786 .5031738 .031677247 .5124512 .03913371 .51708987 .0482076 .51708987 .058898927 .51708987 .073160808 .5105794 .09568278 .4975586 .12646485L.45751954 .22167969M.44384767 .2578125 .33154298 .5253906 .2163086 .2578125H.44384767Z"/>
<path id="font_3_55" d="M.5786133 .6621094 .5859375 .50634768H.5673828C.56380209 .5336914 .55891928 .55322268 .5527344 .5649414 .54264327 .5838216 .5292155 .5977376 .5124512 .60668948 .49568687 .6156413 .4736328 .6201172 .44628907 .6201172H.35302735V.115234378C.35302735 .07454427 .35742188 .049153646 .36621095 .0390625 .37858073 .025390625 .3976237 .018554688 .42333985 .018554688H.44628907V0H.16552735V.018554688H.18896485C.21695964 .018554688 .2368164 .027018229 .24853516 .043945314 .25569663 .05436198 .25927735 .078125 .25927735 .115234378V.6201172H.1796875C.14876302 .6201172 .12679036 .61783859 .11376953 .61328127 .096842449 .6070964 .08235677 .59521487 .0703125 .5776367 .05826823 .5600586 .05110677 .5362956 .048828126 .50634768H.030273438L.038085939 .6621094H.5786133Z"/>
<path id="font_3_43" d="M.2055664 .35546876H.5131836V.5449219C.5131836 .57844039 .5110677 .60051986 .50683596 .6111603 .50358077 .6192169 .49674479 .6261495 .48632813 .631958 .47233073 .63968917 .45751954 .6435547 .44189454 .6435547H.41845704V.6621094H.70166018V.6435547H.67822268C.66259768 .6435547 .64778646 .6398468 .63378909 .63243106 .6233724 .62727358 .6162923 .619456 .6125488 .6089783 .60880538 .59851077 .6069336 .57715865 .6069336 .5449219V.1171875C.6069336 .08382162 .6090495 .06179301 .61328127 .051101686 .61653646 .043004354 .62320968 .03604126 .6333008 .030212403 .6476237 .022440592 .66259768 .018554688 .67822268 .018554688H.70166018V0H.41845704V.018554688H.44189454C.46891276 .018554688 .48860679 .026489258 .50097659 .0423584 .50911459 .0527242 .5131836 .07766724 .5131836 .1171875V.31933595H.2055664V.1171875C.2055664 .08382162 .2076823 .06179301 .21191406 .051101686 .21516927 .043004354 .2220052 .03604126 .23242188 .030212403 .24641927 .022440592 .26123048 .018554688 .27685548 .018554688H.30078126V0H.017089844V.018554688H.040527345C.067871097 .018554688 .08772787 .026489258 .100097659 .0423584 .107910159 .0527242 .111816409 .07766724 .111816409 .1171875V.5449219C.111816409 .57844039 .10970052 .60051986 .10546875 .6111603 .10221354 .6192169 .09554037 .6261495 .08544922 .631958 .071126308 .63968917 .056152345 .6435547 .040527345 .6435547H.017089844V.6621094H.30078126V.6435547H.27685548C.26123048 .6435547 .24641927 .6398468 .23242188 .63243106 .22233074 .62727358 .21533203 .619456 .21142578 .6089783 .20751953 .59851077 .2055664 .57715865 .2055664 .5449219V.35546876Z"/>
<path id="font_3_54" d="M.4584961 .6767578V.44726563H.4404297C.4345703 .49132286 .42407228 .5264028 .40893556 .5525055 .39379884 .57861837 .37223307 .5993449 .34423829 .61468508 .3162435 .6300252 .28727214 .6376953 .25732423 .6376953 .22347005 .6376953 .19547527 .6273753 .17333985 .6067352 .15120442 .58609518 .14013672 .562617 .14013672 .53630068 .14013672 .51614889 .14713542 .49778239 .16113281 .48120118 .18131511 .4568278 .22932942 .42433167 .30517579 .38371278 .36702476 .35056053 .40926109 .3251241 .43188478 .30740357 .45450846 .2896932 .47192384 .268809 .48413087 .24475098 .4963379 .22070313 .5024414 .19551087 .5024414 .1691742 .5024414 .119115199 .48299156 .07596334 .4440918 .039718629 .40519206 .0034739178 .35514323-.0146484379 .2939453-.0146484379 .2747396-.0146484379 .2566732-.013163249 .2397461-.010192871 .22965496-.008544922 .20874024-.0025278729 .17700196 .007858276 .14526367 .018244425 .12516277 .0234375 .11669922 .0234375 .108561199 .0234375 .102132167 .020965577 .09741211 .016021729 .092692058 .011077881 .08919271 .0008544922 .08691406-.0146484379H.068847659V.21289063H.08691406C.0953776 .16524251 .106770839 .12958782 .12109375 .10592651 .13541667 .08226522 .15730794 .06260172 .18676758 .046936037 .21622722 .031270345 .24853516 .0234375 .2836914 .0234375 .3243815 .0234375 .3565267 .034184774 .38012696 .05567932 .4037272 .07717387 .41552735 .10257467 .41552735 .13188172 .41552735 .14816793 .41105143 .16461182 .4020996 .18121338 .3931478 .19782512 .37923179 .21329753 .36035157 .22763062 .34765626 .23739624 .31298829 .25802613 .25634767 .28952027 .19970703 .32102458 .15942383 .34620667 .13549805 .36506654 .111572269 .3839264 .09342448 .40473939 .08105469 .4275055 .0686849 .4502716 .0625 .47531129 .0625 .5026245 .0625 .5500997 .080729167 .59098818 .1171875 .6252899 .15364583 .65960189 .20003255 .6767578 .25634767 .6767578 .2915039 .6767578 .32877604 .66813156 .36816407 .6508789 .38639323 .6427409 .3992513 .6386719 .40673829 .6386719 .4152018 .6386719 .42211915 .64119467 .42749024 .64624026 .43286134 .6512858 .43717448 .6614583 .4404297 .6767578H.4584961Z"/>
<path id="font_3_3" d=""/>
<path id="font_3_44" d="M.30859376 .018554688V0H.024902344V.018554688H.048339845C.075683597 .018554688 .09554037 .026489258 .107910159 .0423584 .115722659 .0527242 .119628909 .07766724 .119628909 .1171875V.5449219C.119628909 .5782878 .11751302 .60031637 .11328125 .6110077 .11002604 .61910507 .10335287 .6260681 .09326172 .631897 .078938808 .63966879 .063964847 .6435547 .048339845 .6435547H.024902344V.6621094H.30859376V.6435547H.28466798C.25764976 .6435547 .23795574 .6356201 .22558594 .619751 .21744792 .6093852 .2133789 .58444216 .2133789 .5449219V.1171875C.2133789 .08382162 .2154948 .06179301 .21972656 .051101686 .22298177 .043004354 .2298177 .03604126 .24023438 .030212403 .25423179 .022440592 .26904298 .018554688 .28466798 .018554688H.30859376Z"/>
<path id="font_3_17" d="M.125 .09472656C.14029949 .09472656 .15315755 .08943685 .16357422 .07885742 .17399089 .06827799 .17919922 .0555013 .17919922 .040527345 .17919922 .025553385 .1739095 .012776692 .16333008 .0021972657 .15275066-.008382161 .13997396-.013671875 .125-.013671875 .11002604-.013671875 .09724935-.008382161 .08666992 .0021972657 .07609049 .012776692 .07080078 .025553385 .07080078 .040527345 .07080078 .055826826 .07609049 .0686849 .08666992 .07910156 .09724935 .08951823 .11002604 .09472656 .125 .09472656Z"/>
<path id="font_3_24" d="M.43408204 .6621094 .3959961 .57910159H.19677735L.15332031 .491333C.23958333 .47860719 .30794273 .44647218 .35839845 .39492799 .40169273 .35056559 .42333985 .29837037 .42333985 .23834229 .42333985 .20343018 .41625978 .1711324 .4020996 .14144898 .38793946 .11176554 .3701172 .08648173 .3486328 .065597537 .32714845 .04472351 .30322267 .027923584 .27685548 .015197754 .23942058-.002746582 .20100911-.01171875 .1616211-.01171875 .121907558-.01171875 .09301758-.004964193 .07495117 .008544922 .056884767 .022054038 .047851564 .036946615 .047851564 .053222658 .047851564 .06233724 .05159505 .07039388 .05908203 .07739258 .06656901 .08439127 .07600912 .087890628 .087402347 .087890628 .09586588 .087890628 .103271488 .08658854 .10961914 .083984378 .1159668 .08138021 .12679036 .07470703 .14208985 .063964847 .1665039 .04703776 .19124349 .038411458 .2163086 .038085939 .25439454 .038085939 .2878418 .052525838 .3166504 .08140564 .34545899 .110295619 .35986329 .14546712 .35986329 .18692017 .35986329 .22706096 .34700523 .2645111 .32128907 .29927064 .2955729 .3340403 .26009117 .36089073 .21484375 .37982179 .17936199 .39450074 .13102214 .40298463 .06982422 .40527345L.19677735 .6621094H.43408204Z"/>
<path id="font_3_19" d="M.036132814 .32714845C.036132814 .40266929 .047526044 .46769206 .0703125 .5222168 .09309896 .5767415 .1233724 .6173503 .16113281 .64404299 .19042969 .66520187 .22070313 .67578127 .25195313 .67578127 .30273438 .67578127 .34830729 .64990237 .38867188 .59814456 .4391276 .5340169 .46435548 .44710288 .46435548 .33740235 .46435548 .26057945 .45328776 .1953125 .43115235 .14160156 .40901695 .087890628 .38077799 .048909505 .34643556 .024658204 .3120931 .00040690104 .27897135-.01171875 .24707031-.01171875 .18391927-.01171875 .13134766 .025553385 .08935547 .100097659 .0538737 .16292317 .036132814 .23860677 .036132814 .32714845M.13183594 .3152008C.13183594 .22412618 .1430664 .14980062 .16552735 .09222412 .18408203 .043762208 .2117513 .01953125 .24853516 .01953125 .26611329 .01953125 .28434245 .027420044 .30322267 .04319763 .32210288 .05897522 .33642579 .08540344 .3461914 .1224823 .36116538 .17842102 .36865235 .2572988 .36865235 .3591156 .36865235 .4345754 .36083985 .49751283 .34521485 .54792788 .3334961 .5853322 .31835938 .61184188 .2998047 .62745669 .28645835 .63818868 .27034507 .6435547 .25146485 .6435547 .22932942 .6435547 .20963542 .6336365 .19238281 .61380007 .16894531 .5868022 .1529948 .54435226 .14453125 .4864502 .1360677 .42855836 .13183594 .37147523 .13183594 .3152008Z"/>
<path id="font_3_82" d="M.25 .45996095C.31770835 .45996095 .3720703 .43427024 .41308595 .3828888 .44791667 .33899436 .46533204 .28858949 .46533204 .2316742 .46533204 .19167583 .45572917 .15118917 .43652345 .11021423 .41731773 .06924947 .39086915 .038360597 .35717774 .017547608 .32348634-.0032653809 .28597007-.013671875 .2446289-.013671875 .1772461-.013671875 .123697917 .013158162 .083984378 .06681824 .05045573 .11201477 .033691408 .16274007 .033691408 .21899414 .033691408 .2599691 .043863935 .30069987 .064208988 .34118653 .08455404 .3816732 .111328128 .41159059 .14453125 .43093873 .17773438 .45028688 .21289063 .45996095 .25 .45996095M.23486328 .42773438C.21761067 .42773438 .20027669 .42262269 .18286133 .4123993 .16544597 .40218608 .15136719 .38426719 .140625 .35864259 .12988281 .33301798 .12451172 .3000997 .12451172 .2598877 .12451172 .1950175 .13745117 .13906352 .16333008 .09202576 .18920899 .04499817 .2233073 .021484375 .265625 .021484375 .29720054 .021484375 .3232422 .03445943 .34375 .060409547 .3642578 .08635966 .37451173 .13095601 .37451173 .19419861 .37451173 .27334086 .35742188 .33561708 .3232422 .38102723 .30013023 .4121653 .27067057 .42773438 .23486328 .42773438Z"/>
<path id="font_3_22" d="M.05078125 .5361328C.06966146 .5807292 .09350586 .615153 .12231445 .6394043 .15112305 .6636556 .18701172 .67578127 .22998047 .67578127 .28304038 .67578127 .32373048 .6585286 .35205079 .62402346 .37353517 .5983073 .38427735 .5708008 .38427735 .5415039 .38427735 .4933268 .3540039 .44352214 .29345704 .39208985 .33414714 .3761393 .36490885 .35335288 .3857422 .32373048 .40657554 .29410807 .4169922 .25927735 .4169922 .21923828 .4169922 .16194661 .39876304 .11230469 .3623047 .0703125 .31477867 .015625 .24593099-.01171875 .15576172-.01171875 .11116537-.01171875 .08081055-.006184896 .064697269 .0048828127 .048583986 .015950522 .040527345 .027832032 .040527345 .040527345 .040527345 .04996745 .044352216 .05826823 .052001954 .06542969 .05965169 .07259115 .068847659 .076171878 .079589847 .076171878 .08772787 .076171878 .09602865 .07488505 .10449219 .0723114 .11002604 .07069397 .122558597 .06481425 .14208985 .05467224 .1616211 .04453023 .1751302 .03849284 .18261719 .03656006 .19466146 .03302002 .20751953 .03125 .2211914 .03125 .25439454 .03125 .28328453 .044108076 .30786134 .06982422 .33243815 .09554037 .34472657 .12597656 .34472657 .16113281 .34472657 .18684896 .33902995 .21191406 .32763673 .23632813 .3191732 .25455729 .30989585 .26839195 .2998047 .27783204 .28580729 .29085288 .26660157 .30265299 .2421875 .31323243 .21777344 .32381187 .1928711 .32910157 .16748047 .32910157H.15185547V.34375C.17757161 .34699504 .20336914 .35625205 .22924805 .371521 .25512696 .38680015 .27392579 .40516154 .28564454 .42660523 .29736329 .44804893 .30322267 .4716085 .30322267 .49728395 .30322267 .5307414 .2927246 .55778506 .27172853 .5784149 .25073243 .599055 .22460938 .609375 .19335938 .609375 .14290364 .609375 .100748699 .58235678 .06689453 .5283203L.05078125 .5361328Z"/>
<path id="font_3_25" d="M.4482422 .67578127V.65625C.40527345 .65204879 .37019859 .64355978 .34301759 .6307831 .31583659 .61801657 .2889811 .5985362 .26245118 .5723419 .23592122 .54615786 .21394857 .51697799 .1965332 .48480226 .17911785 .45263673 .16455078 .4144033 .15283203 .37010194 .19970703 .40266419 .2467448 .4189453 .2939453 .4189453 .33919273 .4189453 .37841798 .40067546 .4116211 .36413575 .44482423 .32759605 .46142579 .28061424 .46142579 .22319031 .46142579 .16772969 .44466148 .11715698 .4111328 .07147217 .37076823 .016011557 .3173828-.01171875 .25097657-.01171875 .20572917-.01171875 .1673177 .0032552083 .13574219 .033203126 .07389323 .09147135 .04296875 .16699219 .04296875 .25976563 .04296875 .3190104 .05485026 .37532554 .07861328 .42871095 .102376308 .48209635 .13631185 .52945968 .18041992 .5708008 .224528 .6121419 .2667643 .63997396 .3071289 .6542969 .3474935 .6686198 .38509117 .67578127 .41992188 .67578127H.4482422M.14453125 .33441163C.13867188 .29040528 .13574219 .25487773 .13574219 .22782898 .13574219 .19653829 .14152019 .16255696 .15307617 .12588501 .16463216 .08921305 .18180339 .06011963 .20458985 .038604738 .2211914 .023284913 .2413737 .015625 .26513673 .015625 .29345704 .015625 .31876628 .028986613 .34106446 .05570984 .36336265 .08244324 .37451173 .12058512 .37451173 .1701355 .37451173 .22587078 .363444 .2741089 .3413086 .31484986 .3191732 .35560099 .2877604 .37597657 .24707031 .37597657 .23470052 .37597657 .22143555 .3733673 .20727539 .3681488 .19311524 .36294047 .17220052 .35169474 .14453125 .33441163Z"/>
<path id="font_3_81" d="M.1616211 .36572267C.21402996 .4285482 .2639974 .45996095 .31152345 .45996095 .3359375 .45996095 .3569336 .45387269 .37451173 .44169618 .39208985 .42952983 .40608726 .40948487 .4165039 .38156129 .42366538 .3620809 .4272461 .33221437 .4272461 .29196168V.1015625C.4272461 .07307943 .42952476 .0537618 .43408204 .04360962 .43766276 .035420736 .44344078 .029032389 .45141603 .02444458 .45939128 .019866944 .4741211 .017578125 .49560548 .017578125V0H.27441407V.017578125H.2836914C.30452476 .017578125 .3190918 .020767212 .32739259 .027145386 .33569337 .033533735 .34147135 .042948408 .34472657 .055389406 .34602867 .060302736 .3466797 .075693767 .3466797 .1015625V.2843628C.3466797 .32499186 .34138999 .3544871 .33081056 .3728485 .3202311 .39120994 .30240885 .40039063 .27734376 .40039063 .23860677 .40039063 .20003255 .37923179 .1616211 .33691407V.1015625C.1616211 .07111613 .16341146 .052286786 .16699219 .045074464 .17154949 .035583497 .17781575 .028625489 .18579102 .02420044 .19376628 .019785563 .20996094 .017578125 .234375 .017578125V0H.013183594V.017578125H.022949219C.045735677 .017578125 .061116537 .023386637 .0690918 .035003663 .077067058 .04663086 .08105469 .06881714 .08105469 .1015625V.26660157C.08105469 .3203125 .079833988 .35302735 .07739258 .3647461 .07495117 .37646485 .07120768 .3844401 .06616211 .38867188 .061116537 .39290367 .05436198 .39501954 .045898439 .39501954 .036783857 .39501954 .025878907 .39257813 .013183594 .3876953L.005859375 .40527345 .140625 .45996095H.1616211V.36572267Z"/>
<path id="font_3_79" d="M.1850586 .69433596V.1015625C.1850586 .073404949 .1870931 .05473836 .19116211 .045562746 .19523113 .036397298 .20149739 .029439291 .20996094 .02468872 .21842449 .019948325 .23421224 .017578125 .25732423 .017578125V0H.038085939V.017578125C.05859375 .017578125 .07259115 .019704184 .080078128 .023956299 .0875651 .028218588 .09342448 .035257978 .09765625 .045074464 .10188802 .054901124 .104003909 .07373047 .104003909 .1015625V.50683596C.104003909 .5572917 .102864589 .58829757 .10058594 .5998535 .09830729 .6114095 .09464518 .6193034 .08959961 .62353518 .08455404 .6277669 .078125 .6298828 .0703125 .6298828 .061848958 .6298828 .05110677 .6272786 .038085939 .6220703L.029785157 .63964846 .16308594 .69433596H.1850586Z"/>
<path id="font_3_92" d="M.005859375 .44726563H.21435547V.4296875H.20410156C.18945313 .4296875 .1784668 .4264984 .17114258 .42012025 .16381836 .41374208 .16015625 .4058126 .16015625 .3963318 .16015625 .38357545 .16552735 .36591593 .17626953 .34335328L.28515626 .1171875 .3852539 .3648224C.39078776 .37825013 .3935547 .39152018 .3935547 .40463258 .3935547 .41052247 .39241538 .4149424 .39013673 .41789247 .38753257 .42149354 .38346354 .4243571 .3779297 .42648316 .37239585 .42861939 .36263023 .4296875 .3486328 .4296875V.44726563H.49414063V.4296875C.48209635 .4283854 .472819 .4257711 .4663086 .42184449 .4597982 .41792808 .45263673 .4105784 .44482423 .39979554 .44189454 .3952179 .4363607 .38263957 .42822267 .36206056L.24609375-.08401489C.22851563-.12746175 .20548503-.1602885 .17700196-.18249512 .14851888-.20471192 .12109375-.21582031 .09472656-.21582031 .075520839-.21582031 .059733076-.21025594 .04736328-.1991272 .03499349-.18800862 .028808594-.17525737 .028808594-.16087342 .028808594-.14713033 .033284505-.13608806 .042236329-.12774658 .051188154-.11940511 .06347656-.115234378 .07910156-.115234378 .08984375-.115234378 .10449219-.11871847 .123046878-.12568665 .1360677-.13043721 .14420574-.1328125 .14746094-.1328125 .15722656-.1328125 .16788738-.12780254 .17944336-.11778259 .19099935-.10776266 .20263672-.08837382 .21435547-.05961609L.24609375 .018508912 .08544922 .35502626C.080566409 .36517845 .072753909 .37778727 .06201172 .39285279 .0538737 .40430705 .04720052 .41200257 .041992189 .41593934 .034505208 .4211782 .022460938 .4257609 .005859375 .4296875V.44726563Z"/>
<path id="font_3_37" d="M.46191407 .33898927C.5078125 .32919313 .54215499 .31351725 .5649414 .29196168 .5965169 .26191203 .6123047 .22517395 .6123047 .18174744 .6123047 .14875794 .601888 .11715698 .5810547 .08694458 .5602214 .05674235 .5316569 .034698488 .49536134 .020812989 .45906578 .0069376628 .40364585 0 .32910157 0H.016601563V.018554688H.041503908C.06917318 .018554688 .089029949 .027297974 .10107422 .044784547 .108561199 .05612691 .11230469 .08026123 .11230469 .1171875V.5449219C.11230469 .58573409 .10758463 .6114858 .09814453 .6221771 .08544922 .63642886 .06656901 .6435547 .041503908 .6435547H.016601563V.6621094H.30273438C.35611979 .6621094 .39892579 .6582184 .43115235 .6504364 .47998048 .63875839 .5172526 .6180725 .54296877 .5883789 .5686849 .5586955 .58154299 .5245514 .58154299 .48594667 .58154299 .45285545 .57145187 .4232534 .55126956 .3971405 .5310872 .37102763 .50130209 .3516439 .46191407 .33898927M.20605469 .3661499C.21809896 .3638916 .23185222 .36219789 .24731446 .36106874 .2627767 .35993959 .27978517 .359375 .29833985 .359375 .34586589 .359375 .3815918 .36445619 .40551759 .37461854 .42944337 .38478089 .4477539 .40034486 .46044923 .42131043 .47314454 .44228617 .4794922 .4651896 .4794922 .49002076 .4794922 .52841189 .46370445 .5611572 .4321289 .58825686 .40055339 .61535647 .3544922 .62890627 .2939453 .62890627 .26139323 .62890627 .23209636 .625356 .20605469 .6182556V.3661499M.20605469 .048339845C.24381511 .03955078 .28108726 .03515625 .3178711 .03515625 .37679038 .03515625 .42171226 .048421224 .45263673 .07495117 .4835612 .10148112 .49902345 .13427735 .49902345 .17333985 .49902345 .19905599 .49202476 .22379558 .47802735 .2475586 .46402995 .27132163 .4412435 .29003907 .40966798 .30371095 .37809245 .3173828 .33902995 .32421876 .29248048 .32421876 .2722982 .32421876 .25504557 .32389323 .24072266 .3232422 .22639974 .32259117 .21484375 .3214518 .20605469 .31982423V.048339845Z"/>
<path id="font_3_68" d="M.28466798 .063934329C.23876953 .028462729 .20996094 .007965088 .19824219 .0024414063 .18066406-.0056966149 .16194661-.009765625 .14208985-.009765625 .11116537-.009765625 .08569336 .00081380209 .06567383 .021972657 .045654298 .04313151 .03564453 .07096354 .03564453 .10546875 .03564453 .12727864 .040527345 .14615886 .05029297 .16210938 .06363932 .1842448 .08683268 .20507813 .11987305 .22460938 .1529134 .24414063 .20784505 .26790367 .28466798 .29589845V.31341554C.28466798 .35784913 .2775879 .38833619 .26342774 .4048767 .24926758 .42141725 .22867839 .4296875 .20166016 .4296875 .18115235 .4296875 .1648763 .42415367 .15283203 .41308595 .14046224 .40201823 .13427735 .3893229 .13427735 .375L.1352539 .3466797C.1352539 .33170573 .13142903 .32014976 .1237793 .31201173 .116129558 .3038737 .10611979 .2998047 .09375 .2998047 .08170573 .2998047 .07185873 .30404664 .064208988 .31253053 .056559247 .32102458 .052734376 .33261619 .052734376 .3473053 .052734376 .37539164 .06705729 .40118919 .095703128 .42469789 .12434896 .44820658 .16455078 .45996095 .2163086 .45996095 .25602214 .45996095 .28857423 .45329795 .31396485 .43997193 .33317057 .42989097 .34733073 .41411845 .3564453 .39265443 .3623047 .37867738 .36523438 .35006715 .36523438 .30682374V.15515137C.36523438 .112559 .3660482 .08646647 .36767579 .07687378 .36930339 .06728109 .37198893 .060857137 .37573243 .05760193 .37947593 .05435689 .38378907 .052734376 .38867188 .052734376 .39388023 .052734376 .3984375 .0538737 .40234376 .056152345 .4091797 .060384115 .42236329 .072265628 .44189454 .091796878V.064453128C.4054362 .015625 .37060548-.0087890629 .33740235-.0087890629 .3214518-.0087890629 .3087565-.0032958985 .2993164 .0076904299 .2898763 .01868693 .2849935 .037434896 .28466798 .063934329M.28466798 .09559631V.265625C.23551433 .24613445 .20377605 .23233032 .18945313 .22421265 .16373699 .20992024 .14534505 .1949768 .13427735 .17938233 .12320963 .16379802 .11767578 .14674886 .11767578 .12823487 .11767578 .10484823 .12467448 .08543905 .13867188 .070007327 .15266927 .054585775 .16878255 .046875 .18701172 .046875 .2117513 .046875 .24430339 .06311544 .28466798 .09559631Z"/>
<path id="font_3_71" d="M.34716798 .05026245C.32535807 .027486166 .30403648 .01113383 .28320313 .0012054443 .26236979-.008712769 .23990886-.013671875 .21582031-.013671875 .16699219-.013671875 .12434896 .006708781 .087890628 .047470094 .051432294 .08824158 .033203126 .14063008 .033203126 .20463562 .033203126 .26863099 .053385419 .32718406 .09375 .3802948 .13411458 .43340556 .18603516 .45996095 .24951172 .45996095 .28889976 .45996095 .3214518 .44743348 .34716798 .42237855V.5058594C.34716798 .5567525 .34594728 .588033 .34350587 .5997009 .34106446 .61136886 .3372396 .61931356 .33203126 .62353518 .3268229 .6277669 .3203125 .6298828 .3125 .6298828 .30403648 .6298828 .292806 .6272786 .2788086 .6220703L.27246095 .63964846 .40576173 .69433596H.42773438V.17675781C.42773438 .124562587 .42895509 .0927124 .43139649 .081207279 .4338379 .06970215 .43774415 .06167094 .44311524 .057113649 .44848634 .05256653 .4547526 .05029297 .46191407 .05029297 .47070313 .05029297 .48242188 .053059896 .4970703 .05859375L.5024414 .041015626 .3696289-.013671875H.34716798V.05026245M.34716798 .084365848V.31425477C.34521485 .33633933 .33935548 .35647074 .32958985 .37464906 .31982423 .39283753 .30688478 .40655519 .29077149 .415802 .2746582 .425059 .2589518 .4296875 .24365235 .4296875 .21500652 .4296875 .18945313 .41685996 .16699219 .39120484 .1373698 .35744224 .122558597 .3080902 .122558597 .2431488 .122558597 .17755635 .13688152 .12730408 .16552735 .09239197 .19417317 .057490034 .22607422 .040039064 .26123048 .040039064 .29085288 .040039064 .3194987 .054814657 .34716798 .084365848Z"/>
<path id="font_3_39" d="M.017089844 0V.018554688H.041992189C.06998698 .018554688 .08984375 .027460734 .1015625 .045272829 .10872396 .055964155 .11230469 .07993571 .11230469 .1171875V.5449219C.11230469 .5860596 .1077474 .61181136 .09863281 .6221771 .0859375 .63642886 .06705729 .6435547 .041992189 .6435547H.017089844V.6621094H.2866211C.38557945 .6621094 .4608561 .6508789 .5124512 .62841799 .5640462 .60595706 .6055501 .56852218 .6369629 .5161133 .6683757 .46370445 .68408206 .40315757 .68408206 .33447267 .68408206 .24235027 .6560872 .16536458 .60009768 .103515628 .53727218 .034505208 .441569 0 .31298829 0H.017089844M.20605469 .048812868C.24739583 .039708456 .2820638 .03515625 .3100586 .03515625 .38557945 .03515625 .4482422 .061640424 .49804688 .114608768 .54785159 .16758728 .5727539 .2394104 .5727539 .33007813 .5727539 .42139689 .54785159 .4933777 .49804688 .5460205 .4482422 .5986735 .38427735 .625 .30615235 .625 .27685548 .625 .24348958 .6202901 .20605469 .61087039V.048812868Z"/>
<path id="font_3_15" d="M.053710939-.16699219V-.14544678C.087239589-.13434856 .11319987-.117126468 .1315918-.09378052 .14998372-.07043457 .15917969-.04570516 .15917969-.019592286 .15917969-.013387044 .15771485-.008163452 .15478516-.003921509 .15250652-.0009816488 .15022786 .00048828127 .14794922 .00048828127 .14436849 .00048828127 .13655599-.002766927 .12451172-.009277344 .118652347-.012207031 .112467449-.013671875 .10595703-.013671875 .09000651-.013671875 .077311199-.008951823 .067871097 .00048828127 .05843099 .009928386 .053710939 .022949219 .053710939 .03955078 .053710939 .0555013 .059814454 .06917318 .072021488 .080566409 .084228519 .09195963 .099121097 .09765625 .11669922 .09765625 .1381836 .09765625 .15730794 .08827718 .17407227 .06951904 .1908366 .050771078 .19921875 .025909424 .19921875-.005065918 .19921875-.03866577 .18758138-.069895427 .16430664-.09875488 .1410319-.12761434 .104166667-.1503601 .053710939-.16699219Z"/>
</defs>
<g clip-path="url(#clip_1)">
<g clip-path="url(#clip_2)">
<use data-text="9" xlink:href="#font_3_28" transform="matrix(12.044304,0,0,-12.044304,72.1192,810.2175)"/>
<use data-text="1" xlink:href="#font_3_20" transform="matrix(12.044304,0,0,-12.044304,78.11967,810.2175)"/>
<use data-text="-" xlink:href="#font_3_16" transform="matrix(12.044304,0,0,-12.044304,84.12014,810.2175)"/>
<use data-text="C" xlink:href="#font_3_38" transform="matrix(12.044304,0,0,-12.044304,88.200748,810.2175)"/>
<use data-text="E" xlink:href="#font_3_40" transform="matrix(12.044304,0,0,-12.044304,96.12108,810.2175)"/>
<use data-text="-" xlink:href="#font_3_16" transform="matrix(12.044304,0,0,-12.044304,103.56325,810.2175)"/>
<use data-text="M" xlink:href="#font_3_48" transform="matrix(12.044304,0,0,-12.044304,107.651088,810.2175)"/>
<use data-text="A" xlink:href="#font_3_36" transform="matrix(12.044304,0,0,-12.044304,118.21033,810.2175)"/>
<use data-text="T" xlink:href="#font_3_55" transform="matrix(12.044304,0,0,-12.044304,126.60882,810.2175)"/>
<use data-text="H" xlink:href="#font_3_43" transform="matrix(12.044304,0,0,-12.044304,134.051,810.2175)"/>
<use data-text="S" xlink:href="#font_3_54" transform="matrix(12.044304,0,0,-12.044304,142.69037,810.2175)"/>
<use data-text=" " xlink:href="#font_3_3" transform="matrix(12.044304,0,0,-12.044304,149.40868,810.2175)"/>
<use data-text="I" xlink:href="#font_3_44" transform="matrix(12.044304,0,0,-12.044304,152.52936,810.2175)"/>
<use data-text="I" xlink:href="#font_3_44" transform="matrix(12.044304,0,0,-12.044304,156.6172,810.2175)"/>
<use data-text=" " xlink:href="#font_3_3" transform="matrix(12.044304,0,0,-12.044304,160.70503,810.2175)"/>
<use data-text="1" xlink:href="#font_3_20" transform="matrix(12.044304,0,0,-12.044304,291.7579,810.2175)"/>
<use data-text="1" xlink:href="#font_3_20" transform="matrix(12.044304,0,0,-12.044304,297.75837,810.2175)"/>
<use data-text=" " xlink:href="#font_3_3" transform="matrix(12.044304,0,0,-12.044304,68.51916,83.186038)"/>
<use data-text="I" xlink:href="#font_3_44" transform="matrix(12.044304,0,0,-12.044304,95.64172,83.186038)"/>
<use data-text="I" xlink:href="#font_3_44" transform="matrix(12.044304,0,0,-12.044304,99.73558,83.186038)"/>
<use data-text="." xlink:href="#font_3_17" transform="matrix(12.044304,0,0,-12.044304,103.829448,83.186038)"/>
<use data-text=" " xlink:href="#font_3_3" transform="matrix(12.044304,0,0,-12.044304,106.92362,83.186038)"/>
<use data-text="5" xlink:href="#font_3_24" transform="matrix(9.949694,0,0,-9.977897,138.60584,150.8717)"/>
<use data-text="0" xlink:href="#font_3_19" transform="matrix(9.949694,0,0,-9.977897,143.58068,150.8717)"/>
<use data-text="o" xlink:href="#font_3_82" transform="matrix(6.715971,0,0,-6.6850678,148.68685,147.7514)"/>
<use data-text="1" xlink:href="#font_3_20" transform="matrix(9.949694,0,0,-9.977897,185.17047,124.709049)"/>
<use data-text="3" xlink:href="#font_3_22" transform="matrix(9.949694,0,0,-9.977897,190.14533,124.709049)"/>
<path transform="matrix(1.0000999,0,0,-1.0000999,.11200625,841.981)" stroke-width=".696" stroke-linecap="round" stroke-linejoin="round" fill="none" stroke="#000000" d="M171.12 734 124.08 686.96H194.64L171.12 734"/>
<use data-text="1" xlink:href="#font_3_20" transform="matrix(9.949694,0,0,-9.977897,138.12578,124.9491)"/>
<use data-text="5" xlink:href="#font_3_24" transform="matrix(9.949694,0,0,-9.977897,143.10063,124.9491)"/>
<use data-text="1" xlink:href="#font_3_20" transform="matrix(9.949694,0,0,-9.977897,213.49272,138.87024)"/>
<use data-text="3" xlink:href="#font_3_22" transform="matrix(9.949694,0,0,-9.977897,218.46756,138.87024)"/>
<path transform="matrix(1.0000999,0,0,-1.0000999,.11200625,841.981)" stroke-width=".696" stroke-linecap="round" stroke-linejoin="round" fill="none" stroke="#000000" d="M133.44 696.32 134.88 694.16 136.32 691.76 138.24 686.96M218.16 734.48H284.88L234.96 684.56 218.16 734.48"/>
<use data-text="1" xlink:href="#font_3_20" transform="matrix(9.949694,0,0,-9.977897,246.61663,103.346927)"/>
<use data-text="5" xlink:href="#font_3_24" transform="matrix(9.949694,0,0,-9.977897,251.59146,103.346927)"/>
<use data-text="5" xlink:href="#font_3_24" transform="matrix(9.949694,0,0,-9.977897,256.93745,117.508548)"/>
<use data-text="0" xlink:href="#font_3_19" transform="matrix(9.949694,0,0,-9.977897,261.91227,117.508548)"/>
<use data-text="o" xlink:href="#font_3_82" transform="matrix(6.715971,0,0,-6.6850678,266.77867,114.14801)"/>
<path transform="matrix(1.0000999,0,0,-1.0000999,.11200625,841.981)" stroke-width=".696" stroke-linecap="round" stroke-linejoin="round" fill="none" stroke="#000000" d="M275.28 725.12 273.84 726.08 272.88 727.28 272.16 728.48 271.68 730.16V731.6L272.16 733.28 272.88 734.48"/>
<use data-text=" " xlink:href="#font_3_3" transform="matrix(12.044304,0,0,-12.044304,68.518848,170.7937)"/>
<use data-text="I" xlink:href="#font_3_44" transform="matrix(12.044304,0,0,-12.044304,95.64142,170.7937)"/>
<use data-text="I" xlink:href="#font_3_44" transform="matrix(12.044304,0,0,-12.044304,99.73166,170.7937)"/>
<use data-text="I" xlink:href="#font_3_44" transform="matrix(12.044304,0,0,-12.044304,103.82191,170.7937)"/>
<use data-text="." xlink:href="#font_3_17" transform="matrix(12.044304,0,0,-12.044304,107.91215,170.7937)"/>
<use data-text=" " xlink:href="#font_3_3" transform="matrix(12.044304,0,0,-12.044304,111.00272,170.7937)"/>
<use data-text="5" xlink:href="#font_3_24" transform="matrix(9.023401,0,0,-9.048704,137.16568,203.19696)"/>
<use data-text="0" xlink:href="#font_3_19" transform="matrix(9.023401,0,0,-9.048704,141.67739,203.19696)"/>
<use data-text="o" xlink:href="#font_3_82" transform="matrix(6.0906088,0,0,-6.0625059,146.2866,200.31665)"/>
<use data-text="1" xlink:href="#font_3_20" transform="matrix(9.023401,0,0,-9.048704,153.72736,216.1582)"/>
<use data-text="6" xlink:href="#font_3_25" transform="matrix(9.023401,0,0,-9.048704,158.23905,216.1582)"/>
<path transform="matrix(1.0000999,0,0,-1.0000999,.11200625,841.981)" stroke-width=".63" stroke-linecap="round" stroke-linejoin="round" fill="none" stroke="#000000" d="M166.56 677.6 123.84 634.88H187.92L166.56 677.6M132.48 643.28 133.68 641.6 134.88 639.44 135.84 637.04 136.56 634.88M182.64 644.96 181.2 644.48 178.8 642.56 177.84 641.12 177.36 639.68 177.12 638.24V636.56L177.6 635.12"/>
<use data-text="6" xlink:href="#font_3_25" transform="matrix(9.023401,0,0,-9.048704,165.24849,203.19696)"/>
<use data-text="0" xlink:href="#font_3_19" transform="matrix(9.023401,0,0,-9.048704,169.7602,203.19696)"/>
<use data-text="o" xlink:href="#font_3_82" transform="matrix(6.0906088,0,0,-6.0625059,174.36942,200.0766)"/>
<path transform="matrix(1.0000999,0,0,-1.0000999,.11200625,841.981)" stroke-width=".63" stroke-linecap="round" stroke-linejoin="round" fill="none" stroke="#000000" d="M270 635.12H209.76L254.88 680.48 270 635.12"/>
<use data-text="1" xlink:href="#font_3_20" transform="matrix(9.023401,0,0,-9.048704,237.25568,215.91815)"/>
<use data-text="6" xlink:href="#font_3_25" transform="matrix(9.023401,0,0,-9.048704,241.76738,215.91815)"/>
<use data-text="5" xlink:href="#font_3_24" transform="matrix(9.023401,0,0,-9.048704,223.09436,203.19666)"/>
<use data-text="0" xlink:href="#font_3_19" transform="matrix(9.023401,0,0,-9.048704,227.60605,203.19666)"/>
<use data-text="o" xlink:href="#font_3_82" transform="matrix(6.0906088,0,0,-6.0625059,231.97516,200.0766)"/>
<path transform="matrix(1.0000999,0,0,-1.0000999,.11200625,841.981)" stroke-width=".63" stroke-linecap="round" stroke-linejoin="round" fill="none" stroke="#000000" d="M218.16 643.76 219.36 642.8 220.32 641.84 220.8 640.4 221.28 639.2V637.76L220.8 636.32 220.32 635.12"/>
<use data-text="6" xlink:href="#font_3_25" transform="matrix(9.023401,0,0,-9.048704,245.65653,178.71448)"/>
<use data-text="0" xlink:href="#font_3_19" transform="matrix(9.023401,0,0,-9.048704,250.16823,178.71448)"/>
<use data-text="o" xlink:href="#font_3_82" transform="matrix(6.0906088,0,0,-6.0625059,254.53742,175.83417)"/>
<path transform="matrix(1.0000999,0,0,-1.0000999,.11200625,841.981)" stroke-width=".63" stroke-linecap="round" stroke-linejoin="round" fill="none" stroke="#000000" d="M248.16 673.52 248.88 672.8 249.84 672.08 251.04 671.6 252.24 671.36 253.68 671.6 254.88 672.08 255.84 672.8 256.56 673.52"/>
<use data-text=" " xlink:href="#font_3_3" transform="matrix(12.044304,0,0,-12.044304,68.518848,250.24164)"/>
<use data-text=" " xlink:href="#font_3_3" transform="matrix(12.044304,0,0,-12.044304,95.64141,250.24164)"/>
<use data-text=" " xlink:href="#font_3_3" transform="matrix(12.044304,0,0,-12.044304,68.518848,264.40333)"/>
<use data-text="A" xlink:href="#font_3_36" transform="matrix(12.044304,0,0,-12.044304,95.64141,264.40333)"/>
<use data-text="." xlink:href="#font_3_17" transform="matrix(12.044304,0,0,-12.044304,104.0399,264.40333)"/>
<use data-text=" " xlink:href="#font_3_3" transform="matrix(12.044304,0,0,-12.044304,107.16058,264.40333)"/>
<use data-text="I" xlink:href="#font_3_44" transform="matrix(12.044304,0,0,-12.044304,122.04251,264.40333)"/>
<use data-text=" " xlink:href="#font_3_3" transform="matrix(12.044304,0,0,-12.044304,126.12313,264.40333)"/>
<use data-text="o" xlink:href="#font_3_82" transform="matrix(12.044304,0,0,-12.044304,129.24379,264.40333)"/>
<use data-text="n" xlink:href="#font_3_81" transform="matrix(12.044304,0,0,-12.044304,135.48395,264.40333)"/>
<use data-text="l" xlink:href="#font_3_79" transform="matrix(12.044304,0,0,-12.044304,141.24475,264.40333)"/>
<use data-text="y" xlink:href="#font_3_92" transform="matrix(12.044304,0,0,-12.044304,144.12696,264.40333)"/>
<use data-text=" " xlink:href="#font_3_3" transform="matrix(12.044304,0,0,-12.044304,149.64807,264.40333)"/>
<use data-text=" " xlink:href="#font_3_3" transform="matrix(12.044304,0,0,-12.044304,68.518848,278.565)"/>
<use data-text="B" xlink:href="#font_3_37" transform="matrix(12.044304,0,0,-12.044304,95.64141,278.565)"/>
<use data-text="." xlink:href="#font_3_17" transform="matrix(12.044304,0,0,-12.044304,103.561748,278.565)"/>
<use data-text=" " xlink:href="#font_3_3" transform="matrix(12.044304,0,0,-12.044304,106.68243,278.565)"/>
<use data-text="I" xlink:href="#font_3_44" transform="matrix(12.044304,0,0,-12.044304,122.04374,278.565)"/>
<use data-text="I" xlink:href="#font_3_44" transform="matrix(12.044304,0,0,-12.044304,126.12435,278.565)"/>
<use data-text=" " xlink:href="#font_3_3" transform="matrix(12.044304,0,0,-12.044304,130.20496,278.565)"/>
<use data-text="o" xlink:href="#font_3_82" transform="matrix(12.044304,0,0,-12.044304,133.32563,278.565)"/>
<use data-text="n" xlink:href="#font_3_81" transform="matrix(12.044304,0,0,-12.044304,139.56578,278.565)"/>
<use data-text="l" xlink:href="#font_3_79" transform="matrix(12.044304,0,0,-12.044304,145.32657,278.565)"/>
<use data-text="y" xlink:href="#font_3_92" transform="matrix(12.044304,0,0,-12.044304,148.20876,278.565)"/>
<use data-text=" " xlink:href="#font_3_3" transform="matrix(12.044304,0,0,-12.044304,153.72988,278.565)"/>
<use data-text=" " xlink:href="#font_3_3" transform="matrix(12.044304,0,0,-12.044304,68.518848,292.72669)"/>
<use data-text="C" xlink:href="#font_3_38" transform="matrix(12.044304,0,0,-12.044304,95.64142,292.72669)"/>
<use data-text="." xlink:href="#font_3_17" transform="matrix(12.044304,0,0,-12.044304,103.56175,292.72669)"/>
<use data-text=" " xlink:href="#font_3_3" transform="matrix(12.044304,0,0,-12.044304,106.682437,292.72669)"/>
<use data-text="I" xlink:href="#font_3_44" transform="matrix(12.044304,0,0,-12.044304,122.04374,292.72669)"/>
<use data-text=" " xlink:href="#font_3_3" transform="matrix(12.044304,0,0,-12.044304,126.12435,292.72669)"/>
<use data-text="a" xlink:href="#font_3_68" transform="matrix(12.044304,0,0,-12.044304,129.24503,292.72669)"/>
<use data-text="n" xlink:href="#font_3_81" transform="matrix(12.044304,0,0,-12.044304,134.52767,292.72669)"/>
<use data-text="d" xlink:href="#font_3_71" transform="matrix(12.044304,0,0,-12.044304,140.28845,292.72669)"/>
<use data-text=" " xlink:href="#font_3_3" transform="matrix(12.044304,0,0,-12.044304,146.28893,292.72669)"/>
<use data-text="I" xlink:href="#font_3_44" transform="matrix(12.044304,0,0,-12.044304,149.4096,292.72669)"/>
<use data-text="I" xlink:href="#font_3_44" transform="matrix(12.044304,0,0,-12.044304,153.49022,292.72669)"/>
<use data-text="I" xlink:href="#font_3_44" transform="matrix(12.044304,0,0,-12.044304,157.57083,292.72669)"/>
<use data-text=" " xlink:href="#font_3_3" transform="matrix(12.044304,0,0,-12.044304,161.65143,292.72669)"/>
<use data-text="o" xlink:href="#font_3_82" transform="matrix(12.044304,0,0,-12.044304,164.77213,292.72669)"/>
<use data-text="n" xlink:href="#font_3_81" transform="matrix(12.044304,0,0,-12.044304,171.01229,292.72669)"/>
<use data-text="l" xlink:href="#font_3_79" transform="matrix(12.044304,0,0,-12.044304,176.77306,292.72669)"/>
<use data-text="y" xlink:href="#font_3_92" transform="matrix(12.044304,0,0,-12.044304,179.65526,292.72669)"/>
<use data-text=" " xlink:href="#font_3_3" transform="matrix(12.044304,0,0,-12.044304,185.17636,292.72669)"/>
<use data-text=" " xlink:href="#font_3_3" transform="matrix(12.044304,0,0,-12.044304,68.518848,306.88838)"/>
<use data-text="D" xlink:href="#font_3_39" transform="matrix(12.044304,0,0,-12.044304,95.64142,306.88838)"/>
<use data-text="." xlink:href="#font_3_17" transform="matrix(12.044304,0,0,-12.044304,104.2808,306.88838)"/>
<use data-text=" " xlink:href="#font_3_3" transform="matrix(12.044304,0,0,-12.044304,107.40148,306.88838)"/>
<use data-text="I" xlink:href="#font_3_44" transform="matrix(12.044304,0,0,-12.044304,122.042537,306.88838)"/>
<use data-text="I" xlink:href="#font_3_44" transform="matrix(12.044304,0,0,-12.044304,126.123149,306.88838)"/>
<use data-text=" " xlink:href="#font_3_3" transform="matrix(12.044304,0,0,-12.044304,130.20375,306.88838)"/>
<use data-text="a" xlink:href="#font_3_68" transform="matrix(12.044304,0,0,-12.044304,133.32444,306.88838)"/>
<use data-text="n" xlink:href="#font_3_81" transform="matrix(12.044304,0,0,-12.044304,138.60707,306.88838)"/>
<use data-text="d" xlink:href="#font_3_71" transform="matrix(12.044304,0,0,-12.044304,144.36785,306.88838)"/>
<use data-text=" " xlink:href="#font_3_3" transform="matrix(12.044304,0,0,-12.044304,150.36833,306.88838)"/>
<use data-text="I" xlink:href="#font_3_44" transform="matrix(12.044304,0,0,-12.044304,153.48902,306.88838)"/>
<use data-text="I" xlink:href="#font_3_44" transform="matrix(12.044304,0,0,-12.044304,157.56963,306.88838)"/>
<use data-text="I" xlink:href="#font_3_44" transform="matrix(12.044304,0,0,-12.044304,161.65023,306.88838)"/>
<use data-text=" " xlink:href="#font_3_3" transform="matrix(12.044304,0,0,-12.044304,165.73084,306.88838)"/>
<use data-text="o" xlink:href="#font_3_82" transform="matrix(12.044304,0,0,-12.044304,168.85153,306.88838)"/>
<use data-text="n" xlink:href="#font_3_81" transform="matrix(12.044304,0,0,-12.044304,175.09168,306.88838)"/>
<use data-text="l" xlink:href="#font_3_79" transform="matrix(12.044304,0,0,-12.044304,180.85247,306.88838)"/>
<use data-text="y" xlink:href="#font_3_92" transform="matrix(12.044304,0,0,-12.044304,183.73467,306.88838)"/>
<use data-text=" " xlink:href="#font_3_3" transform="matrix(12.044304,0,0,-12.044304,189.25577,306.88838)"/>
<use data-text=" " xlink:href="#font_3_3" transform="matrix(12.044304,0,0,-12.044304,68.518848,321.05006)"/>
<use data-text="E" xlink:href="#font_3_40" transform="matrix(12.044304,0,0,-12.044304,95.6414,321.05006)"/>
<use data-text="." xlink:href="#font_3_17" transform="matrix(12.044304,0,0,-12.044304,103.08117,321.05006)"/>
<use data-text=" " xlink:href="#font_3_3" transform="matrix(12.044304,0,0,-12.044304,106.17294,321.05006)"/>
<use data-text="I" xlink:href="#font_3_44" transform="matrix(12.044304,0,0,-12.044304,122.01481,321.05006)"/>
<use data-text="," xlink:href="#font_3_15" transform="matrix(12.044304,0,0,-12.044304,126.10626,321.05006)"/>
<use data-text=" " xlink:href="#font_3_3" transform="matrix(12.044304,0,0,-12.044304,129.19803,321.05006)"/>
<use data-text="I" xlink:href="#font_3_44" transform="matrix(12.044304,0,0,-12.044304,132.3187,321.05006)"/>
<use data-text="I" xlink:href="#font_3_44" transform="matrix(12.044304,0,0,-12.044304,136.41016,321.05006)"/>
<use data-text=" " xlink:href="#font_3_3" transform="matrix(12.044304,0,0,-12.044304,140.5016,321.05006)"/>
<use data-text="a" xlink:href="#font_3_68" transform="matrix(12.044304,0,0,-12.044304,143.62227,321.05006)"/>
<use data-text="n" xlink:href="#font_3_81" transform="matrix(12.044304,0,0,-12.044304,148.9049,321.05006)"/>
<use data-text="d" xlink:href="#font_3_71" transform="matrix(12.044304,0,0,-12.044304,154.6657,321.05006)"/>
<use data-text=" " xlink:href="#font_3_3" transform="matrix(12.044304,0,0,-12.044304,160.66616,321.05006)"/>
<use data-text="I" xlink:href="#font_3_44" transform="matrix(12.044304,0,0,-12.044304,163.78682,321.05006)"/>
<use data-text="I" xlink:href="#font_3_44" transform="matrix(12.044304,0,0,-12.044304,167.87827,321.05006)"/>
<use data-text="I" xlink:href="#font_3_44" transform="matrix(12.044304,0,0,-12.044304,171.96971,321.05006)"/>
<use data-text=" " xlink:href="#font_3_3" transform="matrix(12.044304,0,0,-12.044304,176.06116,321.05006)"/>
<use data-text=" " xlink:href="#font_3_3" transform="matrix(12.044304,0,0,-12.044304,68.518848,335.21177)"/>
<use data-text=" " xlink:href="#font_3_3" transform="matrix(12.044304,0,0,-12.044304,95.64141,335.21177)"/>
<use data-text=" " xlink:href="#font_3_3" transform="matrix(12.044304,0,0,-12.044304,72.11889,349.37348)"/>
</g>
</g>
  </g>
  </g>
</svg>