<?xml version="1.0" encoding="UTF-8"?>
<svg xmlns="http://www.w3.org/2000/svg" xmlns:xlink="http://www.w3.org/1999/xlink" width="396.660004" height="130" viewBox="0 0 396.660004 130">
<path fill-rule="nonzero" fill="rgb(0%, 0%, 0%)" fill-opacity="1" d="M 29.320312 15.5 L 28.90625 15.5 C 28.824219 15.957031 28.605469 16.175781 28.269531 16.175781 C 28.070312 16.175781 27.730469 16.097656 27.394531 15.9375 C 26.660156 15.660156 25.921875 15.5 25.289062 15.5 C 24.433594 15.5 23.558594 15.839844 22.902344 16.414062 C 22.207031 17.03125 21.851562 17.867188 21.851562 18.898438 C 21.851562 20.488281 22.722656 21.601562 24.949219 22.773438 C 26.382812 23.527344 27.414062 24.34375 27.910156 25.097656 C 28.089844 25.355469 28.191406 25.773438 28.191406 26.25 C 28.191406 27.582031 27.195312 28.496094 25.746094 28.496094 C 23.976562 28.496094 22.722656 27.402344 21.730469 24.980469 L 21.273438 24.980469 L 21.871094 29.191406 L 22.304688 29.191406 C 22.328125 28.8125 22.566406 28.535156 22.863281 28.535156 C 23.082031 28.535156 23.417969 28.613281 23.796875 28.753906 C 24.550781 29.050781 25.347656 29.210938 26.140625 29.210938 C 28.429688 29.210938 30.195312 27.640625 30.195312 25.59375 C 30.195312 23.964844 29.101562 22.675781 26.480469 21.265625 C 24.394531 20.113281 23.558594 19.238281 23.558594 18.164062 C 23.558594 17.070312 24.394531 16.316406 25.625 16.316406 C 26.519531 16.316406 27.355469 16.695312 28.050781 17.410156 C 28.667969 18.042969 28.945312 18.5625 29.261719 19.734375 L 29.757812 19.734375 Z M 29.320312 15.5 "/>
<path fill-rule="nonzero" fill="rgb(0%, 0%, 0%)" fill-opacity="1" d="M 36.546875 19.988281 L 34.539062 19.988281 L 34.539062 17.679688 C 34.539062 17.480469 34.519531 17.421875 34.398438 17.421875 C 34.261719 17.601562 34.140625 17.78125 34.003906 17.976562 C 33.246094 19.070312 32.394531 20.027344 32.074219 20.105469 C 31.855469 20.246094 31.738281 20.382812 31.738281 20.484375 C 31.738281 20.542969 31.757812 20.582031 31.816406 20.621094 L 32.871094 20.621094 L 32.871094 26.609375 C 32.871094 28.277344 33.464844 29.132812 34.636719 29.132812 C 35.613281 29.132812 36.367188 28.65625 37.023438 27.621094 L 36.765625 27.402344 C 36.347656 27.898438 36.011719 28.097656 35.574219 28.097656 C 34.835938 28.097656 34.539062 27.5625 34.539062 26.308594 L 34.539062 20.621094 L 36.546875 20.621094 Z M 36.546875 19.988281 "/>
<path fill-rule="nonzero" fill="rgb(0%, 0%, 0%)" fill-opacity="1" d="M 45.105469 25.671875 C 44.152344 27.183594 43.296875 27.761719 42.027344 27.761719 C 40.894531 27.761719 40.039062 27.183594 39.460938 26.050781 C 39.105469 25.292969 38.964844 24.636719 38.925781 23.421875 L 45.046875 23.421875 C 44.886719 22.132812 44.691406 21.558594 44.191406 20.925781 C 43.597656 20.210938 42.683594 19.792969 41.648438 19.792969 C 40.65625 19.792969 39.722656 20.148438 38.964844 20.824219 C 38.03125 21.636719 37.496094 23.046875 37.496094 24.675781 C 37.496094 27.421875 38.925781 29.132812 41.210938 29.132812 C 43.101562 29.132812 44.589844 27.960938 45.425781 25.8125 L 45.105469 25.671875 M 38.964844 22.789062 C 39.183594 21.242188 39.859375 20.507812 41.074219 20.507812 C 42.285156 20.507812 42.761719 21.0625 43.019531 22.789062 Z M 38.964844 22.789062 "/>
<path fill-rule="nonzero" fill="rgb(0%, 0%, 0%)" fill-opacity="1" d="M 46.257812 21.023438 C 46.515625 20.964844 46.671875 20.945312 46.890625 20.945312 C 47.410156 20.945312 47.585938 21.265625 47.585938 22.21875 L 47.585938 27.25 C 47.585938 28.324219 47.308594 28.621094 46.195312 28.640625 L 46.195312 28.9375 L 50.609375 28.9375 L 50.609375 28.640625 C 49.554688 28.601562 49.257812 28.382812 49.257812 27.605469 L 49.257812 22 C 49.257812 21.960938 49.417969 21.761719 49.554688 21.621094 C 50.050781 21.164062 50.90625 20.828125 51.601562 20.828125 C 52.476562 20.828125 52.914062 21.523438 52.914062 22.914062 L 52.914062 27.230469 C 52.914062 28.34375 52.695312 28.5625 51.5625 28.640625 L 51.5625 28.9375 L 56.015625 28.9375 L 56.015625 28.640625 C 54.882812 28.621094 54.582031 28.28125 54.582031 27.050781 L 54.582031 22.039062 C 55.179688 21.183594 55.835938 20.828125 56.75 20.828125 C 57.882812 20.828125 58.242188 21.363281 58.242188 23.011719 L 58.242188 27.207031 C 58.242188 28.34375 58.082031 28.5 56.929688 28.640625 L 56.929688 28.9375 L 61.28125 28.9375 L 61.28125 28.640625 L 60.765625 28.601562 C 60.167969 28.5625 59.910156 28.203125 59.910156 27.425781 L 59.910156 23.332031 C 59.910156 20.984375 59.132812 19.792969 57.605469 19.792969 C 56.453125 19.792969 55.4375 20.308594 54.363281 21.460938 C 54.007812 20.328125 53.332031 19.792969 52.257812 19.792969 C 51.382812 19.792969 50.828125 20.070312 49.175781 21.324219 L 49.175781 19.832031 L 49.039062 19.792969 C 48.023438 20.171875 47.347656 20.390625 46.257812 20.6875 Z M 46.257812 21.023438 "/>
<path fill-rule="nonzero" fill="rgb(0%, 0%, 0%)" fill-opacity="1" d="M 71.902344 15.496094 C 70.429688 16.449219 69.835938 16.96875 69.097656 17.882812 C 67.6875 19.613281 66.992188 21.601562 66.992188 23.925781 C 66.992188 26.453125 67.726562 28.402344 69.476562 30.429688 C 70.292969 31.382812 70.808594 31.820312 71.839844 32.457031 L 72.078125 32.140625 C 70.492188 30.886719 69.933594 30.191406 69.398438 28.699219 C 68.921875 27.367188 68.703125 25.855469 68.703125 23.867188 C 68.703125 21.78125 68.960938 20.148438 69.496094 18.917969 C 70.054688 17.683594 70.648438 16.96875 72.078125 15.816406 Z M 71.902344 15.496094 "/>
<path fill-rule="nonzero" fill="rgb(0%, 0%, 0%)" fill-opacity="1" d="M 77.828125 19.988281 L 75.820312 19.988281 L 75.820312 17.679688 C 75.820312 17.480469 75.800781 17.421875 75.679688 17.421875 C 75.539062 17.601562 75.421875 17.78125 75.28125 17.976562 C 74.527344 19.070312 73.671875 20.027344 73.355469 20.105469 C 73.136719 20.246094 73.015625 20.382812 73.015625 20.484375 C 73.015625 20.542969 73.035156 20.582031 73.097656 20.621094 L 74.148438 20.621094 L 74.148438 26.609375 C 74.148438 28.277344 74.746094 29.132812 75.917969 29.132812 C 76.890625 29.132812 77.648438 28.65625 78.304688 27.621094 L 78.046875 27.402344 C 77.628906 27.898438 77.289062 28.097656 76.851562 28.097656 C 76.117188 28.097656 75.820312 27.5625 75.820312 26.308594 L 75.820312 20.621094 L 77.828125 20.621094 Z M 77.828125 19.988281 "/>
<path fill-rule="nonzero" fill="rgb(0%, 0%, 0%)" fill-opacity="1" d="M 86.386719 25.671875 C 85.433594 27.183594 84.578125 27.761719 83.304688 27.761719 C 82.175781 27.761719 81.320312 27.183594 80.742188 26.050781 C 80.386719 25.292969 80.246094 24.636719 80.207031 23.421875 L 86.328125 23.421875 C 86.167969 22.132812 85.96875 21.558594 85.472656 20.925781 C 84.875 20.210938 83.960938 19.792969 82.929688 19.792969 C 81.933594 19.792969 81 20.148438 80.246094 20.824219 C 79.3125 21.636719 78.773438 23.046875 78.773438 24.675781 C 78.773438 27.421875 80.207031 29.132812 82.492188 29.132812 C 84.378906 29.132812 85.871094 27.960938 86.707031 25.8125 L 86.386719 25.671875 M 80.246094 22.789062 C 80.464844 21.242188 81.140625 20.507812 82.351562 20.507812 C 83.566406 20.507812 84.042969 21.0625 84.300781 22.789062 Z M 80.246094 22.789062 "/>
<path fill-rule="nonzero" fill="rgb(0%, 0%, 0%)" fill-opacity="1" d="M 87.476562 21.023438 C 87.59375 20.964844 87.792969 20.945312 88.011719 20.945312 C 88.570312 20.945312 88.75 21.242188 88.75 22.21875 L 88.75 27.148438 C 88.75 28.28125 88.53125 28.5625 87.515625 28.640625 L 87.515625 28.9375 L 91.730469 28.9375 L 91.730469 28.640625 C 90.714844 28.5625 90.417969 28.324219 90.417969 27.605469 L 90.417969 22.019531 C 91.371094 21.125 91.808594 20.886719 92.464844 20.886719 C 93.4375 20.886719 93.914062 21.503906 93.914062 22.816406 L 93.914062 26.96875 C 93.914062 28.222656 93.65625 28.5625 92.664062 28.640625 L 92.664062 28.9375 L 96.796875 28.9375 L 96.796875 28.640625 C 95.824219 28.542969 95.585938 28.300781 95.585938 27.328125 L 95.585938 22.773438 C 95.585938 20.90625 94.710938 19.792969 93.238281 19.792969 C 92.324219 19.792969 91.710938 20.128906 90.359375 21.402344 L 90.359375 19.832031 L 90.21875 19.792969 C 89.246094 20.148438 88.570312 20.367188 87.476562 20.6875 Z M 87.476562 21.023438 "/>
<path fill-rule="nonzero" fill="rgb(0%, 0%, 0%)" fill-opacity="1" d="M 103.257812 22.695312 L 103.179688 19.988281 L 102.960938 19.988281 L 102.921875 20.027344 C 102.742188 20.164062 102.722656 20.183594 102.644531 20.183594 C 102.523438 20.183594 102.324219 20.144531 102.105469 20.046875 C 101.667969 19.890625 101.230469 19.8125 100.714844 19.8125 C 99.144531 19.8125 98.011719 20.824219 98.011719 22.257812 C 98.011719 23.371094 98.648438 24.164062 100.335938 25.117188 L 101.488281 25.773438 C 102.183594 26.171875 102.523438 26.648438 102.523438 27.265625 C 102.523438 28.140625 101.886719 28.695312 100.875 28.695312 C 100.199219 28.695312 99.582031 28.4375 99.203125 28 C 98.789062 27.503906 98.609375 27.046875 98.351562 25.914062 L 98.03125 25.914062 L 98.03125 29.015625 L 98.289062 29.015625 C 98.429688 28.816406 98.507812 28.777344 98.746094 28.777344 C 98.925781 28.777344 99.203125 28.816406 99.660156 28.9375 C 100.21875 29.054688 100.753906 29.132812 101.113281 29.132812 C 102.644531 29.132812 103.914062 27.980469 103.914062 26.589844 C 103.914062 25.59375 103.4375 24.941406 102.246094 24.222656 L 100.097656 22.953125 C 99.542969 22.632812 99.246094 22.136719 99.246094 21.601562 C 99.246094 20.804688 99.859375 20.25 100.773438 20.25 C 101.90625 20.25 102.503906 20.925781 102.960938 22.695312 Z M 103.257812 22.695312 "/>
<path fill-rule="nonzero" fill="rgb(0%, 0%, 0%)" fill-opacity="1" d="M 105.433594 32.457031 C 106.90625 31.503906 107.5 30.988281 108.234375 30.070312 C 109.648438 28.34375 110.34375 26.355469 110.34375 24.027344 C 110.34375 21.480469 109.605469 19.554688 107.859375 17.523438 C 107.042969 16.570312 106.527344 16.132812 105.492188 15.496094 L 105.253906 15.816406 C 106.84375 17.066406 107.382812 17.761719 107.9375 19.253906 C 108.414062 20.585938 108.632812 22.097656 108.632812 24.085938 C 108.632812 26.15625 108.375 27.804688 107.839844 29.019531 C 107.28125 30.269531 106.6875 30.988281 105.253906 32.140625 Z M 105.433594 32.457031 "/>
<path fill-rule="nonzero" fill="rgb(0%, 0%, 0%)" fill-opacity="1" d="M 20.441406 32.058594 L 111.398438 32.058594 L 111.398438 31.097656 L 20.441406 31.097656 Z M 20.441406 32.058594 "/>
<path fill-rule="nonzero" fill="rgb(0%, 0%, 0%)" fill-opacity="1" d="M 144.386719 25.476562 C 144.050781 26.234375 143.769531 26.691406 143.472656 27.03125 C 142.777344 27.804688 141.683594 28.164062 140.035156 28.164062 L 138.703125 28.164062 C 137.253906 28.164062 136.996094 28.042969 136.996094 27.347656 L 136.996094 17.941406 C 136.996094 16.527344 137.273438 16.25 138.84375 16.152344 L 138.84375 15.773438 L 133.238281 15.773438 L 133.238281 16.152344 C 134.707031 16.269531 134.96875 16.546875 134.96875 17.941406 L 134.96875 26.769531 C 134.96875 28.164062 134.6875 28.460938 133.238281 28.5625 L 133.238281 28.9375 L 143.929688 28.9375 L 144.882812 25.476562 Z M 144.386719 25.476562 "/>
<path fill-rule="nonzero" fill="rgb(0%, 0%, 0%)" fill-opacity="1" d="M 153.109375 25.671875 C 152.15625 27.183594 151.300781 27.761719 150.027344 27.761719 C 148.894531 27.761719 148.039062 27.183594 147.464844 26.050781 C 147.105469 25.292969 146.96875 24.636719 146.925781 23.421875 L 153.046875 23.421875 C 152.890625 22.132812 152.691406 21.558594 152.195312 20.925781 C 151.597656 20.210938 150.683594 19.792969 149.648438 19.792969 C 148.65625 19.792969 147.722656 20.148438 146.96875 20.824219 C 146.03125 21.636719 145.496094 23.046875 145.496094 24.675781 C 145.496094 27.421875 146.925781 29.132812 149.214844 29.132812 C 151.101562 29.132812 152.589844 27.960938 153.425781 25.8125 L 153.109375 25.671875 M 146.96875 22.789062 C 147.1875 21.242188 147.863281 20.507812 149.074219 20.507812 C 150.285156 20.507812 150.761719 21.0625 151.023438 22.789062 Z M 146.96875 22.789062 "/>
<path fill-rule="nonzero" fill="rgb(0%, 0%, 0%)" fill-opacity="1" d="M 162.664062 27.621094 C 162.324219 27.898438 162.085938 28 161.789062 28 C 161.332031 28 161.195312 27.722656 161.195312 26.847656 L 161.195312 22.972656 C 161.195312 21.9375 161.09375 21.363281 160.796875 20.886719 C 160.359375 20.171875 159.503906 19.792969 158.332031 19.792969 C 156.464844 19.792969 154.992188 20.765625 154.992188 22.019531 C 154.992188 22.476562 155.390625 22.871094 155.847656 22.871094 C 156.324219 22.871094 156.742188 22.476562 156.742188 22.039062 C 156.742188 21.957031 156.722656 21.859375 156.703125 21.71875 C 156.664062 21.542969 156.640625 21.382812 156.640625 21.242188 C 156.640625 20.707031 157.277344 20.269531 158.074219 20.269531 C 159.046875 20.269531 159.582031 20.847656 159.582031 21.917969 L 159.582031 23.132812 C 156.523438 24.363281 156.183594 24.523438 155.332031 25.277344 C 154.894531 25.675781 154.613281 26.351562 154.613281 27.003906 C 154.613281 28.257812 155.488281 29.132812 156.703125 29.132812 C 157.578125 29.132812 158.390625 28.714844 159.601562 27.679688 C 159.703125 28.714844 160.058594 29.132812 160.875 29.132812 C 161.550781 29.132812 161.96875 28.894531 162.664062 28.140625 L 162.664062 27.621094 M 159.582031 26.488281 C 159.582031 27.105469 159.484375 27.285156 159.066406 27.523438 C 158.589844 27.800781 158.035156 27.980469 157.617188 27.980469 C 156.921875 27.980469 156.363281 27.304688 156.363281 26.449219 L 156.363281 26.371094 C 156.363281 25.199219 157.179688 24.480469 159.582031 23.609375 Z M 159.582031 26.488281 "/>
<path fill-rule="nonzero" fill="rgb(0%, 0%, 0%)" fill-opacity="1" d="M 168.902344 19.988281 L 166.457031 19.988281 L 166.457031 17.679688 C 166.457031 16.527344 166.832031 15.910156 167.589844 15.910156 C 168.007812 15.910156 168.285156 16.109375 168.640625 16.6875 C 168.960938 17.203125 169.199219 17.402344 169.535156 17.402344 C 169.992188 17.402344 170.371094 17.042969 170.371094 16.585938 C 170.371094 15.871094 169.496094 15.351562 168.304688 15.351562 C 167.074219 15.351562 166.019531 15.890625 165.503906 16.804688 C 164.984375 17.679688 164.828125 18.394531 164.808594 19.988281 L 163.175781 19.988281 L 163.175781 20.621094 L 164.808594 20.621094 L 164.808594 26.871094 C 164.808594 28.320312 164.589844 28.5625 163.15625 28.640625 L 163.15625 28.9375 L 168.324219 28.9375 L 168.324219 28.640625 C 166.695312 28.582031 166.476562 28.363281 166.476562 26.871094 L 166.476562 20.621094 L 168.902344 20.621094 Z M 168.902344 19.988281 "/>
<path fill-rule="nonzero" fill="rgb(0%, 0%, 0%)" fill-opacity="1" d="M 180.144531 15.496094 C 178.671875 16.449219 178.074219 16.96875 177.339844 17.882812 C 175.929688 19.613281 175.234375 21.601562 175.234375 23.925781 C 175.234375 26.453125 175.96875 28.402344 177.71875 30.429688 C 178.53125 31.382812 179.050781 31.820312 180.082031 32.457031 L 180.320312 32.140625 C 178.730469 30.886719 178.175781 30.191406 177.636719 28.699219 C 177.160156 27.367188 176.941406 25.855469 176.941406 23.867188 C 176.941406 21.78125 177.199219 20.148438 177.738281 18.917969 C 178.292969 17.683594 178.890625 16.96875 180.320312 15.816406 Z M 180.144531 15.496094 "/>
<path fill-rule="nonzero" fill="rgb(0%, 0%, 0%)" fill-opacity="1" d="M 190.519531 27.941406 L 190.421875 27.941406 C 189.503906 27.941406 189.289062 27.722656 189.289062 26.804688 L 189.289062 19.988281 L 186.148438 19.988281 L 186.148438 20.324219 C 187.378906 20.382812 187.617188 20.582031 187.617188 21.578125 L 187.617188 26.25 C 187.617188 26.804688 187.519531 27.085938 187.238281 27.304688 C 186.703125 27.742188 186.085938 27.980469 185.492188 27.980469 C 184.714844 27.980469 184.082031 27.304688 184.082031 26.46875 L 184.082031 19.988281 L 181.179688 19.988281 L 181.179688 20.265625 C 182.132812 20.324219 182.410156 20.621094 182.410156 21.539062 L 182.410156 26.546875 C 182.410156 28.117188 183.363281 29.132812 184.816406 29.132812 C 185.550781 29.132812 186.324219 28.816406 186.863281 28.277344 L 187.71875 27.421875 L 187.71875 29.074219 L 187.796875 29.113281 C 188.789062 28.714844 189.503906 28.496094 190.519531 28.21875 Z M 190.519531 27.941406 "/>
<path fill-rule="nonzero" fill="rgb(0%, 0%, 0%)" fill-opacity="1" d="M 191.15625 21.023438 C 191.277344 20.964844 191.476562 20.945312 191.695312 20.945312 C 192.25 20.945312 192.429688 21.242188 192.429688 22.21875 L 192.429688 27.148438 C 192.429688 28.28125 192.210938 28.5625 191.199219 28.640625 L 191.199219 28.9375 L 195.410156 28.9375 L 195.410156 28.640625 C 194.398438 28.5625 194.097656 28.324219 194.097656 27.605469 L 194.097656 22.019531 C 195.054688 21.125 195.488281 20.886719 196.144531 20.886719 C 197.121094 20.886719 197.597656 21.503906 197.597656 22.816406 L 197.597656 26.96875 C 197.597656 28.222656 197.339844 28.5625 196.34375 28.640625 L 196.34375 28.9375 L 200.480469 28.9375 L 200.480469 28.640625 C 199.503906 28.542969 199.265625 28.300781 199.265625 27.328125 L 199.265625 22.773438 C 199.265625 20.90625 198.390625 19.792969 196.921875 19.792969 C 196.007812 19.792969 195.390625 20.128906 194.039062 21.402344 L 194.039062 19.832031 L 193.898438 19.792969 C 192.925781 20.148438 192.25 20.367188 191.15625 20.6875 Z M 191.15625 21.023438 "/>
<path fill-rule="nonzero" fill="rgb(0%, 0%, 0%)" fill-opacity="1" d="M 204.15625 19.796875 L 201.078125 20.890625 L 201.078125 21.1875 L 201.234375 21.167969 C 201.472656 21.128906 201.734375 21.109375 201.910156 21.109375 C 202.390625 21.109375 202.566406 21.425781 202.566406 22.300781 L 202.566406 26.910156 C 202.566406 28.34375 202.367188 28.5625 200.996094 28.640625 L 200.996094 28.9375 L 205.707031 28.9375 L 205.707031 28.640625 C 204.394531 28.542969 204.238281 28.34375 204.238281 26.910156 L 204.238281 19.855469 L 204.15625 19.796875 M 203.222656 15.363281 C 202.6875 15.363281 202.230469 15.820312 202.230469 16.378906 C 202.230469 16.9375 202.667969 17.394531 203.222656 17.394531 C 203.800781 17.394531 204.257812 16.957031 204.257812 16.378906 C 204.257812 15.820312 203.800781 15.363281 203.222656 15.363281 Z M 203.222656 15.363281 "/>
<path fill-rule="nonzero" fill="rgb(0%, 0%, 0%)" fill-opacity="1" d="M 211.265625 19.988281 L 209.261719 19.988281 L 209.261719 17.679688 C 209.261719 17.480469 209.242188 17.421875 209.121094 17.421875 C 208.980469 17.601562 208.863281 17.78125 208.722656 17.976562 C 207.96875 19.070312 207.113281 20.027344 206.796875 20.105469 C 206.578125 20.246094 206.457031 20.382812 206.457031 20.484375 C 206.457031 20.542969 206.476562 20.582031 206.539062 20.621094 L 207.589844 20.621094 L 207.589844 26.609375 C 207.589844 28.277344 208.1875 29.132812 209.359375 29.132812 C 210.332031 29.132812 211.089844 28.65625 211.746094 27.621094 L 211.484375 27.402344 C 211.070312 27.898438 210.730469 28.097656 210.292969 28.097656 C 209.558594 28.097656 209.261719 27.5625 209.261719 26.308594 L 209.261719 20.621094 L 211.265625 20.621094 Z M 211.265625 19.988281 "/>
<path fill-rule="nonzero" fill="rgb(0%, 0%, 0%)" fill-opacity="1" d="M 217.980469 22.695312 L 217.898438 19.988281 L 217.683594 19.988281 L 217.640625 20.027344 C 217.464844 20.164062 217.441406 20.183594 217.363281 20.183594 C 217.246094 20.183594 217.046875 20.144531 216.828125 20.046875 C 216.390625 19.890625 215.953125 19.8125 215.4375 19.8125 C 213.867188 19.8125 212.734375 20.824219 212.734375 22.257812 C 212.734375 23.371094 213.367188 24.164062 215.058594 25.117188 L 216.210938 25.773438 C 216.90625 26.171875 217.246094 26.648438 217.246094 27.265625 C 217.246094 28.140625 216.609375 28.695312 215.59375 28.695312 C 214.917969 28.695312 214.304688 28.4375 213.925781 28 C 213.507812 27.503906 213.328125 27.046875 213.070312 25.914062 L 212.753906 25.914062 L 212.753906 29.015625 L 213.011719 29.015625 C 213.152344 28.816406 213.230469 28.777344 213.46875 28.777344 C 213.648438 28.777344 213.925781 28.816406 214.382812 28.9375 C 214.9375 29.054688 215.476562 29.132812 215.832031 29.132812 C 217.363281 29.132812 218.636719 27.980469 218.636719 26.589844 C 218.636719 25.59375 218.160156 24.941406 216.964844 24.222656 L 214.820312 22.953125 C 214.261719 22.632812 213.964844 22.136719 213.964844 21.601562 C 213.964844 20.804688 214.582031 20.25 215.496094 20.25 C 216.628906 20.25 217.226562 20.925781 217.683594 22.695312 Z M 217.980469 22.695312 "/>
<path fill-rule="nonzero" fill="rgb(0%, 0%, 0%)" fill-opacity="1" d="M 220.15625 32.457031 C 221.625 31.503906 222.222656 30.988281 222.957031 30.070312 C 224.367188 28.34375 225.0625 26.355469 225.0625 24.027344 C 225.0625 21.480469 224.328125 19.554688 222.578125 17.523438 C 221.765625 16.570312 221.246094 16.132812 220.214844 15.496094 L 219.976562 15.816406 C 221.566406 17.066406 222.101562 17.761719 222.660156 19.253906 C 223.136719 20.585938 223.355469 22.097656 223.355469 24.085938 C 223.355469 26.15625 223.097656 27.804688 222.558594 29.019531 C 222.003906 30.269531 221.40625 30.988281 219.976562 32.140625 Z M 220.15625 32.457031 "/>
<path fill-rule="nonzero" fill="rgb(0%, 0%, 0%)" fill-opacity="1" d="M 133 32.058594 L 226.117188 32.058594 L 226.117188 31.097656 L 133 31.097656 Z M 133 32.058594 "/>
<path fill-rule="nonzero" fill="rgb(0%, 0%, 0%)" fill-opacity="1" d="M 121.71875 33.738281 L 122.679688 33.738281 L 122.679688 10.21875 L 121.71875 10.21875 Z M 121.71875 33.738281 "/>
<path fill-rule="nonzero" fill="rgb(0%, 0%, 0%)" fill-opacity="1" d="M 97.023438 39.015625 L 93.445312 40.824219 L 93.445312 41.105469 C 93.683594 41.003906 93.902344 40.925781 93.980469 40.886719 C 94.339844 40.746094 94.679688 40.667969 94.875 40.667969 C 95.292969 40.667969 95.472656 40.964844 95.472656 41.601562 L 95.472656 50.609375 C 95.472656 51.265625 95.3125 51.722656 94.996094 51.902344 C 94.699219 52.082031 94.417969 52.140625 93.585938 52.160156 L 93.585938 52.457031 L 99.070312 52.457031 L 99.070312 52.160156 C 97.5 52.140625 97.183594 51.941406 97.183594 50.988281 L 97.183594 39.054688 Z M 97.023438 39.015625 "/>
<path fill-rule="nonzero" fill="rgb(0%, 0%, 0%)" fill-opacity="1" d="M 104.917969 40.863281 L 108.8125 40.863281 C 109.128906 40.863281 109.210938 40.824219 109.269531 40.683594 L 110.023438 38.914062 L 109.847656 38.777344 C 109.546875 39.191406 109.347656 39.292969 108.929688 39.292969 L 104.777344 39.292969 L 102.613281 44.003906 C 102.589844 44.046875 102.589844 44.066406 102.589844 44.105469 C 102.589844 44.203125 102.671875 44.265625 102.828125 44.265625 C 103.464844 44.265625 104.261719 44.402344 105.074219 44.660156 C 107.359375 45.398438 108.414062 46.628906 108.414062 48.597656 C 108.414062 50.507812 107.203125 52 105.652344 52 C 105.253906 52 104.917969 51.859375 104.320312 51.421875 C 103.683594 50.964844 103.226562 50.765625 102.808594 50.765625 C 102.234375 50.765625 101.957031 51.003906 101.957031 51.503906 C 101.957031 52.257812 102.890625 52.734375 104.378906 52.734375 C 106.050781 52.734375 107.480469 52.199219 108.472656 51.183594 C 109.386719 50.289062 109.804688 49.15625 109.804688 47.644531 C 109.804688 46.210938 109.429688 45.296875 108.433594 44.304688 C 107.558594 43.429688 106.425781 42.972656 104.082031 42.554688 Z M 104.917969 40.863281 "/>
<path fill-rule="nonzero" fill="rgb(0%, 0%, 0%)" fill-opacity="1" d="M 136.039062 45.902344 C 137.214844 45.902344 137.671875 45.941406 138.148438 46.121094 C 139.378906 46.558594 140.15625 47.691406 140.15625 49.0625 C 140.15625 50.734375 139.023438 52.027344 137.550781 52.027344 C 137.015625 52.027344 136.617188 51.886719 135.882812 51.410156 C 135.285156 51.050781 134.949219 50.910156 134.609375 50.910156 C 134.152344 50.910156 133.855469 51.191406 133.855469 51.609375 C 133.855469 52.304688 134.707031 52.742188 136.101562 52.742188 C 137.628906 52.742188 139.199219 52.222656 140.132812 51.410156 C 141.070312 50.59375 141.585938 49.441406 141.585938 48.109375 C 141.585938 47.09375 141.265625 46.160156 140.691406 45.542969 C 140.292969 45.105469 139.914062 44.867188 139.042969 44.488281 C 140.414062 43.554688 140.910156 42.820312 140.910156 41.746094 C 140.910156 40.132812 139.636719 39.019531 137.808594 39.019531 C 136.816406 39.019531 135.941406 39.359375 135.226562 39.996094 C 134.628906 40.53125 134.332031 41.050781 133.894531 42.242188 L 134.191406 42.320312 C 135.007812 40.871094 135.902344 40.214844 137.152344 40.214844 C 138.445312 40.214844 139.339844 41.089844 139.339844 42.339844 C 139.339844 43.058594 139.042969 43.773438 138.542969 44.269531 C 137.949219 44.867188 137.390625 45.164062 136.039062 45.640625 Z M 136.039062 45.902344 "/>
<path fill-rule="nonzero" fill="rgb(0%, 0%, 0%)" fill-opacity="1" d="M 168.679688 45.902344 C 169.851562 45.902344 170.308594 45.941406 170.785156 46.121094 C 172.019531 46.558594 172.792969 47.691406 172.792969 49.0625 C 172.792969 50.734375 171.660156 52.027344 170.191406 52.027344 C 169.65625 52.027344 169.257812 51.886719 168.519531 51.410156 C 167.925781 51.050781 167.585938 50.910156 167.25 50.910156 C 166.792969 50.910156 166.496094 51.191406 166.496094 51.609375 C 166.496094 52.304688 167.347656 52.742188 168.738281 52.742188 C 170.269531 52.742188 171.839844 52.222656 172.773438 51.410156 C 173.707031 50.59375 174.226562 49.441406 174.226562 48.109375 C 174.226562 47.09375 173.90625 46.160156 173.332031 45.542969 C 172.933594 45.105469 172.554688 44.867188 171.679688 44.488281 C 173.050781 43.554688 173.550781 42.820312 173.550781 41.746094 C 173.550781 40.132812 172.277344 39.019531 170.449219 39.019531 C 169.457031 39.019531 168.582031 39.359375 167.867188 39.996094 C 167.269531 40.53125 166.972656 41.050781 166.535156 42.242188 L 166.832031 42.320312 C 167.648438 40.871094 168.542969 40.214844 169.792969 40.214844 C 171.085938 40.214844 171.980469 41.089844 171.980469 42.339844 C 171.980469 43.058594 171.679688 43.773438 171.183594 44.269531 C 170.589844 44.867188 170.03125 45.164062 168.679688 45.640625 Z M 168.679688 45.902344 "/>
<path fill-rule="nonzero" fill="rgb(0%, 0%, 0%)" fill-opacity="1" d="M 207.421875 47.867188 L 205.394531 47.867188 L 205.394531 39.019531 L 204.519531 39.019531 L 198.277344 47.867188 L 198.277344 49.136719 L 203.863281 49.136719 L 203.863281 52.457031 L 205.394531 52.457031 L 205.394531 49.136719 L 207.421875 49.136719 L 207.421875 47.867188 M 203.84375 47.867188 L 199.074219 47.867188 L 203.84375 41.046875 Z M 203.84375 47.867188 "/>
<path fill-rule="nonzero" fill="rgb(0%, 0%, 0%)" fill-opacity="1" d="M 234.277344 40.863281 L 238.171875 40.863281 C 238.488281 40.863281 238.570312 40.824219 238.628906 40.683594 L 239.382812 38.914062 L 239.207031 38.777344 C 238.90625 39.191406 238.707031 39.292969 238.292969 39.292969 L 234.136719 39.292969 L 231.972656 44.003906 C 231.953125 44.046875 231.953125 44.066406 231.953125 44.105469 C 231.953125 44.203125 232.03125 44.265625 232.191406 44.265625 C 232.824219 44.265625 233.621094 44.402344 234.4375 44.660156 C 236.722656 45.398438 237.773438 46.628906 237.773438 48.597656 C 237.773438 50.507812 236.5625 52 235.011719 52 C 234.613281 52 234.277344 51.859375 233.679688 51.421875 C 233.042969 50.964844 232.585938 50.765625 232.171875 50.765625 C 231.59375 50.765625 231.316406 51.003906 231.316406 51.503906 C 231.316406 52.257812 232.25 52.734375 233.738281 52.734375 C 235.410156 52.734375 236.839844 52.199219 237.835938 51.183594 C 238.75 50.289062 239.164062 49.15625 239.164062 47.644531 C 239.164062 46.210938 238.789062 45.296875 237.792969 44.304688 C 236.921875 43.429688 235.789062 42.972656 233.441406 42.554688 Z M 234.277344 40.863281 "/>
<path fill-rule="nonzero" fill="rgb(0%, 0%, 0%)" fill-opacity="1" d="M 272.183594 38.84375 C 269.917969 39.042969 268.765625 39.417969 267.3125 40.433594 C 265.167969 41.964844 263.996094 44.230469 263.996094 46.898438 C 263.996094 48.628906 264.53125 50.382812 265.386719 51.378906 C 266.140625 52.253906 267.214844 52.730469 268.445312 52.730469 C 270.910156 52.730469 272.621094 50.839844 272.621094 48.09375 C 272.621094 45.546875 271.167969 43.933594 268.882812 43.933594 C 268.011719 43.933594 267.59375 44.074219 266.339844 44.828125 C 266.875 41.824219 269.101562 39.679688 272.222656 39.160156 L 272.183594 38.84375 M 268.128906 44.847656 C 269.839844 44.847656 270.832031 46.28125 270.832031 48.769531 C 270.832031 50.960938 270.058594 52.171875 268.664062 52.171875 C 266.917969 52.171875 265.84375 50.304688 265.84375 47.21875 C 265.84375 46.203125 266.003906 45.644531 266.398438 45.347656 C 266.816406 45.027344 267.433594 44.847656 268.128906 44.847656 Z M 268.128906 44.847656 "/>
<path fill-rule="nonzero" fill="rgb(0%, 0%, 0%)" fill-opacity="1" d="M 304.882812 39.292969 L 297.53125 39.292969 L 296.355469 42.214844 L 296.695312 42.375 C 297.550781 41.023438 297.90625 40.765625 299 40.765625 L 303.3125 40.765625 L 299.378906 52.613281 L 300.671875 52.613281 L 304.882812 39.609375 Z M 304.882812 39.292969 "/>
<path fill-rule="nonzero" fill="rgb(0%, 0%, 0%)" fill-opacity="1" d="M 329.773438 52.890625 C 331.996094 52.632812 333.089844 52.253906 334.441406 51.28125 C 336.507812 49.769531 337.722656 47.304688 337.722656 44.621094 C 337.722656 41.34375 335.894531 39.019531 333.328125 39.019531 C 330.964844 39.019531 329.195312 41.027344 329.195312 43.707031 C 329.195312 46.128906 330.625 47.742188 332.773438 47.742188 C 333.867188 47.742188 334.699219 47.421875 335.753906 46.605469 C 334.941406 49.847656 332.734375 51.976562 329.710938 52.492188 L 329.773438 52.890625 M 335.792969 45.394531 C 335.792969 45.792969 335.714844 45.972656 335.496094 46.152344 C 334.941406 46.628906 334.203125 46.886719 333.488281 46.886719 C 331.976562 46.886719 331.023438 45.394531 331.023438 43.03125 C 331.023438 41.902344 331.34375 40.710938 331.757812 40.191406 C 332.097656 39.796875 332.59375 39.578125 333.171875 39.578125 C 334.898438 39.578125 335.792969 41.285156 335.792969 44.621094 Z M 335.792969 45.394531 "/>
<path fill-rule="nonzero" fill="rgb(0%, 0%, 0%)" fill-opacity="1" d="M 121.71875 57.257812 L 122.679688 57.257812 L 122.679688 33.738281 L 121.71875 33.738281 Z M 121.71875 57.257812 "/>
<path fill-rule="nonzero" fill="rgb(0%, 0%, 0%)" fill-opacity="1" d="M 97.023438 62.535156 L 93.445312 64.347656 L 93.445312 64.625 C 93.683594 64.523438 93.902344 64.445312 93.980469 64.40625 C 94.339844 64.265625 94.679688 64.1875 94.875 64.1875 C 95.292969 64.1875 95.472656 64.484375 95.472656 65.121094 L 95.472656 74.128906 C 95.472656 74.785156 95.3125 75.242188 94.996094 75.421875 C 94.699219 75.601562 94.417969 75.660156 93.585938 75.679688 L 93.585938 75.980469 L 99.070312 75.980469 L 99.070312 75.679688 C 97.5 75.660156 97.183594 75.460938 97.183594 74.507812 L 97.183594 62.574219 Z M 97.023438 62.535156 "/>
<path fill-rule="nonzero" fill="rgb(0%, 0%, 0%)" fill-opacity="1" d="M 110.183594 62.363281 C 107.917969 62.5625 106.765625 62.941406 105.3125 63.953125 C 103.167969 65.484375 101.996094 67.753906 101.996094 70.417969 C 101.996094 72.152344 102.53125 73.902344 103.386719 74.898438 C 104.140625 75.773438 105.214844 76.25 106.445312 76.25 C 108.910156 76.25 110.621094 74.359375 110.621094 71.613281 C 110.621094 69.066406 109.167969 67.453125 106.882812 67.453125 C 106.011719 67.453125 105.59375 67.59375 104.339844 68.347656 C 104.878906 65.347656 107.101562 63.199219 110.222656 62.679688 L 110.183594 62.363281 M 106.128906 68.367188 C 107.839844 68.367188 108.832031 69.800781 108.832031 72.289062 C 108.832031 74.480469 108.058594 75.695312 106.664062 75.695312 C 104.917969 75.695312 103.84375 73.824219 103.84375 70.738281 C 103.84375 69.722656 104.003906 69.164062 104.398438 68.867188 C 104.816406 68.546875 105.433594 68.367188 106.128906 68.367188 Z M 106.128906 68.367188 "/>
<path fill-rule="nonzero" fill="rgb(0%, 0%, 0%)" fill-opacity="1" d="M 138.785156 62.535156 L 135.207031 64.347656 L 135.207031 64.625 C 135.445312 64.523438 135.664062 64.445312 135.742188 64.40625 C 136.101562 64.265625 136.4375 64.1875 136.636719 64.1875 C 137.054688 64.1875 137.234375 64.484375 137.234375 65.121094 L 137.234375 74.128906 C 137.234375 74.785156 137.074219 75.242188 136.757812 75.421875 C 136.457031 75.601562 136.179688 75.660156 135.34375 75.679688 L 135.34375 75.980469 L 140.832031 75.980469 L 140.832031 75.679688 C 139.261719 75.660156 138.941406 75.460938 138.941406 74.507812 L 138.941406 62.574219 Z M 138.785156 62.535156 "/>
<path fill-rule="nonzero" fill="rgb(0%, 0%, 0%)" fill-opacity="1" d="M 175.078125 73.253906 L 174.820312 73.15625 C 174.085938 74.289062 173.828125 74.46875 172.933594 74.46875 L 168.183594 74.46875 L 171.523438 70.96875 C 173.292969 69.121094 174.066406 67.609375 174.066406 66.058594 C 174.066406 64.070312 172.457031 62.539062 170.390625 62.539062 C 169.296875 62.539062 168.261719 62.976562 167.527344 63.773438 C 166.890625 64.449219 166.59375 65.085938 166.253906 66.496094 L 166.671875 66.597656 C 167.46875 64.648438 168.183594 64.011719 169.554688 64.011719 C 171.222656 64.011719 172.355469 65.144531 172.355469 66.816406 C 172.355469 68.367188 171.441406 70.214844 169.773438 71.984375 L 166.234375 75.738281 L 166.234375 75.980469 L 173.988281 75.980469 Z M 175.078125 73.253906 "/>
<path fill-rule="nonzero" fill="rgb(0%, 0%, 0%)" fill-opacity="1" d="M 207.480469 73.253906 L 207.222656 73.15625 C 206.484375 74.289062 206.226562 74.46875 205.332031 74.46875 L 200.582031 74.46875 L 203.921875 70.96875 C 205.691406 69.121094 206.464844 67.609375 206.464844 66.058594 C 206.464844 64.070312 204.855469 62.539062 202.789062 62.539062 C 201.695312 62.539062 200.664062 62.976562 199.925781 63.773438 C 199.292969 64.449219 198.992188 65.085938 198.65625 66.496094 L 199.074219 66.597656 C 199.867188 64.648438 200.582031 64.011719 201.953125 64.011719 C 203.625 64.011719 204.757812 65.144531 204.757812 66.816406 C 204.757812 68.367188 203.84375 70.214844 202.171875 71.984375 L 198.636719 75.738281 L 198.636719 75.980469 L 206.386719 75.980469 Z M 207.480469 73.253906 "/>
<path fill-rule="nonzero" fill="rgb(0%, 0%, 0%)" fill-opacity="1" d="M 233.71875 69.421875 C 234.894531 69.421875 235.351562 69.460938 235.828125 69.640625 C 237.058594 70.078125 237.835938 71.210938 237.835938 72.582031 C 237.835938 74.253906 236.703125 75.546875 235.230469 75.546875 C 234.695312 75.546875 234.296875 75.40625 233.5625 74.929688 C 232.964844 74.570312 232.628906 74.433594 232.289062 74.433594 C 231.832031 74.433594 231.535156 74.710938 231.535156 75.128906 C 231.535156 75.824219 232.390625 76.261719 233.78125 76.261719 C 235.308594 76.261719 236.878906 75.746094 237.8125 74.929688 C 238.75 74.113281 239.265625 72.960938 239.265625 71.628906 C 239.265625 70.613281 238.949219 69.679688 238.371094 69.0625 C 237.972656 68.625 237.597656 68.386719 236.722656 68.007812 C 238.09375 67.074219 238.589844 66.339844 238.589844 65.265625 C 238.589844 63.65625 237.316406 62.539062 235.488281 62.539062 C 234.496094 62.539062 233.621094 62.878906 232.90625 63.515625 C 232.308594 64.050781 232.011719 64.570312 231.574219 65.761719 L 231.871094 65.839844 C 232.6875 64.390625 233.582031 63.734375 234.832031 63.734375 C 236.125 63.734375 237.019531 64.609375 237.019531 65.863281 C 237.019531 66.578125 236.722656 67.292969 236.222656 67.789062 C 235.628906 68.386719 235.070312 68.683594 233.71875 69.164062 Z M 233.71875 69.421875 "/>
<path fill-rule="nonzero" fill="rgb(0%, 0%, 0%)" fill-opacity="1" d="M 266.917969 64.382812 L 270.8125 64.382812 C 271.128906 64.382812 271.210938 64.34375 271.269531 64.203125 L 272.023438 62.433594 L 271.847656 62.296875 C 271.546875 62.714844 271.347656 62.8125 270.929688 62.8125 L 266.777344 62.8125 L 264.613281 67.527344 C 264.589844 67.566406 264.589844 67.585938 264.589844 67.625 C 264.589844 67.722656 264.671875 67.785156 264.828125 67.785156 C 265.464844 67.785156 266.261719 67.921875 267.074219 68.179688 C 269.359375 68.917969 270.414062 70.148438 270.414062 72.117188 C 270.414062 74.027344 269.203125 75.519531 267.652344 75.519531 C 267.253906 75.519531 266.917969 75.378906 266.320312 74.941406 C 265.683594 74.484375 265.226562 74.285156 264.808594 74.285156 C 264.234375 74.285156 263.957031 74.523438 263.957031 75.023438 C 263.957031 75.777344 264.890625 76.253906 266.378906 76.253906 C 268.050781 76.253906 269.480469 75.71875 270.472656 74.703125 C 271.386719 73.808594 271.804688 72.675781 271.804688 71.164062 C 271.804688 69.734375 271.429688 68.816406 270.433594 67.824219 C 269.558594 66.949219 268.425781 66.492188 266.082031 66.074219 Z M 266.917969 64.382812 "/>
<path fill-rule="nonzero" fill="rgb(0%, 0%, 0%)" fill-opacity="1" d="M 304.824219 62.363281 C 302.558594 62.5625 301.40625 62.941406 299.953125 63.953125 C 297.808594 65.484375 296.636719 67.753906 296.636719 70.417969 C 296.636719 72.152344 297.171875 73.902344 298.027344 74.898438 C 298.78125 75.773438 299.855469 76.25 301.085938 76.25 C 303.550781 76.25 305.261719 74.359375 305.261719 71.613281 C 305.261719 69.066406 303.808594 67.453125 301.523438 67.453125 C 300.648438 67.453125 300.234375 67.59375 298.980469 68.347656 C 299.515625 65.347656 301.742188 63.199219 304.863281 62.679688 L 304.824219 62.363281 M 300.769531 68.367188 C 302.476562 68.367188 303.472656 69.800781 303.472656 72.289062 C 303.472656 74.480469 302.695312 75.695312 301.304688 75.695312 C 299.558594 75.695312 298.484375 73.824219 298.484375 70.738281 C 298.484375 69.722656 298.644531 69.164062 299.039062 68.867188 C 299.457031 68.546875 300.074219 68.367188 300.769531 68.367188 Z M 300.769531 68.367188 "/>
<path fill-rule="nonzero" fill="rgb(0%, 0%, 0%)" fill-opacity="1" d="M 337.464844 62.363281 C 335.199219 62.5625 334.046875 62.941406 332.59375 63.953125 C 330.449219 65.484375 329.273438 67.753906 329.273438 70.417969 C 329.273438 72.152344 329.8125 73.902344 330.667969 74.898438 C 331.421875 75.773438 332.496094 76.25 333.726562 76.25 C 336.191406 76.25 337.902344 74.359375 337.902344 71.613281 C 337.902344 69.066406 336.449219 67.453125 334.164062 67.453125 C 333.289062 67.453125 332.871094 67.59375 331.621094 68.347656 C 332.15625 65.347656 334.382812 63.199219 337.503906 62.679688 L 337.464844 62.363281 M 333.410156 68.367188 C 335.117188 68.367188 336.113281 69.800781 336.113281 72.289062 C 336.113281 74.480469 335.335938 75.695312 333.945312 75.695312 C 332.195312 75.695312 331.125 73.824219 331.125 70.738281 C 331.125 69.722656 331.28125 69.164062 331.679688 68.867188 C 332.097656 68.546875 332.714844 68.367188 333.410156 68.367188 Z M 333.410156 68.367188 "/>
<path fill-rule="nonzero" fill="rgb(0%, 0%, 0%)" fill-opacity="1" d="M 367.003906 68.601562 C 368.96875 67.546875 369.667969 66.714844 369.667969 65.363281 C 369.667969 63.734375 368.234375 62.539062 366.246094 62.539062 C 364.082031 62.539062 362.472656 63.871094 362.472656 65.679688 C 362.472656 66.972656 362.847656 67.546875 364.9375 69.375 C 362.789062 71.003906 362.351562 71.621094 362.351562 72.972656 C 362.351562 74.898438 363.921875 76.25 366.167969 76.25 C 368.554688 76.25 370.082031 74.9375 370.082031 72.890625 C 370.082031 71.363281 369.40625 70.390625 367.003906 68.601562 M 366.644531 70.648438 C 368.097656 71.679688 368.574219 72.394531 368.574219 73.507812 C 368.574219 74.800781 367.679688 75.695312 366.386719 75.695312 C 364.875 75.695312 363.863281 74.542969 363.863281 72.8125 C 363.863281 71.542969 364.300781 70.707031 365.453125 69.773438 L 366.644531 70.648438 M 366.425781 68.242188 C 364.65625 67.089844 363.941406 66.175781 363.941406 65.0625 C 363.941406 63.910156 364.835938 63.097656 366.089844 63.097656 C 367.441406 63.097656 368.296875 63.972656 368.296875 65.34375 C 368.296875 66.476562 367.738281 67.371094 366.605469 68.125 C 366.507812 68.183594 366.507812 68.183594 366.425781 68.242188 Z M 366.425781 68.242188 "/>
<path fill-rule="nonzero" fill="rgb(0%, 0%, 0%)" fill-opacity="1" d="M 121.71875 80.777344 L 122.679688 80.777344 L 122.679688 57.257812 L 121.71875 57.257812 Z M 121.71875 80.777344 "/>
<path fill-rule="nonzero" fill="rgb(0%, 0%, 0%)" fill-opacity="1" d="M 97.023438 86.054688 L 93.445312 87.867188 L 93.445312 88.144531 C 93.683594 88.042969 93.902344 87.964844 93.980469 87.925781 C 94.339844 87.785156 94.679688 87.707031 94.875 87.707031 C 95.292969 87.707031 95.472656 88.003906 95.472656 88.640625 L 95.472656 97.648438 C 95.472656 98.304688 95.3125 98.761719 94.996094 98.941406 C 94.699219 99.121094 94.417969 99.179688 93.585938 99.199219 L 93.585938 99.5 L 99.070312 99.5 L 99.070312 99.199219 C 97.5 99.179688 97.183594 98.980469 97.183594 98.027344 L 97.183594 86.097656 Z M 97.023438 86.054688 "/>
<path fill-rule="nonzero" fill="rgb(0%, 0%, 0%)" fill-opacity="1" d="M 110.242188 86.332031 L 102.890625 86.332031 L 101.71875 89.253906 L 102.054688 89.414062 C 102.910156 88.0625 103.265625 87.804688 104.359375 87.804688 L 108.671875 87.804688 L 104.738281 99.652344 L 106.03125 99.652344 L 110.242188 86.652344 Z M 110.242188 86.332031 "/>
<path fill-rule="nonzero" fill="rgb(0%, 0%, 0%)" fill-opacity="1" d="M 138.785156 86.054688 L 135.207031 87.867188 L 135.207031 88.144531 C 135.445312 88.042969 135.664062 87.964844 135.742188 87.925781 C 136.101562 87.785156 136.4375 87.707031 136.636719 87.707031 C 137.054688 87.707031 137.234375 88.003906 137.234375 88.640625 L 137.234375 97.648438 C 137.234375 98.304688 137.074219 98.761719 136.757812 98.941406 C 136.457031 99.121094 136.179688 99.179688 135.34375 99.199219 L 135.34375 99.5 L 140.832031 99.5 L 140.832031 99.199219 C 139.261719 99.179688 138.941406 98.980469 138.941406 98.027344 L 138.941406 86.097656 Z M 138.785156 86.054688 "/>
<path fill-rule="nonzero" fill="rgb(0%, 0%, 0%)" fill-opacity="1" d="M 175.078125 96.773438 L 174.820312 96.675781 C 174.085938 97.808594 173.828125 97.988281 172.933594 97.988281 L 168.183594 97.988281 L 171.523438 94.488281 C 173.292969 92.640625 174.066406 91.128906 174.066406 89.578125 C 174.066406 87.59375 172.457031 86.058594 170.390625 86.058594 C 169.296875 86.058594 168.261719 86.5 167.527344 87.292969 C 166.890625 87.96875 166.59375 88.605469 166.253906 90.015625 L 166.671875 90.117188 C 167.46875 88.167969 168.183594 87.53125 169.554688 87.53125 C 171.222656 87.53125 172.355469 88.664062 172.355469 90.335938 C 172.355469 91.886719 171.441406 93.734375 169.773438 95.503906 L 166.234375 99.261719 L 166.234375 99.5 L 173.988281 99.5 Z M 175.078125 96.773438 "/>
<path fill-rule="nonzero" fill="rgb(0%, 0%, 0%)" fill-opacity="1" d="M 206.902344 85.882812 C 204.636719 86.082031 203.484375 86.460938 202.035156 87.472656 C 199.886719 89.003906 198.714844 91.273438 198.714844 93.9375 C 198.714844 95.671875 199.25 97.421875 200.105469 98.417969 C 200.863281 99.292969 201.933594 99.769531 203.167969 99.769531 C 205.632812 99.769531 207.339844 97.878906 207.339844 95.132812 C 207.339844 92.585938 205.890625 90.972656 203.605469 90.972656 C 202.730469 90.972656 202.3125 91.113281 201.058594 91.867188 C 201.597656 88.867188 203.824219 86.71875 206.941406 86.203125 L 206.902344 85.882812 M 202.847656 91.886719 C 204.558594 91.886719 205.550781 93.320312 205.550781 95.808594 C 205.550781 98 204.777344 99.214844 203.386719 99.214844 C 201.636719 99.214844 200.5625 97.34375 200.5625 94.257812 C 200.5625 93.242188 200.722656 92.683594 201.121094 92.386719 C 201.539062 92.066406 202.152344 91.886719 202.847656 91.886719 Z M 202.847656 91.886719 "/>
<path fill-rule="nonzero" fill="rgb(0%, 0%, 0%)" fill-opacity="1" d="M 239.601562 86.332031 L 232.25 86.332031 L 231.078125 89.253906 L 231.414062 89.414062 C 232.269531 88.0625 232.628906 87.804688 233.71875 87.804688 L 238.03125 87.804688 L 234.097656 99.652344 L 235.390625 99.652344 L 239.601562 86.652344 Z M 239.601562 86.332031 "/>
<path fill-rule="nonzero" fill="rgb(0%, 0%, 0%)" fill-opacity="1" d="M 264.492188 99.929688 C 266.71875 99.671875 267.8125 99.292969 269.164062 98.320312 C 271.230469 96.808594 272.441406 94.34375 272.441406 91.660156 C 272.441406 88.382812 270.613281 86.058594 268.050781 86.058594 C 265.683594 86.058594 263.914062 88.066406 263.914062 90.75 C 263.914062 93.171875 265.347656 94.78125 267.492188 94.78125 C 268.585938 94.78125 269.421875 94.460938 270.472656 93.648438 C 269.660156 96.886719 267.453125 99.015625 264.433594 99.53125 L 264.492188 99.929688 M 270.515625 92.4375 C 270.515625 92.832031 270.433594 93.011719 270.214844 93.191406 C 269.660156 93.667969 268.925781 93.925781 268.207031 93.925781 C 266.699219 93.925781 265.746094 92.4375 265.746094 90.074219 C 265.746094 88.941406 266.0625 87.75 266.480469 87.234375 C 266.816406 86.835938 267.3125 86.617188 267.890625 86.617188 C 269.621094 86.617188 270.515625 88.324219 270.515625 91.660156 Z M 270.515625 92.4375 "/>
<path fill-rule="nonzero" fill="rgb(0%, 0%, 0%)" fill-opacity="1" d="M 121.71875 104.296875 L 122.679688 104.296875 L 122.679688 80.777344 L 121.71875 80.777344 Z M 121.71875 104.296875 "/>
<path fill-rule="nonzero" fill="rgb(0%, 0%, 0%)" fill-opacity="1" d="M 97.023438 109.578125 L 93.445312 111.386719 L 93.445312 111.664062 C 93.683594 111.566406 93.902344 111.484375 93.980469 111.445312 C 94.339844 111.304688 94.679688 111.226562 94.875 111.226562 C 95.292969 111.226562 95.472656 111.523438 95.472656 112.160156 L 95.472656 121.167969 C 95.472656 121.824219 95.3125 122.28125 94.996094 122.460938 C 94.699219 122.640625 94.417969 122.699219 93.585938 122.71875 L 93.585938 123.019531 L 99.070312 123.019531 L 99.070312 122.71875 C 97.5 122.699219 97.183594 122.5 97.183594 121.546875 L 97.183594 109.617188 Z M 97.023438 109.578125 "/>
<path fill-rule="nonzero" fill="rgb(0%, 0%, 0%)" fill-opacity="1" d="M 107.082031 115.640625 C 109.050781 114.589844 109.746094 113.753906 109.746094 112.402344 C 109.746094 110.773438 108.316406 109.582031 106.328125 109.582031 C 104.160156 109.582031 102.550781 110.914062 102.550781 112.71875 C 102.550781 114.011719 102.929688 114.589844 105.015625 116.414062 C 102.871094 118.042969 102.433594 118.660156 102.433594 120.011719 C 102.433594 121.9375 104.003906 123.289062 106.25 123.289062 C 108.632812 123.289062 110.164062 121.980469 110.164062 119.933594 C 110.164062 118.402344 109.488281 117.429688 107.082031 115.640625 M 106.726562 117.6875 C 108.175781 118.71875 108.652344 119.4375 108.652344 120.546875 C 108.652344 121.839844 107.757812 122.734375 106.46875 122.734375 C 104.957031 122.734375 103.941406 121.582031 103.941406 119.851562 C 103.941406 118.582031 104.378906 117.746094 105.53125 116.8125 L 106.726562 117.6875 M 106.507812 115.285156 C 104.738281 114.132812 104.023438 113.21875 104.023438 112.105469 C 104.023438 110.953125 104.917969 110.136719 106.167969 110.136719 C 107.519531 110.136719 108.375 111.011719 108.375 112.382812 C 108.375 113.515625 107.820312 114.410156 106.6875 115.164062 C 106.585938 115.222656 106.585938 115.222656 106.507812 115.285156 Z M 106.507812 115.285156 "/>
<path fill-rule="nonzero" fill="rgb(0%, 0%, 0%)" fill-opacity="1" d="M 142.441406 120.296875 L 142.179688 120.195312 C 141.445312 121.328125 141.1875 121.507812 140.292969 121.507812 L 135.542969 121.507812 L 138.882812 118.007812 C 140.652344 116.160156 141.425781 114.648438 141.425781 113.101562 C 141.425781 111.113281 139.816406 109.582031 137.75 109.582031 C 136.65625 109.582031 135.621094 110.019531 134.886719 110.8125 C 134.25 111.488281 133.953125 112.125 133.617188 113.535156 L 134.03125 113.636719 C 134.828125 111.6875 135.542969 111.050781 136.914062 111.050781 C 138.585938 111.050781 139.71875 112.183594 139.71875 113.855469 C 139.71875 115.40625 138.804688 117.253906 137.132812 119.023438 L 133.597656 122.78125 L 133.597656 123.019531 L 141.347656 123.019531 Z M 142.441406 120.296875 "/>
<path fill-rule="nonzero" fill="rgb(0%, 0%, 0%)" fill-opacity="1" d="M 174.503906 109.402344 C 172.238281 109.601562 171.085938 109.980469 169.632812 110.992188 C 167.488281 112.523438 166.316406 114.792969 166.316406 117.457031 C 166.316406 119.191406 166.851562 120.941406 167.707031 121.9375 C 168.460938 122.8125 169.535156 123.289062 170.765625 123.289062 C 173.230469 123.289062 174.941406 121.398438 174.941406 118.652344 C 174.941406 116.105469 173.488281 114.492188 171.203125 114.492188 C 170.328125 114.492188 169.914062 114.632812 168.660156 115.390625 C 169.195312 112.386719 171.421875 110.238281 174.542969 109.722656 L 174.503906 109.402344 M 170.449219 115.410156 C 172.160156 115.410156 173.152344 116.839844 173.152344 119.328125 C 173.152344 121.519531 172.375 122.734375 170.984375 122.734375 C 169.238281 122.734375 168.164062 120.863281 168.164062 117.777344 C 168.164062 116.761719 168.324219 116.203125 168.71875 115.90625 C 169.136719 115.585938 169.753906 115.410156 170.449219 115.410156 Z M 170.449219 115.410156 "/>
<path fill-rule="nonzero" fill="rgb(0%, 0%, 0%)" fill-opacity="1" d="M 206.964844 109.851562 L 199.609375 109.851562 L 198.4375 112.777344 L 198.773438 112.933594 C 199.628906 111.582031 199.988281 111.324219 201.082031 111.324219 L 205.394531 111.324219 L 201.457031 123.175781 L 202.75 123.175781 L 206.964844 110.171875 Z M 206.964844 109.851562 "/>
<path fill-rule="nonzero" fill="rgb(0%, 0%, 0%)" fill-opacity="1" d="M 121.71875 127.816406 L 122.679688 127.816406 L 122.679688 104.296875 L 121.71875 104.296875 Z M 121.71875 127.816406 "/>
</svg>
