<?xml version="1.0" encoding="UTF-8"?>
<svg xmlns="http://www.w3.org/2000/svg" xmlns:xlink="http://www.w3.org/1999/xlink" width="456.679993" height="386.679993" viewBox="0 0 456.679993 386.679993">
<path fill="none" stroke-width="6" stroke-linecap="round" stroke-linejoin="round" stroke="rgb(0%, 0%, 0%)" stroke-opacity="1" stroke-miterlimit="4" d="M 2490.993555 4579.671962 L 4226.00336 4578.662847 " transform="matrix(0.24, 0, 0, -0.24, -579.440002, 1377.339996)"/>
<path fill="none" stroke-width="6" stroke-linecap="round" stroke-linejoin="round" stroke="rgb(0%, 0%, 0%)" stroke-opacity="1" stroke-miterlimit="4" d="M 4160.996848 4545.67131 L 4226.00336 4578.662847 L 4160.996848 4610.677822 " transform="matrix(0.24, 0, 0, -0.24, -579.440002, 1377.339996)"/>
<path fill="none" stroke-width="6" stroke-linecap="round" stroke-linejoin="round" stroke="rgb(0%, 0%, 0%)" stroke-opacity="1" stroke-miterlimit="4" d="M 2699.001373 4179.671953 L 2699.994211 5635.677845 " transform="matrix(0.24, 0, 0, -0.24, -579.440002, 1377.339996)"/>
<path fill="none" stroke-width="6" stroke-linecap="round" stroke-linejoin="round" stroke="rgb(0%, 0%, 0%)" stroke-opacity="1" stroke-miterlimit="4" d="M 2733.002024 5569.662219 L 2699.994211 5634.66873 L 2667.995513 5569.662219 " transform="matrix(0.24, 0, 0, -0.24, -579.440002, 1377.339996)"/>
<path fill-rule="nonzero" fill="rgb(0%, 0%, 0%)" fill-opacity="1" d="M 440.402344 298.800781 C 440.242188 298.980469 440.144531 299.101562 439.964844 299.339844 C 439.507812 299.9375 439.265625 300.136719 439.046875 300.136719 C 438.75 300.136719 438.570312 299.878906 438.429688 299.320312 C 438.390625 299.160156 438.371094 299.039062 438.351562 298.980469 C 437.855469 296.96875 437.636719 296.050781 437.636719 295.753906 C 438.511719 294.21875 439.226562 293.339844 439.585938 293.339844 C 439.707031 293.339844 439.863281 293.402344 440.0625 293.5 C 440.304688 293.640625 440.441406 293.679688 440.601562 293.679688 C 441.019531 293.679688 441.296875 293.382812 441.296875 292.960938 C 441.296875 292.542969 440.960938 292.226562 440.480469 292.226562 C 439.605469 292.226562 438.847656 292.941406 437.476562 295.074219 L 437.257812 293.980469 C 436.976562 292.625 436.757812 292.226562 436.222656 292.226562 C 435.785156 292.226562 435.105469 292.40625 433.894531 292.804688 L 433.671875 292.882812 L 433.753906 293.183594 C 434.507812 293.003906 434.6875 292.960938 434.867188 292.960938 C 435.367188 292.960938 435.484375 293.140625 435.765625 294.335938 L 436.339844 296.789062 L 434.707031 299.121094 C 434.3125 299.71875 433.914062 300.078125 433.691406 300.078125 C 433.574219 300.078125 433.375 300.015625 433.175781 299.898438 C 432.917969 299.757812 432.699219 299.699219 432.539062 299.699219 C 432.160156 299.699219 431.863281 299.996094 431.863281 300.394531 C 431.863281 300.914062 432.261719 301.234375 432.855469 301.234375 C 433.472656 301.234375 433.714844 301.054688 434.707031 299.839844 C 435.246094 299.199219 435.664062 298.664062 436.5 297.507812 L 437.097656 299.898438 C 437.355469 300.914062 437.617188 301.234375 438.253906 301.234375 C 439.007812 301.234375 439.527344 300.753906 440.679688 298.960938 Z M 440.402344 298.800781 "/>
<path fill-rule="nonzero" fill="rgb(0%, 0%, 0%)" fill-opacity="1" d="M 49.660156 22.5625 C 49.917969 22.503906 50.058594 22.484375 50.277344 22.484375 C 51.410156 22.484375 51.710938 22.980469 52.625 26.410156 C 52.964844 27.707031 53.441406 30.039062 53.441406 30.378906 C 53.441406 30.699219 53.320312 31.015625 53.023438 31.375 C 52.40625 32.191406 52.007812 32.710938 51.789062 32.949219 C 51.371094 33.386719 51.132812 33.546875 50.871094 33.546875 C 50.753906 33.546875 50.613281 33.488281 50.394531 33.328125 C 50.097656 33.089844 49.878906 32.988281 49.660156 32.988281 C 49.222656 32.988281 48.882812 33.328125 48.882812 33.765625 C 48.882812 34.265625 49.320312 34.644531 49.898438 34.644531 C 51.171875 34.644531 53.78125 31.652344 55.929688 27.707031 C 57.285156 25.253906 57.839844 23.820312 57.839844 22.84375 C 57.839844 22.242188 57.34375 21.746094 56.746094 21.746094 C 56.289062 21.746094 55.96875 22.042969 55.96875 22.484375 C 55.96875 22.78125 56.128906 23 56.527344 23.261719 C 56.90625 23.480469 57.042969 23.660156 57.042969 23.9375 C 57.042969 24.734375 56.308594 26.292969 54.617188 29.101562 L 54.21875 26.789062 C 53.917969 25.035156 52.804688 21.746094 52.503906 21.746094 L 52.425781 21.746094 C 52.40625 21.765625 52.328125 21.765625 52.246094 21.765625 C 52.066406 21.785156 51.351562 21.90625 50.296875 22.105469 C 50.195312 22.125 49.9375 22.183594 49.660156 22.222656 Z M 49.660156 22.5625 "/>
<path fill-rule="nonzero" fill="rgb(0%, 0%, 0%)" fill-opacity="1" d="M 53.757812 289.671875 C 52.082031 289.671875 50.292969 290.46875 48.699219 291.921875 C 46.6875 293.773438 45.515625 296.203125 45.515625 298.53125 C 45.515625 301.316406 47.324219 303.289062 49.855469 303.289062 C 53.996094 303.289062 58.015625 299.109375 58.234375 294.609375 C 58.375 291.800781 56.421875 289.671875 53.757812 289.671875 M 53.578125 290.328125 C 55.148438 290.328125 56.144531 291.484375 56.144531 293.355469 C 56.144531 295.503906 55.210938 298.410156 53.914062 300.28125 C 52.820312 301.855469 51.585938 302.632812 50.191406 302.632812 C 48.519531 302.632812 47.605469 301.417969 47.605469 299.265625 C 47.605469 297.394531 48.601562 294.429688 49.792969 292.699219 C 50.910156 291.085938 52.125 290.328125 53.578125 290.328125 Z M 53.578125 290.328125 "/>
<path fill="none" stroke-width="6" stroke-linecap="round" stroke-linejoin="round" stroke="rgb(0%, 0%, 0%)" stroke-opacity="1" stroke-miterlimit="4" d="M 2662.005929 5487.663519 C 2683.994862 5413.672632 2747.992259 5173.666116 2790.993562 5041.667415 C 2833.994865 4910.677829 2876.996168 4796.664154 2919.004633 4697.673267 C 2962.005936 4598.666103 3005.007239 4516.667403 3047.992266 4449.675214 C 3092.002683 4383.675864 3137.998778 4331.67391 3180.007243 4298.666096 C 3222.99227 4266.667398 3262.998781 4253.66284 3306.000084 4253.66284 C 3347.992273 4252.670002 3392.995529 4264.665445 3435.996832 4297.673258 C 3478.998135 4329.671957 3519.997485 4383.675864 3562.998788 4449.675214 C 3606.000091 4516.667403 3649.001394 4599.675218 3692.002697 4697.673267 C 3735.004 4795.671316 3778.005303 4907.666761 3819.997491 5039.665462 C 3862.998794 5170.671324 3921.999447 5394.662215 3949.001401 5487.663519 " transform="matrix(0.24, 0, 0, -0.24, -579.440002, 1377.339996)"/>
<path fill-rule="nonzero" fill="rgb(0%, 0%, 0%)" fill-opacity="1" d="M 423.796875 115.667969 C 425.269531 114.710938 425.867188 114.191406 426.605469 113.273438 C 428.019531 111.539062 428.71875 109.546875 428.71875 107.214844 C 428.71875 104.660156 427.980469 102.726562 426.226562 100.695312 C 425.410156 99.738281 424.890625 99.296875 423.855469 98.660156 L 423.617188 98.980469 C 425.210938 100.234375 425.75 100.933594 426.308594 102.429688 C 426.785156 103.765625 427.003906 105.28125 427.003906 107.273438 C 427.003906 109.347656 426.746094 111.003906 426.207031 112.21875 C 425.648438 113.472656 425.050781 114.191406 423.617188 115.347656 Z M 423.796875 115.667969 "/>
<path fill-rule="nonzero" fill="rgb(0%, 0%, 0%)" fill-opacity="1" d="M 411.636719 98.660156 C 410.164062 99.617188 409.566406 100.136719 408.828125 101.054688 C 407.414062 102.789062 406.714844 104.78125 406.714844 107.113281 C 406.714844 109.644531 407.453125 111.601562 409.207031 113.632812 C 410.023438 114.589844 410.542969 115.03125 411.578125 115.667969 L 411.816406 115.347656 C 410.222656 114.09375 409.664062 113.394531 409.128906 111.898438 C 408.648438 110.5625 408.429688 109.046875 408.429688 107.054688 C 408.429688 104.960938 408.6875 103.328125 409.226562 102.089844 C 409.785156 100.855469 410.382812 100.136719 411.816406 98.980469 Z M 411.636719 98.660156 "/>
<path fill-rule="nonzero" fill="rgb(0%, 0%, 0%)" fill-opacity="1" d="M 402.316406 103.164062 L 399.867188 103.164062 L 399.867188 100.851562 C 399.867188 99.695312 400.246094 99.074219 401 99.074219 C 401.421875 99.074219 401.699219 99.273438 402.058594 99.851562 C 402.375 100.371094 402.617188 100.570312 402.953125 100.570312 C 403.414062 100.570312 403.792969 100.210938 403.792969 99.753906 C 403.792969 99.035156 402.914062 98.515625 401.71875 98.515625 C 400.484375 98.515625 399.425781 99.054688 398.910156 99.972656 C 398.390625 100.851562 398.230469 101.566406 398.210938 103.164062 L 396.578125 103.164062 L 396.578125 103.800781 L 398.210938 103.800781 L 398.210938 110.0625 C 398.210938 111.519531 397.992188 111.757812 396.558594 111.839844 L 396.558594 112.136719 L 401.738281 112.136719 L 401.738281 111.839844 C 400.105469 111.78125 399.886719 111.558594 399.886719 110.0625 L 399.886719 103.800781 L 402.316406 103.800781 Z M 402.316406 103.164062 "/>
<path fill-rule="nonzero" fill="rgb(0%, 0%, 0%)" fill-opacity="1" d="M 421.691406 109.921875 C 421.53125 110.097656 421.429688 110.21875 421.25 110.457031 C 420.792969 111.058594 420.554688 111.257812 420.335938 111.257812 C 420.035156 111.257812 419.855469 110.996094 419.71875 110.4375 C 419.675781 110.277344 419.65625 110.160156 419.636719 110.097656 C 419.140625 108.085938 418.921875 107.167969 418.921875 106.867188 C 419.796875 105.332031 420.515625 104.453125 420.871094 104.453125 C 420.992188 104.453125 421.152344 104.515625 421.351562 104.613281 C 421.589844 104.753906 421.730469 104.792969 421.890625 104.792969 C 422.308594 104.792969 422.585938 104.496094 422.585938 104.074219 C 422.585938 103.65625 422.246094 103.335938 421.769531 103.335938 C 420.894531 103.335938 420.136719 104.054688 418.761719 106.191406 L 418.542969 105.09375 C 418.261719 103.738281 418.042969 103.335938 417.503906 103.335938 C 417.066406 103.335938 416.390625 103.515625 415.175781 103.917969 L 414.953125 103.996094 L 415.035156 104.292969 C 415.792969 104.117188 415.972656 104.074219 416.148438 104.074219 C 416.648438 104.074219 416.769531 104.253906 417.046875 105.453125 L 417.625 107.90625 L 415.992188 110.238281 C 415.59375 110.835938 415.195312 111.195312 414.972656 111.195312 C 414.855469 111.195312 414.65625 111.136719 414.457031 111.015625 C 414.199219 110.878906 413.976562 110.816406 413.820312 110.816406 C 413.441406 110.816406 413.140625 111.117188 413.140625 111.515625 C 413.140625 112.035156 413.539062 112.351562 414.136719 112.351562 C 414.753906 112.351562 414.996094 112.171875 415.992188 110.957031 C 416.527344 110.320312 416.945312 109.78125 417.785156 108.625 L 418.382812 111.015625 C 418.640625 112.035156 418.898438 112.351562 419.539062 112.351562 C 420.292969 112.351562 420.8125 111.875 421.96875 110.078125 Z M 421.691406 109.921875 "/>
<path fill-rule="nonzero" fill="rgb(0%, 0%, 0%)" fill-opacity="1" d="M 366.21875 104.15625 C 366.476562 104.097656 366.617188 104.074219 366.835938 104.074219 C 367.972656 104.074219 368.269531 104.574219 369.1875 108.007812 C 369.527344 109.304688 370.003906 111.636719 370.003906 111.976562 C 370.003906 112.296875 369.886719 112.617188 369.585938 112.976562 C 368.96875 113.792969 368.570312 114.3125 368.351562 114.550781 C 367.933594 114.992188 367.691406 115.148438 367.433594 115.148438 C 367.3125 115.148438 367.175781 115.089844 366.957031 114.929688 C 366.65625 114.691406 366.4375 114.589844 366.21875 114.589844 C 365.78125 114.589844 365.441406 114.929688 365.441406 115.371094 C 365.441406 115.867188 365.878906 116.246094 366.457031 116.246094 C 367.734375 116.246094 370.34375 113.253906 372.496094 109.304688 C 373.851562 106.847656 374.410156 105.414062 374.410156 104.433594 C 374.410156 103.835938 373.910156 103.335938 373.3125 103.335938 C 372.855469 103.335938 372.535156 103.636719 372.535156 104.074219 C 372.535156 104.375 372.695312 104.59375 373.09375 104.855469 C 373.472656 105.074219 373.609375 105.253906 373.609375 105.53125 C 373.609375 106.332031 372.875 107.886719 371.179688 110.699219 L 370.78125 108.386719 C 370.484375 106.628906 369.367188 103.335938 369.066406 103.335938 L 368.988281 103.335938 C 368.96875 103.359375 368.886719 103.359375 368.808594 103.359375 C 368.628906 103.378906 367.914062 103.496094 366.855469 103.695312 C 366.757812 103.71875 366.496094 103.777344 366.21875 103.816406 Z M 366.21875 104.15625 "/>
<path fill-rule="nonzero" fill="rgb(0%, 0%, 0%)" fill-opacity="1" d="M 391.019531 104.34375 L 380.539062 104.34375 L 380.539062 105.441406 L 391.019531 105.441406 L 391.019531 104.34375 M 391.019531 108.207031 L 380.539062 108.207031 L 380.539062 109.300781 L 391.019531 109.300781 Z M 391.019531 108.207031 "/>
<path fill="none" stroke-width="6" stroke-linecap="round" stroke-linejoin="round" stroke="rgb(0%, 0%, 0%)" stroke-opacity="1" stroke-miterlimit="4" d="M 2531.992905 4904.671969 L 4215.993594 4904.671969 " transform="matrix(0.24, 0, 0, -0.24, -579.440002, 1377.339996)"/>
<path fill-rule="nonzero" fill="rgb(0%, 0%, 0%)" fill-opacity="1" d="M 445.460938 195.125 L 440.027344 195.125 L 440.027344 195.441406 C 441.261719 195.5625 441.558594 195.722656 441.558594 196.300781 C 441.558594 196.578125 441.480469 197.039062 441.339844 197.535156 L 438.894531 206.34375 C 438.535156 207.5 438.394531 207.621094 437.28125 207.820312 L 437.28125 208.136719 L 447.414062 208.136719 L 448.566406 204.570312 L 448.167969 204.453125 C 447.472656 205.886719 446.933594 206.523438 446.058594 206.964844 C 445.363281 207.300781 444.546875 207.421875 442.8125 207.421875 C 441.300781 207.421875 440.804688 207.261719 440.804688 206.742188 C 440.804688 206.605469 440.902344 206.125 441.003906 205.746094 L 443.453125 196.917969 C 443.75 195.902344 444.269531 195.523438 445.460938 195.441406 Z M 445.460938 195.125 "/>
<path fill-rule="nonzero" fill="rgb(0%, 0%, 0%)" fill-opacity="1" d="M 96.585938 220.539062 C 95.453125 220.441406 95.332031 220.28125 95.074219 218.828125 L 93.203125 207.550781 L 92.6875 207.550781 L 86.914062 217.515625 C 85.339844 220.160156 85.140625 220.378906 84.34375 220.539062 L 84.34375 220.859375 L 88.066406 220.859375 L 88.066406 220.539062 C 87.050781 220.441406 86.894531 220.339844 86.894531 219.84375 C 86.894531 219.464844 86.953125 219.285156 87.292969 218.609375 L 88.425781 216.363281 L 92.804688 216.363281 L 93.203125 218.96875 C 93.222656 219.148438 93.242188 219.328125 93.242188 219.484375 C 93.242188 220.242188 92.964844 220.421875 91.691406 220.539062 L 91.691406 220.859375 L 96.585938 220.859375 L 96.585938 220.539062 M 88.84375 215.644531 L 91.828125 210.460938 L 92.707031 215.644531 Z M 88.84375 215.644531 "/>
<path fill-rule="nonzero" fill="rgb(0%, 0%, 0%)" fill-opacity="1" d="M 327.121094 222.058594 L 332.734375 222.058594 C 335.859375 222.058594 338.007812 220.425781 338.007812 218.070312 C 338.007812 217.332031 337.769531 216.636719 337.332031 216.195312 C 336.933594 215.738281 336.535156 215.5 335.5 215.0625 C 336.914062 214.722656 337.492188 214.484375 338.128906 213.925781 C 338.6875 213.449219 338.984375 212.769531 338.984375 211.972656 C 338.984375 210.082031 337.570312 209.042969 335.003906 209.042969 L 329.867188 209.042969 L 329.867188 209.363281 C 331.101562 209.460938 331.398438 209.621094 331.398438 210.179688 C 331.398438 210.480469 331.320312 210.976562 331.179688 211.453125 L 328.734375 220.265625 C 328.375 221.421875 328.234375 221.539062 327.121094 221.738281 L 327.121094 222.058594 M 332.015625 215.460938 C 333.3125 215.460938 334.148438 215.539062 334.546875 215.699219 C 335.363281 216.039062 335.859375 216.914062 335.859375 217.992188 C 335.859375 220.144531 334.386719 221.460938 331.957031 221.460938 C 331.121094 221.460938 330.683594 221.160156 330.683594 220.625 C 330.683594 220.382812 330.921875 219.425781 331.378906 217.832031 C 331.640625 216.933594 331.757812 216.476562 332.015625 215.460938 M 333.511719 210.199219 C 333.628906 209.761719 333.867188 209.640625 334.644531 209.640625 C 336.238281 209.640625 336.972656 210.320312 336.972656 211.792969 C 336.972656 212.929688 336.496094 213.804688 335.640625 214.285156 C 334.964844 214.683594 334.007812 214.820312 332.214844 214.820312 Z M 333.511719 210.199219 "/>
</svg>
