<?xml version="1.0" encoding="UTF-8"?>
<svg xmlns="http://www.w3.org/2000/svg" xmlns:xlink="http://www.w3.org/1999/xlink" width="376.920013" height="233.839996" viewBox="0 0 376.920013 233.839996">
<path fill-rule="nonzero" fill="rgb(0%, 0%, 0%)" fill-opacity="1" d="M 276.488281 75.859375 L 272.929688 77.65625 L 272.929688 77.933594 C 273.167969 77.835938 273.386719 77.753906 273.464844 77.714844 C 273.820312 77.578125 274.15625 77.5 274.351562 77.5 C 274.769531 77.5 274.945312 77.792969 274.945312 78.425781 L 274.945312 87.378906 C 274.945312 88.03125 274.789062 88.488281 274.472656 88.664062 C 274.175781 88.84375 273.898438 88.902344 273.070312 88.921875 L 273.070312 89.21875 L 278.519531 89.21875 L 278.519531 88.921875 C 276.960938 88.902344 276.644531 88.703125 276.644531 87.757812 L 276.644531 75.898438 Z M 276.488281 75.859375 "/>
<path fill-rule="nonzero" fill="rgb(0%, 0%, 0%)" fill-opacity="1" d="M 289.6875 76.132812 L 282.378906 76.132812 L 281.214844 79.039062 L 281.550781 79.195312 C 282.398438 77.851562 282.753906 77.59375 283.839844 77.59375 L 288.128906 77.59375 L 284.214844 89.371094 L 285.5 89.371094 L 289.6875 76.449219 Z M 289.6875 76.132812 "/>
<path fill-rule="nonzero" fill="rgb(0%, 0%, 0%)" fill-opacity="1" d="M 303.800781 86.132812 C 302.851562 87.515625 302.140625 87.988281 301.015625 87.988281 C 299.21875 87.988281 297.953125 86.410156 297.953125 84.136719 C 297.953125 82.101562 299.039062 80.699219 300.640625 80.699219 C 301.351562 80.699219 301.605469 80.917969 301.804688 81.648438 L 301.921875 82.082031 C 302.082031 82.636719 302.4375 82.992188 302.851562 82.992188 C 303.367188 82.992188 303.800781 82.617188 303.800781 82.164062 C 303.800781 81.054688 302.417969 80.128906 300.757812 80.128906 C 299.789062 80.128906 298.78125 80.523438 297.972656 81.234375 C 296.984375 82.101562 296.433594 83.445312 296.433594 85.007812 C 296.433594 87.574219 297.992188 89.410156 300.183594 89.410156 C 301.074219 89.410156 301.863281 89.09375 302.574219 88.484375 C 303.109375 88.007812 303.484375 87.476562 304.078125 86.308594 Z M 303.800781 86.132812 "/>
<path fill-rule="nonzero" fill="rgb(0%, 0%, 0%)" fill-opacity="1" d="M 305.195312 81.351562 C 305.449219 81.292969 305.609375 81.273438 305.824219 81.273438 C 306.339844 81.273438 306.515625 81.589844 306.515625 82.539062 L 306.515625 87.539062 C 306.515625 88.605469 306.242188 88.902344 305.132812 88.921875 L 305.132812 89.21875 L 309.519531 89.21875 L 309.519531 88.921875 C 308.472656 88.882812 308.175781 88.664062 308.175781 87.894531 L 308.175781 82.320312 C 308.175781 82.28125 308.335938 82.085938 308.472656 81.945312 C 308.964844 81.492188 309.816406 81.15625 310.507812 81.15625 C 311.375 81.15625 311.8125 81.847656 311.8125 83.230469 L 311.8125 87.519531 C 311.8125 88.625 311.59375 88.84375 310.46875 88.921875 L 310.46875 89.21875 L 314.890625 89.21875 L 314.890625 88.921875 C 313.765625 88.902344 313.46875 88.566406 313.46875 87.339844 L 313.46875 82.359375 C 314.0625 81.511719 314.714844 81.15625 315.625 81.15625 C 316.75 81.15625 317.105469 81.6875 317.105469 83.328125 L 317.105469 87.5 C 317.105469 88.625 316.945312 88.785156 315.800781 88.921875 L 315.800781 89.21875 L 320.128906 89.21875 L 320.128906 88.921875 L 319.613281 88.882812 C 319.019531 88.84375 318.765625 88.488281 318.765625 87.714844 L 318.765625 83.644531 C 318.765625 81.3125 317.992188 80.128906 316.472656 80.128906 C 315.328125 80.128906 314.320312 80.640625 313.253906 81.789062 C 312.898438 80.660156 312.226562 80.128906 311.160156 80.128906 C 310.289062 80.128906 309.738281 80.40625 308.097656 81.648438 L 308.097656 80.167969 L 307.960938 80.128906 C 306.953125 80.503906 306.28125 80.722656 305.195312 81.015625 Z M 305.195312 81.351562 "/>
<path fill="none" stroke-width="6" stroke-linecap="round" stroke-linejoin="round" stroke="rgb(0%, 0%, 0%)" stroke-opacity="1" stroke-dasharray="24 18" stroke-miterlimit="4" d="M 3610.99887 5478.665474 L 4310.006047 5491.670032 " transform="matrix(0.24, 0, 0, -0.24, -678.460022, 1497.699997)"/>
<path fill="none" stroke-width="6" stroke-linecap="round" stroke-linejoin="round" stroke="rgb(0%, 0%, 0%)" stroke-opacity="1" stroke-dasharray="24 18" stroke-miterlimit="4" d="M 3610.006032 5486.673287 L 3610.99887 6069.664836 " transform="matrix(0.24, 0, 0, -0.24, -678.460022, 1497.699997)"/>
<path fill="none" stroke-width="6" stroke-linecap="round" stroke-linejoin="round" stroke="rgb(0%, 0%, 0%)" stroke-opacity="1" stroke-miterlimit="4" d="M 2899.003412 5497.675891 L 3610.99887 6078.665488 " transform="matrix(0.24, 0, 0, -0.24, -678.460022, 1497.699997)"/>
<path fill="none" stroke-width="6" stroke-linecap="round" stroke-linejoin="round" stroke="rgb(0%, 0%, 0%)" stroke-opacity="1" stroke-miterlimit="4" d="M 4315.002792 5495.673938 L 3610.99887 6078.665488 " transform="matrix(0.24, 0, 0, -0.24, -678.460022, 1497.699997)"/>
<path fill="none" stroke-width="6" stroke-linecap="round" stroke-linejoin="round" stroke="rgb(0%, 0%, 0%)" stroke-opacity="1" stroke-miterlimit="4" d="M 3610.006032 5539.66808 L 3669.999523 5539.66808 L 3669.999523 5481.676542 " transform="matrix(0.24, 0, 0, -0.24, -678.460022, 1497.699997)"/>
<path fill-rule="nonzero" fill="rgb(0%, 0%, 0%)" fill-opacity="1" d="M 170.949219 133.125 C 169.894531 131.15625 169.058594 130.457031 167.703125 130.457031 C 166.074219 130.457031 164.878906 131.890625 164.878906 133.882812 C 164.878906 136.050781 166.210938 137.664062 168.023438 137.664062 C 169.316406 137.664062 169.894531 137.285156 171.726562 135.195312 C 173.355469 137.347656 173.972656 137.785156 175.328125 137.785156 C 177.257812 137.785156 178.613281 136.210938 178.613281 133.960938 C 178.613281 131.574219 177.296875 130.039062 175.25 130.039062 C 173.714844 130.039062 172.738281 130.714844 170.949219 133.125 M 173 133.484375 C 174.035156 132.03125 174.75 131.554688 175.863281 131.554688 C 177.160156 131.554688 178.054688 132.449219 178.054688 133.742188 C 178.054688 135.253906 176.898438 136.269531 175.167969 136.269531 C 173.894531 136.269531 173.058594 135.832031 172.125 134.679688 L 173 133.484375 M 170.589844 133.703125 C 169.4375 135.472656 168.519531 136.191406 167.40625 136.191406 C 166.25 136.191406 165.4375 135.296875 165.4375 134.042969 C 165.4375 132.6875 166.3125 131.832031 167.683594 131.832031 C 168.820312 131.832031 169.714844 132.390625 170.472656 133.523438 C 170.53125 133.625 170.53125 133.625 170.589844 133.703125 Z M 170.589844 133.703125 "/>
<path fill-rule="nonzero" fill="rgb(0%, 0%, 0%)" fill-opacity="1" d="M 175.230469 115.855469 C 176.621094 116.8125 177.101562 117.527344 177.101562 118.664062 C 177.101562 120.472656 175.507812 121.75 173.21875 121.75 C 171.167969 121.75 169.753906 120.652344 169.753906 119.039062 C 169.753906 118.324219 169.972656 118.066406 170.710938 117.867188 L 171.148438 117.746094 C 171.707031 117.585938 172.0625 117.230469 172.0625 116.8125 C 172.0625 116.292969 171.6875 115.855469 171.226562 115.855469 C 170.113281 115.855469 169.175781 117.25 169.175781 118.921875 C 169.175781 119.898438 169.574219 120.910156 170.292969 121.726562 C 171.167969 122.722656 172.523438 123.28125 174.09375 123.28125 C 176.683594 123.28125 178.535156 121.707031 178.535156 119.5 C 178.535156 118.601562 178.214844 117.808594 177.597656 117.089844 C 177.121094 116.550781 176.582031 116.175781 175.40625 115.578125 Z M 175.230469 115.855469 "/>
<path fill-rule="nonzero" fill="rgb(0%, 0%, 0%)" fill-opacity="1" d="M 170.414062 114.519531 C 170.351562 114.261719 170.332031 114.101562 170.332031 113.882812 C 170.332031 113.367188 170.652344 113.1875 171.605469 113.1875 L 176.648438 113.1875 C 177.722656 113.1875 178.019531 113.464844 178.039062 114.582031 L 178.339844 114.582031 L 178.339844 110.160156 L 178.039062 110.160156 C 178 111.214844 177.78125 111.515625 177.003906 111.515625 L 171.386719 111.515625 C 171.347656 111.515625 171.148438 111.355469 171.011719 111.214844 C 170.550781 110.71875 170.214844 109.863281 170.214844 109.164062 C 170.214844 108.289062 170.910156 107.851562 172.304688 107.851562 L 176.625 107.851562 C 177.742188 107.851562 177.960938 108.070312 178.039062 109.207031 L 178.339844 109.207031 L 178.339844 104.746094 L 178.039062 104.746094 C 178.019531 105.878906 177.683594 106.179688 176.449219 106.179688 L 171.429688 106.179688 C 170.570312 105.582031 170.214844 104.925781 170.214844 104.007812 C 170.214844 102.875 170.75 102.515625 172.402344 102.515625 L 176.605469 102.515625 C 177.742188 102.515625 177.902344 102.675781 178.039062 103.828125 L 178.339844 103.828125 L 178.339844 99.46875 L 178.039062 99.46875 L 178 99.988281 C 177.960938 100.585938 177.601562 100.84375 176.824219 100.84375 L 172.722656 100.84375 C 170.371094 100.84375 169.175781 101.621094 169.175781 103.152344 C 169.175781 104.308594 169.695312 105.324219 170.851562 106.398438 C 169.714844 106.757812 169.175781 107.433594 169.175781 108.507812 C 169.175781 109.382812 169.457031 109.941406 170.710938 111.59375 L 169.21875 111.59375 L 169.175781 111.734375 C 169.554688 112.75 169.773438 113.425781 170.074219 114.519531 Z M 170.414062 114.519531 "/>
<path fill="none" stroke-width="6" stroke-linecap="round" stroke-linejoin="round" stroke="rgb(0%, 0%, 0%)" stroke-opacity="1" stroke-miterlimit="4" d="M 4315.995631 5495.673938 C 4315.995631 5494.664824 4315.995631 5493.671985 4315.995631 5492.66287 C 4315.995631 5427.672635 3999.003436 5374.677842 3606.994964 5374.677842 C 3215.995606 5374.677842 2899.003412 5427.672635 2899.003412 5492.66287 L 2899.003412 5493.671985 C 2899.003412 5493.671985 2899.003412 5492.66287 2899.003412 5493.671985 " transform="matrix(0.24, 0, 0, -0.24, -678.460022, 1497.699997)"/>
<path fill="none" stroke-width="6" stroke-linecap="round" stroke-linejoin="round" stroke="rgb(0%, 0%, 0%)" stroke-opacity="1" stroke-dasharray="0 12" stroke-miterlimit="4" d="M 4315.002792 5483.662219 C 4315.002792 5484.671334 4315.002792 5485.664172 4315.002792 5486.673287 C 4315.002792 5540.677194 3997.994322 5584.671336 3606.994964 5584.671336 C 3215.995606 5584.671336 2897.994297 5540.677194 2897.994297 5486.673287 L 2897.994297 5485.664172 " transform="matrix(0.24, 0, 0, -0.24, -678.460022, 1497.699997)"/>
</svg>
