<?xml version="1.0" encoding="UTF-8"?>
<svg xmlns="http://www.w3.org/2000/svg" xmlns:xlink="http://www.w3.org/1999/xlink" width="361.540009" height="264.619995" viewBox="0 0 361.540009 264.619995">
<path fill-rule="nonzero" fill="rgb(0%, 0%, 0%)" fill-opacity="1" d="M 29.441406 232.800781 C 28.3125 232.703125 28.195312 232.546875 27.9375 231.105469 L 26.082031 219.917969 L 25.570312 219.917969 L 19.839844 229.800781 C 18.28125 232.425781 18.082031 232.644531 17.292969 232.800781 L 17.292969 233.117188 L 20.984375 233.117188 L 20.984375 232.800781 C 19.980469 232.703125 19.820312 232.605469 19.820312 232.109375 C 19.820312 231.738281 19.878906 231.558594 20.214844 230.886719 L 21.339844 228.65625 L 25.6875 228.65625 L 26.082031 231.242188 C 26.101562 231.421875 26.121094 231.597656 26.121094 231.757812 C 26.121094 232.507812 25.84375 232.683594 24.582031 232.800781 L 24.582031 233.117188 L 29.441406 233.117188 L 29.441406 232.800781 M 21.757812 227.945312 L 24.71875 222.804688 L 25.589844 227.945312 Z M 21.757812 227.945312 "/>
<path fill-rule="nonzero" fill="rgb(0%, 0%, 0%)" fill-opacity="1" d="M 324.140625 234.078125 L 329.710938 234.078125 C 332.8125 234.078125 334.945312 232.457031 334.945312 230.121094 C 334.945312 229.390625 334.710938 228.699219 334.273438 228.261719 C 333.878906 227.808594 333.484375 227.570312 332.457031 227.136719 C 333.859375 226.800781 334.433594 226.5625 335.066406 226.007812 C 335.617188 225.535156 335.914062 224.863281 335.914062 224.070312 C 335.914062 222.195312 334.511719 221.164062 331.964844 221.164062 L 326.867188 221.164062 L 326.867188 221.480469 C 328.09375 221.582031 328.386719 221.738281 328.386719 222.292969 C 328.386719 222.589844 328.308594 223.082031 328.171875 223.558594 L 325.742188 232.296875 C 325.386719 233.445312 325.246094 233.566406 324.140625 233.761719 L 324.140625 234.078125 M 329 227.53125 C 330.285156 227.53125 331.113281 227.609375 331.507812 227.769531 C 332.320312 228.105469 332.8125 228.976562 332.8125 230.042969 C 332.8125 232.179688 331.351562 233.484375 328.941406 233.484375 C 328.113281 233.484375 327.675781 233.1875 327.675781 232.65625 C 327.675781 232.417969 327.914062 231.46875 328.367188 229.886719 C 328.625 228.996094 328.742188 228.539062 329 227.53125 M 330.480469 222.3125 C 330.601562 221.878906 330.835938 221.757812 331.609375 221.757812 C 333.1875 221.757812 333.917969 222.429688 333.917969 223.894531 C 333.917969 225.019531 333.445312 225.890625 332.597656 226.363281 C 331.925781 226.761719 330.976562 226.898438 329.199219 226.898438 Z M 330.480469 222.3125 "/>
<path fill-rule="nonzero" fill="rgb(0%, 0%, 0%)" fill-opacity="1" d="M 335.019531 38.886719 L 335.75 34.953125 L 335.335938 34.953125 C 335.175781 35.269531 334.980469 35.386719 334.582031 35.386719 C 334.425781 35.386719 334.1875 35.347656 333.773438 35.25 C 332.886719 35.035156 332.09375 34.914062 331.464844 34.914062 C 327.253906 34.914062 323.441406 38.886719 323.441406 43.269531 C 323.441406 46.292969 325.578125 48.425781 328.597656 48.425781 C 330.632812 48.425781 332.214844 47.554688 333.992188 45.480469 L 333.65625 45.207031 C 331.878906 46.945312 330.730469 47.535156 329.113281 47.535156 C 326.917969 47.535156 325.65625 46.035156 325.65625 43.488281 C 325.65625 41.136719 326.605469 38.746094 328.144531 37.148438 C 329.09375 36.179688 330.335938 35.625 331.640625 35.625 C 333.457031 35.625 334.464844 36.691406 334.664062 38.828125 Z M 335.019531 38.886719 "/>
<path fill-rule="nonzero" fill="rgb(0%, 0%, 0%)" fill-opacity="1" d="M 18.707031 35.480469 C 19.933594 35.601562 20.226562 35.757812 20.226562 36.292969 C 20.226562 36.589844 20.148438 37.0625 20.011719 37.558594 L 17.582031 46.300781 C 17.226562 47.445312 17.085938 47.566406 15.980469 47.761719 L 15.980469 48.078125 L 20.980469 48.078125 C 23.289062 48.078125 25.402344 47.464844 26.925781 46.359375 C 28.839844 44.953125 29.96875 42.78125 29.96875 40.484375 C 29.96875 37.242188 27.714844 35.164062 24.199219 35.164062 L 18.707031 35.164062 L 18.707031 35.480469 M 22.320312 36.332031 C 22.441406 35.898438 22.738281 35.757812 23.527344 35.757812 C 24.652344 35.757812 25.640625 36.015625 26.273438 36.492188 C 27.242188 37.203125 27.773438 38.449219 27.773438 40.011719 C 27.773438 42.144531 26.945312 44.359375 25.601562 45.707031 C 24.4375 46.890625 22.835938 47.484375 20.78125 47.484375 C 19.871094 47.484375 19.496094 47.269531 19.496094 46.753906 C 19.496094 46.496094 19.597656 46.0625 19.933594 44.875 Z M 22.320312 36.332031 "/>
<path fill="none" stroke-width="6" stroke-linecap="round" stroke-linejoin="miter" stroke="rgb(0%, 0%, 0%)" stroke-opacity="1" stroke-miterlimit="10" d="M 3098.001422 3323.664676 L 4280.000147 3323.664676 L 4280.000147 4032.665343 L 3098.001422 4032.665343 Z M 3098.001422 3323.664676 " transform="matrix(0.24, 0, 0, -0.24, -707.700012, 1016.159973)"/>
<path fill-rule="nonzero" fill="rgb(0%, 0%, 0%)" fill-opacity="1" d="M 338.742188 124.207031 L 328.925781 124.207031 L 328.925781 124.523438 C 330.148438 124.640625 330.445312 124.800781 330.445312 125.332031 C 330.445312 125.550781 330.328125 126.242188 330.230469 126.597656 L 327.800781 135.339844 C 327.464844 136.464844 327.304688 136.605469 326.199219 136.800781 L 326.199219 137.117188 L 336.214844 137.117188 L 337.4375 133.914062 L 337.121094 133.757812 C 336.195312 135.023438 335.679688 135.535156 334.832031 135.933594 C 334.101562 136.269531 332.757812 136.464844 331.277344 136.464844 C 330.171875 136.464844 329.695312 136.269531 329.695312 135.792969 C 329.695312 135.578125 329.914062 134.648438 330.40625 132.90625 C 330.664062 132.035156 330.839844 131.382812 331.039062 130.632812 C 331.730469 130.671875 332.34375 130.691406 332.578125 130.691406 C 333.351562 130.671875 333.902344 130.789062 334.121094 130.988281 C 334.21875 131.085938 334.257812 131.265625 334.257812 131.601562 C 334.257812 131.9375 334.21875 132.195312 334.121094 132.628906 L 334.515625 132.726562 L 335.859375 128.140625 L 335.503906 128.0625 C 334.753906 129.742188 334.574219 129.859375 332.777344 129.941406 C 332.539062 129.941406 331.910156 129.960938 331.21875 129.980469 L 332.519531 125.371094 C 332.640625 124.9375 332.855469 124.859375 333.960938 124.859375 C 337.0625 124.859375 337.753906 125.117188 337.753906 126.300781 C 337.753906 126.558594 337.734375 126.855469 337.714844 127.191406 L 338.128906 127.230469 Z M 338.742188 124.207031 "/>
<path fill-rule="nonzero" fill="rgb(0%, 0%, 0%)" fill-opacity="1" d="M 234.800781 30.125 L 224.964844 30.125 L 224.964844 30.441406 C 226.246094 30.5625 226.484375 30.679688 226.484375 31.253906 C 226.484375 31.550781 226.40625 32.042969 226.265625 32.519531 L 223.835938 41.257812 C 223.480469 42.445312 223.34375 42.5625 222.21875 42.722656 L 222.21875 43.039062 L 227.195312 43.039062 L 227.195312 42.722656 C 226.050781 42.664062 225.695312 42.445312 225.695312 41.851562 C 225.695312 41.695312 225.753906 41.398438 225.871094 40.960938 L 227.097656 36.550781 C 227.828125 36.589844 228.261719 36.613281 228.695312 36.613281 C 229.46875 36.613281 229.605469 36.632812 229.78125 36.710938 C 230.078125 36.867188 230.21875 37.125 230.21875 37.519531 C 230.21875 37.839844 230.179688 38.074219 230.058594 38.6875 L 230.394531 38.785156 L 231.894531 34.160156 L 231.542969 34.0625 C 230.652344 35.839844 230.59375 35.859375 227.273438 35.898438 L 228.578125 31.292969 C 228.695312 30.898438 228.972656 30.777344 229.78125 30.777344 C 233.101562 30.777344 233.8125 31.035156 233.8125 32.261719 C 233.8125 32.378906 233.8125 32.480469 233.792969 32.734375 C 233.773438 32.855469 233.773438 32.875 233.753906 33.113281 L 234.167969 33.152344 Z M 234.800781 30.125 "/>
<path fill="none" stroke-width="6" stroke-linecap="round" stroke-linejoin="round" stroke="rgb(0%, 0%, 0%)" stroke-opacity="1" stroke-miterlimit="4" d="M 3889.993627 4031.672504 L 4279.007308 3689.664033 L 3098.001422 3328.677697 Z M 3889.993627 4031.672504 " transform="matrix(0.24, 0, 0, -0.24, -707.700012, 1016.159973)"/>
</svg>
