<?xml version="1.0" encoding="UTF-8"?>
<svg xmlns="http://www.w3.org/2000/svg" xmlns:xlink="http://www.w3.org/1999/xlink" width="492.299988" height="256.940002" viewBox="0 0 492.299988 256.940002">
<defs>
<clipPath id="clip-0">
<path clip-rule="nonzero" d="M 458.441406 230 L 474 230 L 474 244 L 458.441406 244 Z M 458.441406 230 "/>
</clipPath>
<clipPath id="clip-1">
<path clip-rule="nonzero" d="M 143.078125 15 L 157 15 L 157 29 L 143.078125 29 Z M 143.078125 15 "/>
</clipPath>
<clipPath id="clip-2">
<path clip-rule="nonzero" d="M 306.519531 15 L 319 15 L 319 29 L 306.519531 29 Z M 306.519531 15 "/>
</clipPath>
<clipPath id="clip-3">
<path clip-rule="nonzero" d="M 281.078125 122 L 294 122 L 294 136 L 281.078125 136 Z M 281.078125 122 "/>
</clipPath>
</defs>
<path fill-rule="nonzero" fill="rgb(0%, 0%, 0%)" fill-opacity="1" d="M 474.105469 115.375 L 473.808594 115.292969 C 473.472656 115.769531 473.136719 115.96875 472.625 115.96875 C 472.425781 115.96875 472.1875 115.90625 471.753906 115.769531 C 470.765625 115.453125 469.917969 115.292969 469.105469 115.292969 C 464.9375 115.292969 461.144531 119.246094 461.144531 123.589844 C 461.144531 124.933594 461.71875 126.316406 462.648438 127.265625 C 463.65625 128.273438 465.097656 128.804688 466.816406 128.804688 C 468.554688 128.804688 469.976562 128.429688 471.496094 127.582031 L 472.464844 123.886719 C 472.78125 122.777344 473.097656 122.542969 474.382812 122.464844 L 474.382812 122.148438 L 469.125 122.148438 L 469.125 122.464844 C 469.363281 122.484375 469.621094 122.523438 469.699219 122.523438 C 470.351562 122.582031 470.667969 122.777344 470.667969 123.136719 C 470.667969 123.570312 470.550781 124.121094 470.113281 125.585938 C 469.679688 127.007812 469.621094 127.164062 469.382812 127.402344 C 468.949219 127.835938 468.199219 128.074219 467.308594 128.074219 C 464.761719 128.074219 463.320312 126.613281 463.320312 124.023438 C 463.320312 121.59375 464.289062 119.085938 465.847656 117.429688 C 466.738281 116.5 467.960938 115.96875 469.265625 115.96875 C 470.550781 115.96875 471.636719 116.5 472.226562 117.40625 C 472.542969 117.921875 472.683594 118.335938 472.78125 119.203125 L 473.136719 119.265625 Z M 474.105469 115.375 "/>
<g clip-path="url(#clip-0)">
<path fill-rule="nonzero" fill="rgb(0%, 0%, 0%)" fill-opacity="1" d="M 473.589844 230.265625 L 468.710938 230.265625 L 468.710938 230.582031 C 469.855469 230.71875 470.09375 230.878906 470.09375 231.433594 C 470.09375 231.710938 470.015625 232.164062 469.875 232.660156 L 468.96875 235.902344 L 463.339844 235.902344 L 464.40625 232.046875 C 464.699219 231.035156 465.214844 230.660156 466.398438 230.582031 L 466.398438 230.265625 L 461.007812 230.265625 L 461.007812 230.582031 C 462.230469 230.699219 462.527344 230.859375 462.527344 231.433594 C 462.527344 231.710938 462.449219 232.164062 462.3125 232.660156 L 459.882812 241.398438 C 459.527344 242.546875 459.386719 242.664062 458.28125 242.863281 L 458.28125 243.179688 L 463.140625 243.179688 L 463.140625 242.863281 C 461.957031 242.703125 461.738281 242.566406 461.738281 241.992188 C 461.738281 241.855469 461.757812 241.695312 461.796875 241.558594 L 463.101562 236.730469 L 468.730469 236.730469 L 467.445312 241.398438 C 467.128906 242.425781 466.734375 242.722656 465.453125 242.863281 L 465.453125 243.179688 L 470.84375 243.179688 L 470.84375 242.863281 C 469.582031 242.742188 469.304688 242.585938 469.304688 242.03125 C 469.304688 241.832031 469.324219 241.714844 469.363281 241.558594 L 471.96875 232.046875 C 472.304688 230.898438 472.464844 230.78125 473.589844 230.582031 Z M 473.589844 230.265625 "/>
</g>
<path fill="none" stroke-width="6" stroke-linecap="round" stroke-linejoin="round" stroke="rgb(0%, 0%, 0%)" stroke-opacity="1" stroke-miterlimit="4" d="M 3046.003283 2172.666471 L 3621.003295 2172.666471 L 3621.003295 1772.666462 L 4271.00331 1772.666462 L 4271.996149 1335.67101 L 2496.00327 1334.661895 L 2496.00327 1618.662552 L 3046.003283 1617.669714 L 3046.996121 2172.666471 " transform="matrix(0.24, 0, 0, -0.24, -569.23999, 546.939941)"/>
<path fill="none" stroke-width="4" stroke-linecap="round" stroke-linejoin="round" stroke="rgb(0%, 0%, 0%)" stroke-opacity="1" stroke-miterlimit="4" d="M 3541.006549 2169.671679 L 3541.006549 2092.669725 L 3621.996134 2092.669725 " transform="matrix(0.24, 0, 0, -0.24, -569.23999, 546.939941)"/>
<path fill="none" stroke-width="4" stroke-linecap="round" stroke-linejoin="round" stroke="rgb(0%, 0%, 0%)" stroke-opacity="1" stroke-miterlimit="4" d="M 4189.997449 1769.67167 L 4189.997449 1692.669716 L 4269.994195 1692.669716 " transform="matrix(0.24, 0, 0, -0.24, -569.23999, 546.939941)"/>
<path fill="none" stroke-width="4" stroke-linecap="round" stroke-linejoin="round" stroke="rgb(0%, 0%, 0%)" stroke-opacity="1" stroke-miterlimit="4" d="M 2578.994809 1334.661895 L 2578.994809 1411.66385 L 2498.005223 1411.66385 " transform="matrix(0.24, 0, 0, -0.24, -569.23999, 546.939941)"/>
<path fill-rule="nonzero" fill="rgb(0%, 0%, 0%)" fill-opacity="1" d="M 25.339844 243.34375 C 24.214844 243.242188 24.097656 243.085938 23.839844 241.644531 L 21.984375 230.457031 L 21.46875 230.457031 L 15.742188 240.34375 C 14.179688 242.96875 13.984375 243.183594 13.191406 243.34375 L 13.191406 243.65625 L 16.886719 243.65625 L 16.886719 243.34375 C 15.878906 243.242188 15.71875 243.144531 15.71875 242.652344 C 15.71875 242.277344 15.78125 242.097656 16.117188 241.425781 L 17.242188 239.195312 L 21.585938 239.195312 L 21.984375 241.78125 C 22.003906 241.960938 22.023438 242.136719 22.023438 242.296875 C 22.023438 243.046875 21.746094 243.222656 20.480469 243.34375 L 20.480469 243.65625 L 25.339844 243.65625 L 25.339844 243.34375 M 17.65625 238.484375 L 20.621094 233.34375 L 21.488281 238.484375 Z M 17.65625 238.484375 "/>
<path fill-rule="nonzero" fill="rgb(0%, 0%, 0%)" fill-opacity="1" d="M 12.363281 160.859375 L 17.933594 160.859375 C 21.035156 160.859375 23.167969 159.238281 23.167969 156.902344 C 23.167969 156.171875 22.929688 155.476562 22.496094 155.042969 C 22.101562 154.585938 21.703125 154.351562 20.675781 153.914062 C 22.082031 153.578125 22.652344 153.34375 23.285156 152.789062 C 23.839844 152.3125 24.132812 151.640625 24.132812 150.851562 C 24.132812 148.972656 22.730469 147.945312 20.183594 147.945312 L 15.085938 147.945312 L 15.085938 148.261719 C 16.3125 148.359375 16.609375 148.519531 16.609375 149.074219 C 16.609375 149.367188 16.53125 149.863281 16.390625 150.335938 L 13.960938 159.078125 C 13.605469 160.226562 13.46875 160.34375 12.363281 160.542969 L 12.363281 160.859375 M 17.222656 154.3125 C 18.503906 154.3125 19.335938 154.390625 19.730469 154.546875 C 20.539062 154.882812 21.035156 155.753906 21.035156 156.824219 C 21.035156 158.960938 19.570312 160.265625 17.160156 160.265625 C 16.332031 160.265625 15.898438 159.96875 15.898438 159.433594 C 15.898438 159.195312 16.132812 158.246094 16.589844 156.664062 C 16.84375 155.773438 16.964844 155.320312 17.222656 154.3125 M 18.703125 149.09375 C 18.820312 148.65625 19.058594 148.539062 19.828125 148.539062 C 21.410156 148.539062 22.140625 149.210938 22.140625 150.671875 C 22.140625 151.800781 21.664062 152.671875 20.816406 153.144531 C 20.144531 153.539062 19.195312 153.679688 17.417969 153.679688 Z M 18.703125 149.09375 "/>
<path fill-rule="nonzero" fill="rgb(0%, 0%, 0%)" fill-opacity="1" d="M 178.039062 161.984375 L 178.769531 158.054688 L 178.355469 158.054688 C 178.195312 158.371094 178 158.488281 177.605469 158.488281 C 177.445312 158.488281 177.210938 158.449219 176.792969 158.351562 C 175.90625 158.132812 175.117188 158.015625 174.484375 158.015625 C 170.277344 158.015625 166.464844 161.984375 166.464844 166.371094 C 166.464844 169.390625 168.597656 171.527344 171.617188 171.527344 C 173.652344 171.527344 175.234375 170.65625 177.011719 168.582031 L 176.675781 168.304688 C 174.898438 170.042969 173.753906 170.636719 172.132812 170.636719 C 169.941406 170.636719 168.675781 169.136719 168.675781 166.585938 C 168.675781 164.238281 169.625 161.847656 171.164062 160.246094 C 172.113281 159.277344 173.355469 158.726562 174.660156 158.726562 C 176.476562 158.726562 177.484375 159.792969 177.683594 161.925781 Z M 178.039062 161.984375 "/>
<g clip-path="url(#clip-1)">
<path fill-rule="nonzero" fill="rgb(0%, 0%, 0%)" fill-opacity="1" d="M 145.648438 16.261719 C 146.871094 16.378906 147.167969 16.539062 147.167969 17.074219 C 147.167969 17.371094 147.089844 17.84375 146.953125 18.339844 L 144.523438 27.078125 C 144.164062 28.226562 144.027344 28.34375 142.921875 28.542969 L 142.921875 28.859375 L 147.917969 28.859375 C 150.230469 28.859375 152.34375 28.246094 153.863281 27.136719 C 155.78125 25.734375 156.90625 23.558594 156.90625 21.265625 C 156.90625 18.023438 154.65625 15.945312 151.140625 15.945312 L 145.648438 15.945312 L 145.648438 16.261719 M 149.261719 17.113281 C 149.382812 16.675781 149.675781 16.539062 150.46875 16.539062 C 151.59375 16.539062 152.582031 16.796875 153.214844 17.269531 C 154.179688 17.980469 154.714844 19.226562 154.714844 20.789062 C 154.714844 22.925781 153.882812 25.140625 152.542969 26.484375 C 151.375 27.671875 149.777344 28.265625 147.722656 28.265625 C 146.8125 28.265625 146.4375 28.046875 146.4375 27.535156 C 146.4375 27.277344 146.535156 26.839844 146.871094 25.65625 Z M 149.261719 17.113281 "/>
</g>
<g clip-path="url(#clip-2)">
<path fill-rule="nonzero" fill="rgb(0%, 0%, 0%)" fill-opacity="1" d="M 319.042969 15.945312 L 309.226562 15.945312 L 309.226562 16.261719 C 310.449219 16.378906 310.746094 16.539062 310.746094 17.074219 C 310.746094 17.289062 310.628906 17.980469 310.53125 18.339844 L 308.101562 27.078125 C 307.765625 28.207031 307.605469 28.34375 306.5 28.542969 L 306.5 28.859375 L 316.515625 28.859375 L 317.738281 25.65625 L 317.421875 25.496094 C 316.496094 26.761719 315.980469 27.277344 315.132812 27.671875 C 314.402344 28.007812 313.058594 28.207031 311.578125 28.207031 C 310.46875 28.207031 309.996094 28.007812 309.996094 27.535156 C 309.996094 27.316406 310.214844 26.386719 310.707031 24.644531 C 310.964844 23.777344 311.140625 23.125 311.339844 22.371094 C 312.03125 22.410156 312.644531 22.429688 312.878906 22.429688 C 313.652344 22.410156 314.203125 22.53125 314.421875 22.726562 C 314.519531 22.828125 314.558594 23.003906 314.558594 23.339844 C 314.558594 23.675781 314.519531 23.933594 314.421875 24.367188 L 314.816406 24.46875 L 316.160156 19.878906 L 315.804688 19.800781 C 315.054688 21.480469 314.875 21.601562 313.078125 21.679688 C 312.839844 21.679688 312.207031 21.699219 311.515625 21.71875 L 312.820312 17.113281 C 312.9375 16.675781 313.15625 16.597656 314.261719 16.597656 C 317.363281 16.597656 318.054688 16.855469 318.054688 18.042969 C 318.054688 18.296875 318.035156 18.59375 318.015625 18.929688 L 318.429688 18.972656 Z M 319.042969 15.945312 "/>
</g>
<g clip-path="url(#clip-3)">
<path fill-rule="nonzero" fill="rgb(0%, 0%, 0%)" fill-opacity="1" d="M 293.820312 122.265625 L 283.984375 122.265625 L 283.984375 122.582031 C 285.265625 122.699219 285.503906 122.820312 285.503906 123.394531 C 285.503906 123.6875 285.425781 124.183594 285.285156 124.660156 L 282.855469 133.398438 C 282.5 134.585938 282.363281 134.703125 281.238281 134.863281 L 281.238281 135.179688 L 286.214844 135.179688 L 286.214844 134.863281 C 285.070312 134.800781 284.714844 134.585938 284.714844 133.992188 C 284.714844 133.832031 284.773438 133.539062 284.890625 133.101562 L 286.117188 128.691406 C 286.847656 128.730469 287.28125 128.75 287.714844 128.75 C 288.488281 128.75 288.625 128.769531 288.804688 128.851562 C 289.097656 129.007812 289.238281 129.265625 289.238281 129.660156 C 289.238281 129.976562 289.199219 130.214844 289.078125 130.828125 L 289.414062 130.925781 L 290.917969 126.300781 L 290.5625 126.199219 C 289.671875 127.980469 289.613281 128 286.292969 128.039062 L 287.597656 123.433594 C 287.714844 123.035156 287.992188 122.917969 288.804688 122.917969 C 292.121094 122.917969 292.832031 123.175781 292.832031 124.402344 C 292.832031 124.519531 292.832031 124.617188 292.8125 124.875 C 292.792969 124.996094 292.792969 125.015625 292.773438 125.25 L 293.1875 125.292969 Z M 293.820312 122.265625 "/>
</g>
<path fill="none" stroke-width="4" stroke-linecap="round" stroke-linejoin="round" stroke="rgb(0%, 0%, 0%)" stroke-opacity="1" stroke-miterlimit="4" d="M 2580.003923 1615.667761 L 2580.003923 1539.67492 L 2498.005223 1539.67492 " transform="matrix(0.24, 0, 0, -0.24, -569.23999, 546.939941)"/>
<path fill="none" stroke-width="4" stroke-linecap="round" stroke-linejoin="round" stroke="rgb(0%, 0%, 0%)" stroke-opacity="1" stroke-miterlimit="4" d="M 3130.996774 2170.664518 L 3130.996774 2094.671678 L 3050.007189 2094.671678 " transform="matrix(0.24, 0, 0, -0.24, -569.23999, 546.939941)"/>
<path fill="none" stroke-width="4" stroke-linecap="round" stroke-linejoin="round" stroke="rgb(0%, 0%, 0%)" stroke-opacity="1" stroke-miterlimit="4" d="M 2964.997421 1619.671667 L 2964.997421 1696.673622 L 3046.003283 1696.673622 " transform="matrix(0.24, 0, 0, -0.24, -569.23999, 546.939941)"/>
<path fill="none" stroke-width="4" stroke-linecap="round" stroke-linejoin="round" stroke="rgb(0%, 0%, 0%)" stroke-opacity="1" stroke-miterlimit="4" d="M 4189.00461 1337.672963 L 4189.00461 1414.674918 L 4271.00331 1414.674918 " transform="matrix(0.24, 0, 0, -0.24, -569.23999, 546.939941)"/>
</svg>
