<?xml version="1.0" encoding="UTF-8"?>
<svg xmlns="http://www.w3.org/2000/svg" xmlns:xlink="http://www.w3.org/1999/xlink" width="413.839996" height="306.160004" viewBox="0 0 413.839996 306.160004">
<path fill-rule="nonzero" fill="rgb(0%, 0%, 0%)" fill-opacity="1" d="M 26.996094 282.425781 L 27.726562 278.492188 L 27.3125 278.492188 C 27.15625 278.808594 26.957031 278.929688 26.5625 278.929688 C 26.40625 278.929688 26.167969 278.890625 25.753906 278.789062 C 24.863281 278.574219 24.074219 278.457031 23.441406 278.457031 C 19.234375 278.457031 15.421875 282.425781 15.421875 286.8125 C 15.421875 289.832031 17.554688 291.964844 20.578125 291.964844 C 22.613281 291.964844 24.191406 291.097656 25.96875 289.023438 L 25.632812 288.746094 C 23.855469 290.484375 22.710938 291.078125 21.089844 291.078125 C 18.898438 291.078125 17.632812 289.574219 17.632812 287.027344 C 17.632812 284.675781 18.582031 282.289062 20.125 280.6875 C 21.070312 279.71875 22.316406 279.167969 23.621094 279.167969 C 25.4375 279.167969 26.445312 280.234375 26.640625 282.367188 Z M 26.996094 282.425781 "/>
<path fill="none" stroke-width="6" stroke-linecap="round" stroke-linejoin="round" stroke="rgb(0%, 0%, 0%)" stroke-opacity="1" stroke-miterlimit="4" d="M 3700.007203 5969.664834 C 3701.992881 5898.668739 3662.995484 5838.675248 3605.996785 5825.67069 C 3603.994832 5825.67069 3601.992878 5824.677852 3601.00004 5824.677852 " transform="matrix(0.24, 0, 0, -0.24, -649.23999, 1517.699997)"/>
<path fill-rule="nonzero" fill="rgb(0%, 0%, 0%)" fill-opacity="1" d="M 172.78125 77.105469 L 162.941406 77.105469 L 162.941406 77.421875 C 164.226562 77.539062 164.464844 77.660156 164.464844 78.234375 C 164.464844 78.53125 164.386719 79.023438 164.246094 79.5 L 161.816406 88.238281 C 161.460938 89.425781 161.324219 89.542969 160.199219 89.703125 L 160.199219 90.019531 L 165.175781 90.019531 L 165.175781 89.703125 C 164.03125 89.644531 163.675781 89.425781 163.675781 88.832031 C 163.675781 88.675781 163.734375 88.378906 163.851562 87.941406 L 165.078125 83.53125 C 165.808594 83.570312 166.242188 83.59375 166.675781 83.59375 C 167.445312 83.59375 167.585938 83.613281 167.761719 83.691406 C 168.058594 83.847656 168.199219 84.105469 168.199219 84.5 C 168.199219 84.816406 168.15625 85.054688 168.039062 85.667969 L 168.375 85.765625 L 169.875 81.140625 L 169.519531 81.042969 C 168.632812 82.820312 168.574219 82.839844 165.253906 82.878906 L 166.558594 78.273438 C 166.675781 77.878906 166.953125 77.757812 167.761719 77.757812 C 171.082031 77.757812 171.792969 78.015625 171.792969 79.242188 C 171.792969 79.359375 171.792969 79.460938 171.773438 79.714844 C 171.753906 79.835938 171.753906 79.855469 171.734375 80.09375 L 172.148438 80.132812 Z M 172.78125 77.105469 "/>
<path fill-rule="nonzero" fill="rgb(0%, 0%, 0%)" fill-opacity="1" d="M 242.347656 106.65625 L 238.792969 108.457031 L 238.792969 108.734375 C 239.027344 108.632812 239.246094 108.554688 239.324219 108.515625 C 239.679688 108.378906 240.015625 108.296875 240.214844 108.296875 C 240.628906 108.296875 240.808594 108.59375 240.808594 109.226562 L 240.808594 118.179688 C 240.808594 118.832031 240.648438 119.289062 240.332031 119.464844 C 240.035156 119.644531 239.761719 119.703125 238.929688 119.722656 L 238.929688 120.019531 L 244.382812 120.019531 L 244.382812 119.722656 C 242.820312 119.703125 242.503906 119.503906 242.503906 118.554688 L 242.503906 106.699219 Z M 242.347656 106.65625 "/>
<path fill-rule="nonzero" fill="rgb(0%, 0%, 0%)" fill-opacity="1" d="M 252.429688 106.65625 L 248.871094 108.457031 L 248.871094 108.734375 C 249.109375 108.632812 249.328125 108.554688 249.40625 108.515625 C 249.761719 108.378906 250.097656 108.296875 250.292969 108.296875 C 250.710938 108.296875 250.886719 108.59375 250.886719 109.226562 L 250.886719 118.179688 C 250.886719 118.832031 250.730469 119.289062 250.414062 119.464844 C 250.117188 119.644531 249.839844 119.703125 249.011719 119.722656 L 249.011719 120.019531 L 254.460938 120.019531 L 254.460938 119.722656 C 252.902344 119.703125 252.585938 119.503906 252.585938 118.554688 L 252.585938 106.699219 Z M 252.429688 106.65625 "/>
<path fill-rule="nonzero" fill="rgb(0%, 0%, 0%)" fill-opacity="1" d="M 266.140625 117.3125 L 265.886719 117.210938 C 265.15625 118.339844 264.898438 118.515625 264.007812 118.515625 L 259.289062 118.515625 L 262.605469 115.039062 C 264.363281 113.203125 265.136719 111.699219 265.136719 110.160156 C 265.136719 108.183594 263.535156 106.664062 261.480469 106.664062 C 260.394531 106.664062 259.367188 107.097656 258.636719 107.886719 C 258.003906 108.558594 257.707031 109.191406 257.371094 110.59375 L 257.785156 110.691406 C 258.578125 108.757812 259.289062 108.125 260.652344 108.125 C 262.308594 108.125 263.4375 109.25 263.4375 110.910156 C 263.4375 112.453125 262.527344 114.289062 260.867188 116.046875 L 257.351562 119.78125 L 257.351562 120.019531 L 265.054688 120.019531 Z M 266.140625 117.3125 "/>
<path fill-rule="nonzero" fill="rgb(0%, 0%, 0%)" fill-opacity="1" d="M 270.789062 106.664062 C 269.210938 106.664062 267.964844 107.90625 267.964844 109.488281 C 267.964844 111.050781 269.210938 112.3125 270.75 112.3125 C 272.351562 112.3125 273.613281 111.089844 273.613281 109.507812 C 273.613281 107.90625 272.371094 106.664062 270.789062 106.664062 M 270.789062 107.335938 C 271.894531 107.335938 272.84375 108.324219 272.84375 109.488281 C 272.84375 110.671875 271.914062 111.640625 270.769531 111.640625 C 269.664062 111.640625 268.734375 110.652344 268.734375 109.488281 C 268.734375 108.324219 269.664062 107.335938 270.789062 107.335938 Z M 270.789062 107.335938 "/>
<path fill-rule="nonzero" fill="rgb(0%, 0%, 0%)" fill-opacity="1" d="M 215.101562 88.503906 C 213.972656 88.402344 213.855469 88.246094 213.597656 86.804688 L 211.742188 75.617188 L 211.230469 75.617188 L 205.5 85.503906 C 203.941406 88.128906 203.742188 88.34375 202.953125 88.503906 L 202.953125 88.820312 L 206.644531 88.820312 L 206.644531 88.503906 C 205.636719 88.402344 205.480469 88.304688 205.480469 87.8125 C 205.480469 87.4375 205.539062 87.257812 205.875 86.585938 L 207 84.359375 L 211.347656 84.359375 L 211.742188 86.945312 C 211.761719 87.121094 211.78125 87.296875 211.78125 87.457031 C 211.78125 88.207031 211.503906 88.382812 210.242188 88.503906 L 210.242188 88.820312 L 215.101562 88.820312 L 215.101562 88.503906 M 207.417969 83.644531 L 210.378906 78.503906 L 211.25 83.644531 Z M 207.417969 83.644531 "/>
<path fill-rule="nonzero" fill="rgb(0%, 0%, 0%)" fill-opacity="1" d="M 211.960938 294.738281 L 217.53125 294.738281 C 220.632812 294.738281 222.765625 293.117188 222.765625 290.78125 C 222.765625 290.050781 222.53125 289.359375 222.09375 288.921875 C 221.699219 288.46875 221.304688 288.230469 220.277344 287.796875 C 221.679688 287.460938 222.253906 287.222656 222.886719 286.667969 C 223.4375 286.195312 223.734375 285.523438 223.734375 284.730469 C 223.734375 282.855469 222.332031 281.824219 219.785156 281.824219 L 214.6875 281.824219 L 214.6875 282.140625 C 215.910156 282.242188 216.207031 282.398438 216.207031 282.953125 C 216.207031 283.25 216.128906 283.742188 215.992188 284.21875 L 213.5625 292.957031 C 213.207031 294.105469 213.066406 294.226562 211.960938 294.421875 L 211.960938 294.738281 M 216.820312 288.191406 C 218.105469 288.191406 218.933594 288.269531 219.328125 288.429688 C 220.140625 288.765625 220.632812 289.636719 220.632812 290.703125 C 220.632812 292.839844 219.171875 294.144531 216.761719 294.144531 C 215.933594 294.144531 215.496094 293.847656 215.496094 293.316406 C 215.496094 293.078125 215.734375 292.128906 216.1875 290.546875 C 216.445312 289.65625 216.5625 289.199219 216.820312 288.191406 M 218.300781 282.972656 C 218.421875 282.539062 218.65625 282.417969 219.429688 282.417969 C 221.007812 282.417969 221.738281 283.089844 221.738281 284.554688 C 221.738281 285.679688 221.265625 286.550781 220.414062 287.023438 C 219.742188 287.421875 218.796875 287.558594 217.019531 287.558594 Z M 218.300781 282.972656 "/>
<path fill="none" stroke-width="6" stroke-linecap="round" stroke-linejoin="round" stroke="rgb(0%, 0%, 0%)" stroke-opacity="1" stroke-miterlimit="4" d="M 3521.003293 5462.666125 C 3544.994179 5474.677844 3569.99418 5477.672636 3594.001342 5473.668729 " transform="matrix(0.24, 0, 0, -0.24, -649.23999, 1517.699997)"/>
<path fill="none" stroke-width="6" stroke-linecap="round" stroke-linejoin="miter" stroke="rgb(0%, 0%, 0%)" stroke-opacity="1" stroke-miterlimit="10" d="M 2842.99221 5172.675884 L 3596.996133 5172.675884 L 3596.996133 5926.663531 L 2842.99221 5926.663531 Z M 2842.99221 5172.675884 " transform="matrix(0.24, 0, 0, -0.24, -649.23999, 1517.699997)"/>
<path fill="none" stroke-width="6" stroke-linecap="round" stroke-linejoin="round" stroke="rgb(0%, 0%, 0%)" stroke-opacity="1" stroke-miterlimit="4" d="M 3601.00004 5927.672646 L 4296.996149 6229.674606 L 3598.005248 5174.677837 L 3392.992223 5921.666786 L 2848.005231 5176.663514 " transform="matrix(0.24, 0, 0, -0.24, -649.23999, 1517.699997)"/>
<path fill-rule="nonzero" fill="rgb(0%, 0%, 0%)" fill-opacity="1" d="M 23.40625 79.34375 C 24.632812 79.460938 24.929688 79.621094 24.929688 80.152344 C 24.929688 80.449219 24.847656 80.925781 24.710938 81.417969 L 22.28125 90.160156 C 21.925781 91.304688 21.789062 91.425781 20.679688 91.621094 L 20.679688 91.9375 L 25.679688 91.9375 C 27.992188 91.9375 30.105469 91.324219 31.625 90.21875 C 33.539062 88.816406 34.667969 86.640625 34.667969 84.347656 C 34.667969 81.101562 32.414062 79.027344 28.898438 79.027344 L 23.40625 79.027344 L 23.40625 79.34375 M 27.023438 80.191406 C 27.140625 79.757812 27.4375 79.621094 28.226562 79.621094 C 29.351562 79.621094 30.339844 79.875 30.972656 80.351562 C 31.941406 81.0625 32.472656 82.308594 32.472656 83.871094 C 32.472656 86.007812 31.644531 88.222656 30.300781 89.566406 C 29.136719 90.753906 27.535156 91.347656 25.480469 91.347656 C 24.574219 91.347656 24.199219 91.128906 24.199219 90.613281 C 24.199219 90.355469 24.296875 89.921875 24.632812 88.734375 Z M 27.023438 80.191406 "/>
<path fill-rule="nonzero" fill="rgb(0%, 0%, 0%)" fill-opacity="1" d="M 399.121094 9.1875 L 389.304688 9.1875 L 389.304688 9.503906 C 390.527344 9.621094 390.824219 9.78125 390.824219 10.3125 C 390.824219 10.53125 390.707031 11.222656 390.609375 11.578125 L 388.179688 20.320312 C 387.84375 21.445312 387.683594 21.585938 386.578125 21.78125 L 386.578125 22.097656 L 396.59375 22.097656 L 397.816406 18.894531 L 397.503906 18.738281 C 396.574219 20.003906 396.058594 20.515625 395.210938 20.914062 C 394.480469 21.25 393.136719 21.445312 391.65625 21.445312 C 390.550781 21.445312 390.074219 21.25 390.074219 20.773438 C 390.074219 20.558594 390.292969 19.625 390.785156 17.886719 C 391.042969 17.015625 391.21875 16.363281 391.417969 15.613281 C 392.109375 15.652344 392.722656 15.671875 392.957031 15.671875 C 393.730469 15.652344 394.28125 15.769531 394.5 15.96875 C 394.597656 16.066406 394.636719 16.246094 394.636719 16.582031 C 394.636719 16.917969 394.597656 17.175781 394.5 17.609375 L 394.894531 17.707031 L 396.238281 13.121094 L 395.882812 13.042969 C 395.132812 14.722656 394.953125 14.839844 393.15625 14.921875 C 392.917969 14.921875 392.289062 14.941406 391.597656 14.960938 L 392.898438 10.351562 C 393.019531 9.917969 393.234375 9.839844 394.339844 9.839844 C 397.441406 9.839844 398.132812 10.097656 398.132812 11.28125 C 398.132812 11.539062 398.113281 11.835938 398.09375 12.171875 L 398.507812 12.210938 Z M 399.121094 9.1875 "/>
</svg>
