<?xml version="1.0" encoding="UTF-8"?>
<svg xmlns="http://www.w3.org/2000/svg" xmlns:xlink="http://www.w3.org/1999/xlink" width="543.080017" height="143.080002" viewBox="0 0 543.080017 143.080002">
<path fill-rule="nonzero" fill="rgb(0%, 0%, 0%)" fill-opacity="1" d="M 443.140625 110.195312 L 443.140625 106.351562 C 443.140625 104.925781 443.359375 104.710938 444.882812 104.570312 L 444.882812 104.195312 L 439.375 104.195312 L 439.375 104.570312 C 440.902344 104.710938 441.121094 104.925781 441.121094 106.351562 L 441.121094 114.9375 C 441.121094 116.605469 440.921875 116.84375 439.375 116.941406 L 439.375 117.320312 L 444.882812 117.320312 L 444.882812 116.941406 C 443.398438 116.824219 443.140625 116.566406 443.140625 115.15625 L 443.140625 111.066406 L 449.140625 111.066406 L 449.140625 114.9375 C 449.140625 116.605469 448.945312 116.84375 447.398438 116.941406 L 447.398438 117.320312 L 452.90625 117.320312 L 452.90625 116.941406 C 451.421875 116.824219 451.164062 116.566406 451.164062 115.15625 L 451.164062 106.351562 C 451.164062 104.925781 451.382812 104.710938 452.90625 104.570312 L 452.90625 104.195312 L 447.398438 104.195312 L 447.398438 104.570312 C 448.925781 104.710938 449.140625 104.925781 449.140625 106.351562 L 449.140625 110.195312 Z M 443.140625 110.195312 "/>
<path fill-rule="nonzero" fill="rgb(0%, 0%, 0%)" fill-opacity="1" d="M 461.480469 114.0625 C 460.53125 115.570312 459.679688 116.144531 458.410156 116.144531 C 457.28125 116.144531 456.429688 115.570312 455.855469 114.4375 C 455.5 113.683594 455.359375 113.03125 455.320312 111.820312 L 461.421875 111.820312 C 461.265625 110.535156 461.066406 109.960938 460.570312 109.332031 C 459.976562 108.617188 459.066406 108.203125 458.035156 108.203125 C 457.042969 108.203125 456.113281 108.558594 455.359375 109.230469 C 454.429688 110.042969 453.894531 111.445312 453.894531 113.070312 C 453.894531 115.808594 455.320312 117.511719 457.597656 117.511719 C 459.480469 117.511719 460.96875 116.34375 461.800781 114.199219 L 461.480469 114.0625 M 455.359375 111.1875 C 455.578125 109.644531 456.253906 108.914062 457.460938 108.914062 C 458.667969 108.914062 459.144531 109.46875 459.402344 111.1875 Z M 455.359375 111.1875 "/>
<path fill-rule="nonzero" fill="rgb(0%, 0%, 0%)" fill-opacity="1" d="M 465.746094 108.207031 L 462.675781 109.296875 L 462.675781 109.59375 L 462.835938 109.574219 C 463.070312 109.535156 463.328125 109.515625 463.507812 109.515625 C 463.984375 109.515625 464.160156 109.832031 464.160156 110.703125 L 464.160156 115.296875 C 464.160156 116.722656 463.964844 116.941406 462.597656 117.019531 L 462.597656 117.320312 L 467.292969 117.320312 L 467.292969 117.019531 C 465.984375 116.921875 465.824219 116.722656 465.824219 115.296875 L 465.824219 108.265625 L 465.746094 108.207031 M 464.816406 103.789062 C 464.28125 103.789062 463.824219 104.242188 463.824219 104.800781 C 463.824219 105.355469 464.261719 105.808594 464.816406 105.808594 C 465.390625 105.808594 465.84375 105.375 465.84375 104.800781 C 465.84375 104.242188 465.390625 103.789062 464.816406 103.789062 Z M 464.816406 103.789062 "/>
<path fill-rule="nonzero" fill="rgb(0%, 0%, 0%)" fill-opacity="1" d="M 477.109375 109.632812 L 477.109375 108.859375 L 475.585938 108.859375 C 475.1875 108.859375 474.890625 108.796875 474.496094 108.65625 L 474.058594 108.5 C 473.523438 108.300781 472.988281 108.203125 472.476562 108.203125 C 470.632812 108.203125 469.167969 109.632812 469.167969 111.4375 C 469.167969 112.683594 469.703125 113.4375 471.007812 114.089844 C 470.632812 114.449219 470.277344 114.785156 470.15625 114.882812 C 469.503906 115.457031 469.246094 115.855469 469.246094 116.25 C 469.246094 116.667969 469.484375 116.90625 470.296875 117.300781 C 468.890625 118.332031 468.355469 118.988281 468.355469 119.71875 C 468.355469 120.769531 469.898438 121.640625 471.78125 121.640625 C 473.265625 121.640625 474.8125 121.128906 475.84375 120.292969 C 476.59375 119.679688 476.933594 119.046875 476.933594 118.292969 C 476.933594 117.0625 476 116.230469 474.535156 116.171875 L 471.980469 116.054688 C 470.929688 116.015625 470.433594 115.835938 470.433594 115.519531 C 470.433594 115.121094 471.085938 114.429688 471.621094 114.269531 C 471.800781 114.289062 471.941406 114.308594 472 114.308594 C 472.375 114.347656 472.632812 114.367188 472.753906 114.367188 C 473.484375 114.367188 474.277344 114.070312 474.890625 113.535156 C 475.546875 112.980469 475.84375 112.289062 475.84375 111.296875 C 475.84375 110.722656 475.742188 110.265625 475.464844 109.632812 L 477.109375 109.632812 M 470.710938 117.363281 C 471.367188 117.5 472.949219 117.617188 473.921875 117.617188 C 475.722656 117.617188 476.378906 117.875 476.378906 118.589844 C 476.378906 119.738281 474.871094 120.511719 472.632812 120.511719 C 470.890625 120.511719 469.742188 119.9375 469.742188 119.066406 C 469.742188 118.609375 469.878906 118.351562 470.710938 117.363281 M 470.8125 110.625 C 470.8125 109.453125 471.367188 108.757812 472.277344 108.757812 C 472.890625 108.757812 473.40625 109.097656 473.722656 109.691406 C 474.078125 110.386719 474.316406 111.296875 474.316406 112.070312 C 474.316406 113.179688 473.742188 113.871094 472.832031 113.871094 C 471.644531 113.871094 470.8125 112.585938 470.8125 110.683594 Z M 470.8125 110.625 "/>
<path fill-rule="nonzero" fill="rgb(0%, 0%, 0%)" fill-opacity="1" d="M 480.75 110.519531 C 481.582031 109.609375 482.175781 109.273438 482.949219 109.273438 C 483.9375 109.273438 484.433594 109.984375 484.433594 111.371094 L 484.433594 115.296875 C 484.433594 116.644531 484.234375 116.902344 483.085938 117.019531 L 483.085938 117.320312 L 487.289062 117.320312 L 487.289062 117.019531 C 486.21875 116.824219 486.097656 116.664062 486.097656 115.296875 L 486.097656 111.351562 C 486.097656 109.273438 485.265625 108.203125 483.660156 108.203125 C 482.492188 108.203125 481.660156 108.675781 480.75 109.867188 L 480.75 103.839844 L 480.652344 103.78125 C 479.976562 104.019531 479.480469 104.179688 478.371094 104.496094 L 477.835938 104.652344 L 477.835938 104.96875 C 477.917969 104.949219 477.976562 104.949219 478.074219 104.949219 C 478.925781 104.949219 479.085938 105.109375 479.085938 105.960938 L 479.085938 115.296875 C 479.085938 116.683594 478.964844 116.863281 477.816406 117.019531 L 477.816406 117.320312 L 482.097656 117.320312 L 482.097656 117.019531 C 480.949219 116.902344 480.75 116.664062 480.75 115.296875 Z M 480.75 110.519531 "/>
<path fill-rule="nonzero" fill="rgb(0%, 0%, 0%)" fill-opacity="1" d="M 492.53125 108.394531 L 490.53125 108.394531 L 490.53125 106.09375 C 490.53125 105.898438 490.511719 105.839844 490.390625 105.839844 C 490.253906 106.015625 490.132812 106.195312 489.996094 106.394531 C 489.242188 107.484375 488.390625 108.433594 488.074219 108.515625 C 487.855469 108.652344 487.738281 108.792969 487.738281 108.890625 C 487.738281 108.949219 487.757812 108.988281 487.816406 109.03125 L 488.867188 109.03125 L 488.867188 114.996094 C 488.867188 116.660156 489.460938 117.511719 490.628906 117.511719 C 491.601562 117.511719 492.351562 117.035156 493.007812 116.003906 L 492.75 115.789062 C 492.332031 116.28125 491.996094 116.480469 491.558594 116.480469 C 490.828125 116.480469 490.53125 115.945312 490.53125 114.699219 L 490.53125 109.03125 L 492.53125 109.03125 Z M 492.53125 108.394531 "/>
<path fill-rule="nonzero" fill="rgb(0%, 0%, 0%)" fill-opacity="1" d="M 503.882812 103.917969 C 502.417969 104.871094 501.824219 105.386719 501.089844 106.296875 C 499.683594 108.023438 498.988281 110.003906 498.988281 112.324219 C 498.988281 114.839844 499.722656 116.785156 501.464844 118.804688 C 502.277344 119.757812 502.792969 120.191406 503.824219 120.828125 L 504.0625 120.511719 C 502.476562 119.261719 501.921875 118.566406 501.386719 117.082031 C 500.910156 115.753906 500.695312 114.246094 500.695312 112.265625 C 500.695312 110.183594 500.953125 108.558594 501.488281 107.328125 C 502.042969 106.097656 502.636719 105.386719 504.0625 104.238281 Z M 503.882812 103.917969 "/>
<path fill-rule="nonzero" fill="rgb(0%, 0%, 0%)" fill-opacity="1" d="M 512.644531 114.222656 C 511.691406 115.609375 510.980469 116.085938 509.851562 116.085938 C 508.046875 116.085938 506.78125 114.5 506.78125 112.222656 C 506.78125 110.183594 507.871094 108.777344 509.472656 108.777344 C 510.1875 108.777344 510.445312 108.992188 510.644531 109.726562 L 510.761719 110.164062 C 510.921875 110.71875 511.277344 111.074219 511.691406 111.074219 C 512.207031 111.074219 512.644531 110.699219 512.644531 110.242188 C 512.644531 109.132812 511.257812 108.203125 509.59375 108.203125 C 508.621094 108.203125 507.613281 108.597656 506.800781 109.3125 C 505.808594 110.183594 505.253906 111.53125 505.253906 113.09375 C 505.253906 115.667969 506.820312 117.511719 509.019531 117.511719 C 509.910156 117.511719 510.703125 117.195312 511.414062 116.582031 C 511.949219 116.105469 512.328125 115.570312 512.921875 114.402344 Z M 512.644531 114.222656 "/>
<path fill-rule="nonzero" fill="rgb(0%, 0%, 0%)" fill-opacity="1" d="M 514.015625 109.429688 C 514.273438 109.371094 514.433594 109.351562 514.648438 109.351562 C 515.164062 109.351562 515.34375 109.667969 515.34375 110.621094 L 515.34375 115.632812 C 515.34375 116.703125 515.066406 117 513.957031 117.019531 L 513.957031 117.320312 L 518.355469 117.320312 L 518.355469 117.019531 C 517.304688 116.980469 517.007812 116.765625 517.007812 115.992188 L 517.007812 110.402344 C 517.007812 110.363281 517.164062 110.164062 517.304688 110.023438 C 517.800781 109.570312 518.652344 109.230469 519.34375 109.230469 C 520.214844 109.230469 520.652344 109.925781 520.652344 111.3125 L 520.652344 115.613281 C 520.652344 116.722656 520.433594 116.941406 519.304688 117.019531 L 519.304688 117.320312 L 523.742188 117.320312 L 523.742188 117.019531 C 522.613281 117 522.316406 116.664062 522.316406 115.4375 L 522.316406 110.441406 C 522.910156 109.589844 523.5625 109.230469 524.476562 109.230469 C 525.605469 109.230469 525.960938 109.765625 525.960938 111.414062 L 525.960938 115.59375 C 525.960938 116.722656 525.804688 116.882812 524.652344 117.019531 L 524.652344 117.320312 L 528.992188 117.320312 L 528.992188 117.019531 L 528.476562 116.980469 C 527.882812 116.941406 527.625 116.585938 527.625 115.8125 L 527.625 111.730469 C 527.625 109.390625 526.851562 108.203125 525.328125 108.203125 C 524.179688 108.203125 523.167969 108.714844 522.097656 109.867188 C 521.742188 108.738281 521.070312 108.203125 520 108.203125 C 519.125 108.203125 518.570312 108.480469 516.929688 109.726562 L 516.929688 108.242188 L 516.789062 108.203125 C 515.777344 108.578125 515.105469 108.796875 514.015625 109.09375 Z M 514.015625 109.429688 "/>
<path fill-rule="nonzero" fill="rgb(0%, 0%, 0%)" fill-opacity="1" d="M 529.511719 120.828125 C 530.976562 119.875 531.574219 119.359375 532.304688 118.449219 C 533.710938 116.722656 534.40625 114.742188 534.40625 112.421875 C 534.40625 109.886719 533.671875 107.960938 531.929688 105.941406 C 531.117188 104.988281 530.601562 104.554688 529.570312 103.917969 L 529.332031 104.238281 C 530.917969 105.484375 531.453125 106.179688 532.007812 107.664062 C 532.484375 108.992188 532.703125 110.5 532.703125 112.480469 C 532.703125 114.542969 532.445312 116.1875 531.910156 117.398438 C 531.355469 118.648438 530.761719 119.359375 529.332031 120.511719 Z M 529.511719 120.828125 "/>
<path fill-rule="nonzero" fill="rgb(0%, 0%, 0%)" fill-opacity="1" d="M 38.921875 121.4375 L 35.359375 123.242188 L 35.359375 123.519531 C 35.59375 123.421875 35.8125 123.34375 35.890625 123.300781 C 36.25 123.164062 36.585938 123.085938 36.785156 123.085938 C 37.199219 123.085938 37.378906 123.382812 37.378906 124.015625 L 37.378906 132.996094 C 37.378906 133.648438 37.21875 134.105469 36.902344 134.285156 C 36.605469 134.460938 36.328125 134.519531 35.496094 134.542969 L 35.496094 134.839844 L 40.964844 134.839844 L 40.964844 134.542969 C 39.398438 134.519531 39.082031 134.324219 39.082031 133.371094 L 39.082031 121.480469 Z M 38.921875 121.4375 "/>
<path fill-rule="nonzero" fill="rgb(0%, 0%, 0%)" fill-opacity="1" d="M 46.824219 123.28125 L 50.707031 123.28125 C 51.023438 123.28125 51.101562 123.242188 51.164062 123.101562 L 51.914062 121.335938 L 51.738281 121.199219 C 51.441406 121.617188 51.242188 121.714844 50.824219 121.714844 L 46.6875 121.714844 L 44.527344 126.414062 C 44.507812 126.453125 44.507812 126.472656 44.507812 126.511719 C 44.507812 126.609375 44.585938 126.671875 44.746094 126.671875 C 45.378906 126.671875 46.171875 126.808594 46.984375 127.066406 C 49.261719 127.800781 50.3125 129.027344 50.3125 130.992188 C 50.3125 132.894531 49.101562 134.378906 47.558594 134.378906 C 47.160156 134.378906 46.824219 134.242188 46.230469 133.804688 C 45.597656 133.351562 45.140625 133.152344 44.726562 133.152344 C 44.148438 133.152344 43.871094 133.390625 43.871094 133.886719 C 43.871094 134.636719 44.804688 135.113281 46.289062 135.113281 C 47.953125 135.113281 49.378906 134.578125 50.371094 133.566406 C 51.28125 132.675781 51.699219 131.546875 51.699219 130.039062 C 51.699219 128.613281 51.320312 127.699219 50.332031 126.710938 C 49.460938 125.835938 48.328125 125.382812 45.992188 124.964844 Z M 46.824219 123.28125 "/>
<path fill-rule="nonzero" fill="rgb(0%, 0%, 0%)" fill-opacity="1" d="M 56.90625 123.28125 L 60.789062 123.28125 C 61.105469 123.28125 61.183594 123.242188 61.242188 123.101562 L 61.996094 121.335938 L 61.816406 121.199219 C 61.519531 121.617188 61.320312 121.714844 60.90625 121.714844 L 56.765625 121.714844 L 54.605469 126.414062 C 54.585938 126.453125 54.585938 126.472656 54.585938 126.511719 C 54.585938 126.609375 54.664062 126.671875 54.824219 126.671875 C 55.457031 126.671875 56.25 126.808594 57.0625 127.066406 C 59.339844 127.800781 60.390625 129.027344 60.390625 130.992188 C 60.390625 132.894531 59.183594 134.378906 57.636719 134.378906 C 57.242188 134.378906 56.90625 134.242188 56.308594 133.804688 C 55.675781 133.351562 55.21875 133.152344 54.804688 133.152344 C 54.230469 133.152344 53.953125 133.390625 53.953125 133.886719 C 53.953125 134.636719 54.882812 135.113281 56.371094 135.113281 C 58.035156 135.113281 59.460938 134.578125 60.449219 133.566406 C 61.363281 132.675781 61.777344 131.546875 61.777344 130.039062 C 61.777344 128.613281 61.402344 127.699219 60.410156 126.710938 C 59.539062 125.835938 58.410156 125.382812 56.074219 124.964844 Z M 56.90625 123.28125 "/>
<path fill-rule="nonzero" fill="rgb(0%, 0%, 0%)" fill-opacity="1" d="M 97.484375 121.4375 L 93.917969 123.242188 L 93.917969 123.519531 C 94.15625 123.421875 94.375 123.34375 94.453125 123.300781 C 94.808594 123.164062 95.148438 123.085938 95.34375 123.085938 C 95.761719 123.085938 95.9375 123.382812 95.9375 124.015625 L 95.9375 132.996094 C 95.9375 133.648438 95.78125 134.105469 95.464844 134.285156 C 95.167969 134.460938 94.890625 134.519531 94.058594 134.542969 L 94.058594 134.839844 L 99.523438 134.839844 L 99.523438 134.542969 C 97.960938 134.519531 97.644531 134.324219 97.644531 133.371094 L 97.644531 121.480469 Z M 97.484375 121.4375 "/>
<path fill-rule="nonzero" fill="rgb(0%, 0%, 0%)" fill-opacity="1" d="M 110.636719 121.265625 C 108.375 121.464844 107.226562 121.839844 105.78125 122.851562 C 103.640625 124.378906 102.472656 126.636719 102.472656 129.296875 C 102.472656 131.023438 103.007812 132.769531 103.859375 133.761719 C 104.613281 134.632812 105.683594 135.109375 106.910156 135.109375 C 109.367188 135.109375 111.070312 133.226562 111.070312 130.488281 C 111.070312 127.945312 109.625 126.339844 107.347656 126.339844 C 106.476562 126.339844 106.058594 126.480469 104.8125 127.234375 C 105.34375 124.238281 107.566406 122.097656 110.675781 121.582031 L 110.636719 121.265625 M 106.59375 127.253906 C 108.296875 127.253906 109.289062 128.679688 109.289062 131.160156 C 109.289062 133.34375 108.515625 134.554688 107.128906 134.554688 C 105.386719 134.554688 104.316406 132.6875 104.316406 129.613281 C 104.316406 128.601562 104.472656 128.046875 104.871094 127.75 C 105.285156 127.429688 105.898438 127.253906 106.59375 127.253906 Z M 106.59375 127.253906 "/>
<path fill-rule="nonzero" fill="rgb(0%, 0%, 0%)" fill-opacity="1" d="M 116.910156 121.441406 C 115.820312 121.441406 114.988281 121.78125 114.257812 122.472656 C 113.109375 123.582031 112.355469 125.859375 112.355469 128.175781 C 112.355469 130.335938 113.007812 132.652344 113.941406 133.761719 C 114.671875 134.632812 115.683594 135.109375 116.832031 135.109375 C 117.84375 135.109375 118.695312 134.773438 119.40625 134.078125 C 120.554688 132.988281 121.308594 130.691406 121.308594 128.296875 C 121.308594 124.238281 119.507812 121.441406 116.910156 121.441406 M 116.851562 121.957031 C 118.515625 121.957031 119.40625 124.195312 119.40625 128.335938 C 119.40625 132.476562 118.535156 134.59375 116.832031 134.59375 C 115.128906 134.59375 114.257812 132.476562 114.257812 128.355469 C 114.257812 124.15625 115.148438 121.957031 116.851562 121.957031 Z M 116.851562 121.957031 "/>
<path fill-rule="nonzero" fill="rgb(0%, 0%, 0%)" fill-opacity="1" d="M 155.085938 121.4375 L 151.519531 123.242188 L 151.519531 123.519531 C 151.757812 123.421875 151.972656 123.34375 152.054688 123.300781 C 152.410156 123.164062 152.746094 123.085938 152.945312 123.085938 C 153.359375 123.085938 153.539062 123.382812 153.539062 124.015625 L 153.539062 132.996094 C 153.539062 133.648438 153.378906 134.105469 153.0625 134.285156 C 152.765625 134.460938 152.488281 134.519531 151.65625 134.542969 L 151.65625 134.839844 L 157.125 134.839844 L 157.125 134.542969 C 155.558594 134.519531 155.242188 134.324219 155.242188 133.371094 L 155.242188 121.480469 Z M 155.085938 121.4375 "/>
<path fill-rule="nonzero" fill="rgb(0%, 0%, 0%)" fill-opacity="1" d="M 168.234375 121.265625 C 165.976562 121.464844 164.828125 121.839844 163.382812 122.851562 C 161.242188 124.378906 160.074219 126.636719 160.074219 129.296875 C 160.074219 131.023438 160.609375 132.769531 161.460938 133.761719 C 162.210938 134.632812 163.28125 135.109375 164.511719 135.109375 C 166.96875 135.109375 168.671875 133.226562 168.671875 130.488281 C 168.671875 127.945312 167.226562 126.339844 164.945312 126.339844 C 164.074219 126.339844 163.660156 126.480469 162.410156 127.234375 C 162.945312 124.238281 165.164062 122.097656 168.273438 121.582031 L 168.234375 121.265625 M 164.195312 127.253906 C 165.898438 127.253906 166.886719 128.679688 166.886719 131.160156 C 166.886719 133.34375 166.117188 134.554688 164.730469 134.554688 C 162.984375 134.554688 161.914062 132.6875 161.914062 129.613281 C 161.914062 128.601562 162.074219 128.046875 162.46875 127.75 C 162.886719 127.429688 163.5 127.253906 164.195312 127.253906 Z M 164.195312 127.253906 "/>
<path fill-rule="nonzero" fill="rgb(0%, 0%, 0%)" fill-opacity="1" d="M 173.066406 123.28125 L 176.949219 123.28125 C 177.265625 123.28125 177.34375 123.242188 177.402344 123.101562 L 178.15625 121.335938 L 177.976562 121.199219 C 177.679688 121.617188 177.484375 121.714844 177.066406 121.714844 L 172.925781 121.714844 L 170.765625 126.414062 C 170.746094 126.453125 170.746094 126.472656 170.746094 126.511719 C 170.746094 126.609375 170.828125 126.671875 170.984375 126.671875 C 171.617188 126.671875 172.410156 126.808594 173.222656 127.066406 C 175.5 127.800781 176.550781 129.027344 176.550781 130.992188 C 176.550781 132.894531 175.34375 134.378906 173.796875 134.378906 C 173.402344 134.378906 173.066406 134.242188 172.472656 133.804688 C 171.835938 133.351562 171.382812 133.152344 170.964844 133.152344 C 170.390625 133.152344 170.113281 133.390625 170.113281 133.886719 C 170.113281 134.636719 171.042969 135.113281 172.53125 135.113281 C 174.195312 135.113281 175.621094 134.578125 176.613281 133.566406 C 177.523438 132.675781 177.9375 131.546875 177.9375 130.039062 C 177.9375 128.613281 177.5625 127.699219 176.570312 126.710938 C 175.699219 125.835938 174.570312 125.382812 172.234375 124.964844 Z M 173.066406 123.28125 "/>
<path fill-rule="nonzero" fill="rgb(0%, 0%, 0%)" fill-opacity="1" d="M 211.726562 121.4375 L 208.160156 123.242188 L 208.160156 123.519531 C 208.394531 123.421875 208.613281 123.34375 208.691406 123.300781 C 209.050781 123.164062 209.386719 123.085938 209.585938 123.085938 C 210 123.085938 210.179688 123.382812 210.179688 124.015625 L 210.179688 132.996094 C 210.179688 133.648438 210.019531 134.105469 209.703125 134.285156 C 209.40625 134.460938 209.128906 134.519531 208.296875 134.542969 L 208.296875 134.839844 L 213.765625 134.839844 L 213.765625 134.542969 C 212.199219 134.519531 211.882812 134.324219 211.882812 133.371094 L 211.882812 121.480469 Z M 211.726562 121.4375 "/>
<path fill-rule="nonzero" fill="rgb(0%, 0%, 0%)" fill-opacity="1" d="M 224.933594 121.714844 L 217.605469 121.714844 L 216.4375 124.628906 L 216.773438 124.785156 C 217.625 123.4375 217.980469 123.179688 219.070312 123.179688 L 223.371094 123.179688 L 219.445312 134.992188 L 220.734375 134.992188 L 224.933594 122.03125 Z M 224.933594 121.714844 "/>
<path fill-rule="nonzero" fill="rgb(0%, 0%, 0%)" fill-opacity="1" d="M 231.152344 121.441406 C 230.0625 121.441406 229.230469 121.78125 228.496094 122.472656 C 227.347656 123.582031 226.59375 125.859375 226.59375 128.175781 C 226.59375 130.335938 227.25 132.652344 228.179688 133.761719 C 228.914062 134.632812 229.921875 135.109375 231.074219 135.109375 C 232.082031 135.109375 232.933594 134.773438 233.648438 134.078125 C 234.796875 132.988281 235.550781 130.691406 235.550781 128.296875 C 235.550781 124.238281 233.746094 121.441406 231.152344 121.441406 M 231.09375 121.957031 C 232.757812 121.957031 233.648438 124.195312 233.648438 128.335938 C 233.648438 132.476562 232.777344 134.59375 231.074219 134.59375 C 229.367188 134.59375 228.496094 132.476562 228.496094 128.355469 C 228.496094 124.15625 229.386719 121.957031 231.09375 121.957031 Z M 231.09375 121.957031 "/>
<path fill-rule="nonzero" fill="rgb(0%, 0%, 0%)" fill-opacity="1" d="M 268.84375 121.4375 L 265.277344 123.242188 L 265.277344 123.519531 C 265.515625 123.421875 265.734375 123.34375 265.8125 123.300781 C 266.171875 123.164062 266.507812 123.085938 266.703125 123.085938 C 267.121094 123.085938 267.300781 123.382812 267.300781 124.015625 L 267.300781 132.996094 C 267.300781 133.648438 267.140625 134.105469 266.824219 134.285156 C 266.527344 134.460938 266.25 134.519531 265.417969 134.542969 L 265.417969 134.839844 L 270.886719 134.839844 L 270.886719 134.542969 C 269.320312 134.519531 269.003906 134.324219 269.003906 133.371094 L 269.003906 121.480469 Z M 268.84375 121.4375 "/>
<path fill-rule="nonzero" fill="rgb(0%, 0%, 0%)" fill-opacity="1" d="M 282.054688 121.714844 L 274.726562 121.714844 L 273.554688 124.628906 L 273.890625 124.785156 C 274.746094 123.4375 275.101562 123.179688 276.191406 123.179688 L 280.488281 123.179688 L 276.566406 134.992188 L 277.855469 134.992188 L 282.054688 122.03125 Z M 282.054688 121.714844 "/>
<path fill-rule="nonzero" fill="rgb(0%, 0%, 0%)" fill-opacity="1" d="M 286.824219 123.28125 L 290.707031 123.28125 C 291.023438 123.28125 291.105469 123.242188 291.164062 123.101562 L 291.917969 121.335938 L 291.738281 121.199219 C 291.441406 121.617188 291.242188 121.714844 290.828125 121.714844 L 286.6875 121.714844 L 284.527344 126.414062 C 284.507812 126.453125 284.507812 126.472656 284.507812 126.511719 C 284.507812 126.609375 284.585938 126.671875 284.746094 126.671875 C 285.378906 126.671875 286.171875 126.808594 286.984375 127.066406 C 289.261719 127.800781 290.3125 129.027344 290.3125 130.992188 C 290.3125 132.894531 289.101562 134.378906 287.558594 134.378906 C 287.164062 134.378906 286.824219 134.242188 286.230469 133.804688 C 285.597656 133.351562 285.140625 133.152344 284.726562 133.152344 C 284.152344 133.152344 283.875 133.390625 283.875 133.886719 C 283.875 134.636719 284.804688 135.113281 286.289062 135.113281 C 287.953125 135.113281 289.382812 134.578125 290.371094 133.566406 C 291.28125 132.675781 291.699219 131.546875 291.699219 130.039062 C 291.699219 128.613281 291.320312 127.699219 290.332031 126.710938 C 289.460938 125.835938 288.332031 125.382812 285.992188 124.964844 Z M 286.824219 123.28125 "/>
<path fill-rule="nonzero" fill="rgb(0%, 0%, 0%)" fill-opacity="1" d="M 327.882812 121.4375 L 324.320312 123.242188 L 324.320312 123.519531 C 324.554688 123.421875 324.773438 123.34375 324.851562 123.300781 C 325.210938 123.164062 325.546875 123.085938 325.746094 123.085938 C 326.160156 123.085938 326.339844 123.382812 326.339844 124.015625 L 326.339844 132.996094 C 326.339844 133.648438 326.179688 134.105469 325.863281 134.285156 C 325.566406 134.460938 325.289062 134.519531 324.457031 134.542969 L 324.457031 134.839844 L 329.925781 134.839844 L 329.925781 134.542969 C 328.359375 134.519531 328.042969 134.324219 328.042969 133.371094 L 328.042969 121.480469 Z M 327.882812 121.4375 "/>
<path fill-rule="nonzero" fill="rgb(0%, 0%, 0%)" fill-opacity="1" d="M 337.945312 127.484375 C 339.90625 126.433594 340.597656 125.601562 340.597656 124.257812 C 340.597656 122.632812 339.171875 121.441406 337.191406 121.441406 C 335.03125 121.441406 333.429688 122.769531 333.429688 124.574219 C 333.429688 125.859375 333.804688 126.433594 335.882812 128.257812 C 333.746094 129.878906 333.308594 130.496094 333.308594 131.839844 C 333.308594 133.761719 334.875 135.109375 337.113281 135.109375 C 339.488281 135.109375 341.015625 133.800781 341.015625 131.761719 C 341.015625 130.238281 340.339844 129.265625 337.945312 127.484375 M 337.589844 129.523438 C 339.035156 130.554688 339.507812 131.265625 339.507812 132.375 C 339.507812 133.664062 338.617188 134.554688 337.332031 134.554688 C 335.824219 134.554688 334.816406 133.40625 334.816406 131.683594 C 334.816406 130.414062 335.25 129.582031 336.398438 128.652344 L 337.589844 129.523438 M 337.371094 127.128906 C 335.605469 125.980469 334.894531 125.066406 334.894531 123.960938 C 334.894531 122.808594 335.785156 122 337.035156 122 C 338.378906 122 339.230469 122.871094 339.230469 124.238281 C 339.230469 125.363281 338.675781 126.257812 337.546875 127.007812 C 337.449219 127.066406 337.449219 127.066406 337.371094 127.128906 Z M 337.371094 127.128906 "/>
<path fill-rule="nonzero" fill="rgb(0%, 0%, 0%)" fill-opacity="1" d="M 347.3125 121.441406 C 346.222656 121.441406 345.390625 121.78125 344.65625 122.472656 C 343.507812 123.582031 342.753906 125.859375 342.753906 128.175781 C 342.753906 130.335938 343.410156 132.652344 344.339844 133.761719 C 345.074219 134.632812 346.082031 135.109375 347.230469 135.109375 C 348.242188 135.109375 349.09375 134.773438 349.808594 134.078125 C 350.957031 132.988281 351.710938 130.691406 351.710938 128.296875 C 351.710938 124.238281 349.90625 121.441406 347.3125 121.441406 M 347.253906 121.957031 C 348.917969 121.957031 349.808594 124.195312 349.808594 128.335938 C 349.808594 132.476562 348.9375 134.59375 347.230469 134.59375 C 345.527344 134.59375 344.65625 132.476562 344.65625 128.355469 C 344.65625 124.15625 345.546875 121.957031 347.253906 121.957031 Z M 347.253906 121.957031 "/>
<path fill-rule="nonzero" fill="rgb(0%, 0%, 0%)" fill-opacity="1" d="M 385.246094 121.4375 L 381.679688 123.242188 L 381.679688 123.519531 C 381.917969 123.421875 382.132812 123.34375 382.214844 123.300781 C 382.570312 123.164062 382.90625 123.085938 383.105469 123.085938 C 383.519531 123.085938 383.699219 123.382812 383.699219 124.015625 L 383.699219 132.996094 C 383.699219 133.648438 383.539062 134.105469 383.222656 134.285156 C 382.925781 134.460938 382.648438 134.519531 381.816406 134.542969 L 381.816406 134.839844 L 387.285156 134.839844 L 387.285156 134.542969 C 385.71875 134.519531 385.402344 134.324219 385.402344 133.371094 L 385.402344 121.480469 Z M 385.246094 121.4375 "/>
<path fill-rule="nonzero" fill="rgb(0%, 0%, 0%)" fill-opacity="1" d="M 395.304688 127.484375 C 397.265625 126.433594 397.960938 125.601562 397.960938 124.257812 C 397.960938 122.632812 396.53125 121.441406 394.550781 121.441406 C 392.390625 121.441406 390.789062 122.769531 390.789062 124.574219 C 390.789062 125.859375 391.164062 126.433594 393.246094 128.257812 C 391.105469 129.878906 390.667969 130.496094 390.667969 131.839844 C 390.667969 133.761719 392.234375 135.109375 394.472656 135.109375 C 396.851562 135.109375 398.375 133.800781 398.375 131.761719 C 398.375 130.238281 397.703125 129.265625 395.304688 127.484375 M 394.949219 129.523438 C 396.394531 130.554688 396.871094 131.265625 396.871094 132.375 C 396.871094 133.664062 395.976562 134.554688 394.691406 134.554688 C 393.183594 134.554688 392.175781 133.40625 392.175781 131.683594 C 392.175781 130.414062 392.609375 129.582031 393.757812 128.652344 L 394.949219 129.523438 M 394.730469 127.128906 C 392.96875 125.980469 392.253906 125.066406 392.253906 123.960938 C 392.253906 122.808594 393.144531 122 394.394531 122 C 395.742188 122 396.59375 122.871094 396.59375 124.238281 C 396.59375 125.363281 396.039062 126.257812 394.910156 127.007812 C 394.808594 127.066406 394.808594 127.066406 394.730469 127.128906 Z M 394.730469 127.128906 "/>
<path fill-rule="nonzero" fill="rgb(0%, 0%, 0%)" fill-opacity="1" d="M 403.226562 123.28125 L 407.109375 123.28125 C 407.425781 123.28125 407.503906 123.242188 407.5625 123.101562 L 408.316406 121.335938 L 408.136719 121.199219 C 407.839844 121.617188 407.644531 121.714844 407.226562 121.714844 L 403.085938 121.714844 L 400.925781 126.414062 C 400.90625 126.453125 400.90625 126.472656 400.90625 126.511719 C 400.90625 126.609375 400.988281 126.671875 401.144531 126.671875 C 401.777344 126.671875 402.570312 126.808594 403.382812 127.066406 C 405.660156 127.800781 406.710938 129.027344 406.710938 130.992188 C 406.710938 132.894531 405.503906 134.378906 403.957031 134.378906 C 403.5625 134.378906 403.226562 134.242188 402.632812 133.804688 C 401.996094 133.351562 401.542969 133.152344 401.125 133.152344 C 400.550781 133.152344 400.273438 133.390625 400.273438 133.886719 C 400.273438 134.636719 401.203125 135.113281 402.691406 135.113281 C 404.355469 135.113281 405.78125 134.578125 406.773438 133.566406 C 407.683594 132.675781 408.097656 131.546875 408.097656 130.039062 C 408.097656 128.613281 407.722656 127.699219 406.730469 126.710938 C 405.859375 125.835938 404.730469 125.382812 402.394531 124.964844 Z M 403.226562 123.28125 "/>
<path fill="none" stroke-width="19" stroke-linecap="round" stroke-linejoin="miter" stroke="rgb(0%, 0%, 0%)" stroke-opacity="1" stroke-miterlimit="10" d="M 1587.996773 4191.673372 L 2307.007205 4191.673372 L 2307.007205 4320.677282 L 1587.996773 4320.677282 Z M 1587.996773 4191.673372 " transform="matrix(0.24, 0, 0, -0.24, -216.919998, 1085.400024)"/>
<path fill="none" stroke-width="19" stroke-linecap="butt" stroke-linejoin="round" stroke="rgb(0%, 0%, 0%)" stroke-opacity="1" stroke-miterlimit="4" d="M 1105.005225 4259.674676 L 1585.994819 4259.674676 " transform="matrix(0.24, 0, 0, -0.24, -216.919998, 1085.400024)"/>
<path fill="none" stroke-width="19" stroke-linecap="butt" stroke-linejoin="round" stroke="rgb(0%, 0%, 0%)" stroke-opacity="1" stroke-miterlimit="4" d="M 2303.996138 4258.665561 L 2542.993539 4259.674676 " transform="matrix(0.24, 0, 0, -0.24, -216.919998, 1085.400024)"/>
<path fill="none" stroke-width="19" stroke-linecap="butt" stroke-linejoin="round" stroke="rgb(0%, 0%, 0%)" stroke-opacity="1" stroke-miterlimit="4" d="M 2064.998736 4320.677282 L 2064.998736 4191.673372 " transform="matrix(0.24, 0, 0, -0.24, -216.919998, 1085.400024)"/>
<path fill="none" stroke-width="6" stroke-linecap="round" stroke-linejoin="round" stroke="rgb(0%, 0%, 0%)" stroke-opacity="1" stroke-miterlimit="4" d="M 964.998712 4062.669463 L 2698.999402 4062.669463 " transform="matrix(0.24, 0, 0, -0.24, -216.919998, 1085.400024)"/>
<path fill="none" stroke-width="6" stroke-linecap="round" stroke-linejoin="round" stroke="rgb(0%, 0%, 0%)" stroke-opacity="1" stroke-dasharray="24 18" stroke-miterlimit="4" d="M 1707.007192 4449.664915 L 1707.007192 4062.669463 " transform="matrix(0.24, 0, 0, -0.24, -216.919998, 1085.400024)"/>
<path fill="none" stroke-width="6" stroke-linecap="round" stroke-linejoin="round" stroke="rgb(0%, 0%, 0%)" stroke-opacity="1" stroke-dasharray="24 18" stroke-miterlimit="4" d="M 1585.994819 4449.664915 L 1585.994819 4062.669463 " transform="matrix(0.24, 0, 0, -0.24, -216.919998, 1085.400024)"/>
<path fill="none" stroke-width="6" stroke-linecap="round" stroke-linejoin="round" stroke="rgb(0%, 0%, 0%)" stroke-opacity="1" stroke-dasharray="24 18" stroke-miterlimit="4" d="M 1467.000676 4449.664915 L 1467.000676 4062.669463 " transform="matrix(0.24, 0, 0, -0.24, -216.919998, 1085.400024)"/>
<path fill="none" stroke-width="6" stroke-linecap="round" stroke-linejoin="round" stroke="rgb(0%, 0%, 0%)" stroke-opacity="1" stroke-dasharray="24 18" stroke-miterlimit="4" d="M 1107.007179 4449.664915 L 1107.007179 4062.669463 " transform="matrix(0.24, 0, 0, -0.24, -216.919998, 1085.400024)"/>
<path fill="none" stroke-width="6" stroke-linecap="round" stroke-linejoin="round" stroke="rgb(0%, 0%, 0%)" stroke-opacity="1" stroke-dasharray="24 18" stroke-miterlimit="4" d="M 1226.99416 4449.664915 L 1226.99416 4062.669463 " transform="matrix(0.24, 0, 0, -0.24, -216.919998, 1085.400024)"/>
<path fill="none" stroke-width="6" stroke-linecap="round" stroke-linejoin="round" stroke="rgb(0%, 0%, 0%)" stroke-opacity="1" stroke-dasharray="24 18" stroke-miterlimit="4" d="M 1346.997418 4449.664915 L 1346.997418 4062.669463 " transform="matrix(0.24, 0, 0, -0.24, -216.919998, 1085.400024)"/>
<path fill="none" stroke-width="6" stroke-linecap="round" stroke-linejoin="round" stroke="rgb(0%, 0%, 0%)" stroke-opacity="1" stroke-dasharray="24 18" stroke-miterlimit="4" d="M 1826.994174 4449.664915 L 1826.994174 4062.669463 " transform="matrix(0.24, 0, 0, -0.24, -216.919998, 1085.400024)"/>
<path fill="none" stroke-width="6" stroke-linecap="round" stroke-linejoin="round" stroke="rgb(0%, 0%, 0%)" stroke-opacity="1" stroke-dasharray="24 18" stroke-miterlimit="4" d="M 1946.997432 4449.664915 L 1946.997432 4062.669463 " transform="matrix(0.24, 0, 0, -0.24, -216.919998, 1085.400024)"/>
<path fill="none" stroke-width="6" stroke-linecap="round" stroke-linejoin="round" stroke="rgb(0%, 0%, 0%)" stroke-opacity="1" stroke-dasharray="24 18" stroke-miterlimit="4" d="M 2067.00069 4449.664915 L 2067.00069 4062.669463 " transform="matrix(0.24, 0, 0, -0.24, -216.919998, 1085.400024)"/>
<path fill="none" stroke-width="6" stroke-linecap="round" stroke-linejoin="round" stroke="rgb(0%, 0%, 0%)" stroke-opacity="1" stroke-dasharray="24 18" stroke-miterlimit="4" d="M 2187.003948 4449.664915 L 2187.003948 4062.669463 " transform="matrix(0.24, 0, 0, -0.24, -216.919998, 1085.400024)"/>
<path fill="none" stroke-width="6" stroke-linecap="round" stroke-linejoin="round" stroke="rgb(0%, 0%, 0%)" stroke-opacity="1" stroke-dasharray="24 18" stroke-miterlimit="4" d="M 2307.007205 4449.664915 L 2307.007205 4062.669463 " transform="matrix(0.24, 0, 0, -0.24, -216.919998, 1085.400024)"/>
<path fill="none" stroke-width="6" stroke-linecap="round" stroke-linejoin="round" stroke="rgb(0%, 0%, 0%)" stroke-opacity="1" stroke-miterlimit="4" d="M 1107.007179 4062.669463 L 1107.007179 4062.669463 " transform="matrix(0.24, 0, 0, -0.24, -216.919998, 1085.400024)"/>
<path fill="none" stroke-width="6" stroke-linecap="round" stroke-linejoin="round" stroke="rgb(0%, 0%, 0%)" stroke-opacity="1" stroke-miterlimit="4" d="M 1107.007179 4075.674021 L 1107.007179 4049.664906 " transform="matrix(0.24, 0, 0, -0.24, -216.919998, 1085.400024)"/>
<path fill="none" stroke-width="6" stroke-linecap="round" stroke-linejoin="round" stroke="rgb(0%, 0%, 0%)" stroke-opacity="1" stroke-miterlimit="4" d="M 1226.99416 4075.674021 L 1226.99416 4050.67402 " transform="matrix(0.24, 0, 0, -0.24, -216.919998, 1085.400024)"/>
<path fill="none" stroke-width="6" stroke-linecap="round" stroke-linejoin="round" stroke="rgb(0%, 0%, 0%)" stroke-opacity="1" stroke-miterlimit="4" d="M 1346.997418 4074.664906 L 1346.997418 4048.672067 " transform="matrix(0.24, 0, 0, -0.24, -216.919998, 1085.400024)"/>
<path fill="none" stroke-width="6" stroke-linecap="round" stroke-linejoin="round" stroke="rgb(0%, 0%, 0%)" stroke-opacity="1" stroke-miterlimit="4" d="M 1467.000676 4074.664906 L 1467.000676 4048.672067 " transform="matrix(0.24, 0, 0, -0.24, -216.919998, 1085.400024)"/>
<path fill="none" stroke-width="6" stroke-linecap="round" stroke-linejoin="round" stroke="rgb(0%, 0%, 0%)" stroke-opacity="1" stroke-miterlimit="4" d="M 1587.003934 4074.664906 L 1587.003934 4048.672067 " transform="matrix(0.24, 0, 0, -0.24, -216.919998, 1085.400024)"/>
<path fill="none" stroke-width="6" stroke-linecap="round" stroke-linejoin="round" stroke="rgb(0%, 0%, 0%)" stroke-opacity="1" stroke-miterlimit="4" d="M 1707.007192 4074.664906 L 1707.007192 4049.664906 " transform="matrix(0.24, 0, 0, -0.24, -216.919998, 1085.400024)"/>
<path fill="none" stroke-width="6" stroke-linecap="round" stroke-linejoin="round" stroke="rgb(0%, 0%, 0%)" stroke-opacity="1" stroke-miterlimit="4" d="M 1826.994174 4074.664906 L 1826.994174 4049.664906 " transform="matrix(0.24, 0, 0, -0.24, -216.919998, 1085.400024)"/>
<path fill="none" stroke-width="6" stroke-linecap="round" stroke-linejoin="round" stroke="rgb(0%, 0%, 0%)" stroke-opacity="1" stroke-miterlimit="4" d="M 1946.997432 4074.664906 L 1946.997432 4049.664906 " transform="matrix(0.24, 0, 0, -0.24, -216.919998, 1085.400024)"/>
<path fill="none" stroke-width="6" stroke-linecap="round" stroke-linejoin="round" stroke="rgb(0%, 0%, 0%)" stroke-opacity="1" stroke-miterlimit="4" d="M 2067.00069 4074.664906 L 2067.00069 4049.664906 " transform="matrix(0.24, 0, 0, -0.24, -216.919998, 1085.400024)"/>
<path fill="none" stroke-width="6" stroke-linecap="round" stroke-linejoin="round" stroke="rgb(0%, 0%, 0%)" stroke-opacity="1" stroke-miterlimit="4" d="M 2187.003948 4074.664906 L 2187.003948 4048.672067 " transform="matrix(0.24, 0, 0, -0.24, -216.919998, 1085.400024)"/>
<path fill="none" stroke-width="6" stroke-linecap="round" stroke-linejoin="round" stroke="rgb(0%, 0%, 0%)" stroke-opacity="1" stroke-miterlimit="4" d="M 2307.007205 4074.664906 L 2307.007205 4048.672067 " transform="matrix(0.24, 0, 0, -0.24, -216.919998, 1085.400024)"/>
<path fill="none" stroke-width="6" stroke-linecap="round" stroke-linejoin="round" stroke="rgb(0%, 0%, 0%)" stroke-opacity="1" stroke-dasharray="24 18" stroke-miterlimit="4" d="M 2424.992234 4449.664915 L 2424.992234 4062.669463 " transform="matrix(0.24, 0, 0, -0.24, -216.919998, 1085.400024)"/>
<path fill="none" stroke-width="6" stroke-linecap="round" stroke-linejoin="round" stroke="rgb(0%, 0%, 0%)" stroke-opacity="1" stroke-miterlimit="4" d="M 2424.992234 4074.664906 L 2424.992234 4048.672067 " transform="matrix(0.24, 0, 0, -0.24, -216.919998, 1085.400024)"/>
<path fill="none" stroke-width="6" stroke-linecap="round" stroke-linejoin="round" stroke="rgb(0%, 0%, 0%)" stroke-opacity="1" stroke-dasharray="24 18" stroke-miterlimit="4" d="M 2542.993539 4449.664915 L 2542.993539 4062.669463 " transform="matrix(0.24, 0, 0, -0.24, -216.919998, 1085.400024)"/>
<path fill="none" stroke-width="6" stroke-linecap="round" stroke-linejoin="round" stroke="rgb(0%, 0%, 0%)" stroke-opacity="1" stroke-miterlimit="4" d="M 2542.993539 4074.664906 L 2542.993539 4048.672067 " transform="matrix(0.24, 0, 0, -0.24, -216.919998, 1085.400024)"/>
</svg>
