<?xml version="1.0" encoding="UTF-8"?>
<svg xmlns="http://www.w3.org/2000/svg" xmlns:xlink="http://www.w3.org/1999/xlink" width="407.700012" height="310.76001" viewBox="0 0 407.700012 310.76001">
<defs>
<clipPath id="clip-0">
<path clip-rule="nonzero" d="M 158 91 L 167.960938 91 L 167.960938 106 L 158 106 Z M 158 91 "/>
</clipPath>
<clipPath id="clip-1">
<path clip-rule="nonzero" d="M 256.28125 198 L 267 198 L 267 204 L 256.28125 204 Z M 256.28125 198 "/>
</clipPath>
</defs>
<path fill="none" stroke-width="6" stroke-linecap="round" stroke-linejoin="round" stroke="rgb(0%, 0%, 0%)" stroke-opacity="1" stroke-miterlimit="4" d="M 3403.996862 2048.66541 L 3403.004023 3170.670644 " transform="matrix(0.24, 0, 0, -0.24, -690.76001, 790)"/>
<path fill="none" stroke-width="6" stroke-linecap="round" stroke-linejoin="round" stroke="rgb(0%, 0%, 0%)" stroke-opacity="1" stroke-miterlimit="4" d="M 3435.99556 3104.671293 L 3403.996862 3170.670644 L 3371.005324 3104.671293 " transform="matrix(0.24, 0, 0, -0.24, -690.76001, 790)"/>
<path fill="none" stroke-width="6" stroke-linecap="round" stroke-linejoin="round" stroke="rgb(0%, 0%, 0%)" stroke-opacity="1" stroke-miterlimit="4" d="M 2955.005966 2974.674546 L 4230.998833 2974.674546 " transform="matrix(0.24, 0, 0, -0.24, -690.76001, 790)"/>
<path fill="none" stroke-width="6" stroke-linecap="round" stroke-linejoin="round" stroke="rgb(0%, 0%, 0%)" stroke-opacity="1" stroke-miterlimit="4" d="M 4165.992321 2941.666732 L 4232.007948 2974.674546 L 4165.992321 3006.673244 " transform="matrix(0.24, 0, 0, -0.24, -690.76001, 790)"/>
<path fill-rule="nonzero" fill="rgb(0%, 0%, 0%)" fill-opacity="1" d="M 328.828125 93.304688 C 328.671875 93.484375 328.570312 93.605469 328.390625 93.84375 C 327.933594 94.441406 327.695312 94.636719 327.476562 94.636719 C 327.179688 94.636719 327 94.378906 326.863281 93.824219 C 326.820312 93.664062 326.800781 93.542969 326.78125 93.484375 C 326.285156 91.476562 326.066406 90.558594 326.066406 90.261719 C 326.941406 88.730469 327.65625 87.855469 328.015625 87.855469 C 328.132812 87.855469 328.292969 87.914062 328.492188 88.015625 C 328.730469 88.152344 328.867188 88.191406 329.027344 88.191406 C 329.445312 88.191406 329.722656 87.894531 329.722656 87.476562 C 329.722656 87.058594 329.386719 86.742188 328.910156 86.742188 C 328.035156 86.742188 327.277344 87.457031 325.90625 89.585938 L 325.6875 88.492188 C 325.410156 87.136719 325.191406 86.742188 324.65625 86.742188 C 324.21875 86.742188 323.542969 86.917969 322.332031 87.316406 L 322.113281 87.398438 L 322.191406 87.695312 C 322.945312 87.515625 323.125 87.476562 323.304688 87.476562 C 323.800781 87.476562 323.921875 87.65625 324.199219 88.847656 L 324.773438 91.296875 L 323.144531 93.625 C 322.746094 94.222656 322.351562 94.578125 322.132812 94.578125 C 322.011719 94.578125 321.8125 94.519531 321.613281 94.398438 C 321.355469 94.261719 321.136719 94.199219 320.976562 94.199219 C 320.601562 94.199219 320.304688 94.5 320.304688 94.898438 C 320.304688 95.414062 320.699219 95.730469 321.296875 95.730469 C 321.914062 95.730469 322.152344 95.554688 323.144531 94.339844 C 323.679688 93.703125 324.097656 93.167969 324.933594 92.011719 L 325.53125 94.398438 C 325.789062 95.414062 326.046875 95.730469 326.683594 95.730469 C 327.4375 95.730469 327.953125 95.253906 329.105469 93.464844 Z M 328.828125 93.304688 "/>
<path fill-rule="nonzero" fill="rgb(0%, 0%, 0%)" fill-opacity="1" d="M 115.460938 83.953125 C 113.789062 83.953125 112 84.75 110.410156 86.199219 C 108.40625 88.046875 107.230469 90.472656 107.230469 92.796875 C 107.230469 95.582031 109.039062 97.546875 111.566406 97.546875 C 115.699219 97.546875 119.714844 93.375 119.933594 88.882812 C 120.070312 86.082031 118.125 83.953125 115.460938 83.953125 M 115.28125 84.609375 C 116.851562 84.609375 117.84375 85.761719 117.84375 87.632812 C 117.84375 89.777344 116.910156 92.679688 115.617188 94.546875 C 114.527344 96.117188 113.292969 96.890625 111.902344 96.890625 C 110.234375 96.890625 109.320312 95.679688 109.320312 93.535156 C 109.320312 91.664062 110.3125 88.703125 111.503906 86.976562 C 112.617188 85.367188 113.832031 84.609375 115.28125 84.609375 Z M 115.28125 84.609375 "/>
<path fill="none" stroke-width="6" stroke-linecap="round" stroke-linejoin="round" stroke="rgb(0%, 0%, 0%)" stroke-opacity="1" stroke-miterlimit="4" d="M 3151.994903 2121.663459 C 3171.00532 2178.662158 3230.005972 2363.671928 3269.996208 2464.664769 C 3308.993604 2565.673885 3348.007277 2653.662169 3387.997512 2729.671285 C 3426.994909 2805.664125 3465.992306 2868.668684 3505.998817 2919.6778 C 3546.005328 2970.670639 3587.997517 3010.677151 3626.994913 3035.677151 C 3665.99231 3060.677152 3703.00403 3070.670642 3742.001426 3070.670642 C 3780.998823 3071.66348 3821.998173 3062.662829 3860.99557 3037.662828 C 3901.002081 3011.669989 3939.006639 2970.670639 3978.004036 2919.6778 C 4017.001433 2868.668684 4057.007944 2804.671287 4096.005341 2729.671285 C 4135.002737 2653.662169 4174.992973 2567.675839 4214.006645 2466.666722 C 4253.004042 2365.673881 4307.007949 2193.668669 4332.00795 2121.663459 " transform="matrix(0.24, 0, 0, -0.24, -690.76001, 790)"/>
<path fill-rule="nonzero" fill="rgb(0%, 0%, 0%)" fill-opacity="1" d="M 117.339844 127.644531 L 115.3125 127.644531 L 115.3125 118.800781 L 114.4375 118.800781 L 108.199219 127.644531 L 108.199219 128.917969 L 113.78125 128.917969 L 113.78125 132.238281 L 115.3125 132.238281 L 115.3125 128.917969 L 117.339844 128.917969 L 117.339844 127.644531 M 113.761719 127.644531 L 108.992188 127.644531 L 113.761719 120.828125 Z M 113.761719 127.644531 "/>
<path fill-rule="nonzero" fill="rgb(0%, 0%, 0%)" fill-opacity="1" d="M 96.179688 126.394531 L 96.179688 127.488281 L 106.59375 127.488281 L 106.59375 126.394531 Z M 96.179688 126.394531 "/>
<g clip-path="url(#clip-0)">
<path fill-rule="nonzero" fill="rgb(0%, 0%, 0%)" fill-opacity="1" d="M 167.320312 102.394531 L 167.0625 102.296875 C 166.324219 103.429688 166.066406 103.605469 165.171875 103.605469 L 160.421875 103.605469 L 163.761719 100.109375 C 165.53125 98.261719 166.304688 96.75 166.304688 95.199219 C 166.304688 93.210938 164.695312 91.679688 162.628906 91.679688 C 161.535156 91.679688 160.503906 92.117188 159.765625 92.914062 C 159.132812 93.589844 158.832031 94.226562 158.496094 95.636719 L 158.914062 95.734375 C 159.707031 93.789062 160.421875 93.152344 161.792969 93.152344 C 163.464844 93.152344 164.597656 94.285156 164.597656 95.953125 C 164.597656 97.503906 163.683594 99.355469 162.011719 101.121094 L 158.476562 104.878906 L 158.476562 105.117188 L 166.226562 105.117188 Z M 167.320312 102.394531 "/>
</g>
<path fill-rule="nonzero" fill="rgb(0%, 0%, 0%)" fill-opacity="1" d="M 256.261719 91.023438 C 253.996094 91.222656 252.84375 91.597656 251.394531 92.613281 C 249.246094 94.144531 248.074219 96.410156 248.074219 99.078125 C 248.074219 100.808594 248.613281 102.5625 249.464844 103.558594 C 250.222656 104.433594 251.292969 104.910156 252.527344 104.910156 C 254.992188 104.910156 256.699219 103.019531 256.699219 100.273438 C 256.699219 97.726562 255.25 96.113281 252.964844 96.113281 C 252.089844 96.113281 251.671875 96.253906 250.421875 97.007812 C 250.957031 94.003906 253.183594 91.859375 256.304688 91.339844 L 256.261719 91.023438 M 252.207031 97.027344 C 253.917969 97.027344 254.910156 98.460938 254.910156 100.949219 C 254.910156 103.140625 254.136719 104.351562 252.746094 104.351562 C 250.996094 104.351562 249.921875 102.484375 249.921875 99.398438 C 249.921875 98.382812 250.082031 97.824219 250.480469 97.527344 C 250.898438 97.207031 251.511719 97.027344 252.207031 97.027344 Z M 252.207031 97.027344 "/>
<path fill="none" stroke-width="6" stroke-linecap="round" stroke-linejoin="round" stroke="rgb(0%, 0%, 0%)" stroke-opacity="1" stroke-miterlimit="4" d="M 3555.00598 2997.672593 L 3555.00598 2949.674545 " transform="matrix(0.24, 0, 0, -0.24, -690.76001, 790)"/>
<path fill="none" stroke-width="6" stroke-linecap="round" stroke-linejoin="round" stroke="rgb(0%, 0%, 0%)" stroke-opacity="1" stroke-miterlimit="4" d="M 3930.998826 2996.663478 L 3930.998826 2948.66543 " transform="matrix(0.24, 0, 0, -0.24, -690.76001, 790)"/>
<path fill="none" stroke-width="6" stroke-linecap="round" stroke-linejoin="round" stroke="rgb(0%, 0%, 0%)" stroke-opacity="1" stroke-miterlimit="4" d="M 3378.996861 2764.664775 L 3432.00793 2764.664775 " transform="matrix(0.24, 0, 0, -0.24, -690.76001, 790)"/>
<path fill-rule="nonzero" fill="rgb(0%, 0%, 0%)" fill-opacity="1" d="M 300.714844 209.679688 C 302.183594 208.722656 302.78125 208.207031 303.515625 207.292969 C 304.929688 205.5625 305.625 203.574219 305.625 201.246094 C 305.625 198.703125 304.886719 196.773438 303.140625 194.746094 C 302.324219 193.789062 301.808594 193.351562 300.773438 192.714844 L 300.535156 193.035156 C 302.125 194.285156 302.664062 194.984375 303.21875 196.472656 C 303.695312 197.804688 303.914062 199.316406 303.914062 201.304688 C 303.914062 203.375 303.65625 205.023438 303.121094 206.238281 C 302.5625 207.492188 301.964844 208.207031 300.535156 209.359375 Z M 300.714844 209.679688 "/>
<path fill-rule="nonzero" fill="rgb(0%, 0%, 0%)" fill-opacity="1" d="M 288.542969 192.714844 C 287.070312 193.671875 286.476562 194.1875 285.738281 195.101562 C 284.328125 196.832031 283.632812 198.820312 283.632812 201.148438 C 283.632812 203.671875 284.367188 205.621094 286.117188 207.648438 C 286.933594 208.605469 287.449219 209.042969 288.484375 209.679688 L 288.722656 209.359375 C 287.132812 208.105469 286.574219 207.410156 286.039062 205.917969 C 285.5625 204.585938 285.34375 203.074219 285.34375 201.085938 C 285.34375 199 285.601562 197.371094 286.136719 196.136719 C 286.695312 194.902344 287.289062 194.1875 288.722656 193.035156 Z M 288.542969 192.714844 "/>
<path fill-rule="nonzero" fill="rgb(0%, 0%, 0%)" fill-opacity="1" d="M 281.21875 198.449219 L 281.21875 197.671875 L 279.691406 197.671875 C 279.292969 197.671875 278.996094 197.609375 278.597656 197.46875 L 278.160156 197.308594 C 277.621094 197.109375 277.085938 197.011719 276.570312 197.011719 C 274.722656 197.011719 273.25 198.449219 273.25 200.257812 C 273.25 201.507812 273.789062 202.265625 275.097656 202.921875 C 274.722656 203.277344 274.363281 203.617188 274.246094 203.714844 C 273.589844 204.292969 273.332031 204.691406 273.332031 205.085938 C 273.332031 205.503906 273.570312 205.742188 274.382812 206.140625 C 272.972656 207.175781 272.4375 207.832031 272.4375 208.566406 C 272.4375 209.621094 273.984375 210.496094 275.875 210.496094 C 277.363281 210.496094 278.914062 209.980469 279.949219 209.144531 C 280.703125 208.527344 281.042969 207.890625 281.042969 207.136719 C 281.042969 205.902344 280.105469 205.066406 278.636719 205.007812 L 276.074219 204.890625 C 275.019531 204.847656 274.523438 204.671875 274.523438 204.351562 C 274.523438 203.953125 275.179688 203.257812 275.714844 203.097656 C 275.894531 203.121094 276.035156 203.140625 276.09375 203.140625 C 276.46875 203.179688 276.730469 203.199219 276.847656 203.199219 C 277.582031 203.199219 278.378906 202.902344 278.996094 202.363281 C 279.648438 201.808594 279.949219 201.113281 279.949219 200.117188 C 279.949219 199.542969 279.847656 199.082031 279.570312 198.449219 L 281.21875 198.449219 M 274.800781 206.203125 C 275.457031 206.339844 277.046875 206.460938 278.019531 206.460938 C 279.828125 206.460938 280.484375 206.71875 280.484375 207.433594 C 280.484375 208.585938 278.972656 209.363281 276.730469 209.363281 C 274.980469 209.363281 273.828125 208.785156 273.828125 207.910156 C 273.828125 207.453125 273.964844 207.195312 274.800781 206.203125 M 274.898438 199.441406 C 274.898438 198.269531 275.457031 197.570312 276.371094 197.570312 C 276.988281 197.570312 277.503906 197.910156 277.820312 198.507812 C 278.179688 199.203125 278.417969 200.117188 278.417969 200.894531 C 278.417969 202.003906 277.839844 202.703125 276.925781 202.703125 C 275.734375 202.703125 274.898438 201.410156 274.898438 199.5 Z M 274.898438 199.441406 "/>
<path fill-rule="nonzero" fill="rgb(0%, 0%, 0%)" fill-opacity="1" d="M 298.589844 203.945312 C 298.429688 204.125 298.332031 204.242188 298.152344 204.484375 C 297.695312 205.078125 297.457031 205.277344 297.238281 205.277344 C 296.9375 205.277344 296.761719 205.019531 296.621094 204.460938 C 296.582031 204.304688 296.5625 204.183594 296.542969 204.125 C 296.042969 202.113281 295.828125 201.199219 295.828125 200.902344 C 296.699219 199.371094 297.417969 198.496094 297.773438 198.496094 C 297.894531 198.496094 298.050781 198.554688 298.25 198.652344 C 298.488281 198.792969 298.628906 198.832031 298.789062 198.832031 C 299.203125 198.832031 299.484375 198.535156 299.484375 198.117188 C 299.484375 197.699219 299.144531 197.378906 298.667969 197.378906 C 297.792969 197.378906 297.039062 198.097656 295.667969 200.226562 L 295.449219 199.132812 C 295.171875 197.777344 294.953125 197.378906 294.414062 197.378906 C 293.976562 197.378906 293.300781 197.558594 292.089844 197.957031 L 291.871094 198.035156 L 291.949219 198.335938 C 292.707031 198.15625 292.886719 198.117188 293.0625 198.117188 C 293.558594 198.117188 293.679688 198.296875 293.957031 199.488281 L 294.535156 201.9375 L 292.90625 204.265625 C 292.507812 204.859375 292.109375 205.21875 291.890625 205.21875 C 291.773438 205.21875 291.574219 205.160156 291.375 205.039062 C 291.117188 204.902344 290.898438 204.839844 290.738281 204.839844 C 290.359375 204.839844 290.0625 205.140625 290.0625 205.535156 C 290.0625 206.054688 290.460938 206.371094 291.054688 206.371094 C 291.671875 206.371094 291.910156 206.191406 292.90625 204.980469 C 293.441406 204.34375 293.859375 203.804688 294.695312 202.652344 L 295.289062 205.039062 C 295.546875 206.054688 295.804688 206.371094 296.441406 206.371094 C 297.199219 206.371094 297.714844 205.894531 298.867188 204.105469 Z M 298.589844 203.945312 "/>
<path fill-rule="nonzero" fill="rgb(0%, 0%, 0%)" fill-opacity="1" d="M 242.175781 198.195312 C 242.4375 198.136719 242.574219 198.117188 242.792969 198.117188 C 243.925781 198.117188 244.226562 198.613281 245.136719 202.039062 C 245.476562 203.332031 245.953125 205.660156 245.953125 205.996094 C 245.953125 206.316406 245.835938 206.636719 245.535156 206.992188 C 244.921875 207.808594 244.523438 208.328125 244.304688 208.566406 C 243.886719 209.003906 243.648438 209.160156 243.390625 209.160156 C 243.269531 209.160156 243.132812 209.101562 242.914062 208.941406 C 242.613281 208.703125 242.394531 208.605469 242.175781 208.605469 C 241.742188 208.605469 241.402344 208.941406 241.402344 209.378906 C 241.402344 209.878906 241.839844 210.253906 242.417969 210.253906 C 243.6875 210.253906 246.292969 207.273438 248.4375 203.332031 C 249.789062 200.882812 250.347656 199.449219 250.347656 198.476562 C 250.347656 197.878906 249.847656 197.378906 249.253906 197.378906 C 248.796875 197.378906 248.476562 197.679688 248.476562 198.117188 C 248.476562 198.414062 248.636719 198.632812 249.035156 198.894531 C 249.410156 199.113281 249.550781 199.292969 249.550781 199.570312 C 249.550781 200.367188 248.816406 201.917969 247.125 204.722656 L 246.730469 202.414062 C 246.429688 200.664062 245.316406 197.378906 245.019531 197.378906 L 244.941406 197.378906 C 244.921875 197.402344 244.839844 197.402344 244.761719 197.402344 C 244.582031 197.421875 243.867188 197.539062 242.8125 197.738281 C 242.714844 197.757812 242.457031 197.816406 242.175781 197.859375 Z M 242.175781 198.195312 "/>
<g clip-path="url(#clip-1)">
<path fill-rule="nonzero" fill="rgb(0%, 0%, 0%)" fill-opacity="1" d="M 266.953125 198.382812 L 256.496094 198.382812 L 256.496094 199.476562 L 266.953125 199.476562 L 266.953125 198.382812 M 266.953125 202.234375 L 256.496094 202.234375 L 256.496094 203.328125 L 266.953125 203.328125 Z M 266.953125 202.234375 "/>
</g>
<path fill-rule="nonzero" fill="rgb(0%, 0%, 0%)" fill-opacity="1" d="M 108.738281 25.875 C 108.996094 25.816406 109.136719 25.796875 109.355469 25.796875 C 110.488281 25.796875 110.785156 26.292969 111.699219 29.71875 C 112.035156 31.011719 112.511719 33.339844 112.511719 33.679688 C 112.511719 33.996094 112.394531 34.316406 112.097656 34.671875 C 111.480469 35.488281 111.082031 36.007812 110.863281 36.246094 C 110.445312 36.683594 110.207031 36.84375 109.949219 36.84375 C 109.832031 36.84375 109.691406 36.78125 109.472656 36.625 C 109.175781 36.382812 108.957031 36.285156 108.738281 36.285156 C 108.300781 36.285156 107.960938 36.625 107.960938 37.0625 C 107.960938 37.558594 108.398438 37.9375 108.976562 37.9375 C 110.246094 37.9375 112.851562 34.953125 114.996094 31.011719 C 116.347656 28.5625 116.90625 27.128906 116.90625 26.15625 C 116.90625 25.558594 116.410156 25.0625 115.8125 25.0625 C 115.355469 25.0625 115.039062 25.359375 115.039062 25.796875 C 115.039062 26.09375 115.195312 26.3125 115.59375 26.574219 C 115.972656 26.792969 116.109375 26.972656 116.109375 27.25 C 116.109375 28.046875 115.375 29.597656 113.6875 32.40625 L 113.289062 30.097656 C 112.992188 28.34375 111.878906 25.0625 111.578125 25.0625 L 111.5 25.0625 C 111.480469 25.082031 111.402344 25.082031 111.320312 25.082031 C 111.140625 25.101562 110.425781 25.21875 109.375 25.417969 C 109.273438 25.4375 109.015625 25.5 108.738281 25.539062 Z M 108.738281 25.875 "/>
</svg>
