<?xml version="1.0" encoding="UTF-8"?>
<svg xmlns="http://www.w3.org/2000/svg" xmlns:xlink="http://www.w3.org/1999/xlink" width="318.459991" height="273.839996" viewBox="0 0 318.459991 273.839996">
<defs>
<clipPath id="clip-0">
<path clip-rule="nonzero" d="M 156 166 L 166.558594 166 L 166.558594 168 L 156 168 Z M 156 166 "/>
</clipPath>
<clipPath id="clip-1">
<path clip-rule="nonzero" d="M 111.121094 128 L 121.679688 128 L 121.679688 130 L 111.121094 130 Z M 111.121094 128 "/>
</clipPath>
</defs>
<path fill="none" stroke-width="6" stroke-linecap="round" stroke-linejoin="round" stroke="rgb(0%, 0%, 0%)" stroke-opacity="1" stroke-miterlimit="4" d="M 3068.001371 5773.664858 L 4216.992282 5773.664858 " transform="matrix(0.24, 0, 0, -0.24, -720, 1496.160004)"/>
<path fill="none" stroke-width="6" stroke-linecap="round" stroke-linejoin="round" stroke="rgb(0%, 0%, 0%)" stroke-opacity="1" stroke-miterlimit="4" d="M 4152.002046 5740.673321 L 4218.001396 5772.672019 L 4152.002046 5805.663556 " transform="matrix(0.24, 0, 0, -0.24, -720, 1496.160004)"/>
<path fill="none" stroke-width="6" stroke-linecap="round" stroke-linejoin="round" stroke="rgb(0%, 0%, 0%)" stroke-opacity="1" stroke-miterlimit="4" d="M 3779.003991 5194.677215 L 3779.003991 6135.676585 " transform="matrix(0.24, 0, 0, -0.24, -720, 1496.160004)"/>
<path fill="none" stroke-width="6" stroke-linecap="round" stroke-linejoin="round" stroke="rgb(0%, 0%, 0%)" stroke-opacity="1" stroke-miterlimit="4" d="M 3811.995528 6069.677234 L 3779.996829 6134.66747 L 3747.005292 6069.677234 " transform="matrix(0.24, 0, 0, -0.24, -720, 1496.160004)"/>
<path fill-rule="nonzero" fill="rgb(0%, 0%, 0%)" fill-opacity="1" d="M 302.789062 128.816406 L 301.191406 128.816406 L 301.75 126.757812 C 301.769531 126.71875 301.769531 126.679688 301.769531 126.660156 C 301.769531 126.519531 301.710938 126.460938 301.609375 126.460938 C 301.488281 126.460938 301.429688 126.480469 301.3125 126.640625 C 300.53125 127.660156 299.292969 128.65625 298.65625 128.835938 C 298.15625 128.996094 298.015625 129.117188 298.015625 129.335938 C 298.015625 129.355469 298.015625 129.394531 298.039062 129.457031 L 299.515625 129.457031 L 298.078125 134.949219 C 298.039062 135.128906 298.015625 135.1875 297.957031 135.367188 C 297.777344 135.964844 297.617188 136.664062 297.617188 136.824219 C 297.617188 137.265625 298.039062 137.582031 298.574219 137.582031 C 299.496094 137.582031 300.152344 137.023438 301.410156 135.167969 L 301.152344 135.027344 C 300.171875 136.285156 299.851562 136.605469 299.535156 136.605469 C 299.355469 136.605469 299.234375 136.445312 299.234375 136.207031 C 299.234375 136.1875 299.234375 136.164062 299.253906 136.105469 L 301.011719 129.457031 L 302.6875 129.457031 Z M 302.789062 128.816406 "/>
<path fill-rule="nonzero" fill="rgb(0%, 0%, 0%)" fill-opacity="1" d="M 287.976562 137.789062 C 288.800781 137.789062 289.121094 137.816406 289.457031 137.941406 C 290.324219 138.25 290.871094 139.046875 290.871094 140.011719 C 290.871094 141.183594 290.074219 142.09375 289.039062 142.09375 C 288.660156 142.09375 288.382812 141.996094 287.867188 141.660156 C 287.445312 141.410156 287.207031 141.3125 286.972656 141.3125 C 286.648438 141.3125 286.441406 141.507812 286.441406 141.800781 C 286.441406 142.289062 287.042969 142.597656 288.019531 142.597656 C 289.09375 142.597656 290.199219 142.234375 290.855469 141.660156 C 291.511719 141.085938 291.875 140.277344 291.875 139.339844 C 291.875 138.628906 291.652344 137.96875 291.246094 137.535156 C 290.96875 137.230469 290.703125 137.0625 290.085938 136.796875 C 291.050781 136.140625 291.398438 135.621094 291.398438 134.867188 C 291.398438 133.734375 290.507812 132.953125 289.21875 132.953125 C 288.523438 132.953125 287.90625 133.1875 287.40625 133.636719 C 286.984375 134.015625 286.777344 134.378906 286.46875 135.214844 L 286.679688 135.273438 C 287.25 134.25 287.878906 133.789062 288.757812 133.789062 C 289.667969 133.789062 290.296875 134.40625 290.296875 135.285156 C 290.296875 135.789062 290.085938 136.292969 289.738281 136.640625 C 289.320312 137.0625 288.925781 137.269531 287.976562 137.605469 Z M 287.976562 137.789062 "/>
<path fill-rule="nonzero" fill="rgb(0%, 0%, 0%)" fill-opacity="1" d="M 259.820312 124.878906 L 259.941406 124.878906 C 260.160156 124.859375 260.398438 124.839844 260.5625 124.839844 C 261.203125 124.839844 261.402344 125.121094 261.402344 126.0625 L 261.402344 135.617188 C 261.402344 136.699219 261.121094 136.957031 259.859375 137.058594 L 259.859375 137.359375 L 264.585938 137.359375 L 264.585938 137.058594 C 263.324219 136.976562 263.082031 136.777344 263.082031 135.675781 L 263.082031 123.71875 L 263.003906 123.679688 C 261.960938 124.019531 261.203125 124.21875 259.820312 124.558594 Z M 259.820312 124.878906 "/>
<path fill-rule="nonzero" fill="rgb(0%, 0%, 0%)" fill-opacity="1" d="M 269.964844 128.144531 C 267.363281 128.144531 265.539062 130.066406 265.539062 132.828125 C 265.539062 135.53125 267.402344 137.554688 269.925781 137.554688 C 272.445312 137.554688 274.367188 135.433594 274.367188 132.667969 C 274.367188 130.046875 272.527344 128.144531 269.964844 128.144531 M 269.703125 128.707031 C 271.386719 128.707031 272.566406 130.628906 272.566406 133.371094 C 272.566406 135.632812 271.664062 136.992188 270.164062 136.992188 C 269.382812 136.992188 268.644531 136.511719 268.222656 135.710938 C 267.660156 134.671875 267.339844 133.269531 267.339844 131.847656 C 267.339844 129.949219 268.28125 128.707031 269.703125 128.707031 Z M 269.703125 128.707031 "/>
<path fill-rule="nonzero" fill="rgb(0%, 0%, 0%)" fill-opacity="1" d="M 284.449219 129.589844 L 284.449219 128.808594 L 282.90625 128.808594 C 282.507812 128.808594 282.207031 128.75 281.804688 128.605469 L 281.367188 128.445312 C 280.824219 128.246094 280.285156 128.144531 279.765625 128.144531 C 277.902344 128.144531 276.421875 129.589844 276.421875 131.414062 C 276.421875 132.675781 276.960938 133.4375 278.28125 134.097656 C 277.902344 134.457031 277.542969 134.796875 277.421875 134.898438 C 276.761719 135.480469 276.5 135.878906 276.5 136.28125 C 276.5 136.699219 276.742188 136.941406 277.5625 137.34375 C 276.140625 138.382812 275.601562 139.042969 275.601562 139.785156 C 275.601562 140.847656 277.160156 141.726562 279.0625 141.726562 C 280.566406 141.726562 282.125 141.207031 283.167969 140.367188 C 283.929688 139.746094 284.269531 139.105469 284.269531 138.34375 C 284.269531 137.101562 283.328125 136.261719 281.847656 136.199219 L 279.261719 136.082031 C 278.203125 136.039062 277.703125 135.859375 277.703125 135.539062 C 277.703125 135.140625 278.363281 134.4375 278.902344 134.277344 C 279.082031 134.296875 279.222656 134.316406 279.285156 134.316406 C 279.664062 134.359375 279.925781 134.378906 280.042969 134.378906 C 280.785156 134.378906 281.585938 134.078125 282.207031 133.535156 C 282.867188 132.976562 283.167969 132.273438 283.167969 131.273438 C 283.167969 130.691406 283.066406 130.234375 282.785156 129.589844 L 284.449219 129.589844 M 277.980469 137.402344 C 278.644531 137.542969 280.246094 137.664062 281.226562 137.664062 C 283.046875 137.664062 283.707031 137.921875 283.707031 138.644531 C 283.707031 139.804688 282.1875 140.585938 279.925781 140.585938 C 278.164062 140.585938 277 140.003906 277 139.125 C 277 138.664062 277.140625 138.402344 277.980469 137.402344 M 278.082031 130.59375 C 278.082031 129.410156 278.644531 128.707031 279.5625 128.707031 C 280.183594 128.707031 280.703125 129.050781 281.023438 129.652344 C 281.386719 130.351562 281.625 131.273438 281.625 132.054688 C 281.625 133.175781 281.046875 133.875 280.125 133.875 C 278.921875 133.875 278.082031 132.574219 278.082031 130.652344 Z M 278.082031 130.59375 "/>
<path fill-rule="nonzero" fill="rgb(0%, 0%, 0%)" fill-opacity="1" d="M 175.738281 117.15625 C 174.070312 117.15625 172.28125 117.949219 170.691406 119.402344 C 168.683594 121.25 167.511719 123.671875 167.511719 126 C 167.511719 128.78125 169.320312 130.75 171.84375 130.75 C 175.976562 130.75 179.992188 126.574219 180.210938 122.082031 C 180.351562 119.28125 178.402344 117.15625 175.738281 117.15625 M 175.5625 117.8125 C 177.132812 117.8125 178.125 118.964844 178.125 120.832031 C 178.125 122.976562 177.191406 125.878906 175.898438 127.746094 C 174.804688 129.316406 173.574219 130.09375 172.183594 130.09375 C 170.511719 130.09375 169.597656 128.878906 169.597656 126.734375 C 169.597656 124.867188 170.59375 121.90625 171.785156 120.175781 C 172.898438 118.566406 174.109375 117.8125 175.5625 117.8125 Z M 175.5625 117.8125 "/>
<path fill="none" stroke-width="6" stroke-linecap="round" stroke-linejoin="round" stroke="rgb(0%, 0%, 0%)" stroke-opacity="1" stroke-miterlimit="4" d="M 3202.002025 6040.673327 L 4097.998138 5271.662894 " transform="matrix(0.24, 0, 0, -0.24, -720, 1496.160004)"/>
<path fill="none" stroke-width="6" stroke-linecap="round" stroke-linejoin="round" stroke="rgb(0%, 0%, 0%)" stroke-opacity="1" stroke-miterlimit="4" d="M 3743.994224 5544.677223 L 3815.006596 5544.677223 " transform="matrix(0.24, 0, 0, -0.24, -720, 1496.160004)"/>
<path fill="none" stroke-width="6" stroke-linecap="round" stroke-linejoin="round" stroke="rgb(0%, 0%, 0%)" stroke-opacity="1" stroke-miterlimit="4" d="M 3511.995521 5738.671367 L 3511.995521 5809.667463 " transform="matrix(0.24, 0, 0, -0.24, -720, 1496.160004)"/>
<path fill-rule="nonzero" fill="rgb(0%, 0%, 0%)" fill-opacity="1" d="M 176.976562 167.644531 L 174.984375 167.644531 L 174.984375 158.953125 L 174.125 158.953125 L 167.992188 167.644531 L 167.992188 168.894531 L 173.480469 168.894531 L 173.480469 172.160156 L 174.984375 172.160156 L 174.984375 168.894531 L 176.976562 168.894531 L 176.976562 167.644531 M 173.460938 167.644531 L 168.773438 167.644531 L 173.460938 160.945312 Z M 173.460938 167.644531 "/>
<g clip-path="url(#clip-0)">
<path fill-rule="nonzero" fill="rgb(0%, 0%, 0%)" fill-opacity="1" d="M 156.214844 166.414062 L 156.214844 167.488281 L 166.449219 167.488281 L 166.449219 166.414062 Z M 156.214844 166.414062 "/>
</g>
<path fill-rule="nonzero" fill="rgb(0%, 0%, 0%)" fill-opacity="1" d="M 125.695312 122.84375 L 129.523438 122.84375 C 129.835938 122.84375 129.914062 122.804688 129.972656 122.667969 L 130.714844 120.929688 L 130.539062 120.792969 C 130.246094 121.203125 130.050781 121.300781 129.640625 121.300781 L 125.558594 121.300781 L 123.429688 125.929688 C 123.410156 125.96875 123.410156 125.988281 123.410156 126.027344 C 123.410156 126.125 123.488281 126.183594 123.644531 126.183594 C 124.269531 126.183594 125.050781 126.320312 125.851562 126.574219 C 128.097656 127.300781 129.132812 128.511719 129.132812 130.445312 C 129.132812 132.320312 127.941406 133.789062 126.417969 133.789062 C 126.027344 133.789062 125.695312 133.648438 125.109375 133.21875 C 124.484375 132.769531 124.035156 132.574219 123.625 132.574219 C 123.058594 132.574219 122.785156 132.808594 122.785156 133.296875 C 122.785156 134.042969 123.703125 134.511719 125.167969 134.511719 C 126.808594 134.511719 128.214844 133.984375 129.191406 132.984375 C 130.089844 132.105469 130.5 130.992188 130.5 129.507812 C 130.5 128.101562 130.128906 127.203125 129.152344 126.222656 C 128.292969 125.363281 127.179688 124.914062 124.875 124.503906 Z M 125.695312 122.84375 "/>
<g clip-path="url(#clip-1)">
<path fill-rule="nonzero" fill="rgb(0%, 0%, 0%)" fill-opacity="1" d="M 111.335938 128.496094 L 111.335938 129.570312 L 121.570312 129.570312 L 121.570312 128.496094 Z M 111.335938 128.496094 "/>
</g>
<path fill-rule="nonzero" fill="rgb(0%, 0%, 0%)" fill-opacity="1" d="M 179.382812 23.054688 C 179.222656 23.238281 179.125 23.355469 178.945312 23.597656 C 178.484375 24.195312 178.246094 24.394531 178.027344 24.394531 C 177.726562 24.394531 177.546875 24.136719 177.40625 23.574219 C 177.367188 23.417969 177.347656 23.296875 177.328125 23.238281 C 176.828125 21.21875 176.609375 20.300781 176.609375 20 C 177.488281 18.460938 178.207031 17.582031 178.566406 17.582031 C 178.683594 17.582031 178.84375 17.640625 179.042969 17.742188 C 179.285156 17.882812 179.421875 17.921875 179.582031 17.921875 C 180.003906 17.921875 180.28125 17.621094 180.28125 17.203125 C 180.28125 16.78125 179.941406 16.464844 179.464844 16.464844 C 178.585938 16.464844 177.828125 17.183594 176.449219 19.320312 L 176.230469 18.222656 C 175.949219 16.863281 175.730469 16.464844 175.191406 16.464844 C 174.753906 16.464844 174.074219 16.644531 172.855469 17.042969 L 172.636719 17.121094 L 172.714844 17.421875 C 173.476562 17.242188 173.65625 17.203125 173.835938 17.203125 C 174.332031 17.203125 174.453125 17.382812 174.734375 18.582031 L 175.3125 21.039062 L 173.675781 23.375 C 173.277344 23.976562 172.875 24.335938 172.65625 24.335938 C 172.535156 24.335938 172.335938 24.273438 172.136719 24.15625 C 171.878906 24.015625 171.660156 23.957031 171.5 23.957031 C 171.121094 23.957031 170.820312 24.253906 170.820312 24.65625 C 170.820312 25.175781 171.21875 25.492188 171.820312 25.492188 C 172.4375 25.492188 172.675781 25.3125 173.675781 24.09375 C 174.214844 23.457031 174.632812 22.917969 175.472656 21.757812 L 176.070312 24.15625 C 176.328125 25.175781 176.589844 25.492188 177.226562 25.492188 C 177.984375 25.492188 178.503906 25.015625 179.664062 23.214844 Z M 179.382812 23.054688 "/>
<path fill-rule="nonzero" fill="rgb(0%, 0%, 0%)" fill-opacity="1" d="M 161.015625 25.707031 C 161.839844 25.707031 162.164062 25.734375 162.5 25.863281 C 163.363281 26.167969 163.910156 26.964844 163.910156 27.929688 C 163.910156 29.105469 163.113281 30.015625 162.078125 30.015625 C 161.703125 30.015625 161.421875 29.917969 160.90625 29.582031 C 160.484375 29.328125 160.25 29.230469 160.011719 29.230469 C 159.691406 29.230469 159.480469 29.425781 159.480469 29.71875 C 159.480469 30.210938 160.082031 30.515625 161.058594 30.515625 C 162.136719 30.515625 163.238281 30.152344 163.894531 29.582031 C 164.550781 29.007812 164.914062 28.195312 164.914062 27.261719 C 164.914062 26.546875 164.691406 25.890625 164.285156 25.457031 C 164.007812 25.148438 163.742188 24.980469 163.125 24.714844 C 164.089844 24.058594 164.441406 23.542969 164.441406 22.785156 C 164.441406 21.652344 163.546875 20.871094 162.261719 20.871094 C 161.5625 20.871094 160.949219 21.109375 160.445312 21.554688 C 160.023438 21.933594 159.816406 22.296875 159.507812 23.136719 L 159.71875 23.191406 C 160.289062 22.171875 160.917969 21.710938 161.800781 21.710938 C 162.707031 21.710938 163.335938 22.324219 163.335938 23.207031 C 163.335938 23.710938 163.125 24.210938 162.777344 24.5625 C 162.359375 24.980469 161.96875 25.191406 161.015625 25.527344 Z M 161.015625 25.707031 "/>
<path fill-rule="nonzero" fill="rgb(0%, 0%, 0%)" fill-opacity="1" d="M 132.859375 12.800781 L 132.980469 12.800781 C 133.199219 12.78125 133.441406 12.757812 133.601562 12.757812 C 134.242188 12.757812 134.441406 13.039062 134.441406 13.980469 L 134.441406 23.535156 C 134.441406 24.617188 134.160156 24.878906 132.898438 24.976562 L 132.898438 25.277344 L 137.625 25.277344 L 137.625 24.976562 C 136.363281 24.898438 136.121094 24.699219 136.121094 23.597656 L 136.121094 11.636719 L 136.042969 11.597656 C 135 11.9375 134.242188 12.140625 132.859375 12.480469 Z M 132.859375 12.800781 "/>
<path fill-rule="nonzero" fill="rgb(0%, 0%, 0%)" fill-opacity="1" d="M 143.003906 16.066406 C 140.402344 16.066406 138.578125 17.988281 138.578125 20.75 C 138.578125 23.453125 140.441406 25.472656 142.964844 25.472656 C 145.488281 25.472656 147.410156 23.351562 147.410156 20.589844 C 147.410156 17.96875 145.566406 16.066406 143.003906 16.066406 M 142.742188 16.625 C 144.425781 16.625 145.605469 18.546875 145.605469 21.289062 C 145.605469 23.550781 144.707031 24.914062 143.203125 24.914062 C 142.421875 24.914062 141.683594 24.433594 141.261719 23.632812 C 140.703125 22.589844 140.382812 21.191406 140.382812 19.769531 C 140.382812 17.867188 141.324219 16.625 142.742188 16.625 Z M 142.742188 16.625 "/>
<path fill-rule="nonzero" fill="rgb(0%, 0%, 0%)" fill-opacity="1" d="M 157.488281 17.511719 L 157.488281 16.730469 L 155.945312 16.730469 C 155.546875 16.730469 155.246094 16.667969 154.847656 16.527344 L 154.40625 16.367188 C 153.863281 16.164062 153.324219 16.066406 152.804688 16.066406 C 150.941406 16.066406 149.460938 17.511719 149.460938 19.332031 C 149.460938 20.59375 150 21.355469 151.324219 22.015625 C 150.941406 22.378906 150.582031 22.71875 150.460938 22.820312 C 149.800781 23.398438 149.539062 23.800781 149.539062 24.199219 C 149.539062 24.621094 149.78125 24.863281 150.601562 25.261719 C 149.179688 26.304688 148.640625 26.964844 148.640625 27.707031 C 148.640625 28.765625 150.203125 29.648438 152.101562 29.648438 C 153.605469 29.648438 155.167969 29.128906 156.207031 28.285156 C 156.96875 27.664062 157.308594 27.023438 157.308594 26.261719 C 157.308594 25.023438 156.367188 24.179688 154.886719 24.121094 L 152.304688 24 C 151.242188 23.960938 150.742188 23.78125 150.742188 23.460938 C 150.742188 23.058594 151.402344 22.359375 151.941406 22.199219 C 152.125 22.21875 152.261719 22.238281 152.324219 22.238281 C 152.703125 22.277344 152.964844 22.296875 153.085938 22.296875 C 153.824219 22.296875 154.625 21.996094 155.246094 21.457031 C 155.90625 20.894531 156.207031 20.195312 156.207031 19.195312 C 156.207031 18.613281 156.105469 18.152344 155.828125 17.511719 L 157.488281 17.511719 M 151.023438 25.320312 C 151.683594 25.460938 153.285156 25.582031 154.265625 25.582031 C 156.085938 25.582031 156.746094 25.84375 156.746094 26.5625 C 156.746094 27.726562 155.226562 28.507812 152.964844 28.507812 C 151.203125 28.507812 150.042969 27.925781 150.042969 27.042969 C 150.042969 26.582031 150.179688 26.324219 151.023438 25.320312 M 151.121094 18.511719 C 151.121094 17.332031 151.683594 16.625 152.605469 16.625 C 153.222656 16.625 153.746094 16.972656 154.066406 17.570312 C 154.425781 18.273438 154.664062 19.195312 154.664062 19.976562 C 154.664062 21.097656 154.085938 21.796875 153.164062 21.796875 C 151.964844 21.796875 151.121094 20.496094 151.121094 18.574219 Z M 151.121094 18.511719 "/>
</svg>
