<?xml version="1.0" encoding="UTF-8"?>
<svg xmlns="http://www.w3.org/2000/svg" xmlns:xlink="http://www.w3.org/1999/xlink" width="372.320007" height="358.459991" viewBox="0 0 372.320007 358.459991">
<defs>
<clipPath id="clip-0">
<path clip-rule="nonzero" d="M 186.578125 87 L 201 87 L 201 101 L 186.578125 101 Z M 186.578125 87 "/>
</clipPath>
</defs>
<g clip-path="url(#clip-0)">
<path fill-rule="nonzero" fill="rgb(0%, 0%, 0%)" fill-opacity="1" d="M 189.644531 87.664062 C 190.875 87.785156 191.171875 87.945312 191.171875 88.480469 C 191.171875 88.78125 191.09375 89.257812 190.953125 89.753906 L 188.511719 98.546875 C 188.152344 99.703125 188.011719 99.820312 186.902344 100.019531 L 186.902344 100.339844 L 191.929688 100.339844 C 194.253906 100.339844 196.378906 99.722656 197.910156 98.609375 C 199.839844 97.195312 200.972656 95.007812 200.972656 92.699219 C 200.972656 89.4375 198.707031 87.347656 195.167969 87.347656 L 189.644531 87.347656 L 189.644531 87.664062 M 193.28125 88.519531 C 193.398438 88.082031 193.699219 87.945312 194.492188 87.945312 C 195.625 87.945312 196.617188 88.203125 197.253906 88.679688 C 198.230469 89.394531 198.765625 90.648438 198.765625 92.222656 C 198.765625 94.371094 197.929688 96.597656 196.578125 97.953125 C 195.40625 99.144531 193.796875 99.742188 191.730469 99.742188 C 190.816406 99.742188 190.4375 99.523438 190.4375 99.007812 C 190.4375 98.746094 190.539062 98.308594 190.875 97.117188 Z M 193.28125 88.519531 "/>
</g>
<path fill-rule="nonzero" fill="rgb(0%, 0%, 0%)" fill-opacity="1" d="M 319.859375 107.296875 L 325.464844 107.296875 C 328.585938 107.296875 330.730469 105.667969 330.730469 103.320312 C 330.730469 102.582031 330.492188 101.886719 330.054688 101.449219 C 329.660156 100.988281 329.261719 100.75 328.226562 100.3125 C 329.636719 99.976562 330.214844 99.738281 330.851562 99.179688 C 331.40625 98.703125 331.707031 98.027344 331.707031 97.230469 C 331.707031 95.339844 330.292969 94.308594 327.730469 94.308594 L 322.601562 94.308594 L 322.601562 94.625 C 323.835938 94.726562 324.132812 94.882812 324.132812 95.441406 C 324.132812 95.738281 324.054688 96.238281 323.914062 96.714844 L 321.46875 105.507812 C 321.113281 106.664062 320.972656 106.78125 319.859375 106.980469 L 319.859375 107.296875 M 324.75 100.710938 C 326.042969 100.710938 326.875 100.789062 327.273438 100.949219 C 328.089844 101.289062 328.585938 102.164062 328.585938 103.238281 C 328.585938 105.386719 327.113281 106.703125 324.691406 106.703125 C 323.855469 106.703125 323.417969 106.402344 323.417969 105.867188 C 323.417969 105.628906 323.65625 104.671875 324.113281 103.078125 C 324.371094 102.183594 324.492188 101.726562 324.75 100.710938 M 326.238281 95.460938 C 326.359375 95.023438 326.597656 94.902344 327.371094 94.902344 C 328.964844 94.902344 329.699219 95.582031 329.699219 97.050781 C 329.699219 98.1875 329.222656 99.0625 328.367188 99.539062 C 327.691406 99.9375 326.738281 100.074219 324.949219 100.074219 Z M 326.238281 95.460938 "/>
<path fill-rule="nonzero" fill="rgb(0%, 0%, 0%)" fill-opacity="1" d="M 40.417969 96.371094 L 41.152344 92.414062 L 40.734375 92.414062 C 40.578125 92.730469 40.378906 92.851562 39.980469 92.851562 C 39.820312 92.851562 39.582031 92.8125 39.164062 92.710938 C 38.269531 92.496094 37.476562 92.375 36.839844 92.375 C 32.605469 92.375 28.769531 96.371094 28.769531 100.78125 C 28.769531 103.820312 30.917969 105.96875 33.957031 105.96875 C 36.003906 105.96875 37.59375 105.09375 39.382812 103.007812 L 39.046875 102.726562 C 37.257812 104.476562 36.105469 105.074219 34.476562 105.074219 C 32.269531 105.074219 30.996094 103.5625 30.996094 101 C 30.996094 98.636719 31.953125 96.230469 33.5 94.621094 C 34.457031 93.648438 35.707031 93.089844 37.019531 93.089844 C 38.847656 93.089844 39.859375 94.164062 40.058594 96.308594 Z M 40.417969 96.371094 "/>
<path fill="none" stroke-width="6" stroke-linecap="round" stroke-linejoin="round" stroke="rgb(0%, 0%, 0%)" stroke-opacity="1" stroke-miterlimit="4" d="M 4279.000696 5304.674585 C 4279.000696 5663.675244 3990.996132 5953.665485 3636.992218 5953.665485 C 3283.00458 5953.665485 2995.992855 5663.675244 2995.992855 5304.674585 C 2995.992855 4946.666765 3283.00458 4655.667409 3636.992218 4655.667409 C 3990.996132 4655.667409 4279.000696 4946.666765 4279.000696 5304.674585 Z M 4279.000696 5304.674585 " transform="matrix(0.24, 0, 0, -0.24, -692.299988, 1457.699997)"/>
<path fill="none" stroke-width="6" stroke-linecap="round" stroke-linejoin="round" stroke="rgb(0%, 0%, 0%)" stroke-opacity="1" stroke-miterlimit="4" d="M 3976.005897 5293.671981 C 3976.005897 5480.667427 3826.005894 5631.676545 3642.005239 5631.676545 C 3456.995469 5631.676545 3308.00458 5480.667427 3308.00458 5293.671981 C 3308.00458 5106.676534 3456.995469 4954.674577 3642.005239 4954.674577 C 3826.005894 4954.674577 3976.005897 5106.676534 3976.005897 5293.671981 Z M 3976.005897 5293.671981 " transform="matrix(0.24, 0, 0, -0.24, -692.299988, 1457.699997)"/>
<path fill="none" stroke-width="6" stroke-linecap="round" stroke-linejoin="round" stroke="rgb(0%, 0%, 0%)" stroke-opacity="1" stroke-miterlimit="4" d="M 3083.004575 5633.662223 L 4190.003298 5633.662223 " transform="matrix(0.24, 0, 0, -0.24, -692.299988, 1457.699997)"/>
<path fill="none" stroke-width="6" stroke-linecap="round" stroke-linejoin="round" stroke="rgb(0%, 0%, 0%)" stroke-opacity="1" stroke-miterlimit="4" d="M 3640.996124 4958.662207 L 3640.996124 5952.672646 " transform="matrix(0.24, 0, 0, -0.24, -692.299988, 1457.699997)"/>
<path fill-rule="nonzero" fill="rgb(0%, 0%, 0%)" fill-opacity="1" d="M 200.429688 195.300781 C 199.296875 195.203125 199.175781 195.042969 198.917969 193.59375 L 197.050781 182.335938 L 196.535156 182.335938 L 190.769531 192.28125 C 189.199219 194.921875 189 195.140625 188.207031 195.300781 L 188.207031 195.617188 L 191.921875 195.617188 L 191.921875 195.300781 C 190.910156 195.203125 190.75 195.101562 190.75 194.605469 C 190.75 194.226562 190.808594 194.050781 191.148438 193.375 L 192.28125 191.128906 L 196.652344 191.128906 L 197.050781 193.730469 C 197.070312 193.910156 197.089844 194.089844 197.089844 194.246094 C 197.089844 195.003906 196.8125 195.179688 195.539062 195.300781 L 195.539062 195.617188 L 200.429688 195.617188 L 200.429688 195.300781 M 192.699219 190.414062 L 195.679688 185.242188 L 196.554688 190.414062 Z M 192.699219 190.414062 "/>
<path fill-rule="nonzero" fill="rgb(0%, 0%, 0%)" fill-opacity="1" d="M 189.820312 8.867188 L 179.941406 8.867188 L 179.941406 9.183594 C 181.175781 9.304688 181.472656 9.464844 181.472656 10 C 181.472656 10.21875 181.351562 10.917969 181.253906 11.273438 L 178.808594 20.070312 C 178.472656 21.203125 178.3125 21.34375 177.199219 21.539062 L 177.199219 21.859375 L 187.277344 21.859375 L 188.507812 18.636719 L 188.191406 18.476562 C 187.257812 19.75 186.738281 20.265625 185.882812 20.664062 C 185.148438 21.003906 183.796875 21.203125 182.308594 21.203125 C 181.195312 21.203125 180.71875 21.003906 180.71875 20.527344 C 180.71875 20.308594 180.9375 19.371094 181.433594 17.621094 C 181.691406 16.746094 181.871094 16.089844 182.070312 15.332031 C 182.765625 15.371094 183.378906 15.390625 183.617188 15.390625 C 184.394531 15.371094 184.949219 15.492188 185.167969 15.691406 C 185.269531 15.789062 185.308594 15.96875 185.308594 16.308594 C 185.308594 16.644531 185.269531 16.90625 185.167969 17.34375 L 185.566406 17.441406 L 186.917969 12.828125 L 186.558594 12.746094 C 185.804688 14.4375 185.625 14.558594 183.816406 14.636719 C 183.578125 14.636719 182.941406 14.65625 182.246094 14.675781 L 183.558594 10.042969 C 183.679688 9.601562 183.898438 9.523438 185.011719 9.523438 C 188.128906 9.523438 188.824219 9.78125 188.824219 10.976562 C 188.824219 11.234375 188.804688 11.53125 188.785156 11.871094 L 189.203125 11.910156 Z M 189.820312 8.867188 "/>
<path fill="none" stroke-width="6" stroke-linecap="round" stroke-linejoin="round" stroke="rgb(0%, 0%, 0%)" stroke-opacity="1" stroke-miterlimit="4" d="M 3626.998728 5285.664168 L 3654.99352 5285.664168 " transform="matrix(0.24, 0, 0, -0.24, -692.299988, 1457.699997)"/>
<path fill-rule="nonzero" fill="rgb(0%, 0%, 0%)" fill-opacity="1" d="M 187.636719 273.105469 L 177.742188 273.105469 L 177.742188 273.425781 C 179.03125 273.542969 179.269531 273.664062 179.269531 274.242188 C 179.269531 274.539062 179.191406 275.035156 179.054688 275.515625 L 176.609375 284.308594 C 176.25 285.5 176.109375 285.621094 174.980469 285.78125 L 174.980469 286.097656 L 179.988281 286.097656 L 179.988281 285.78125 C 178.835938 285.71875 178.476562 285.5 178.476562 284.90625 C 178.476562 284.746094 178.535156 284.449219 178.65625 284.007812 L 179.886719 279.574219 C 180.621094 279.613281 181.058594 279.632812 181.496094 279.632812 C 182.273438 279.632812 182.410156 279.652344 182.589844 279.730469 C 182.886719 279.890625 183.027344 280.148438 183.027344 280.546875 C 183.027344 280.867188 182.988281 281.105469 182.867188 281.722656 L 183.207031 281.820312 L 184.714844 277.164062 L 184.359375 277.066406 C 183.464844 278.855469 183.40625 278.875 180.066406 278.917969 L 181.378906 274.28125 C 181.496094 273.882812 181.777344 273.761719 182.589844 273.761719 C 185.929688 273.761719 186.644531 274.023438 186.644531 275.253906 C 186.644531 275.375 186.644531 275.476562 186.625 275.734375 C 186.605469 275.851562 186.605469 275.871094 186.585938 276.109375 L 187.003906 276.152344 Z M 187.636719 273.105469 "/>
</svg>
