<?xml version="1.0" encoding="UTF-8"?>
<svg xmlns="http://www.w3.org/2000/svg" xmlns:xlink="http://www.w3.org/1999/xlink" width="496.940002" height="356.940002" viewBox="0 0 496.940002 356.940002">
<path fill-rule="nonzero" fill="rgb(0%, 0%, 0%)" fill-opacity="1" d="M 459.300781 253.382812 C 459.144531 253.5625 459.042969 253.679688 458.863281 253.917969 C 458.40625 254.519531 458.167969 254.714844 457.949219 254.714844 C 457.648438 254.714844 457.472656 254.457031 457.332031 253.898438 C 457.292969 253.742188 457.273438 253.621094 457.25 253.5625 C 456.753906 251.546875 456.535156 250.632812 456.535156 250.332031 C 457.410156 248.796875 458.128906 247.921875 458.484375 247.921875 C 458.605469 247.921875 458.765625 247.980469 458.964844 248.082031 C 459.203125 248.21875 459.34375 248.257812 459.5 248.257812 C 459.917969 248.257812 460.199219 247.960938 460.199219 247.542969 C 460.199219 247.125 459.859375 246.804688 459.382812 246.804688 C 458.507812 246.804688 457.75 247.523438 456.375 249.65625 L 456.15625 248.558594 C 455.878906 247.203125 455.660156 246.804688 455.121094 246.804688 C 454.683594 246.804688 454.007812 246.984375 452.792969 247.382812 L 452.574219 247.460938 L 452.652344 247.761719 C 453.410156 247.582031 453.589844 247.542969 453.769531 247.542969 C 454.265625 247.542969 454.386719 247.722656 454.664062 248.917969 L 455.242188 251.367188 L 453.609375 253.699219 C 453.210938 254.296875 452.8125 254.65625 452.59375 254.65625 C 452.472656 254.65625 452.273438 254.597656 452.074219 254.476562 C 451.816406 254.339844 451.597656 254.277344 451.4375 254.277344 C 451.058594 254.277344 450.761719 254.578125 450.761719 254.976562 C 450.761719 255.492188 451.160156 255.8125 451.757812 255.8125 C 452.375 255.8125 452.613281 255.632812 453.609375 254.417969 C 454.144531 253.78125 454.5625 253.242188 455.402344 252.085938 L 455.996094 254.476562 C 456.257812 255.492188 456.515625 255.8125 457.152344 255.8125 C 457.910156 255.8125 458.425781 255.335938 459.582031 253.539062 Z M 459.300781 253.382812 "/>
<path fill="none" stroke-width="6" stroke-linecap="round" stroke-linejoin="round" stroke="rgb(0%, 0%, 0%)" stroke-opacity="1" stroke-miterlimit="4" d="M 2544.007167 1142.673772 L 4279.000696 1141.664658 " transform="matrix(0.24, 0, 0, -0.24, -572.299988, 508.47998)"/>
<path fill="none" stroke-width="6" stroke-linecap="round" stroke-linejoin="round" stroke="rgb(0%, 0%, 0%)" stroke-opacity="1" stroke-miterlimit="4" d="M 4213.994184 1108.67312 L 4279.993534 1140.671819 L 4213.994184 1173.663356 " transform="matrix(0.24, 0, 0, -0.24, -572.299988, 508.47998)"/>
<path fill="none" stroke-width="6" stroke-linecap="round" stroke-linejoin="round" stroke="rgb(0%, 0%, 0%)" stroke-opacity="1" stroke-miterlimit="4" d="M 3033.997413 772.670509 L 3035.006527 2013.669886 " transform="matrix(0.24, 0, 0, -0.24, -572.299988, 508.47998)"/>
<path fill="none" stroke-width="6" stroke-linecap="round" stroke-linejoin="round" stroke="rgb(0%, 0%, 0%)" stroke-opacity="1" stroke-miterlimit="4" d="M 3067.998065 1947.670535 L 3035.999366 2012.677047 L 3003.007829 1947.670535 " transform="matrix(0.24, 0, 0, -0.24, -572.299988, 508.47998)"/>
<path fill-rule="nonzero" fill="rgb(0%, 0%, 0%)" fill-opacity="1" d="M 137.4375 23.222656 C 137.695312 23.164062 137.835938 23.144531 138.054688 23.144531 C 139.191406 23.144531 139.488281 23.640625 140.40625 27.070312 C 140.742188 28.367188 141.21875 30.699219 141.21875 31.039062 C 141.21875 31.355469 141.101562 31.675781 140.800781 32.035156 C 140.1875 32.851562 139.789062 33.371094 139.566406 33.609375 C 139.148438 34.046875 138.910156 34.207031 138.652344 34.207031 C 138.53125 34.207031 138.394531 34.148438 138.175781 33.988281 C 137.875 33.75 137.65625 33.648438 137.4375 33.648438 C 137 33.648438 136.660156 33.988281 136.660156 34.425781 C 136.660156 34.925781 137.101562 35.304688 137.675781 35.304688 C 138.949219 35.304688 141.558594 32.3125 143.710938 28.367188 C 145.0625 25.914062 145.621094 24.480469 145.621094 23.5 C 145.621094 22.902344 145.121094 22.40625 144.523438 22.40625 C 144.066406 22.40625 143.75 22.703125 143.75 23.144531 C 143.75 23.441406 143.910156 23.660156 144.304688 23.921875 C 144.683594 24.140625 144.824219 24.320312 144.824219 24.597656 C 144.824219 25.394531 144.085938 26.949219 142.394531 29.761719 L 141.996094 27.449219 C 141.699219 25.695312 140.582031 22.40625 140.285156 22.40625 L 140.207031 22.40625 C 140.1875 22.425781 140.105469 22.425781 140.027344 22.425781 C 139.847656 22.445312 139.128906 22.566406 138.074219 22.765625 C 137.976562 22.785156 137.71875 22.84375 137.4375 22.882812 Z M 137.4375 23.222656 "/>
<path fill-rule="nonzero" fill="rgb(0%, 0%, 0%)" fill-opacity="1" d="M 144.65625 243.53125 C 142.984375 243.53125 141.191406 244.328125 139.597656 245.78125 C 137.589844 247.632812 136.414062 250.0625 136.414062 252.390625 C 136.414062 255.175781 138.226562 257.148438 140.753906 257.148438 C 144.894531 257.148438 148.917969 252.96875 149.136719 248.46875 C 149.273438 245.660156 147.324219 243.53125 144.65625 243.53125 M 144.476562 244.1875 C 146.050781 244.1875 147.042969 245.34375 147.042969 247.214844 C 147.042969 249.363281 146.109375 252.269531 144.816406 254.140625 C 143.71875 255.714844 142.484375 256.492188 141.09375 256.492188 C 139.421875 256.492188 138.503906 255.277344 138.503906 253.125 C 138.503906 251.253906 139.5 248.289062 140.695312 246.558594 C 141.808594 244.945312 143.023438 244.1875 144.476562 244.1875 Z M 144.476562 244.1875 "/>
<path fill-rule="nonzero" fill="rgb(0%, 0%, 0%)" fill-opacity="1" d="M 295.050781 325.574219 L 292.53125 326.847656 L 292.53125 327.046875 C 292.699219 326.976562 292.855469 326.917969 292.910156 326.890625 C 293.164062 326.792969 293.398438 326.738281 293.539062 326.738281 C 293.832031 326.738281 293.960938 326.945312 293.960938 327.394531 L 293.960938 333.738281 C 293.960938 334.199219 293.847656 334.519531 293.625 334.648438 C 293.414062 334.773438 293.21875 334.816406 292.628906 334.828125 L 292.628906 335.039062 L 296.492188 335.039062 L 296.492188 334.828125 C 295.386719 334.816406 295.164062 334.675781 295.164062 334.003906 L 295.164062 325.601562 Z M 295.050781 325.574219 "/>
<path fill-rule="nonzero" fill="rgb(0%, 0%, 0%)" fill-opacity="1" d="M 288.941406 316.953125 L 283.496094 316.953125 L 283.496094 317.269531 C 284.730469 317.390625 285.03125 317.550781 285.03125 318.128906 C 285.03125 318.410156 284.949219 318.871094 284.8125 319.371094 L 282.355469 328.199219 C 281.996094 329.359375 281.859375 329.480469 280.738281 329.679688 L 280.738281 330 L 290.898438 330 L 292.058594 326.421875 L 291.65625 326.304688 C 290.960938 327.742188 290.421875 328.378906 289.542969 328.820312 C 288.84375 329.160156 288.023438 329.28125 286.289062 329.28125 C 284.773438 329.28125 284.273438 329.121094 284.273438 328.601562 C 284.273438 328.460938 284.371094 327.980469 284.472656 327.601562 L 286.925781 318.75 C 287.226562 317.730469 287.746094 317.351562 288.941406 317.269531 Z M 288.941406 316.953125 "/>
<path fill="none" stroke-width="6" stroke-linecap="round" stroke-linejoin="round" stroke="rgb(0%, 0%, 0%)" stroke-opacity="1" stroke-miterlimit="4" d="M 2663.994149 1529.669224 L 4119.007203 1529.669224 " transform="matrix(0.24, 0, 0, -0.24, -572.299988, 508.47998)"/>
<path fill="none" stroke-width="6" stroke-linecap="round" stroke-linejoin="round" stroke="rgb(0%, 0%, 0%)" stroke-opacity="1" stroke-miterlimit="4" d="M 3578.007842 834.665953 L 3578.007842 1804.66923 " transform="matrix(0.24, 0, 0, -0.24, -572.299988, 508.47998)"/>
<path fill="none" stroke-width="6" stroke-linecap="round" stroke-linejoin="round" stroke="rgb(0%, 0%, 0%)" stroke-opacity="1" stroke-miterlimit="4" d="M 2704.993499 1768.666625 L 3974.003944 856.671162 " transform="matrix(0.24, 0, 0, -0.24, -572.299988, 508.47998)"/>
<path fill-rule="nonzero" fill="rgb(0%, 0%, 0%)" fill-opacity="1" d="M 401.066406 324.722656 L 400.882812 324.652344 C 400.367188 325.449219 400.183594 325.574219 399.554688 325.574219 L 396.210938 325.574219 L 398.5625 323.113281 C 399.804688 321.8125 400.351562 320.746094 400.351562 319.65625 C 400.351562 318.257812 399.21875 317.179688 397.761719 317.179688 C 396.992188 317.179688 396.265625 317.484375 395.75 318.046875 C 395.300781 318.523438 395.089844 318.96875 394.851562 319.964844 L 395.148438 320.035156 C 395.707031 318.660156 396.210938 318.214844 397.175781 318.214844 C 398.351562 318.214844 399.148438 319.011719 399.148438 320.1875 C 399.148438 321.277344 398.503906 322.582031 397.328125 323.824219 L 394.839844 326.472656 L 394.839844 326.640625 L 400.296875 326.640625 Z M 401.066406 324.722656 "/>
<path fill-rule="nonzero" fill="rgb(0%, 0%, 0%)" fill-opacity="1" d="M 390.941406 308.550781 L 385.492188 308.550781 L 385.492188 308.871094 C 386.730469 308.992188 387.03125 309.152344 387.03125 309.730469 C 387.03125 310.011719 386.949219 310.46875 386.8125 310.96875 L 384.355469 319.800781 C 383.996094 320.960938 383.859375 321.078125 382.738281 321.28125 L 382.738281 321.597656 L 392.898438 321.597656 L 394.058594 318.023438 L 393.65625 317.902344 C 392.960938 319.339844 392.421875 319.980469 391.542969 320.421875 C 390.84375 320.761719 390.023438 320.878906 388.289062 320.878906 C 386.773438 320.878906 386.273438 320.71875 386.273438 320.199219 C 386.273438 320.0625 386.371094 319.582031 386.472656 319.203125 L 388.925781 310.351562 C 389.226562 309.332031 389.746094 308.949219 390.941406 308.871094 Z M 390.941406 308.550781 "/>
<path fill-rule="nonzero" fill="rgb(0%, 0%, 0%)" fill-opacity="1" d="M 432.082031 149.222656 C 432.90625 149.222656 433.226562 149.25 433.5625 149.375 C 434.429688 149.683594 434.976562 150.480469 434.976562 151.449219 C 434.976562 152.625 434.179688 153.535156 433.144531 153.535156 C 432.765625 153.535156 432.484375 153.433594 431.96875 153.097656 C 431.546875 152.847656 431.3125 152.75 431.074219 152.75 C 430.75 152.75 430.542969 152.945312 430.542969 153.238281 C 430.542969 153.730469 431.144531 154.039062 432.121094 154.039062 C 433.199219 154.039062 434.304688 153.671875 434.960938 153.097656 C 435.621094 152.527344 435.984375 151.714844 435.984375 150.777344 C 435.984375 150.0625 435.761719 149.402344 435.355469 148.96875 C 435.074219 148.660156 434.808594 148.492188 434.191406 148.226562 C 435.15625 147.570312 435.507812 147.050781 435.507812 146.296875 C 435.507812 145.160156 434.613281 144.378906 433.324219 144.378906 C 432.625 144.378906 432.011719 144.617188 431.507812 145.0625 C 431.085938 145.441406 430.875 145.804688 430.570312 146.644531 L 430.777344 146.703125 C 431.351562 145.679688 431.980469 145.21875 432.863281 145.21875 C 433.773438 145.21875 434.402344 145.832031 434.402344 146.714844 C 434.402344 147.21875 434.191406 147.722656 433.84375 148.074219 C 433.421875 148.492188 433.03125 148.703125 432.082031 149.039062 Z M 432.082031 149.222656 "/>
<path fill-rule="nonzero" fill="rgb(0%, 0%, 0%)" fill-opacity="1" d="M 426.703125 135.75 L 421.253906 135.75 L 421.253906 136.070312 C 422.492188 136.191406 422.789062 136.351562 422.789062 136.929688 C 422.789062 137.210938 422.710938 137.667969 422.570312 138.167969 L 420.117188 147 C 419.757812 148.160156 419.617188 148.277344 418.5 148.480469 L 418.5 148.796875 L 428.660156 148.796875 L 429.816406 145.222656 L 429.417969 145.101562 C 428.71875 146.539062 428.179688 147.179688 427.300781 147.621094 C 426.601562 147.960938 425.785156 148.078125 424.046875 148.078125 C 422.53125 148.078125 422.03125 147.917969 422.03125 147.398438 C 422.03125 147.261719 422.132812 146.78125 422.230469 146.402344 L 424.6875 137.550781 C 424.988281 136.53125 425.503906 136.148438 426.703125 136.070312 Z M 426.703125 135.75 "/>
<path fill-rule="nonzero" fill="rgb(0%, 0%, 0%)" fill-opacity="1" d="M 272.976562 243.523438 L 276.871094 243.523438 C 277.191406 243.523438 277.269531 243.484375 277.328125 243.34375 L 278.085938 241.574219 L 277.90625 241.433594 C 277.605469 241.851562 277.410156 241.953125 276.992188 241.953125 L 272.835938 241.953125 L 270.671875 246.664062 C 270.652344 246.703125 270.652344 246.722656 270.652344 246.765625 C 270.652344 246.863281 270.730469 246.921875 270.890625 246.921875 C 271.527344 246.921875 272.320312 247.0625 273.136719 247.320312 C 275.421875 248.058594 276.472656 249.289062 276.472656 251.257812 C 276.472656 253.167969 275.261719 254.660156 273.710938 254.660156 C 273.316406 254.660156 272.976562 254.519531 272.378906 254.082031 C 271.746094 253.625 271.289062 253.425781 270.871094 253.425781 C 270.292969 253.425781 270.015625 253.664062 270.015625 254.160156 C 270.015625 254.917969 270.949219 255.394531 272.441406 255.394531 C 274.109375 255.394531 275.539062 254.855469 276.535156 253.84375 C 277.449219 252.949219 277.867188 251.816406 277.867188 250.304688 C 277.867188 248.871094 277.488281 247.957031 276.496094 246.964844 C 275.621094 246.089844 274.488281 245.632812 272.140625 245.214844 Z M 272.976562 243.523438 "/>
<path fill-rule="nonzero" fill="rgb(0%, 0%, 0%)" fill-opacity="1" d="M 142.582031 153.761719 C 143.753906 153.761719 144.210938 153.800781 144.6875 153.980469 C 145.917969 154.417969 146.695312 155.550781 146.695312 156.921875 C 146.695312 158.59375 145.5625 159.886719 144.089844 159.886719 C 143.554688 159.886719 143.15625 159.746094 142.421875 159.269531 C 141.824219 158.910156 141.488281 158.773438 141.148438 158.773438 C 140.691406 158.773438 140.394531 159.050781 140.394531 159.46875 C 140.394531 160.164062 141.25 160.601562 142.640625 160.601562 C 144.171875 160.601562 145.742188 160.082031 146.675781 159.269531 C 147.609375 158.453125 148.125 157.300781 148.125 155.96875 C 148.125 154.953125 147.808594 154.019531 147.230469 153.402344 C 146.832031 152.964844 146.457031 152.726562 145.582031 152.347656 C 146.953125 151.414062 147.449219 150.679688 147.449219 149.605469 C 147.449219 147.992188 146.175781 146.878906 144.347656 146.878906 C 143.355469 146.878906 142.480469 147.21875 141.765625 147.855469 C 141.167969 148.390625 140.871094 148.910156 140.433594 150.101562 L 140.730469 150.179688 C 141.546875 148.730469 142.441406 148.074219 143.695312 148.074219 C 144.984375 148.074219 145.878906 148.949219 145.878906 150.199219 C 145.878906 150.917969 145.582031 151.632812 145.085938 152.128906 C 144.488281 152.726562 143.933594 153.023438 142.582031 153.503906 Z M 142.582031 153.761719 "/>
<path fill="none" stroke-width="6" stroke-linecap="round" stroke-linejoin="round" stroke="rgb(0%, 0%, 0%)" stroke-opacity="1" stroke-miterlimit="4" d="M 3579.993519 1216.664659 L 3654.99352 1216.664659 L 3654.99352 1141.664658 " transform="matrix(0.24, 0, 0, -0.24, -572.299988, 508.47998)"/>
<path fill="none" stroke-width="6" stroke-linecap="round" stroke-linejoin="round" stroke="rgb(0%, 0%, 0%)" stroke-opacity="1" stroke-miterlimit="4" d="M 3035.999366 1605.662064 L 3110.999368 1605.662064 L 3110.999368 1530.662062 " transform="matrix(0.24, 0, 0, -0.24, -572.299988, 508.47998)"/>
</svg>
